ISO-10303-21;
HEADER;
/* Generated by software containing ST-Developer
 * from STEP Tools, Inc. (www.steptools.com) 
 */

FILE_DESCRIPTION(
/* description */ (''),
/* implementation_level */ '2;1');

FILE_NAME(
/* name */ '817-22-004-30-001101.step',
/* time_stamp */ '2026-07-08T13:22:50-10:00',
/* author */ (''),
/* organization */ (''),
/* preprocessor_version */ 'ST-DEVELOPER v20.1',
/* originating_system */ 'Autodesk Translation Framework v15.8.0.0',
/* authorisation */ '');

FILE_SCHEMA (('AUTOMOTIVE_DESIGN { 1 0 10303 214 3 1 1 }'));
ENDSEC;

DATA;
#10=MECHANICAL_DESIGN_GEOMETRIC_PRESENTATION_REPRESENTATION('',(#13,#14,
#15,#16,#17),#1111);
#11=SHAPE_REPRESENTATION_RELATIONSHIP('SRR','None',#1118,#12);
#12=ADVANCED_BREP_SHAPE_REPRESENTATION('',(#18,#19,#20,#21,#22),#1110);
#13=STYLED_ITEM('',(#1128),#18);
#14=STYLED_ITEM('',(#1128),#19);
#15=STYLED_ITEM('',(#1128),#20);
#16=STYLED_ITEM('',(#1128),#21);
#17=STYLED_ITEM('',(#1129),#22);
#18=MANIFOLD_SOLID_BREP('Body1',#567);
#19=MANIFOLD_SOLID_BREP('Body2',#568);
#20=MANIFOLD_SOLID_BREP('Body3',#569);
#21=MANIFOLD_SOLID_BREP('Body4',#570);
#22=MANIFOLD_SOLID_BREP('Body5',#571);
#23=FACE_BOUND('',#180,.T.);
#24=FACE_BOUND('',#183,.T.);
#25=FACE_BOUND('',#190,.T.);
#26=FACE_BOUND('',#193,.T.);
#27=FACE_BOUND('',#200,.T.);
#28=FACE_BOUND('',#203,.T.);
#29=FACE_BOUND('',#210,.T.);
#30=FACE_BOUND('',#213,.T.);
#31=FACE_BOUND('',#224,.T.);
#32=FACE_BOUND('',#225,.T.);
#33=FACE_BOUND('',#226,.T.);
#34=FACE_BOUND('',#227,.T.);
#35=FACE_BOUND('',#229,.T.);
#36=FACE_BOUND('',#230,.T.);
#37=FACE_BOUND('',#231,.T.);
#38=FACE_BOUND('',#232,.T.);
#39=PLANE('',#590);
#40=PLANE('',#594);
#41=PLANE('',#598);
#42=PLANE('',#599);
#43=PLANE('',#605);
#44=PLANE('',#609);
#45=PLANE('',#613);
#46=PLANE('',#614);
#47=PLANE('',#620);
#48=PLANE('',#624);
#49=PLANE('',#628);
#50=PLANE('',#629);
#51=PLANE('',#635);
#52=PLANE('',#639);
#53=PLANE('',#643);
#54=PLANE('',#644);
#55=PLANE('',#657);
#56=PLANE('',#658);
#57=PLANE('',#659);
#58=PLANE('',#660);
#59=PLANE('',#661);
#60=PLANE('',#662);
#61=LINE('',#884,#89);
#62=LINE('',#891,#90);
#63=LINE('',#898,#91);
#64=LINE('',#936,#92);
#65=LINE('',#943,#93);
#66=LINE('',#950,#94);
#67=LINE('',#988,#95);
#68=LINE('',#995,#96);
#69=LINE('',#1002,#97);
#70=LINE('',#1040,#98);
#71=LINE('',#1047,#99);
#72=LINE('',#1054,#100);
#73=LINE('',#1062,#101);
#74=LINE('',#1068,#102);
#75=LINE('',#1074,#103);
#76=LINE('',#1080,#104);
#77=LINE('',#1085,#105);
#78=LINE('',#1087,#106);
#79=LINE('',#1089,#107);
#80=LINE('',#1090,#108);
#81=LINE('',#1093,#109);
#82=LINE('',#1095,#110);
#83=LINE('',#1096,#111);
#84=LINE('',#1099,#112);
#85=LINE('',#1101,#113);
#86=LINE('',#1102,#114);
#87=LINE('',#1104,#115);
#88=LINE('',#1105,#116);
#89=VECTOR('',#673,0.535);
#90=VECTOR('',#682,0.75);
#91=VECTOR('',#691,0.915);
#92=VECTOR('',#706,0.535);
#93=VECTOR('',#715,0.75);
#94=VECTOR('',#724,0.915);
#95=VECTOR('',#739,0.535);
#96=VECTOR('',#748,0.75);
#97=VECTOR('',#757,0.915);
#98=VECTOR('',#772,0.535);
#99=VECTOR('',#781,0.75);
#100=VECTOR('',#790,0.915);
#101=VECTOR('',#801,0.75);
#102=VECTOR('',#808,0.75);
#103=VECTOR('',#815,0.75);
#104=VECTOR('',#822,0.75);
#105=VECTOR('',#827,10.);
#106=VECTOR('',#828,10.);
#107=VECTOR('',#829,10.);
#108=VECTOR('',#830,10.);
#109=VECTOR('',#833,10.);
#110=VECTOR('',#834,10.);
#111=VECTOR('',#835,10.);
#112=VECTOR('',#838,10.);
#113=VECTOR('',#839,10.);
#114=VECTOR('',#840,10.);
#115=VECTOR('',#843,10.);
#116=VECTOR('',#844,10.);
#117=CYLINDRICAL_SURFACE('',#588,0.535);
#118=CYLINDRICAL_SURFACE('',#591,0.75);
#119=CYLINDRICAL_SURFACE('',#595,0.915);
#120=CYLINDRICAL_SURFACE('',#603,0.535);
#121=CYLINDRICAL_SURFACE('',#606,0.75);
#122=CYLINDRICAL_SURFACE('',#610,0.915);
#123=CYLINDRICAL_SURFACE('',#618,0.535);
#124=CYLINDRICAL_SURFACE('',#621,0.75);
#125=CYLINDRICAL_SURFACE('',#625,0.915);
#126=CYLINDRICAL_SURFACE('',#633,0.535);
#127=CYLINDRICAL_SURFACE('',#636,0.75);
#128=CYLINDRICAL_SURFACE('',#640,0.915);
#129=CYLINDRICAL_SURFACE('',#645,0.75);
#130=CYLINDRICAL_SURFACE('',#648,0.75);
#131=CYLINDRICAL_SURFACE('',#651,0.75);
#132=CYLINDRICAL_SURFACE('',#654,0.75);
#133=FACE_OUTER_BOUND('',#175,.T.);
#134=FACE_OUTER_BOUND('',#176,.T.);
#135=FACE_OUTER_BOUND('',#177,.T.);
#136=FACE_OUTER_BOUND('',#178,.T.);
#137=FACE_OUTER_BOUND('',#179,.T.);
#138=FACE_OUTER_BOUND('',#181,.T.);
#139=FACE_OUTER_BOUND('',#182,.T.);
#140=FACE_OUTER_BOUND('',#184,.T.);
#141=FACE_OUTER_BOUND('',#185,.T.);
#142=FACE_OUTER_BOUND('',#186,.T.);
#143=FACE_OUTER_BOUND('',#187,.T.);
#144=FACE_OUTER_BOUND('',#188,.T.);
#145=FACE_OUTER_BOUND('',#189,.T.);
#146=FACE_OUTER_BOUND('',#191,.T.);
#147=FACE_OUTER_BOUND('',#192,.T.);
#148=FACE_OUTER_BOUND('',#194,.T.);
#149=FACE_OUTER_BOUND('',#195,.T.);
#150=FACE_OUTER_BOUND('',#196,.T.);
#151=FACE_OUTER_BOUND('',#197,.T.);
#152=FACE_OUTER_BOUND('',#198,.T.);
#153=FACE_OUTER_BOUND('',#199,.T.);
#154=FACE_OUTER_BOUND('',#201,.T.);
#155=FACE_OUTER_BOUND('',#202,.T.);
#156=FACE_OUTER_BOUND('',#204,.T.);
#157=FACE_OUTER_BOUND('',#205,.T.);
#158=FACE_OUTER_BOUND('',#206,.T.);
#159=FACE_OUTER_BOUND('',#207,.T.);
#160=FACE_OUTER_BOUND('',#208,.T.);
#161=FACE_OUTER_BOUND('',#209,.T.);
#162=FACE_OUTER_BOUND('',#211,.T.);
#163=FACE_OUTER_BOUND('',#212,.T.);
#164=FACE_OUTER_BOUND('',#214,.T.);
#165=FACE_OUTER_BOUND('',#215,.T.);
#166=FACE_OUTER_BOUND('',#216,.T.);
#167=FACE_OUTER_BOUND('',#217,.T.);
#168=FACE_OUTER_BOUND('',#218,.T.);
#169=FACE_OUTER_BOUND('',#219,.T.);
#170=FACE_OUTER_BOUND('',#220,.T.);
#171=FACE_OUTER_BOUND('',#221,.T.);
#172=FACE_OUTER_BOUND('',#222,.T.);
#173=FACE_OUTER_BOUND('',#223,.T.);
#174=FACE_OUTER_BOUND('',#228,.T.);
#175=EDGE_LOOP('',(#385,#386,#387,#388));
#176=EDGE_LOOP('',(#389,#390,#391,#392));
#177=EDGE_LOOP('',(#393));
#178=EDGE_LOOP('',(#394,#395,#396,#397));
#179=EDGE_LOOP('',(#398));
#180=EDGE_LOOP('',(#399));
#181=EDGE_LOOP('',(#400,#401,#402,#403));
#182=EDGE_LOOP('',(#404));
#183=EDGE_LOOP('',(#405));
#184=EDGE_LOOP('',(#406));
#185=EDGE_LOOP('',(#407,#408,#409,#410));
#186=EDGE_LOOP('',(#411,#412,#413,#414));
#187=EDGE_LOOP('',(#415));
#188=EDGE_LOOP('',(#416,#417,#418,#419));
#189=EDGE_LOOP('',(#420));
#190=EDGE_LOOP('',(#421));
#191=EDGE_LOOP('',(#422,#423,#424,#425));
#192=EDGE_LOOP('',(#426));
#193=EDGE_LOOP('',(#427));
#194=EDGE_LOOP('',(#428));
#195=EDGE_LOOP('',(#429,#430,#431,#432));
#196=EDGE_LOOP('',(#433,#434,#435,#436));
#197=EDGE_LOOP('',(#437));
#198=EDGE_LOOP('',(#438,#439,#440,#441));
#199=EDGE_LOOP('',(#442));
#200=EDGE_LOOP('',(#443));
#201=EDGE_LOOP('',(#444,#445,#446,#447));
#202=EDGE_LOOP('',(#448));
#203=EDGE_LOOP('',(#449));
#204=EDGE_LOOP('',(#450));
#205=EDGE_LOOP('',(#451,#452,#453,#454));
#206=EDGE_LOOP('',(#455,#456,#457,#458));
#207=EDGE_LOOP('',(#459));
#208=EDGE_LOOP('',(#460,#461,#462,#463));
#209=EDGE_LOOP('',(#464));
#210=EDGE_LOOP('',(#465));
#211=EDGE_LOOP('',(#466,#467,#468,#469));
#212=EDGE_LOOP('',(#470));
#213=EDGE_LOOP('',(#471));
#214=EDGE_LOOP('',(#472));
#215=EDGE_LOOP('',(#473,#474,#475,#476));
#216=EDGE_LOOP('',(#477,#478,#479,#480));
#217=EDGE_LOOP('',(#481,#482,#483,#484));
#218=EDGE_LOOP('',(#485,#486,#487,#488));
#219=EDGE_LOOP('',(#489,#490,#491,#492));
#220=EDGE_LOOP('',(#493,#494,#495,#496));
#221=EDGE_LOOP('',(#497,#498,#499,#500));
#222=EDGE_LOOP('',(#501,#502,#503,#504));
#223=EDGE_LOOP('',(#505,#506,#507,#508));
#224=EDGE_LOOP('',(#509));
#225=EDGE_LOOP('',(#510));
#226=EDGE_LOOP('',(#511));
#227=EDGE_LOOP('',(#512));
#228=EDGE_LOOP('',(#513,#514,#515,#516));
#229=EDGE_LOOP('',(#517));
#230=EDGE_LOOP('',(#518));
#231=EDGE_LOOP('',(#519));
#232=EDGE_LOOP('',(#520));
#233=CIRCLE('',#585,0.0349999999999999);
#234=CIRCLE('',#586,0.5);
#235=CIRCLE('',#587,0.535);
#236=CIRCLE('',#589,0.535);
#237=CIRCLE('',#592,0.75);
#238=CIRCLE('',#593,0.75);
#239=CIRCLE('',#596,0.915);
#240=CIRCLE('',#597,0.915);
#241=CIRCLE('',#600,0.0349999999999999);
#242=CIRCLE('',#601,0.5);
#243=CIRCLE('',#602,0.535);
#244=CIRCLE('',#604,0.535);
#245=CIRCLE('',#607,0.75);
#246=CIRCLE('',#608,0.75);
#247=CIRCLE('',#611,0.915);
#248=CIRCLE('',#612,0.915);
#249=CIRCLE('',#615,0.035);
#250=CIRCLE('',#616,0.5);
#251=CIRCLE('',#617,0.535);
#252=CIRCLE('',#619,0.535);
#253=CIRCLE('',#622,0.75);
#254=CIRCLE('',#623,0.75);
#255=CIRCLE('',#626,0.915);
#256=CIRCLE('',#627,0.915);
#257=CIRCLE('',#630,0.035);
#258=CIRCLE('',#631,0.5);
#259=CIRCLE('',#632,0.535);
#260=CIRCLE('',#634,0.535);
#261=CIRCLE('',#637,0.75);
#262=CIRCLE('',#638,0.75);
#263=CIRCLE('',#641,0.915);
#264=CIRCLE('',#642,0.915);
#265=CIRCLE('',#646,0.75);
#266=CIRCLE('',#647,0.75);
#267=CIRCLE('',#649,0.75);
#268=CIRCLE('',#650,0.75);
#269=CIRCLE('',#652,0.75);
#270=CIRCLE('',#653,0.75);
#271=CIRCLE('',#655,0.75);
#272=CIRCLE('',#656,0.75);
#273=VERTEX_POINT('',#877);
#274=VERTEX_POINT('',#879);
#275=VERTEX_POINT('',#883);
#276=VERTEX_POINT('',#888);
#277=VERTEX_POINT('',#890);
#278=VERTEX_POINT('',#895);
#279=VERTEX_POINT('',#897);
#280=VERTEX_POINT('',#929);
#281=VERTEX_POINT('',#931);
#282=VERTEX_POINT('',#935);
#283=VERTEX_POINT('',#940);
#284=VERTEX_POINT('',#942);
#285=VERTEX_POINT('',#947);
#286=VERTEX_POINT('',#949);
#287=VERTEX_POINT('',#981);
#288=VERTEX_POINT('',#983);
#289=VERTEX_POINT('',#987);
#290=VERTEX_POINT('',#992);
#291=VERTEX_POINT('',#994);
#292=VERTEX_POINT('',#999);
#293=VERTEX_POINT('',#1001);
#294=VERTEX_POINT('',#1033);
#295=VERTEX_POINT('',#1035);
#296=VERTEX_POINT('',#1039);
#297=VERTEX_POINT('',#1044);
#298=VERTEX_POINT('',#1046);
#299=VERTEX_POINT('',#1051);
#300=VERTEX_POINT('',#1053);
#301=VERTEX_POINT('',#1059);
#302=VERTEX_POINT('',#1061);
#303=VERTEX_POINT('',#1065);
#304=VERTEX_POINT('',#1067);
#305=VERTEX_POINT('',#1071);
#306=VERTEX_POINT('',#1073);
#307=VERTEX_POINT('',#1077);
#308=VERTEX_POINT('',#1079);
#309=VERTEX_POINT('',#1083);
#310=VERTEX_POINT('',#1084);
#311=VERTEX_POINT('',#1086);
#312=VERTEX_POINT('',#1088);
#313=VERTEX_POINT('',#1092);
#314=VERTEX_POINT('',#1094);
#315=VERTEX_POINT('',#1098);
#316=VERTEX_POINT('',#1100);
#317=EDGE_CURVE('',#273,#273,#233,.T.);
#318=EDGE_CURVE('',#273,#274,#234,.T.);
#319=EDGE_CURVE('',#274,#274,#235,.T.);
#320=EDGE_CURVE('',#274,#275,#61,.T.);
#321=EDGE_CURVE('',#275,#275,#236,.T.);
#322=EDGE_CURVE('',#276,#276,#237,.T.);
#323=EDGE_CURVE('',#276,#277,#62,.T.);
#324=EDGE_CURVE('',#277,#277,#238,.T.);
#325=EDGE_CURVE('',#278,#278,#239,.T.);
#326=EDGE_CURVE('',#278,#279,#63,.T.);
#327=EDGE_CURVE('',#279,#279,#240,.T.);
#328=EDGE_CURVE('',#280,#280,#241,.T.);
#329=EDGE_CURVE('',#280,#281,#242,.T.);
#330=EDGE_CURVE('',#281,#281,#243,.T.);
#331=EDGE_CURVE('',#281,#282,#64,.T.);
#332=EDGE_CURVE('',#282,#282,#244,.T.);
#333=EDGE_CURVE('',#283,#283,#245,.T.);
#334=EDGE_CURVE('',#283,#284,#65,.T.);
#335=EDGE_CURVE('',#284,#284,#246,.T.);
#336=EDGE_CURVE('',#285,#285,#247,.T.);
#337=EDGE_CURVE('',#285,#286,#66,.T.);
#338=EDGE_CURVE('',#286,#286,#248,.T.);
#339=EDGE_CURVE('',#287,#287,#249,.T.);
#340=EDGE_CURVE('',#287,#288,#250,.T.);
#341=EDGE_CURVE('',#288,#288,#251,.T.);
#342=EDGE_CURVE('',#288,#289,#67,.T.);
#343=EDGE_CURVE('',#289,#289,#252,.T.);
#344=EDGE_CURVE('',#290,#290,#253,.T.);
#345=EDGE_CURVE('',#290,#291,#68,.T.);
#346=EDGE_CURVE('',#291,#291,#254,.T.);
#347=EDGE_CURVE('',#292,#292,#255,.T.);
#348=EDGE_CURVE('',#292,#293,#69,.T.);
#349=EDGE_CURVE('',#293,#293,#256,.T.);
#350=EDGE_CURVE('',#294,#294,#257,.T.);
#351=EDGE_CURVE('',#294,#295,#258,.T.);
#352=EDGE_CURVE('',#295,#295,#259,.T.);
#353=EDGE_CURVE('',#295,#296,#70,.T.);
#354=EDGE_CURVE('',#296,#296,#260,.T.);
#355=EDGE_CURVE('',#297,#297,#261,.T.);
#356=EDGE_CURVE('',#297,#298,#71,.T.);
#357=EDGE_CURVE('',#298,#298,#262,.T.);
#358=EDGE_CURVE('',#299,#299,#263,.T.);
#359=EDGE_CURVE('',#299,#300,#72,.T.);
#360=EDGE_CURVE('',#300,#300,#264,.T.);
#361=EDGE_CURVE('',#301,#301,#265,.T.);
#362=EDGE_CURVE('',#301,#302,#73,.T.);
#363=EDGE_CURVE('',#302,#302,#266,.T.);
#364=EDGE_CURVE('',#303,#303,#267,.T.);
#365=EDGE_CURVE('',#303,#304,#74,.T.);
#366=EDGE_CURVE('',#304,#304,#268,.T.);
#367=EDGE_CURVE('',#305,#305,#269,.T.);
#368=EDGE_CURVE('',#305,#306,#75,.T.);
#369=EDGE_CURVE('',#306,#306,#270,.T.);
#370=EDGE_CURVE('',#307,#307,#271,.T.);
#371=EDGE_CURVE('',#307,#308,#76,.T.);
#372=EDGE_CURVE('',#308,#308,#272,.T.);
#373=EDGE_CURVE('',#309,#310,#77,.T.);
#374=EDGE_CURVE('',#309,#311,#78,.T.);
#375=EDGE_CURVE('',#312,#311,#79,.T.);
#376=EDGE_CURVE('',#310,#312,#80,.T.);
#377=EDGE_CURVE('',#310,#313,#81,.T.);
#378=EDGE_CURVE('',#314,#312,#82,.T.);
#379=EDGE_CURVE('',#313,#314,#83,.T.);
#380=EDGE_CURVE('',#313,#315,#84,.T.);
#381=EDGE_CURVE('',#316,#314,#85,.T.);
#382=EDGE_CURVE('',#315,#316,#86,.T.);
#383=EDGE_CURVE('',#315,#309,#87,.T.);
#384=EDGE_CURVE('',#311,#316,#88,.T.);
#385=ORIENTED_EDGE('',*,*,#317,.T.);
#386=ORIENTED_EDGE('',*,*,#318,.T.);
#387=ORIENTED_EDGE('',*,*,#319,.T.);
#388=ORIENTED_EDGE('',*,*,#318,.F.);
#389=ORIENTED_EDGE('',*,*,#319,.F.);
#390=ORIENTED_EDGE('',*,*,#320,.T.);
#391=ORIENTED_EDGE('',*,*,#321,.F.);
#392=ORIENTED_EDGE('',*,*,#320,.F.);
#393=ORIENTED_EDGE('',*,*,#317,.F.);
#394=ORIENTED_EDGE('',*,*,#322,.F.);
#395=ORIENTED_EDGE('',*,*,#323,.T.);
#396=ORIENTED_EDGE('',*,*,#324,.F.);
#397=ORIENTED_EDGE('',*,*,#323,.F.);
#398=ORIENTED_EDGE('',*,*,#322,.T.);
#399=ORIENTED_EDGE('',*,*,#321,.T.);
#400=ORIENTED_EDGE('',*,*,#325,.F.);
#401=ORIENTED_EDGE('',*,*,#326,.T.);
#402=ORIENTED_EDGE('',*,*,#327,.T.);
#403=ORIENTED_EDGE('',*,*,#326,.F.);
#404=ORIENTED_EDGE('',*,*,#325,.T.);
#405=ORIENTED_EDGE('',*,*,#324,.T.);
#406=ORIENTED_EDGE('',*,*,#327,.F.);
#407=ORIENTED_EDGE('',*,*,#328,.T.);
#408=ORIENTED_EDGE('',*,*,#329,.T.);
#409=ORIENTED_EDGE('',*,*,#330,.T.);
#410=ORIENTED_EDGE('',*,*,#329,.F.);
#411=ORIENTED_EDGE('',*,*,#330,.F.);
#412=ORIENTED_EDGE('',*,*,#331,.T.);
#413=ORIENTED_EDGE('',*,*,#332,.F.);
#414=ORIENTED_EDGE('',*,*,#331,.F.);
#415=ORIENTED_EDGE('',*,*,#328,.F.);
#416=ORIENTED_EDGE('',*,*,#333,.F.);
#417=ORIENTED_EDGE('',*,*,#334,.T.);
#418=ORIENTED_EDGE('',*,*,#335,.F.);
#419=ORIENTED_EDGE('',*,*,#334,.F.);
#420=ORIENTED_EDGE('',*,*,#333,.T.);
#421=ORIENTED_EDGE('',*,*,#332,.T.);
#422=ORIENTED_EDGE('',*,*,#336,.F.);
#423=ORIENTED_EDGE('',*,*,#337,.T.);
#424=ORIENTED_EDGE('',*,*,#338,.T.);
#425=ORIENTED_EDGE('',*,*,#337,.F.);
#426=ORIENTED_EDGE('',*,*,#336,.T.);
#427=ORIENTED_EDGE('',*,*,#335,.T.);
#428=ORIENTED_EDGE('',*,*,#338,.F.);
#429=ORIENTED_EDGE('',*,*,#339,.T.);
#430=ORIENTED_EDGE('',*,*,#340,.T.);
#431=ORIENTED_EDGE('',*,*,#341,.T.);
#432=ORIENTED_EDGE('',*,*,#340,.F.);
#433=ORIENTED_EDGE('',*,*,#341,.F.);
#434=ORIENTED_EDGE('',*,*,#342,.T.);
#435=ORIENTED_EDGE('',*,*,#343,.F.);
#436=ORIENTED_EDGE('',*,*,#342,.F.);
#437=ORIENTED_EDGE('',*,*,#339,.F.);
#438=ORIENTED_EDGE('',*,*,#344,.F.);
#439=ORIENTED_EDGE('',*,*,#345,.T.);
#440=ORIENTED_EDGE('',*,*,#346,.F.);
#441=ORIENTED_EDGE('',*,*,#345,.F.);
#442=ORIENTED_EDGE('',*,*,#344,.T.);
#443=ORIENTED_EDGE('',*,*,#343,.T.);
#444=ORIENTED_EDGE('',*,*,#347,.F.);
#445=ORIENTED_EDGE('',*,*,#348,.T.);
#446=ORIENTED_EDGE('',*,*,#349,.T.);
#447=ORIENTED_EDGE('',*,*,#348,.F.);
#448=ORIENTED_EDGE('',*,*,#347,.T.);
#449=ORIENTED_EDGE('',*,*,#346,.T.);
#450=ORIENTED_EDGE('',*,*,#349,.F.);
#451=ORIENTED_EDGE('',*,*,#350,.T.);
#452=ORIENTED_EDGE('',*,*,#351,.T.);
#453=ORIENTED_EDGE('',*,*,#352,.T.);
#454=ORIENTED_EDGE('',*,*,#351,.F.);
#455=ORIENTED_EDGE('',*,*,#352,.F.);
#456=ORIENTED_EDGE('',*,*,#353,.T.);
#457=ORIENTED_EDGE('',*,*,#354,.F.);
#458=ORIENTED_EDGE('',*,*,#353,.F.);
#459=ORIENTED_EDGE('',*,*,#350,.F.);
#460=ORIENTED_EDGE('',*,*,#355,.F.);
#461=ORIENTED_EDGE('',*,*,#356,.T.);
#462=ORIENTED_EDGE('',*,*,#357,.F.);
#463=ORIENTED_EDGE('',*,*,#356,.F.);
#464=ORIENTED_EDGE('',*,*,#355,.T.);
#465=ORIENTED_EDGE('',*,*,#354,.T.);
#466=ORIENTED_EDGE('',*,*,#358,.F.);
#467=ORIENTED_EDGE('',*,*,#359,.T.);
#468=ORIENTED_EDGE('',*,*,#360,.T.);
#469=ORIENTED_EDGE('',*,*,#359,.F.);
#470=ORIENTED_EDGE('',*,*,#358,.T.);
#471=ORIENTED_EDGE('',*,*,#357,.T.);
#472=ORIENTED_EDGE('',*,*,#360,.F.);
#473=ORIENTED_EDGE('',*,*,#361,.F.);
#474=ORIENTED_EDGE('',*,*,#362,.T.);
#475=ORIENTED_EDGE('',*,*,#363,.T.);
#476=ORIENTED_EDGE('',*,*,#362,.F.);
#477=ORIENTED_EDGE('',*,*,#364,.F.);
#478=ORIENTED_EDGE('',*,*,#365,.T.);
#479=ORIENTED_EDGE('',*,*,#366,.T.);
#480=ORIENTED_EDGE('',*,*,#365,.F.);
#481=ORIENTED_EDGE('',*,*,#367,.F.);
#482=ORIENTED_EDGE('',*,*,#368,.T.);
#483=ORIENTED_EDGE('',*,*,#369,.T.);
#484=ORIENTED_EDGE('',*,*,#368,.F.);
#485=ORIENTED_EDGE('',*,*,#370,.F.);
#486=ORIENTED_EDGE('',*,*,#371,.T.);
#487=ORIENTED_EDGE('',*,*,#372,.T.);
#488=ORIENTED_EDGE('',*,*,#371,.F.);
#489=ORIENTED_EDGE('',*,*,#373,.F.);
#490=ORIENTED_EDGE('',*,*,#374,.T.);
#491=ORIENTED_EDGE('',*,*,#375,.F.);
#492=ORIENTED_EDGE('',*,*,#376,.F.);
#493=ORIENTED_EDGE('',*,*,#377,.F.);
#494=ORIENTED_EDGE('',*,*,#376,.T.);
#495=ORIENTED_EDGE('',*,*,#378,.F.);
#496=ORIENTED_EDGE('',*,*,#379,.F.);
#497=ORIENTED_EDGE('',*,*,#380,.F.);
#498=ORIENTED_EDGE('',*,*,#379,.T.);
#499=ORIENTED_EDGE('',*,*,#381,.F.);
#500=ORIENTED_EDGE('',*,*,#382,.F.);
#501=ORIENTED_EDGE('',*,*,#383,.F.);
#502=ORIENTED_EDGE('',*,*,#382,.T.);
#503=ORIENTED_EDGE('',*,*,#384,.F.);
#504=ORIENTED_EDGE('',*,*,#374,.F.);
#505=ORIENTED_EDGE('',*,*,#384,.T.);
#506=ORIENTED_EDGE('',*,*,#381,.T.);
#507=ORIENTED_EDGE('',*,*,#378,.T.);
#508=ORIENTED_EDGE('',*,*,#375,.T.);
#509=ORIENTED_EDGE('',*,*,#361,.T.);
#510=ORIENTED_EDGE('',*,*,#364,.T.);
#511=ORIENTED_EDGE('',*,*,#367,.T.);
#512=ORIENTED_EDGE('',*,*,#370,.T.);
#513=ORIENTED_EDGE('',*,*,#383,.T.);
#514=ORIENTED_EDGE('',*,*,#373,.T.);
#515=ORIENTED_EDGE('',*,*,#377,.T.);
#516=ORIENTED_EDGE('',*,*,#380,.T.);
#517=ORIENTED_EDGE('',*,*,#372,.F.);
#518=ORIENTED_EDGE('',*,*,#369,.F.);
#519=ORIENTED_EDGE('',*,*,#363,.F.);
#520=ORIENTED_EDGE('',*,*,#366,.F.);
#521=(
BOUNDED_SURFACE()
B_SPLINE_SURFACE(2,2,((#850,#851,#852,#853,#854,#855,#856,#857,#858),(#859,
#860,#861,#862,#863,#864,#865,#866,#867),(#868,#869,#870,#871,#872,#873,
#874,#875,#876)),.UNSPECIFIED.,.F.,.T.,.F.)
B_SPLINE_SURFACE_WITH_KNOTS((3,3),(3,2,2,2,3),(0.,1.5707963267949),(-3.14159265358979,
-1.5707963267949,0.,1.5707963267949,3.14159265358979),.UNSPECIFIED.)
GEOMETRIC_REPRESENTATION_ITEM()
RATIONAL_B_SPLINE_SURFACE(((1.,0.707106781186548,1.,0.707106781186548,1.,
0.707106781186548,1.,0.707106781186548,1.),(0.707106781186549,0.500000000000001,
0.707106781186549,0.500000000000001,0.707106781186549,0.500000000000001,
0.707106781186549,0.500000000000001,0.707106781186549),(1.,0.707106781186548,
1.,0.707106781186548,1.,0.707106781186548,1.,0.707106781186548,1.)))
REPRESENTATION_ITEM('')
SURFACE()
);
#522=(
BOUNDED_SURFACE()
B_SPLINE_SURFACE(2,2,((#902,#903,#904,#905,#906,#907,#908,#909,#910),(#911,
#912,#913,#914,#915,#916,#917,#918,#919),(#920,#921,#922,#923,#924,#925,
#926,#927,#928)),.UNSPECIFIED.,.F.,.T.,.F.)
B_SPLINE_SURFACE_WITH_KNOTS((3,3),(3,2,2,2,3),(0.,1.5707963267949),(-3.14159265358979,
-1.5707963267949,0.,1.5707963267949,3.14159265358979),.UNSPECIFIED.)
GEOMETRIC_REPRESENTATION_ITEM()
RATIONAL_B_SPLINE_SURFACE(((1.,0.707106781186548,1.,0.707106781186548,1.,
0.707106781186548,1.,0.707106781186548,1.),(0.707106781186549,0.500000000000001,
0.707106781186549,0.500000000000001,0.707106781186549,0.500000000000001,
0.707106781186549,0.500000000000001,0.707106781186549),(1.,0.707106781186548,
1.,0.707106781186548,1.,0.707106781186548,1.,0.707106781186548,1.)))
REPRESENTATION_ITEM('')
SURFACE()
);
#523=(
BOUNDED_SURFACE()
B_SPLINE_SURFACE(2,2,((#954,#955,#956,#957,#958,#959,#960,#961,#962),(#963,
#964,#965,#966,#967,#968,#969,#970,#971),(#972,#973,#974,#975,#976,#977,
#978,#979,#980)),.UNSPECIFIED.,.F.,.T.,.F.)
B_SPLINE_SURFACE_WITH_KNOTS((3,3),(3,2,2,2,3),(0.,1.5707963267949),(-3.14159265358979,
-1.5707963267949,0.,1.5707963267949,3.14159265358979),.UNSPECIFIED.)
GEOMETRIC_REPRESENTATION_ITEM()
RATIONAL_B_SPLINE_SURFACE(((1.,0.707106781186548,1.,0.707106781186548,1.,
0.707106781186548,1.,0.707106781186548,1.),(0.707106781186548,0.5,0.707106781186548,
0.5,0.707106781186548,0.5,0.707106781186548,0.5,0.707106781186548),(1.,
0.707106781186548,1.,0.707106781186548,1.,0.707106781186548,1.,0.707106781186548,
1.)))
REPRESENTATION_ITEM('')
SURFACE()
);
#524=(
BOUNDED_SURFACE()
B_SPLINE_SURFACE(2,2,((#1006,#1007,#1008,#1009,#1010,#1011,#1012,#1013,
#1014),(#1015,#1016,#1017,#1018,#1019,#1020,#1021,#1022,#1023),(#1024,#1025,
#1026,#1027,#1028,#1029,#1030,#1031,#1032)),.UNSPECIFIED.,.F.,.T.,.F.)
B_SPLINE_SURFACE_WITH_KNOTS((3,3),(3,2,2,2,3),(0.,1.5707963267949),(-3.14159265358979,
-1.5707963267949,0.,1.5707963267949,3.14159265358979),.UNSPECIFIED.)
GEOMETRIC_REPRESENTATION_ITEM()
RATIONAL_B_SPLINE_SURFACE(((1.,0.707106781186548,1.,0.707106781186548,1.,
0.707106781186548,1.,0.707106781186548,1.),(0.707106781186548,0.5,0.707106781186548,
0.5,0.707106781186548,0.5,0.707106781186548,0.5,0.707106781186548),(1.,
0.707106781186548,1.,0.707106781186548,1.,0.707106781186548,1.,0.707106781186548,
1.)))
REPRESENTATION_ITEM('')
SURFACE()
);
#525=ADVANCED_FACE('',(#133),#521,.F.);
#526=ADVANCED_FACE('',(#134),#117,.T.);
#527=ADVANCED_FACE('',(#135),#39,.T.);
#528=ADVANCED_FACE('',(#136),#118,.T.);
#529=ADVANCED_FACE('',(#137,#23),#40,.T.);
#530=ADVANCED_FACE('',(#138),#119,.T.);
#531=ADVANCED_FACE('',(#139,#24),#41,.T.);
#532=ADVANCED_FACE('',(#140),#42,.F.);
#533=ADVANCED_FACE('',(#141),#522,.F.);
#534=ADVANCED_FACE('',(#142),#120,.T.);
#535=ADVANCED_FACE('',(#143),#43,.T.);
#536=ADVANCED_FACE('',(#144),#121,.T.);
#537=ADVANCED_FACE('',(#145,#25),#44,.T.);
#538=ADVANCED_FACE('',(#146),#122,.T.);
#539=ADVANCED_FACE('',(#147,#26),#45,.T.);
#540=ADVANCED_FACE('',(#148),#46,.F.);
#541=ADVANCED_FACE('',(#149),#523,.F.);
#542=ADVANCED_FACE('',(#150),#123,.T.);
#543=ADVANCED_FACE('',(#151),#47,.T.);
#544=ADVANCED_FACE('',(#152),#124,.T.);
#545=ADVANCED_FACE('',(#153,#27),#48,.T.);
#546=ADVANCED_FACE('',(#154),#125,.T.);
#547=ADVANCED_FACE('',(#155,#28),#49,.T.);
#548=ADVANCED_FACE('',(#156),#50,.F.);
#549=ADVANCED_FACE('',(#157),#524,.F.);
#550=ADVANCED_FACE('',(#158),#126,.T.);
#551=ADVANCED_FACE('',(#159),#51,.T.);
#552=ADVANCED_FACE('',(#160),#127,.T.);
#553=ADVANCED_FACE('',(#161,#29),#52,.T.);
#554=ADVANCED_FACE('',(#162),#128,.T.);
#555=ADVANCED_FACE('',(#163,#30),#53,.T.);
#556=ADVANCED_FACE('',(#164),#54,.F.);
#557=ADVANCED_FACE('',(#165),#129,.F.);
#558=ADVANCED_FACE('',(#166),#130,.F.);
#559=ADVANCED_FACE('',(#167),#131,.F.);
#560=ADVANCED_FACE('',(#168),#132,.F.);
#561=ADVANCED_FACE('',(#169),#55,.T.);
#562=ADVANCED_FACE('',(#170),#56,.T.);
#563=ADVANCED_FACE('',(#171),#57,.T.);
#564=ADVANCED_FACE('',(#172),#58,.T.);
#565=ADVANCED_FACE('',(#173,#31,#32,#33,#34),#59,.T.);
#566=ADVANCED_FACE('',(#174,#35,#36,#37,#38),#60,.F.);
#567=CLOSED_SHELL('',(#525,#526,#527,#528,#529,#530,#531,#532));
#568=CLOSED_SHELL('',(#533,#534,#535,#536,#537,#538,#539,#540));
#569=CLOSED_SHELL('',(#541,#542,#543,#544,#545,#546,#547,#548));
#570=CLOSED_SHELL('',(#549,#550,#551,#552,#553,#554,#555,#556));
#571=CLOSED_SHELL('',(#557,#558,#559,#560,#561,#562,#563,#564,#565,#566));
#572=DERIVED_UNIT_ELEMENT(#574,1.);
#573=DERIVED_UNIT_ELEMENT(#1113,-3.);
#574=(
MASS_UNIT()
NAMED_UNIT(*)
SI_UNIT(.KILO.,.GRAM.)
);
#575=DERIVED_UNIT((#572,#573));
#576=MEASURE_REPRESENTATION_ITEM('density measure',
POSITIVE_RATIO_MEASURE(7850.),#575);
#577=PROPERTY_DEFINITION_REPRESENTATION(#582,#579);
#578=PROPERTY_DEFINITION_REPRESENTATION(#583,#580);
#579=REPRESENTATION('material name',(#581),#1110);
#580=REPRESENTATION('density',(#576),#1110);
#581=DESCRIPTIVE_REPRESENTATION_ITEM('Steel','Steel');
#582=PROPERTY_DEFINITION('material property','material name',#1120);
#583=PROPERTY_DEFINITION('material property','density of part',#1120);
#584=AXIS2_PLACEMENT_3D('',#849,#663,#664);
#585=AXIS2_PLACEMENT_3D('',#878,#665,#666);
#586=AXIS2_PLACEMENT_3D('',#880,#667,#668);
#587=AXIS2_PLACEMENT_3D('',#881,#669,#670);
#588=AXIS2_PLACEMENT_3D('',#882,#671,#672);
#589=AXIS2_PLACEMENT_3D('',#885,#674,#675);
#590=AXIS2_PLACEMENT_3D('',#886,#676,#677);
#591=AXIS2_PLACEMENT_3D('',#887,#678,#679);
#592=AXIS2_PLACEMENT_3D('',#889,#680,#681);
#593=AXIS2_PLACEMENT_3D('',#892,#683,#684);
#594=AXIS2_PLACEMENT_3D('',#893,#685,#686);
#595=AXIS2_PLACEMENT_3D('',#894,#687,#688);
#596=AXIS2_PLACEMENT_3D('',#896,#689,#690);
#597=AXIS2_PLACEMENT_3D('',#899,#692,#693);
#598=AXIS2_PLACEMENT_3D('',#900,#694,#695);
#599=AXIS2_PLACEMENT_3D('',#901,#696,#697);
#600=AXIS2_PLACEMENT_3D('',#930,#698,#699);
#601=AXIS2_PLACEMENT_3D('',#932,#700,#701);
#602=AXIS2_PLACEMENT_3D('',#933,#702,#703);
#603=AXIS2_PLACEMENT_3D('',#934,#704,#705);
#604=AXIS2_PLACEMENT_3D('',#937,#707,#708);
#605=AXIS2_PLACEMENT_3D('',#938,#709,#710);
#606=AXIS2_PLACEMENT_3D('',#939,#711,#712);
#607=AXIS2_PLACEMENT_3D('',#941,#713,#714);
#608=AXIS2_PLACEMENT_3D('',#944,#716,#717);
#609=AXIS2_PLACEMENT_3D('',#945,#718,#719);
#610=AXIS2_PLACEMENT_3D('',#946,#720,#721);
#611=AXIS2_PLACEMENT_3D('',#948,#722,#723);
#612=AXIS2_PLACEMENT_3D('',#951,#725,#726);
#613=AXIS2_PLACEMENT_3D('',#952,#727,#728);
#614=AXIS2_PLACEMENT_3D('',#953,#729,#730);
#615=AXIS2_PLACEMENT_3D('',#982,#731,#732);
#616=AXIS2_PLACEMENT_3D('',#984,#733,#734);
#617=AXIS2_PLACEMENT_3D('',#985,#735,#736);
#618=AXIS2_PLACEMENT_3D('',#986,#737,#738);
#619=AXIS2_PLACEMENT_3D('',#989,#740,#741);
#620=AXIS2_PLACEMENT_3D('',#990,#742,#743);
#621=AXIS2_PLACEMENT_3D('',#991,#744,#745);
#622=AXIS2_PLACEMENT_3D('',#993,#746,#747);
#623=AXIS2_PLACEMENT_3D('',#996,#749,#750);
#624=AXIS2_PLACEMENT_3D('',#997,#751,#752);
#625=AXIS2_PLACEMENT_3D('',#998,#753,#754);
#626=AXIS2_PLACEMENT_3D('',#1000,#755,#756);
#627=AXIS2_PLACEMENT_3D('',#1003,#758,#759);
#628=AXIS2_PLACEMENT_3D('',#1004,#760,#761);
#629=AXIS2_PLACEMENT_3D('',#1005,#762,#763);
#630=AXIS2_PLACEMENT_3D('',#1034,#764,#765);
#631=AXIS2_PLACEMENT_3D('',#1036,#766,#767);
#632=AXIS2_PLACEMENT_3D('',#1037,#768,#769);
#633=AXIS2_PLACEMENT_3D('',#1038,#770,#771);
#634=AXIS2_PLACEMENT_3D('',#1041,#773,#774);
#635=AXIS2_PLACEMENT_3D('',#1042,#775,#776);
#636=AXIS2_PLACEMENT_3D('',#1043,#777,#778);
#637=AXIS2_PLACEMENT_3D('',#1045,#779,#780);
#638=AXIS2_PLACEMENT_3D('',#1048,#782,#783);
#639=AXIS2_PLACEMENT_3D('',#1049,#784,#785);
#640=AXIS2_PLACEMENT_3D('',#1050,#786,#787);
#641=AXIS2_PLACEMENT_3D('',#1052,#788,#789);
#642=AXIS2_PLACEMENT_3D('',#1055,#791,#792);
#643=AXIS2_PLACEMENT_3D('',#1056,#793,#794);
#644=AXIS2_PLACEMENT_3D('',#1057,#795,#796);
#645=AXIS2_PLACEMENT_3D('',#1058,#797,#798);
#646=AXIS2_PLACEMENT_3D('',#1060,#799,#800);
#647=AXIS2_PLACEMENT_3D('',#1063,#802,#803);
#648=AXIS2_PLACEMENT_3D('',#1064,#804,#805);
#649=AXIS2_PLACEMENT_3D('',#1066,#806,#807);
#650=AXIS2_PLACEMENT_3D('',#1069,#809,#810);
#651=AXIS2_PLACEMENT_3D('',#1070,#811,#812);
#652=AXIS2_PLACEMENT_3D('',#1072,#813,#814);
#653=AXIS2_PLACEMENT_3D('',#1075,#816,#817);
#654=AXIS2_PLACEMENT_3D('',#1076,#818,#819);
#655=AXIS2_PLACEMENT_3D('',#1078,#820,#821);
#656=AXIS2_PLACEMENT_3D('',#1081,#823,#824);
#657=AXIS2_PLACEMENT_3D('',#1082,#825,#826);
#658=AXIS2_PLACEMENT_3D('',#1091,#831,#832);
#659=AXIS2_PLACEMENT_3D('',#1097,#836,#837);
#660=AXIS2_PLACEMENT_3D('',#1103,#841,#842);
#661=AXIS2_PLACEMENT_3D('',#1106,#845,#846);
#662=AXIS2_PLACEMENT_3D('',#1107,#847,#848);
#663=DIRECTION('axis',(0.,0.,1.));
#664=DIRECTION('refdir',(1.,0.,0.));
#665=DIRECTION('center_axis',(0.,0.,-1.));
#666=DIRECTION('ref_axis',(1.,0.,0.));
#667=DIRECTION('center_axis',(0.,-1.,0.));
#668=DIRECTION('ref_axis',(-1.,0.,0.));
#669=DIRECTION('center_axis',(0.,0.,1.));
#670=DIRECTION('ref_axis',(1.,0.,0.));
#671=DIRECTION('center_axis',(0.,0.,1.));
#672=DIRECTION('ref_axis',(1.,0.,0.));
#673=DIRECTION('',(0.,0.,-1.));
#674=DIRECTION('center_axis',(0.,0.,-1.));
#675=DIRECTION('ref_axis',(1.,0.,0.));
#676=DIRECTION('center_axis',(0.,0.,1.));
#677=DIRECTION('ref_axis',(1.,0.,0.));
#678=DIRECTION('center_axis',(0.,0.,1.));
#679=DIRECTION('ref_axis',(1.,0.,0.));
#680=DIRECTION('center_axis',(0.,0.,1.));
#681=DIRECTION('ref_axis',(1.,0.,0.));
#682=DIRECTION('',(0.,0.,-1.));
#683=DIRECTION('center_axis',(0.,0.,-1.));
#684=DIRECTION('ref_axis',(1.,0.,0.));
#685=DIRECTION('center_axis',(0.,0.,1.));
#686=DIRECTION('ref_axis',(1.,0.,0.));
#687=DIRECTION('center_axis',(0.,0.,1.));
#688=DIRECTION('ref_axis',(1.,0.,0.));
#689=DIRECTION('center_axis',(0.,0.,1.));
#690=DIRECTION('ref_axis',(1.,0.,0.));
#691=DIRECTION('',(0.,0.,-1.));
#692=DIRECTION('center_axis',(0.,0.,1.));
#693=DIRECTION('ref_axis',(1.,0.,0.));
#694=DIRECTION('center_axis',(0.,0.,1.));
#695=DIRECTION('ref_axis',(1.,0.,0.));
#696=DIRECTION('center_axis',(0.,0.,1.));
#697=DIRECTION('ref_axis',(1.,0.,0.));
#698=DIRECTION('center_axis',(0.,0.,-1.));
#699=DIRECTION('ref_axis',(1.,0.,0.));
#700=DIRECTION('center_axis',(0.,-1.,0.));
#701=DIRECTION('ref_axis',(-1.,0.,0.));
#702=DIRECTION('center_axis',(0.,0.,1.));
#703=DIRECTION('ref_axis',(1.,0.,0.));
#704=DIRECTION('center_axis',(0.,0.,1.));
#705=DIRECTION('ref_axis',(1.,0.,0.));
#706=DIRECTION('',(0.,0.,-1.));
#707=DIRECTION('center_axis',(0.,0.,-1.));
#708=DIRECTION('ref_axis',(1.,0.,0.));
#709=DIRECTION('center_axis',(0.,0.,1.));
#710=DIRECTION('ref_axis',(1.,0.,0.));
#711=DIRECTION('center_axis',(0.,0.,1.));
#712=DIRECTION('ref_axis',(1.,0.,0.));
#713=DIRECTION('center_axis',(0.,0.,1.));
#714=DIRECTION('ref_axis',(1.,0.,0.));
#715=DIRECTION('',(0.,0.,-1.));
#716=DIRECTION('center_axis',(0.,0.,-1.));
#717=DIRECTION('ref_axis',(1.,0.,0.));
#718=DIRECTION('center_axis',(0.,0.,1.));
#719=DIRECTION('ref_axis',(1.,0.,0.));
#720=DIRECTION('center_axis',(0.,0.,1.));
#721=DIRECTION('ref_axis',(1.,0.,0.));
#722=DIRECTION('center_axis',(0.,0.,1.));
#723=DIRECTION('ref_axis',(1.,0.,0.));
#724=DIRECTION('',(0.,0.,-1.));
#725=DIRECTION('center_axis',(0.,0.,1.));
#726=DIRECTION('ref_axis',(1.,0.,0.));
#727=DIRECTION('center_axis',(0.,0.,1.));
#728=DIRECTION('ref_axis',(1.,0.,0.));
#729=DIRECTION('center_axis',(0.,0.,1.));
#730=DIRECTION('ref_axis',(1.,0.,0.));
#731=DIRECTION('center_axis',(0.,0.,-1.));
#732=DIRECTION('ref_axis',(1.,0.,0.));
#733=DIRECTION('center_axis',(0.,-1.,0.));
#734=DIRECTION('ref_axis',(-1.,0.,0.));
#735=DIRECTION('center_axis',(0.,0.,1.));
#736=DIRECTION('ref_axis',(1.,0.,0.));
#737=DIRECTION('center_axis',(0.,0.,1.));
#738=DIRECTION('ref_axis',(1.,0.,0.));
#739=DIRECTION('',(0.,0.,-1.));
#740=DIRECTION('center_axis',(0.,0.,-1.));
#741=DIRECTION('ref_axis',(1.,0.,0.));
#742=DIRECTION('center_axis',(0.,0.,1.));
#743=DIRECTION('ref_axis',(1.,0.,0.));
#744=DIRECTION('center_axis',(0.,0.,1.));
#745=DIRECTION('ref_axis',(1.,0.,0.));
#746=DIRECTION('center_axis',(0.,0.,1.));
#747=DIRECTION('ref_axis',(1.,0.,0.));
#748=DIRECTION('',(0.,0.,-1.));
#749=DIRECTION('center_axis',(0.,0.,-1.));
#750=DIRECTION('ref_axis',(1.,0.,0.));
#751=DIRECTION('center_axis',(0.,0.,1.));
#752=DIRECTION('ref_axis',(1.,0.,0.));
#753=DIRECTION('center_axis',(0.,0.,1.));
#754=DIRECTION('ref_axis',(1.,0.,0.));
#755=DIRECTION('center_axis',(0.,0.,1.));
#756=DIRECTION('ref_axis',(1.,0.,0.));
#757=DIRECTION('',(0.,0.,-1.));
#758=DIRECTION('center_axis',(0.,0.,1.));
#759=DIRECTION('ref_axis',(1.,0.,0.));
#760=DIRECTION('center_axis',(0.,0.,1.));
#761=DIRECTION('ref_axis',(1.,0.,0.));
#762=DIRECTION('center_axis',(0.,0.,1.));
#763=DIRECTION('ref_axis',(1.,0.,0.));
#764=DIRECTION('center_axis',(0.,0.,-1.));
#765=DIRECTION('ref_axis',(1.,0.,0.));
#766=DIRECTION('center_axis',(0.,-1.,0.));
#767=DIRECTION('ref_axis',(-1.,0.,0.));
#768=DIRECTION('center_axis',(0.,0.,1.));
#769=DIRECTION('ref_axis',(1.,0.,0.));
#770=DIRECTION('center_axis',(0.,0.,1.));
#771=DIRECTION('ref_axis',(1.,0.,0.));
#772=DIRECTION('',(0.,0.,-1.));
#773=DIRECTION('center_axis',(0.,0.,-1.));
#774=DIRECTION('ref_axis',(1.,0.,0.));
#775=DIRECTION('center_axis',(0.,0.,1.));
#776=DIRECTION('ref_axis',(1.,0.,0.));
#777=DIRECTION('center_axis',(0.,0.,1.));
#778=DIRECTION('ref_axis',(1.,0.,0.));
#779=DIRECTION('center_axis',(0.,0.,1.));
#780=DIRECTION('ref_axis',(1.,0.,0.));
#781=DIRECTION('',(0.,0.,-1.));
#782=DIRECTION('center_axis',(0.,0.,-1.));
#783=DIRECTION('ref_axis',(1.,0.,0.));
#784=DIRECTION('center_axis',(0.,0.,1.));
#785=DIRECTION('ref_axis',(1.,0.,0.));
#786=DIRECTION('center_axis',(0.,0.,1.));
#787=DIRECTION('ref_axis',(1.,0.,0.));
#788=DIRECTION('center_axis',(0.,0.,1.));
#789=DIRECTION('ref_axis',(1.,0.,0.));
#790=DIRECTION('',(0.,0.,-1.));
#791=DIRECTION('center_axis',(0.,0.,1.));
#792=DIRECTION('ref_axis',(1.,0.,0.));
#793=DIRECTION('center_axis',(0.,0.,1.));
#794=DIRECTION('ref_axis',(1.,0.,0.));
#795=DIRECTION('center_axis',(0.,0.,1.));
#796=DIRECTION('ref_axis',(1.,0.,0.));
#797=DIRECTION('center_axis',(0.,0.,1.));
#798=DIRECTION('ref_axis',(1.,0.,0.));
#799=DIRECTION('center_axis',(0.,0.,-1.));
#800=DIRECTION('ref_axis',(1.,0.,0.));
#801=DIRECTION('',(0.,0.,-1.));
#802=DIRECTION('center_axis',(0.,0.,-1.));
#803=DIRECTION('ref_axis',(1.,0.,0.));
#804=DIRECTION('center_axis',(0.,0.,1.));
#805=DIRECTION('ref_axis',(1.,0.,0.));
#806=DIRECTION('center_axis',(0.,0.,-1.));
#807=DIRECTION('ref_axis',(1.,0.,0.));
#808=DIRECTION('',(0.,0.,-1.));
#809=DIRECTION('center_axis',(0.,0.,-1.));
#810=DIRECTION('ref_axis',(1.,0.,0.));
#811=DIRECTION('center_axis',(0.,0.,1.));
#812=DIRECTION('ref_axis',(1.,0.,0.));
#813=DIRECTION('center_axis',(0.,0.,-1.));
#814=DIRECTION('ref_axis',(1.,0.,0.));
#815=DIRECTION('',(0.,0.,-1.));
#816=DIRECTION('center_axis',(0.,0.,-1.));
#817=DIRECTION('ref_axis',(1.,0.,0.));
#818=DIRECTION('center_axis',(0.,0.,1.));
#819=DIRECTION('ref_axis',(1.,0.,0.));
#820=DIRECTION('center_axis',(0.,0.,-1.));
#821=DIRECTION('ref_axis',(1.,0.,0.));
#822=DIRECTION('',(0.,0.,-1.));
#823=DIRECTION('center_axis',(0.,0.,-1.));
#824=DIRECTION('ref_axis',(1.,0.,0.));
#825=DIRECTION('center_axis',(-1.,0.,0.));
#826=DIRECTION('ref_axis',(0.,-1.,0.));
#827=DIRECTION('',(0.,1.,0.));
#828=DIRECTION('',(0.,0.,1.));
#829=DIRECTION('',(0.,-1.,0.));
#830=DIRECTION('',(0.,0.,1.));
#831=DIRECTION('center_axis',(0.,1.,0.));
#832=DIRECTION('ref_axis',(-1.,0.,0.));
#833=DIRECTION('',(1.,0.,0.));
#834=DIRECTION('',(-1.,0.,0.));
#835=DIRECTION('',(0.,0.,1.));
#836=DIRECTION('center_axis',(1.,0.,0.));
#837=DIRECTION('ref_axis',(0.,1.,0.));
#838=DIRECTION('',(0.,-1.,0.));
#839=DIRECTION('',(0.,1.,0.));
#840=DIRECTION('',(0.,0.,1.));
#841=DIRECTION('center_axis',(0.,-1.,0.));
#842=DIRECTION('ref_axis',(1.,0.,0.));
#843=DIRECTION('',(-1.,0.,0.));
#844=DIRECTION('',(1.,0.,0.));
#845=DIRECTION('center_axis',(0.,0.,1.));
#846=DIRECTION('ref_axis',(1.,0.,0.));
#847=DIRECTION('center_axis',(0.,0.,1.));
#848=DIRECTION('ref_axis',(1.,0.,0.));
#849=CARTESIAN_POINT('',(0.,0.,0.));
#850=CARTESIAN_POINT('Ctrl Pts',(0.735,-1.27,2.04));
#851=CARTESIAN_POINT('Ctrl Pts',(0.735,-1.805,2.04));
#852=CARTESIAN_POINT('Ctrl Pts',(1.27,-1.805,2.04));
#853=CARTESIAN_POINT('Ctrl Pts',(1.805,-1.805,2.04));
#854=CARTESIAN_POINT('Ctrl Pts',(1.805,-1.27,2.04));
#855=CARTESIAN_POINT('Ctrl Pts',(1.805,-0.735,2.04));
#856=CARTESIAN_POINT('Ctrl Pts',(1.27,-0.735,2.04));
#857=CARTESIAN_POINT('Ctrl Pts',(0.735,-0.735,2.04));
#858=CARTESIAN_POINT('Ctrl Pts',(0.735,-1.27,2.04));
#859=CARTESIAN_POINT('Ctrl Pts',(0.735,-1.27,2.54));
#860=CARTESIAN_POINT('Ctrl Pts',(0.735,-1.805,2.54));
#861=CARTESIAN_POINT('Ctrl Pts',(1.27,-1.805,2.54));
#862=CARTESIAN_POINT('Ctrl Pts',(1.805,-1.805,2.54));
#863=CARTESIAN_POINT('Ctrl Pts',(1.805,-1.27,2.54));
#864=CARTESIAN_POINT('Ctrl Pts',(1.805,-0.735,2.54));
#865=CARTESIAN_POINT('Ctrl Pts',(1.27,-0.735,2.54));
#866=CARTESIAN_POINT('Ctrl Pts',(0.735,-0.735,2.54));
#867=CARTESIAN_POINT('Ctrl Pts',(0.735,-1.27,2.54));
#868=CARTESIAN_POINT('Ctrl Pts',(1.235,-1.27,2.54));
#869=CARTESIAN_POINT('Ctrl Pts',(1.235,-1.305,2.54));
#870=CARTESIAN_POINT('Ctrl Pts',(1.27,-1.305,2.54));
#871=CARTESIAN_POINT('Ctrl Pts',(1.305,-1.305,2.54));
#872=CARTESIAN_POINT('Ctrl Pts',(1.305,-1.27,2.54));
#873=CARTESIAN_POINT('Ctrl Pts',(1.305,-1.235,2.54));
#874=CARTESIAN_POINT('Ctrl Pts',(1.27,-1.235,2.54));
#875=CARTESIAN_POINT('Ctrl Pts',(1.235,-1.235,2.54));
#876=CARTESIAN_POINT('Ctrl Pts',(1.235,-1.27,2.54));
#877=CARTESIAN_POINT('',(1.235,-1.27,2.54));
#878=CARTESIAN_POINT('Origin',(1.27,-1.27,2.54));
#879=CARTESIAN_POINT('',(0.735,-1.27,2.04));
#880=CARTESIAN_POINT('Origin',(1.235,-1.27,2.04));
#881=CARTESIAN_POINT('Origin',(1.27,-1.27,2.04));
#882=CARTESIAN_POINT('Origin',(1.27,-1.27,0.));
#883=CARTESIAN_POINT('',(0.735,-1.27,1.94));
#884=CARTESIAN_POINT('',(0.735,-1.27,0.));
#885=CARTESIAN_POINT('Origin',(1.27,-1.27,1.94));
#886=CARTESIAN_POINT('Origin',(1.27,-1.27,2.54));
#887=CARTESIAN_POINT('Origin',(1.27,-1.27,0.));
#888=CARTESIAN_POINT('',(0.52,-1.27,1.94));
#889=CARTESIAN_POINT('Origin',(1.27,-1.27,1.94));
#890=CARTESIAN_POINT('',(0.52,-1.27,0.47));
#891=CARTESIAN_POINT('',(0.52,-1.27,0.));
#892=CARTESIAN_POINT('Origin',(1.27,-1.27,0.47));
#893=CARTESIAN_POINT('Origin',(1.27,-1.27,1.94));
#894=CARTESIAN_POINT('Origin',(1.27,-1.27,0.));
#895=CARTESIAN_POINT('',(0.355,-1.27,0.47));
#896=CARTESIAN_POINT('Origin',(1.27,-1.27,0.47));
#897=CARTESIAN_POINT('',(0.355,-1.27,0.));
#898=CARTESIAN_POINT('',(0.355,-1.27,0.));
#899=CARTESIAN_POINT('Origin',(1.27,-1.27,0.));
#900=CARTESIAN_POINT('Origin',(1.27,-1.27,0.47));
#901=CARTESIAN_POINT('Origin',(1.27,-1.27,0.));
#902=CARTESIAN_POINT('Ctrl Pts',(0.735,1.27,2.04));
#903=CARTESIAN_POINT('Ctrl Pts',(0.735,0.735,2.04));
#904=CARTESIAN_POINT('Ctrl Pts',(1.27,0.735,2.04));
#905=CARTESIAN_POINT('Ctrl Pts',(1.805,0.735,2.04));
#906=CARTESIAN_POINT('Ctrl Pts',(1.805,1.27,2.04));
#907=CARTESIAN_POINT('Ctrl Pts',(1.805,1.805,2.04));
#908=CARTESIAN_POINT('Ctrl Pts',(1.27,1.805,2.04));
#909=CARTESIAN_POINT('Ctrl Pts',(0.735,1.805,2.04));
#910=CARTESIAN_POINT('Ctrl Pts',(0.735,1.27,2.04));
#911=CARTESIAN_POINT('Ctrl Pts',(0.735,1.27,2.54));
#912=CARTESIAN_POINT('Ctrl Pts',(0.735,0.735,2.54));
#913=CARTESIAN_POINT('Ctrl Pts',(1.27,0.735,2.54));
#914=CARTESIAN_POINT('Ctrl Pts',(1.805,0.735,2.54));
#915=CARTESIAN_POINT('Ctrl Pts',(1.805,1.27,2.54));
#916=CARTESIAN_POINT('Ctrl Pts',(1.805,1.805,2.54));
#917=CARTESIAN_POINT('Ctrl Pts',(1.27,1.805,2.54));
#918=CARTESIAN_POINT('Ctrl Pts',(0.735,1.805,2.54));
#919=CARTESIAN_POINT('Ctrl Pts',(0.735,1.27,2.54));
#920=CARTESIAN_POINT('Ctrl Pts',(1.235,1.27,2.54));
#921=CARTESIAN_POINT('Ctrl Pts',(1.235,1.235,2.54));
#922=CARTESIAN_POINT('Ctrl Pts',(1.27,1.235,2.54));
#923=CARTESIAN_POINT('Ctrl Pts',(1.305,1.235,2.54));
#924=CARTESIAN_POINT('Ctrl Pts',(1.305,1.27,2.54));
#925=CARTESIAN_POINT('Ctrl Pts',(1.305,1.305,2.54));
#926=CARTESIAN_POINT('Ctrl Pts',(1.27,1.305,2.54));
#927=CARTESIAN_POINT('Ctrl Pts',(1.235,1.305,2.54));
#928=CARTESIAN_POINT('Ctrl Pts',(1.235,1.27,2.54));
#929=CARTESIAN_POINT('',(1.235,1.27,2.54));
#930=CARTESIAN_POINT('Origin',(1.27,1.27,2.54));
#931=CARTESIAN_POINT('',(0.735,1.27,2.04));
#932=CARTESIAN_POINT('Origin',(1.235,1.27,2.04));
#933=CARTESIAN_POINT('Origin',(1.27,1.27,2.04));
#934=CARTESIAN_POINT('Origin',(1.27,1.27,0.));
#935=CARTESIAN_POINT('',(0.735,1.27,1.94));
#936=CARTESIAN_POINT('',(0.735,1.27,0.));
#937=CARTESIAN_POINT('Origin',(1.27,1.27,1.94));
#938=CARTESIAN_POINT('Origin',(1.27,1.27,2.54));
#939=CARTESIAN_POINT('Origin',(1.27,1.27,0.));
#940=CARTESIAN_POINT('',(0.52,1.27,1.94));
#941=CARTESIAN_POINT('Origin',(1.27,1.27,1.94));
#942=CARTESIAN_POINT('',(0.52,1.27,0.47));
#943=CARTESIAN_POINT('',(0.52,1.27,0.));
#944=CARTESIAN_POINT('Origin',(1.27,1.27,0.47));
#945=CARTESIAN_POINT('Origin',(1.27,1.27,1.94));
#946=CARTESIAN_POINT('Origin',(1.27,1.27,0.));
#947=CARTESIAN_POINT('',(0.355,1.27,0.47));
#948=CARTESIAN_POINT('Origin',(1.27,1.27,0.47));
#949=CARTESIAN_POINT('',(0.355,1.27,0.));
#950=CARTESIAN_POINT('',(0.355,1.27,0.));
#951=CARTESIAN_POINT('Origin',(1.27,1.27,0.));
#952=CARTESIAN_POINT('Origin',(1.27,1.27,0.47));
#953=CARTESIAN_POINT('Origin',(1.27,1.27,0.));
#954=CARTESIAN_POINT('Ctrl Pts',(-1.805,-1.27,2.04));
#955=CARTESIAN_POINT('Ctrl Pts',(-1.805,-1.805,2.04));
#956=CARTESIAN_POINT('Ctrl Pts',(-1.27,-1.805,2.04));
#957=CARTESIAN_POINT('Ctrl Pts',(-0.735,-1.805,2.04));
#958=CARTESIAN_POINT('Ctrl Pts',(-0.735,-1.27,2.04));
#959=CARTESIAN_POINT('Ctrl Pts',(-0.735,-0.735,2.04));
#960=CARTESIAN_POINT('Ctrl Pts',(-1.27,-0.735,2.04));
#961=CARTESIAN_POINT('Ctrl Pts',(-1.805,-0.735,2.04));
#962=CARTESIAN_POINT('Ctrl Pts',(-1.805,-1.27,2.04));
#963=CARTESIAN_POINT('Ctrl Pts',(-1.805,-1.27,2.54));
#964=CARTESIAN_POINT('Ctrl Pts',(-1.805,-1.805,2.54));
#965=CARTESIAN_POINT('Ctrl Pts',(-1.27,-1.805,2.54));
#966=CARTESIAN_POINT('Ctrl Pts',(-0.735,-1.805,2.54));
#967=CARTESIAN_POINT('Ctrl Pts',(-0.735,-1.27,2.54));
#968=CARTESIAN_POINT('Ctrl Pts',(-0.735,-0.735,2.54));
#969=CARTESIAN_POINT('Ctrl Pts',(-1.27,-0.735,2.54));
#970=CARTESIAN_POINT('Ctrl Pts',(-1.805,-0.735,2.54));
#971=CARTESIAN_POINT('Ctrl Pts',(-1.805,-1.27,2.54));
#972=CARTESIAN_POINT('Ctrl Pts',(-1.305,-1.27,2.54));
#973=CARTESIAN_POINT('Ctrl Pts',(-1.305,-1.305,2.54));
#974=CARTESIAN_POINT('Ctrl Pts',(-1.27,-1.305,2.54));
#975=CARTESIAN_POINT('Ctrl Pts',(-1.235,-1.305,2.54));
#976=CARTESIAN_POINT('Ctrl Pts',(-1.235,-1.27,2.54));
#977=CARTESIAN_POINT('Ctrl Pts',(-1.235,-1.235,2.54));
#978=CARTESIAN_POINT('Ctrl Pts',(-1.27,-1.235,2.54));
#979=CARTESIAN_POINT('Ctrl Pts',(-1.305,-1.235,2.54));
#980=CARTESIAN_POINT('Ctrl Pts',(-1.305,-1.27,2.54));
#981=CARTESIAN_POINT('',(-1.305,-1.27,2.54));
#982=CARTESIAN_POINT('Origin',(-1.27,-1.27,2.54));
#983=CARTESIAN_POINT('',(-1.805,-1.27,2.04));
#984=CARTESIAN_POINT('Origin',(-1.305,-1.27,2.04));
#985=CARTESIAN_POINT('Origin',(-1.27,-1.27,2.04));
#986=CARTESIAN_POINT('Origin',(-1.27,-1.27,0.));
#987=CARTESIAN_POINT('',(-1.805,-1.27,1.94));
#988=CARTESIAN_POINT('',(-1.805,-1.27,0.));
#989=CARTESIAN_POINT('Origin',(-1.27,-1.27,1.94));
#990=CARTESIAN_POINT('Origin',(-1.27,-1.27,2.54));
#991=CARTESIAN_POINT('Origin',(-1.27,-1.27,0.));
#992=CARTESIAN_POINT('',(-2.02,-1.27,1.94));
#993=CARTESIAN_POINT('Origin',(-1.27,-1.27,1.94));
#994=CARTESIAN_POINT('',(-2.02,-1.27,0.47));
#995=CARTESIAN_POINT('',(-2.02,-1.27,0.));
#996=CARTESIAN_POINT('Origin',(-1.27,-1.27,0.47));
#997=CARTESIAN_POINT('Origin',(-1.27,-1.27,1.94));
#998=CARTESIAN_POINT('Origin',(-1.27,-1.27,0.));
#999=CARTESIAN_POINT('',(-2.185,-1.27,0.47));
#1000=CARTESIAN_POINT('Origin',(-1.27,-1.27,0.47));
#1001=CARTESIAN_POINT('',(-2.185,-1.27,0.));
#1002=CARTESIAN_POINT('',(-2.185,-1.27,0.));
#1003=CARTESIAN_POINT('Origin',(-1.27,-1.27,0.));
#1004=CARTESIAN_POINT('Origin',(-1.27,-1.27,0.47));
#1005=CARTESIAN_POINT('Origin',(-1.27,-1.27,0.));
#1006=CARTESIAN_POINT('Ctrl Pts',(-1.805,1.27,2.04));
#1007=CARTESIAN_POINT('Ctrl Pts',(-1.805,0.735,2.04));
#1008=CARTESIAN_POINT('Ctrl Pts',(-1.27,0.735,2.04));
#1009=CARTESIAN_POINT('Ctrl Pts',(-0.735,0.735,2.04));
#1010=CARTESIAN_POINT('Ctrl Pts',(-0.735,1.27,2.04));
#1011=CARTESIAN_POINT('Ctrl Pts',(-0.735,1.805,2.04));
#1012=CARTESIAN_POINT('Ctrl Pts',(-1.27,1.805,2.04));
#1013=CARTESIAN_POINT('Ctrl Pts',(-1.805,1.805,2.04));
#1014=CARTESIAN_POINT('Ctrl Pts',(-1.805,1.27,2.04));
#1015=CARTESIAN_POINT('Ctrl Pts',(-1.805,1.27,2.54));
#1016=CARTESIAN_POINT('Ctrl Pts',(-1.805,0.735,2.54));
#1017=CARTESIAN_POINT('Ctrl Pts',(-1.27,0.735,2.54));
#1018=CARTESIAN_POINT('Ctrl Pts',(-0.735,0.735,2.54));
#1019=CARTESIAN_POINT('Ctrl Pts',(-0.735,1.27,2.54));
#1020=CARTESIAN_POINT('Ctrl Pts',(-0.735,1.805,2.54));
#1021=CARTESIAN_POINT('Ctrl Pts',(-1.27,1.805,2.54));
#1022=CARTESIAN_POINT('Ctrl Pts',(-1.805,1.805,2.54));
#1023=CARTESIAN_POINT('Ctrl Pts',(-1.805,1.27,2.54));
#1024=CARTESIAN_POINT('Ctrl Pts',(-1.305,1.27,2.54));
#1025=CARTESIAN_POINT('Ctrl Pts',(-1.305,1.235,2.54));
#1026=CARTESIAN_POINT('Ctrl Pts',(-1.27,1.235,2.54));
#1027=CARTESIAN_POINT('Ctrl Pts',(-1.235,1.235,2.54));
#1028=CARTESIAN_POINT('Ctrl Pts',(-1.235,1.27,2.54));
#1029=CARTESIAN_POINT('Ctrl Pts',(-1.235,1.305,2.54));
#1030=CARTESIAN_POINT('Ctrl Pts',(-1.27,1.305,2.54));
#1031=CARTESIAN_POINT('Ctrl Pts',(-1.305,1.305,2.54));
#1032=CARTESIAN_POINT('Ctrl Pts',(-1.305,1.27,2.54));
#1033=CARTESIAN_POINT('',(-1.305,1.27,2.54));
#1034=CARTESIAN_POINT('Origin',(-1.27,1.27,2.54));
#1035=CARTESIAN_POINT('',(-1.805,1.27,2.04));
#1036=CARTESIAN_POINT('Origin',(-1.305,1.27,2.04));
#1037=CARTESIAN_POINT('Origin',(-1.27,1.27,2.04));
#1038=CARTESIAN_POINT('Origin',(-1.27,1.27,0.));
#1039=CARTESIAN_POINT('',(-1.805,1.27,1.94));
#1040=CARTESIAN_POINT('',(-1.805,1.27,0.));
#1041=CARTESIAN_POINT('Origin',(-1.27,1.27,1.94));
#1042=CARTESIAN_POINT('Origin',(-1.27,1.27,2.54));
#1043=CARTESIAN_POINT('Origin',(-1.27,1.27,0.));
#1044=CARTESIAN_POINT('',(-2.02,1.27,1.94));
#1045=CARTESIAN_POINT('Origin',(-1.27,1.27,1.94));
#1046=CARTESIAN_POINT('',(-2.02,1.27,0.47));
#1047=CARTESIAN_POINT('',(-2.02,1.27,0.));
#1048=CARTESIAN_POINT('Origin',(-1.27,1.27,0.47));
#1049=CARTESIAN_POINT('Origin',(-1.27,1.27,1.94));
#1050=CARTESIAN_POINT('Origin',(-1.27,1.27,0.));
#1051=CARTESIAN_POINT('',(-2.185,1.27,0.47));
#1052=CARTESIAN_POINT('Origin',(-1.27,1.27,0.47));
#1053=CARTESIAN_POINT('',(-2.185,1.27,0.));
#1054=CARTESIAN_POINT('',(-2.185,1.27,0.));
#1055=CARTESIAN_POINT('Origin',(-1.27,1.27,0.));
#1056=CARTESIAN_POINT('Origin',(-1.27,1.27,0.47));
#1057=CARTESIAN_POINT('Origin',(-1.27,1.27,0.));
#1058=CARTESIAN_POINT('Origin',(-1.27,1.27,0.));
#1059=CARTESIAN_POINT('',(-2.02,1.27,1.94));
#1060=CARTESIAN_POINT('Origin',(-1.27,1.27,1.94));
#1061=CARTESIAN_POINT('',(-2.02,1.27,0.47));
#1062=CARTESIAN_POINT('',(-2.02,1.27,0.));
#1063=CARTESIAN_POINT('Origin',(-1.27,1.27,0.47));
#1064=CARTESIAN_POINT('Origin',(1.27,-1.27,0.));
#1065=CARTESIAN_POINT('',(0.52,-1.27,1.94));
#1066=CARTESIAN_POINT('Origin',(1.27,-1.27,1.94));
#1067=CARTESIAN_POINT('',(0.52,-1.27,0.47));
#1068=CARTESIAN_POINT('',(0.52,-1.27,0.));
#1069=CARTESIAN_POINT('Origin',(1.27,-1.27,0.47));
#1070=CARTESIAN_POINT('Origin',(1.27,1.27,0.));
#1071=CARTESIAN_POINT('',(0.52,1.27,1.94));
#1072=CARTESIAN_POINT('Origin',(1.27,1.27,1.94));
#1073=CARTESIAN_POINT('',(0.52,1.27,0.47));
#1074=CARTESIAN_POINT('',(0.52,1.27,0.));
#1075=CARTESIAN_POINT('Origin',(1.27,1.27,0.47));
#1076=CARTESIAN_POINT('Origin',(-1.27,-1.27,0.));
#1077=CARTESIAN_POINT('',(-2.02,-1.27,1.94));
#1078=CARTESIAN_POINT('Origin',(-1.27,-1.27,1.94));
#1079=CARTESIAN_POINT('',(-2.02,-1.27,0.47));
#1080=CARTESIAN_POINT('',(-2.02,-1.27,0.));
#1081=CARTESIAN_POINT('Origin',(-1.27,-1.27,0.47));
#1082=CARTESIAN_POINT('Origin',(-2.54,2.54,0.47));
#1083=CARTESIAN_POINT('',(-2.54,-2.54,0.47));
#1084=CARTESIAN_POINT('',(-2.54,2.54,0.47));
#1085=CARTESIAN_POINT('',(-2.54,-2.54,0.47));
#1086=CARTESIAN_POINT('',(-2.54,-2.54,1.94));
#1087=CARTESIAN_POINT('',(-2.54,-2.54,0.47));
#1088=CARTESIAN_POINT('',(-2.54,2.54,1.94));
#1089=CARTESIAN_POINT('',(-2.54,-2.54,1.94));
#1090=CARTESIAN_POINT('',(-2.54,2.54,0.47));
#1091=CARTESIAN_POINT('Origin',(2.54,2.54,0.47));
#1092=CARTESIAN_POINT('',(2.54,2.54,0.47));
#1093=CARTESIAN_POINT('',(-2.54,2.54,0.47));
#1094=CARTESIAN_POINT('',(2.54,2.54,1.94));
#1095=CARTESIAN_POINT('',(-2.54,2.54,1.94));
#1096=CARTESIAN_POINT('',(2.54,2.54,0.47));
#1097=CARTESIAN_POINT('Origin',(2.54,-2.54,0.47));
#1098=CARTESIAN_POINT('',(2.54,-2.54,0.47));
#1099=CARTESIAN_POINT('',(2.54,2.54,0.47));
#1100=CARTESIAN_POINT('',(2.54,-2.54,1.94));
#1101=CARTESIAN_POINT('',(2.54,2.54,1.94));
#1102=CARTESIAN_POINT('',(2.54,-2.54,0.47));
#1103=CARTESIAN_POINT('Origin',(-2.54,-2.54,0.47));
#1104=CARTESIAN_POINT('',(2.54,-2.54,0.47));
#1105=CARTESIAN_POINT('',(2.54,-2.54,1.94));
#1106=CARTESIAN_POINT('Origin',(0.,0.,1.94));
#1107=CARTESIAN_POINT('Origin',(0.,0.,0.47));
#1108=UNCERTAINTY_MEASURE_WITH_UNIT(LENGTH_MEASURE(0.01),#1112,
'DISTANCE_ACCURACY_VALUE',
'Maximum model space distance between geometric entities at asserted c
onnectivities');
#1109=UNCERTAINTY_MEASURE_WITH_UNIT(LENGTH_MEASURE(0.01),#1112,
'DISTANCE_ACCURACY_VALUE',
'Maximum model space distance between geometric entities at asserted c
onnectivities');
#1110=(
GEOMETRIC_REPRESENTATION_CONTEXT(3)
GLOBAL_UNCERTAINTY_ASSIGNED_CONTEXT((#1108))
GLOBAL_UNIT_ASSIGNED_CONTEXT((#1112,#1114,#1115))
REPRESENTATION_CONTEXT('','3D')
);
#1111=(
GEOMETRIC_REPRESENTATION_CONTEXT(3)
GLOBAL_UNCERTAINTY_ASSIGNED_CONTEXT((#1109))
GLOBAL_UNIT_ASSIGNED_CONTEXT((#1112,#1114,#1115))
REPRESENTATION_CONTEXT('','3D')
);
#1112=(
LENGTH_UNIT()
NAMED_UNIT(*)
SI_UNIT(.MILLI.,.METRE.)
);
#1113=(
LENGTH_UNIT()
NAMED_UNIT(*)
SI_UNIT($,.METRE.)
);
#1114=(
NAMED_UNIT(*)
PLANE_ANGLE_UNIT()
SI_UNIT($,.RADIAN.)
);
#1115=(
NAMED_UNIT(*)
SI_UNIT($,.STERADIAN.)
SOLID_ANGLE_UNIT()
);
#1116=SHAPE_DEFINITION_REPRESENTATION(#1117,#1118);
#1117=PRODUCT_DEFINITION_SHAPE('',$,#1120);
#1118=SHAPE_REPRESENTATION('',(#584),#1110);
#1119=PRODUCT_DEFINITION_CONTEXT('part definition',#1124,'design');
#1120=PRODUCT_DEFINITION('2026-07-08-13-11-45-969','(Unsaved)',#1121,#1119);
#1121=PRODUCT_DEFINITION_FORMATION('',$,#1126);
#1122=PRODUCT_RELATED_PRODUCT_CATEGORY('(Unsaved)','(Unsaved)',(#1126));
#1123=APPLICATION_PROTOCOL_DEFINITION('international standard',
'automotive_design',2009,#1124);
#1124=APPLICATION_CONTEXT(
'Core Data for Automotive Mechanical Design Process');
#1125=PRODUCT_CONTEXT('part definition',#1124,'mechanical');
#1126=PRODUCT('2026-07-08-13-11-45-969','(Unsaved)',$,(#1125));
#1127=PRESENTATION_STYLE_ASSIGNMENT((#1130));
#1128=PRESENTATION_STYLE_ASSIGNMENT((#1131));
#1129=PRESENTATION_STYLE_ASSIGNMENT((#1132));
#1130=SURFACE_STYLE_USAGE(.BOTH.,#1133);
#1131=SURFACE_STYLE_USAGE(.BOTH.,#1134);
#1132=SURFACE_STYLE_USAGE(.BOTH.,#1135);
#1133=SURFACE_SIDE_STYLE('',(#1136));
#1134=SURFACE_SIDE_STYLE('',(#1137));
#1135=SURFACE_SIDE_STYLE('',(#1138));
#1136=SURFACE_STYLE_FILL_AREA(#1139);
#1137=SURFACE_STYLE_FILL_AREA(#1140);
#1138=SURFACE_STYLE_FILL_AREA(#1141);
#1139=FILL_AREA_STYLE('Steel - Satin',(#1142));
#1140=FILL_AREA_STYLE('Gold - Polished',(#1143));
#1141=FILL_AREA_STYLE('Nylon 12 (with Formlabs Fuse 1 3D Printer)',(#1144));
#1142=FILL_AREA_STYLE_COLOUR('Steel - Satin',#1145);
#1143=FILL_AREA_STYLE_COLOUR('Gold - Polished',#1146);
#1144=FILL_AREA_STYLE_COLOUR(
'Nylon 12 (with Formlabs Fuse 1 3D Printer)',#1147);
#1145=COLOUR_RGB('Steel - Satin',0.627450980392157,0.627450980392157,0.627450980392157);
#1146=COLOUR_RGB('Gold - Polished',0.956862745098039,0.898039215686275,
0.654901960784314);
#1147=COLOUR_RGB('Nylon 12 (with Formlabs Fuse 1 3D Printer)',0.247058823529412,
0.247058823529412,0.247058823529412);
ENDSEC;
END-ISO-10303-21;
