ISO-10303-21;
HEADER;
FILE_DESCRIPTION (( 'STEP AP214' ),
    '1' );
FILE_NAME ('YFF12.STEP',
    '2023-12-26T10:36:14',
    ( '' ),
    ( '' ),
    'SwSTEP 2.0',
    'SolidWorks 2021',
    '' );
FILE_SCHEMA (( 'AUTOMOTIVE_DESIGN' ));
ENDSEC;

DATA;
#1 = VECTOR ( 'NONE', #1163, 1000.000000000000000 ) ;
#2 = CIRCLE ( 'NONE', #508, 0.09165151389911688207 ) ;
#3 = EDGE_CURVE ( 'NONE', #1110, #139, #956, .T. ) ;
#4 = EDGE_LOOP ( 'NONE', ( #574, #167, #585, #867 ) ) ;
#5 = ADVANCED_FACE ( 'NONE', ( #33 ), #358, .T. ) ;
#6 = DIRECTION ( 'NONE',  ( 1.000000000000000000, 0.000000000000000000, 0.000000000000000000 ) ) ;
#7 = FACE_OUTER_BOUND ( 'NONE', #229, .T. ) ;
#8 = FACE_OUTER_BOUND ( 'NONE', #650, .T. ) ;
#9 = AXIS2_PLACEMENT_3D ( 'NONE', #516, #1088, #888 ) ;
#10 = DIRECTION ( 'NONE',  ( 0.000000000000000000, 0.000000000000000000, -1.000000000000000000 ) ) ;
#11 = ORIENTED_EDGE ( 'NONE', *, *, #615, .F. ) ;
#12 = FILL_AREA_STYLE_COLOUR ( '', #775 ) ;
#13 = FACE_OUTER_BOUND ( 'NONE', #999, .T. ) ;
#14 = DIRECTION ( 'NONE',  ( 0.000000000000000000, 0.000000000000000000, -1.000000000000000000 ) ) ;
#15 = EDGE_CURVE ( 'NONE', #845, #667, #854, .T. ) ;
#16 = ORIENTED_EDGE ( 'NONE', *, *, #616, .F. ) ;
#17 = EDGE_CURVE ( 'NONE', #76, #130, #434, .T. ) ;
#18 = ORIENTED_EDGE ( 'NONE', *, *, #145, .T. ) ;
#19 = FACE_OUTER_BOUND ( 'NONE', #1278, .T. ) ;
#20 = CIRCLE ( 'NONE', #843, 0.1250000000000000555 ) ;
#21 = CARTESIAN_POINT ( 'NONE',  ( 6.505213034913026604E-16, 0.1250000000000001110, 0.6000000000000000888 ) ) ;
#22 = PLANE ( 'NONE',  #47 ) ;
#23 = ORIENTED_EDGE ( 'NONE', *, *, #198, .T. ) ;
#24 = ORIENTED_EDGE ( 'NONE', *, *, #528, .F. ) ;
#25 = UNCERTAINTY_MEASURE_WITH_UNIT (LENGTH_MEASURE( 1.000000000000000082E-05 ), #392, 'distance_accuracy_value', 'NONE');
#26 = DIRECTION ( 'NONE',  ( 0.000000000000000000, 0.000000000000000000, -1.000000000000000000 ) ) ;
#27 = DIRECTION ( 'NONE',  ( 0.000000000000000000, 1.000000000000000000, 0.000000000000000000 ) ) ;
#28 = FACE_OUTER_BOUND ( 'NONE', #715, .T. ) ;
#29 = CIRCLE ( 'NONE', #1170, 0.1250000000000000555 ) ;
#30 = CLOSED_SHELL ( 'NONE', ( #1006, #244, #666 ) ) ;
#31 = VERTEX_POINT ( 'NONE', #1284 ) ;
#32 = VERTEX_POINT ( 'NONE', #861 ) ;
#33 = FACE_OUTER_BOUND ( 'NONE', #745, .T. ) ;
#34 = DIRECTION ( 'NONE',  ( 1.000000000000000000, 0.000000000000000000, 0.000000000000000000 ) ) ;
#35 = SPHERICAL_SURFACE ( 'NONE', #1249, 0.1250000000000000555 ) ;
#36 = DIRECTION ( 'NONE',  ( 0.000000000000000000, -1.000000000000000000, -0.000000000000000000 ) ) ;
#37 = AXIS2_PLACEMENT_3D ( 'NONE', #365, #1078, #69 ) ;
#38 = CARTESIAN_POINT ( 'NONE',  ( -0.4886013224165708380, 0.6250000000000000000, -0.5307211177027411075 ) ) ;
#39 = ORIENTED_EDGE ( 'NONE', *, *, #17, .F. ) ;
#40 = DIRECTION ( 'NONE',  ( -0.000000000000000000, 1.000000000000000000, -0.000000000000000000 ) ) ;
#41 = AXIS2_PLACEMENT_3D ( 'NONE', #1076, #161, #568 ) ;
#42 = CARTESIAN_POINT ( 'NONE',  ( 0.4000000000000010214, 0.1250000000000001110, -0.1999999999999999833 ) ) ;
#43 = DIRECTION ( 'NONE',  ( 0.000000000000000000, 0.000000000000000000, -1.000000000000000000 ) ) ;
#44 = CIRCLE ( 'NONE', #617, 0.09165151389911688207 ) ;
#45 = CARTESIAN_POINT ( 'NONE',  ( 0.9999999999999997780, 0.2100000000000001310, -1.022250000000000991 ) ) ;
#46 = CIRCLE ( 'NONE', #213, 0.1250000000000001110 ) ;
#47 = AXIS2_PLACEMENT_3D ( 'NONE', #1234, #425, #216 ) ;
#48 = CARTESIAN_POINT ( 'NONE',  ( 0.4000000000000010214, 0.1250000000000001110, -0.6000000000000000888 ) ) ;
#49 = EDGE_CURVE ( 'NONE', #130, #1248, #1155, .T. ) ;
#50 = ADVANCED_FACE ( 'NONE', ( #759 ), #538, .T. ) ;
#51 = ADVANCED_FACE ( 'NONE', ( #461 ), #1292, .T. ) ;
#52 = DIRECTION ( 'NONE',  ( 0.000000000000000000, 0.000000000000000000, -1.000000000000000000 ) ) ;
#53 = FILL_AREA_STYLE ('',( #169 ) ) ;
#54 = LINE ( 'NONE', #1273, #1276 ) ;
#55 = FACE_OUTER_BOUND ( 'NONE', #904, .T. ) ;
#56 = DIRECTION ( 'NONE',  ( -0.000000000000000000, -1.000000000000000000, -0.000000000000000000 ) ) ;
#57 =( GEOMETRIC_REPRESENTATION_CONTEXT ( 3 ) GLOBAL_UNCERTAINTY_ASSIGNED_CONTEXT ( ( #1255 ) ) GLOBAL_UNIT_ASSIGNED_CONTEXT ( ( #770, #73, #157 ) ) REPRESENTATION_CONTEXT ( 'NONE', 'WORKASPACE' ) );
#58 = ORIENTED_EDGE ( 'NONE', *, *, #64, .T. ) ;
#59 = CARTESIAN_POINT ( 'NONE',  ( -0.4886013224165708380, 0.5250000000000000222, -0.6150192058385073324 ) ) ;
#60 = FILL_AREA_STYLE ('',( #558 ) ) ;
#61 = CARTESIAN_POINT ( 'NONE',  ( 0.09165151389911775637, 0.2100000000000001310, -0.6000000000000000888 ) ) ;
#62 = PLANE ( 'NONE',  #619 ) ;
#63 = EDGE_CURVE ( 'NONE', #838, #599, #1224, .T. ) ;
#64 = EDGE_CURVE ( 'NONE', #240, #334, #963, .T. ) ;
#65 = CARTESIAN_POINT ( 'NONE',  ( 0.000000000000000000, 0.000000000000000000, 0.000000000000000000 ) ) ;
#66 = DIRECTION ( 'NONE',  ( 0.000000000000000000, 0.000000000000000000, -1.000000000000000000 ) ) ;
#67 = EDGE_CURVE ( 'NONE', #1005, #394, #746, .T. ) ;
#68 = VECTOR ( 'NONE', #27, 1000.000000000000000 ) ;
#69 = DIRECTION ( 'NONE',  ( -1.000000000000000000, 0.000000000000000000, -2.168404344971006896E-16 ) ) ;
#70 = ORIENTED_EDGE ( 'NONE', *, *, #513, .T. ) ;
#71 = EDGE_LOOP ( 'NONE', ( #1055, #58, #524, #272 ) ) ;
#72 = DIRECTION ( 'NONE',  ( 0.000000000000000000, 0.000000000000000000, -1.000000000000000000 ) ) ;
#73 =( NAMED_UNIT ( * ) PLANE_ANGLE_UNIT ( ) SI_UNIT ( $, .RADIAN. ) );
#74 = SURFACE_STYLE_USAGE ( .BOTH. , #800 ) ;
#75 = DIRECTION ( 'NONE',  ( 0.000000000000000000, -1.000000000000000000, -0.000000000000000000 ) ) ;
#76 = VERTEX_POINT ( 'NONE', #752 ) ;
#77 = AXIS2_PLACEMENT_3D ( 'NONE', #293, #189, #915 ) ;
#78 = DIRECTION ( 'NONE',  ( 0.000000000000000000, 0.000000000000000000, -1.000000000000000000 ) ) ;
#79 =( LENGTH_UNIT ( ) NAMED_UNIT ( * ) SI_UNIT ( .MILLI., .METRE. ) );
#80 = PRESENTATION_STYLE_ASSIGNMENT (( #578 ) ) ;
#81 = ORIENTED_EDGE ( 'NONE', *, *, #395, .F. ) ;
#82 = CARTESIAN_POINT ( 'NONE',  ( 8.673617379884035472E-16, 0.2100000000000001310, -0.1999999999999999833 ) ) ;
#83 = LINE ( 'NONE', #485, #882 ) ;
#84 = SURFACE_STYLE_USAGE ( .BOTH. , #1026 ) ;
#85 = AXIS2_PLACEMENT_3D ( 'NONE', #1045, #419, #438 ) ;
#86 = DIRECTION ( 'NONE',  ( 0.000000000000000000, -1.000000000000000000, -0.000000000000000000 ) ) ;
#87 = ORIENTED_EDGE ( 'NONE', *, *, #808, .T. ) ;
#88 =( GEOMETRIC_REPRESENTATION_CONTEXT ( 3 ) GLOBAL_UNCERTAINTY_ASSIGNED_CONTEXT ( ( #839 ) ) GLOBAL_UNIT_ASSIGNED_CONTEXT ( ( #297, #709, #387 ) ) REPRESENTATION_CONTEXT ( 'NONE', 'WORKASPACE' ) );
#89 = EDGE_CURVE ( 'NONE', #606, #688, #1068, .T. ) ;
#90 = DIRECTION ( 'NONE',  ( 0.000000000000000000, -0.000000000000000000, 1.000000000000000000 ) ) ;
#91 = DIRECTION ( 'NONE',  ( 0.000000000000000000, 1.000000000000000000, 0.000000000000000000 ) ) ;
#92 =( NAMED_UNIT ( * ) SI_UNIT ( $, .STERADIAN. ) SOLID_ANGLE_UNIT ( ) );
#93 = FACE_OUTER_BOUND ( 'NONE', #1247, .T. ) ;
#94 = ORIENTED_EDGE ( 'NONE', *, *, #355, .T. ) ;
#95 = ORIENTED_EDGE ( 'NONE', *, *, #807, .T. ) ;
#96 = CARTESIAN_POINT ( 'NONE',  ( 0.4000000000000010214, 0.1250000000000001110, -0.1999999999999999833 ) ) ;
#97 = CARTESIAN_POINT ( 'NONE',  ( 0.4000000000000006328, 0.1250000000000001110, 0.2000000000000000389 ) ) ;
#98 = VECTOR ( 'NONE', #1056, 1000.000000000000000 ) ;
#99 = DIRECTION ( 'NONE',  ( 0.000000000000000000, 0.000000000000000000, 1.000000000000000000 ) ) ;
#100 = VERTEX_POINT ( 'NONE', #248 ) ;
#101 = AXIS2_PLACEMENT_3D ( 'NONE', #378, #562, #559 ) ;
#102 = DIRECTION ( 'NONE',  ( -0.000000000000000000, -1.000000000000000000, -0.000000000000000000 ) ) ;
#103 = MECHANICAL_DESIGN_GEOMETRIC_PRESENTATION_REPRESENTATION (  '', ( #1135 ), #331 ) ;
#104 =( LENGTH_UNIT ( ) NAMED_UNIT ( * ) SI_UNIT ( .MILLI., .METRE. ) );
#105 = ADVANCED_FACE ( 'NONE', ( #975 ), #1079, .T. ) ;
#106 = CIRCLE ( 'NONE', #864, 0.08429808813576628035 ) ;
#107 = ORIENTED_EDGE ( 'NONE', *, *, #185, .F. ) ;
#108 = AXIS2_PLACEMENT_3D ( 'NONE', #876, #657, #137 ) ;
#109 = CIRCLE ( 'NONE', #1096, 0.09165151389911688207 ) ;
#110 = DIRECTION ( 'NONE',  ( 0.000000000000000000, 0.000000000000000000, 1.000000000000000000 ) ) ;
#111 = CARTESIAN_POINT ( 'NONE',  ( 0.4000000000000010214, 0.2100000000000001310, -0.6000000000000000888 ) ) ;
#112 = ORIENTED_EDGE ( 'NONE', *, *, #808, .F. ) ;
#113 = SPHERICAL_SURFACE ( 'NONE', #784, 0.1250000000000000555 ) ;
#114 = STYLED_ITEM ( 'NONE', ( #1166 ), #1027 ) ;
#115 =( LENGTH_UNIT ( ) NAMED_UNIT ( * ) SI_UNIT ( .MILLI., .METRE. ) );
#116 = ORIENTED_EDGE ( 'NONE', *, *, #246, .T. ) ;
#117 = EDGE_CURVE ( 'NONE', #850, #476, #930, .T. ) ;
#118 = SURFACE_STYLE_USAGE ( .BOTH. , #219 ) ;
#119 = FACE_OUTER_BOUND ( 'NONE', #270, .T. ) ;
#120 = AXIS2_PLACEMENT_3D ( 'NONE', #1245, #613, #535 ) ;
#121 = VERTEX_POINT ( 'NONE', #38 ) ;
#122 =( LENGTH_UNIT ( ) NAMED_UNIT ( * ) SI_UNIT ( .MILLI., .METRE. ) );
#123 = ORIENTED_EDGE ( 'NONE', *, *, #961, .F. ) ;
#124 = FACE_OUTER_BOUND ( 'NONE', #788, .T. ) ;
#125 = CIRCLE ( 'NONE', #798, 0.1250000000000000555 ) ;
#126 = LINE ( 'NONE', #950, #68 ) ;
#127 = CARTESIAN_POINT ( 'NONE',  ( -0.4886013224165708380, 0.5250000000000000222, -0.6150192058385073324 ) ) ;
#128 = FILL_AREA_STYLE ('',( #1291 ) ) ;
#129 = EDGE_LOOP ( 'NONE', ( #39, #373, #908 ) ) ;
#130 = VERTEX_POINT ( 'NONE', #665 ) ;
#131 = DIRECTION ( 'NONE',  ( -1.000000000000000000, 0.000000000000000000, -2.168404344971006896E-16 ) ) ;
#132 = DIRECTION ( 'NONE',  ( 0.000000000000000000, 0.000000000000000000, -1.000000000000000000 ) ) ;
#133 = DIRECTION ( 'NONE',  ( 0.000000000000000000, -1.000000000000000000, -0.000000000000000000 ) ) ;
#134 = DIRECTION ( 'NONE',  ( 1.000000000000000000, 0.000000000000000000, 0.000000000000000000 ) ) ;
#135 = FACE_OUTER_BOUND ( 'NONE', #222, .T. ) ;
#136 = AXIS2_PLACEMENT_3D ( 'NONE', #82, #102, #583 ) ;
#137 = DIRECTION ( 'NONE',  ( 1.000000000000000000, 0.000000000000000000, 0.000000000000000000 ) ) ;
#138 = AXIS2_PLACEMENT_3D ( 'NONE', #48, #343, #1177 ) ;
#139 = VERTEX_POINT ( 'NONE', #1060 ) ;
#140 = CARTESIAN_POINT ( 'NONE',  ( -0.4886013224165708380, 0.6250000000000000000, -0.6993172939742735572 ) ) ;
#141 = FACE_OUTER_BOUND ( 'NONE', #389, .T. ) ;
#142 = SURFACE_STYLE_FILL_AREA ( #53 ) ;
#143 = CARTESIAN_POINT ( 'NONE',  ( 0.4000000000000010214, 0.2100000000000001310, -0.1999999999999999833 ) ) ;
#144 = ADVANCED_FACE ( 'NONE', ( #322 ), #261, .T. ) ;
#145 = EDGE_CURVE ( 'NONE', #519, #1119, #408, .T. ) ;
#146 = VERTEX_POINT ( 'NONE', #1267 ) ;
#147 = ORIENTED_EDGE ( 'NONE', *, *, #821, .T. ) ;
#148 = MANIFOLD_SOLID_BREP ( 'Sketch-Pattern1[5]', #536 ) ;
#149 = ADVANCED_FACE ( 'NONE', ( #857 ), #62, .F. ) ;
#150 = CARTESIAN_POINT ( 'NONE',  ( 0.4000000000000010214, 5.421010862427522170E-17, -0.6000000000000000888 ) ) ;
#151 = AXIS2_PLACEMENT_3D ( 'NONE', #352, #337, #34 ) ;
#152 = DIRECTION ( 'NONE',  ( 5.274318868886618175E-16, -0.000000000000000000, 1.000000000000000000 ) ) ;
#153 = LINE ( 'NONE', #258, #572 ) ;
#154 = CARTESIAN_POINT ( 'NONE',  ( 0.09165151389911775637, 0.2100000000000001310, -0.1999999999999999833 ) ) ;
#155 = CARTESIAN_POINT ( 'NONE',  ( -0.3999999999999993006, 0.1250000000000001110, 0.2000000000000000389 ) ) ;
#156 = SURFACE_SIDE_STYLE ('',( #783 ) ) ;
#157 =( NAMED_UNIT ( * ) SI_UNIT ( $, .STERADIAN. ) SOLID_ANGLE_UNIT ( ) );
#158 = ADVANCED_FACE ( 'NONE', ( #1118 ), #1218, .T. ) ;
#159 = DIRECTION ( 'NONE',  ( 0.000000000000000000, 0.000000000000000000, -1.000000000000000000 ) ) ;
#160 = EDGE_CURVE ( 'NONE', #838, #704, #46, .T. ) ;
#161 = DIRECTION ( 'NONE',  ( -0.000000000000000000, -1.000000000000000000, -0.000000000000000000 ) ) ;
#162 = ADVANCED_FACE ( 'NONE', ( #93 ), #494, .T. ) ;
#163 =( GEOMETRIC_REPRESENTATION_CONTEXT ( 3 ) GLOBAL_UNCERTAINTY_ASSIGNED_CONTEXT ( ( #539 ) ) GLOBAL_UNIT_ASSIGNED_CONTEXT ( ( #79, #1320, #1312 ) ) REPRESENTATION_CONTEXT ( 'NONE', 'WORKASPACE' ) );
#164 = PLANE ( 'NONE',  #166 ) ;
#165 = EDGE_LOOP ( 'NONE', ( #1130, #846 ) ) ;
#166 = AXIS2_PLACEMENT_3D ( 'NONE', #875, #75, #371 ) ;
#167 = ORIENTED_EDGE ( 'NONE', *, *, #764, .T. ) ;
#168 = CARTESIAN_POINT ( 'NONE',  ( 8.673617379884035472E-16, 0.1250000000000001110, -0.6000000000000000888 ) ) ;
#169 = FILL_AREA_STYLE_COLOUR ( '', #879 ) ;
#170 = CIRCLE ( 'NONE', #1270, 0.1250000000000000555 ) ;
#171 = CARTESIAN_POINT ( 'NONE',  ( -0.3999999999999993006, 0.1250000000000001110, 0.2000000000000000389 ) ) ;
#172 = ORIENTED_EDGE ( 'NONE', *, *, #681, .F. ) ;
#173 = VECTOR ( 'NONE', #1156, 1000.000000000000000 ) ;
#174 = VERTEX_POINT ( 'NONE', #1226 ) ;
#175 = CIRCLE ( 'NONE', #341, 0.1250000000000000555 ) ;
#176 = SURFACE_STYLE_USAGE ( .BOTH. , #156 ) ;
#177 = CARTESIAN_POINT ( 'NONE',  ( -0.3083484861008824462, 0.2100000000000001310, 0.2000000000000000389 ) ) ;
#178 = FILL_AREA_STYLE ('',( #482 ) ) ;
#179 = MANIFOLD_SOLID_BREP ( 'Sketch-Pattern1[7]', #901 ) ;
#180 = SURFACE_STYLE_USAGE ( .BOTH. , #697 ) ;
#181 = ORIENTED_EDGE ( 'NONE', *, *, #807, .F. ) ;
#182 = CIRCLE ( 'NONE', #580, 0.1250000000000000555 ) ;
#183 = DIRECTION ( 'NONE',  ( 0.000000000000000000, 0.000000000000000000, -1.000000000000000000 ) ) ;
#184 = SURFACE_SIDE_STYLE ('',( #1225 ) ) ;
#185 = EDGE_CURVE ( 'NONE', #1197, #366, #721, .T. ) ;
#186 = ADVANCED_FACE ( 'NONE', ( #55 ), #893, .T. ) ;
#187 = VERTEX_POINT ( 'NONE', #452 ) ;
#188 = UNCERTAINTY_MEASURE_WITH_UNIT (LENGTH_MEASURE( 1.000000000000000082E-05 ), #747, 'distance_accuracy_value', 'NONE');
#189 = DIRECTION ( 'NONE',  ( 0.000000000000000000, 1.000000000000000000, 0.000000000000000000 ) ) ;
#190 = CARTESIAN_POINT ( 'NONE',  ( -0.3999999999999993006, 0.2100000000000001310, 0.6000000000000000888 ) ) ;
#191 =( GEOMETRIC_REPRESENTATION_CONTEXT ( 3 ) GLOBAL_UNCERTAINTY_ASSIGNED_CONTEXT ( ( #200 ) ) GLOBAL_UNIT_ASSIGNED_CONTEXT ( ( #1271, #660, #1160 ) ) REPRESENTATION_CONTEXT ( 'NONE', 'WORKASPACE' ) );
#192 = ORIENTED_EDGE ( 'NONE', *, *, #782, .F. ) ;
#193 = DIRECTION ( 'NONE',  ( 1.000000000000000000, 0.000000000000000000, 0.000000000000000000 ) ) ;
#194 = CARTESIAN_POINT ( 'NONE',  ( -0.4886013224165708380, 0.6250000000000000000, -0.6150192058385073324 ) ) ;
#195 = FILL_AREA_STYLE ('',( #590 ) ) ;
#196 = EDGE_CURVE ( 'NONE', #76, #1248, #744, .T. ) ;
#197 = DIRECTION ( 'NONE',  ( 0.000000000000000000, 0.000000000000000000, -1.000000000000000000 ) ) ;
#198 = EDGE_CURVE ( 'NONE', #1015, #307, #685, .T. ) ;
#199 = ORIENTED_EDGE ( 'NONE', *, *, #1242, .T. ) ;
#200 = UNCERTAINTY_MEASURE_WITH_UNIT (LENGTH_MEASURE( 1.000000000000000082E-05 ), #1271, 'distance_accuracy_value', 'NONE');
#201 = CIRCLE ( 'NONE', #77, 0.08429808813576628035 ) ;
#202 = DIRECTION ( 'NONE',  ( 1.000000000000000000, 0.000000000000000000, 0.000000000000000000 ) ) ;
#203 = DIRECTION ( 'NONE',  ( 0.000000000000000000, 0.000000000000000000, -1.000000000000000000 ) ) ;
#204 = EDGE_LOOP ( 'NONE', ( #825, #819, #70 ) ) ;
#205 = EDGE_LOOP ( 'NONE', ( #332, #411 ) ) ;
#206 =( LENGTH_UNIT ( ) NAMED_UNIT ( * ) SI_UNIT ( .MILLI., .METRE. ) );
#207 = DIRECTION ( 'NONE',  ( 0.000000000000000000, 0.000000000000000000, -1.000000000000000000 ) ) ;
#208 = CARTESIAN_POINT ( 'NONE',  ( 0.4916515138991179867, 0.2100000000000001310, -0.1999999999999999833 ) ) ;
#209 = DIRECTION ( 'NONE',  ( 1.000000000000000000, 0.000000000000000000, 0.000000000000000000 ) ) ;
#210 = AXIS2_PLACEMENT_3D ( 'NONE', #194, #91, #1017 ) ;
#211 = EDGE_LOOP ( 'NONE', ( #723, #249 ) ) ;
#212 = STYLED_ITEM ( 'NONE', ( #80 ), #350 ) ;
#213 = AXIS2_PLACEMENT_3D ( 'NONE', #1109, #1003, #592 ) ;
#214 = AXIS2_PLACEMENT_3D ( 'NONE', #310, #726, #1137 ) ;
#215 = CARTESIAN_POINT ( 'NONE',  ( -0.3999999999999993006, 0.1250000000000001110, -0.1999999999999999833 ) ) ;
#216 = DIRECTION ( 'NONE',  ( 0.000000000000000000, 0.000000000000000000, -1.000000000000000000 ) ) ;
#217 = ORIENTED_EDGE ( 'NONE', *, *, #383, .T. ) ;
#218 = ORIENTED_EDGE ( 'NONE', *, *, #475, .F. ) ;
#219 = SURFACE_SIDE_STYLE ('',( #732 ) ) ;
#220 = CIRCLE ( 'NONE', #652, 0.08429808813576628035 ) ;
#221 = DIRECTION ( 'NONE',  ( 0.000000000000000000, 0.000000000000000000, -1.000000000000000000 ) ) ;
#222 = EDGE_LOOP ( 'NONE', ( #1220, #1069, #1008, #436 ) ) ;
#223 = MECHANICAL_DESIGN_GEOMETRIC_PRESENTATION_REPRESENTATION (  '', ( #970 ), #163 ) ;
#224 = UNCERTAINTY_MEASURE_WITH_UNIT (LENGTH_MEASURE( 1.000000000000000082E-05 ), #122, 'distance_accuracy_value', 'NONE');
#225 = CARTESIAN_POINT ( 'NONE',  ( 8.673617379884035472E-16, 0.1250000000000001110, -0.6000000000000000888 ) ) ;
#226 = CARTESIAN_POINT ( 'NONE',  ( 0.4000000000000006328, 0.2100000000000001310, 0.2000000000000000389 ) ) ;
#227 = DIRECTION ( 'NONE',  ( 0.000000000000000000, 0.000000000000000000, -1.000000000000000000 ) ) ;
#228 = CIRCLE ( 'NONE', #983, 0.09165151389911688207 ) ;
#229 = EDGE_LOOP ( 'NONE', ( #894, #23, #285 ) ) ;
#230 = AXIS2_PLACEMENT_3D ( 'NONE', #1011, #409, #1116 ) ;
#231 = STYLED_ITEM ( 'NONE', ( #509 ), #772 ) ;
#232 = EDGE_LOOP ( 'NONE', ( #123, #299, #323 ) ) ;
#233 = CARTESIAN_POINT ( 'NONE',  ( -0.4886013224165708380, 0.5250000000000000222, -0.5307211177027411075 ) ) ;
#234 = SPHERICAL_SURFACE ( 'NONE', #1206, 0.1250000000000000555 ) ;
#235 = COLOUR_RGB ( '',0.2509803921568627416, 0.2509803921568627416, 0.2509803921568627416 ) ;
#236 = PLANE ( 'NONE',  #910 ) ;
#237 = PLANE ( 'NONE',  #362 ) ;
#238 = COLOUR_RGB ( '',0.7921568627450980005, 0.8196078431372548767, 0.9333333333333333481 ) ;
#239 =( LENGTH_UNIT ( ) NAMED_UNIT ( * ) SI_UNIT ( .MILLI., .METRE. ) );
#240 = VERTEX_POINT ( 'NONE', #356 ) ;
#241 = DIRECTION ( 'NONE',  ( 1.000000000000000000, 0.000000000000000000, 0.000000000000000000 ) ) ;
#242 = UNCERTAINTY_MEASURE_WITH_UNIT (LENGTH_MEASURE( 1.000000000000000082E-05 ), #462, 'distance_accuracy_value', 'NONE');
#243 =( NAMED_UNIT ( * ) SI_UNIT ( $, .STERADIAN. ) SOLID_ANGLE_UNIT ( ) );
#244 = ADVANCED_FACE ( 'NONE', ( #252 ), #664, .F. ) ;
#245 = DIRECTION ( 'NONE',  ( -0.000000000000000000, -1.000000000000000000, -0.000000000000000000 ) ) ;
#246 = EDGE_CURVE ( 'NONE', #506, #318, #605, .T. ) ;
#247 = CARTESIAN_POINT ( 'NONE',  ( -0.4886013224165708380, 0.5250000000000000222, -0.6150192058385073324 ) ) ;
#248 = CARTESIAN_POINT ( 'NONE',  ( 0.09165151389911753432, 0.2100000000000001310, 0.6000000000000000888 ) ) ;
#249 = ORIENTED_EDGE ( 'NONE', *, *, #780, .F. ) ;
#250 = FILL_AREA_STYLE ('',( #760 ) ) ;
#251 = FACE_OUTER_BOUND ( 'NONE', #500, .T. ) ;
#252 = FACE_OUTER_BOUND ( 'NONE', #1219, .T. ) ;
#253 = VERTEX_POINT ( 'NONE', #1306 ) ;
#254 = ADVANCED_FACE ( 'NONE', ( #459 ), #164, .F. ) ;
#255 = FILL_AREA_STYLE ('',( #1310 ) ) ;
#256 = DIRECTION ( 'NONE',  ( 0.000000000000000000, 0.000000000000000000, 1.000000000000000000 ) ) ;
#257 = ADVANCED_FACE ( 'NONE', ( #687 ), #679, .F. ) ;
#258 = CARTESIAN_POINT ( 'NONE',  ( 0.6939999999999992841, -2.151958236118906687, 0.8222499999999983711 ) ) ;
#259 = COLOUR_RGB ( '',0.7921568627450980005, 0.8196078431372548767, 0.9333333333333333481 ) ;
#260 = DIRECTION ( 'NONE',  ( -0.000000000000000000, -1.000000000000000000, -0.000000000000000000 ) ) ;
#261 = SPHERICAL_SURFACE ( 'NONE', #869, 0.1250000000000000555 ) ;
#262 = FACE_OUTER_BOUND ( 'NONE', #495, .T. ) ;
#263 =( LENGTH_UNIT ( ) NAMED_UNIT ( * ) SI_UNIT ( .MILLI., .METRE. ) );
#264 = CARTESIAN_POINT ( 'NONE',  ( 8.673617379884035472E-16, 0.2100000000000001310, -0.6000000000000000888 ) ) ;
#265 = VERTEX_POINT ( 'NONE', #1281 ) ;
#266 = CLOSED_SHELL ( 'NONE', ( #144, #254, #158 ) ) ;
#267 = DIRECTION ( 'NONE',  ( 1.000000000000000000, -0.000000000000000000, 0.000000000000000000 ) ) ;
#268 = DIRECTION ( 'NONE',  ( -0.000000000000000000, -1.000000000000000000, -0.000000000000000000 ) ) ;
#269 = CARTESIAN_POINT ( 'NONE',  ( 0.4000000000000006328, 0.2100000000000001310, 0.6000000000000000888 ) ) ;
#270 = EDGE_LOOP ( 'NONE', ( #112, #16 ) ) ;
#271 = AXIS2_PLACEMENT_3D ( 'NONE', #881, #1168, #786 ) ;
#272 = ORIENTED_EDGE ( 'NONE', *, *, #67, .F. ) ;
#273 = CARTESIAN_POINT ( 'NONE',  ( 0.000000000000000000, 0.2099999999999999922, 0.000000000000000000 ) ) ;
#274 = CIRCLE ( 'NONE', #210, 0.08429808813576628035 ) ;
#275 = DIRECTION ( 'NONE',  ( 1.000000000000000000, 0.000000000000000000, 0.000000000000000000 ) ) ;
#276 = ORIENTED_EDGE ( 'NONE', *, *, #487, .T. ) ;
#277 = DIRECTION ( 'NONE',  ( -0.000000000000000000, -1.000000000000000000, -0.000000000000000000 ) ) ;
#278 = COLOUR_RGB ( '',0.7921568627450980005, 0.8196078431372548767, 0.9333333333333333481 ) ;
#279 = ORIENTED_EDGE ( 'NONE', *, *, #1111, .T. ) ;
#280 = VECTOR ( 'NONE', #965, 1000.000000000000000 ) ;
#281 = DIRECTION ( 'NONE',  ( 0.000000000000000000, 1.000000000000000000, 0.000000000000000000 ) ) ;
#282 = EDGE_CURVE ( 'NONE', #334, #394, #923, .T. ) ;
#283 = EDGE_CURVE ( 'NONE', #845, #916, #859, .T. ) ;
#284 = DIRECTION ( 'NONE',  ( 0.000000000000000000, 0.000000000000000000, -1.000000000000000000 ) ) ;
#285 = ORIENTED_EDGE ( 'NONE', *, *, #395, .T. ) ;
#286 = PRESENTATION_LAYER_ASSIGNMENT (  '', '', ( #114 ) ) ;
#287 = SPHERICAL_SURFACE ( 'NONE', #1314, 0.1250000000000000555 ) ;
#288 =( NAMED_UNIT ( * ) PLANE_ANGLE_UNIT ( ) SI_UNIT ( $, .RADIAN. ) );
#289 = AXIS2_PLACEMENT_3D ( 'NONE', #377, #268, #1107 ) ;
#290 = ORIENTED_EDGE ( 'NONE', *, *, #481, .T. ) ;
#291 = VERTEX_POINT ( 'NONE', #1196 ) ;
#292 = AXIS2_PLACEMENT_3D ( 'NONE', #842, #315, #14 ) ;
#293 = CARTESIAN_POINT ( 'NONE',  ( -0.4886013224165708380, 0.5250000000000000222, -0.6150192058385073324 ) ) ;
#294 = EDGE_CURVE ( 'NONE', #476, #850, #1025, .T. ) ;
#295 = DIRECTION ( 'NONE',  ( 0.000000000000000000, 1.000000000000000000, 0.000000000000000000 ) ) ;
#296 = EDGE_CURVE ( 'NONE', #667, #916, #44, .T. ) ;
#297 =( LENGTH_UNIT ( ) NAMED_UNIT ( * ) SI_UNIT ( .MILLI., .METRE. ) );
#298 = STYLED_ITEM ( 'NONE', ( #944 ), #817 ) ;
#299 = ORIENTED_EDGE ( 'NONE', *, *, #478, .T. ) ;
#300 = EDGE_LOOP ( 'NONE', ( #1125, #627, #530 ) ) ;
#301 = PRODUCT_DEFINITION ( 'UNKNOWN', '', #360, #852 ) ;
#302 = CARTESIAN_POINT ( 'NONE',  ( 8.673617379884035472E-16, 0.1250000000000001110, -0.6000000000000000888 ) ) ;
#303 = AXIS2_PLACEMENT_3D ( 'NONE', #502, #928, #1211 ) ;
#304 = DIRECTION ( 'NONE',  ( 1.000000000000000000, 0.000000000000000000, 0.000000000000000000 ) ) ;
#305 = SPHERICAL_SURFACE ( 'NONE', #333, 0.1250000000000000555 ) ;
#306 = ORIENTED_EDGE ( 'NONE', *, *, #1138, .F. ) ;
#307 = VERTEX_POINT ( 'NONE', #154 ) ;
#308 =( NAMED_UNIT ( * ) PLANE_ANGLE_UNIT ( ) SI_UNIT ( $, .RADIAN. ) );
#309 = DIRECTION ( 'NONE',  ( 0.000000000000000000, -0.000000000000000000, 1.000000000000000000 ) ) ;
#310 = CARTESIAN_POINT ( 'NONE',  ( 8.673617379884035472E-16, 0.1250000000000001110, 0.2000000000000000389 ) ) ;
#311 = CIRCLE ( 'NONE', #1072, 0.1250000000000000555 ) ;
#312 = MECHANICAL_DESIGN_GEOMETRIC_PRESENTATION_REPRESENTATION (  '', ( #1186 ), #88 ) ;
#313 = SURFACE_STYLE_USAGE ( .BOTH. , #327 ) ;
#314 = DIRECTION ( 'NONE',  ( 0.000000000000000000, 0.000000000000000000, 1.000000000000000000 ) ) ;
#315 = DIRECTION ( 'NONE',  ( -0.000000000000000000, -1.000000000000000000, -0.000000000000000000 ) ) ;
#316 = ADVANCED_FACE ( 'NONE', ( #554 ), #773, .T. ) ;
#317 = EDGE_LOOP ( 'NONE', ( #1105, #306, #990, #1061 ) ) ;
#318 = VERTEX_POINT ( 'NONE', #61 ) ;
#319 =( NAMED_UNIT ( * ) PLANE_ANGLE_UNIT ( ) SI_UNIT ( $, .RADIAN. ) );
#320 = DIRECTION ( 'NONE',  ( 1.000000000000000000, 0.000000000000000000, 0.000000000000000000 ) ) ;
#321 = SURFACE_STYLE_FILL_AREA ( #848 ) ;
#322 = FACE_OUTER_BOUND ( 'NONE', #1164, .T. ) ;
#323 = ORIENTED_EDGE ( 'NONE', *, *, #514, .T. ) ;
#324 = PRESENTATION_LAYER_ASSIGNMENT (  '', '', ( #742 ) ) ;
#325 = VERTEX_POINT ( 'NONE', #464 ) ;
#326 = DIRECTION ( 'NONE',  ( -0.000000000000000000, -1.000000000000000000, -0.000000000000000000 ) ) ;
#327 = SURFACE_SIDE_STYLE ('',( #853 ) ) ;
#328 = AXIS2_PLACEMENT_3D ( 'NONE', #45, #1301, #159 ) ;
#329 = DIRECTION ( 'NONE',  ( 0.000000000000000000, 0.000000000000000000, -1.000000000000000000 ) ) ;
#330 = DIRECTION ( 'NONE',  ( 0.000000000000000000, 1.000000000000000000, 0.000000000000000000 ) ) ;
#331 =( GEOMETRIC_REPRESENTATION_CONTEXT ( 3 ) GLOBAL_UNCERTAINTY_ASSIGNED_CONTEXT ( ( #1323 ) ) GLOBAL_UNIT_ASSIGNED_CONTEXT ( ( #104, #505, #809 ) ) REPRESENTATION_CONTEXT ( 'NONE', 'WORKASPACE' ) );
#332 = ORIENTED_EDGE ( 'NONE', *, *, #731, .F. ) ;
#333 = AXIS2_PLACEMENT_3D ( 'NONE', #608, #707, #1121 ) ;
#334 = VERTEX_POINT ( 'NONE', #890 ) ;
#335 = DIRECTION ( 'NONE',  ( 1.224646799147353207E-16, 0.000000000000000000, -1.000000000000000000 ) ) ;
#336 = ADVANCED_FACE ( 'NONE', ( #695, #1117 ), #929, .T. ) ;
#337 = DIRECTION ( 'NONE',  ( 0.000000000000000000, 0.000000000000000000, -1.000000000000000000 ) ) ;
#338 = DIRECTION ( 'NONE',  ( 0.000000000000000000, 1.000000000000000000, 0.000000000000000000 ) ) ;
#339 = AXIS2_PLACEMENT_3D ( 'NONE', #1282, #56, #953 ) ;
#340 = DIRECTION ( 'NONE',  ( 0.000000000000000000, 0.000000000000000000, 1.000000000000000000 ) ) ;
#341 = AXIS2_PLACEMENT_3D ( 'NONE', #457, #340, #874 ) ;
#342 = ORIENTED_EDGE ( 'NONE', *, *, #795, .F. ) ;
#343 = DIRECTION ( 'NONE',  ( 0.000000000000000000, 0.000000000000000000, -1.000000000000000000 ) ) ;
#344 = MANIFOLD_SOLID_BREP ( 'Sketch-Pattern1[4]', #600 ) ;
#345 = DIRECTION ( 'NONE',  ( 1.000000000000000000, 0.000000000000000000, 0.000000000000000000 ) ) ;
#346 = CARTESIAN_POINT ( 'NONE',  ( -0.4916515138991162659, 0.2100000000000001310, 0.6000000000000000888 ) ) ;
#347 = AXIS2_PLACEMENT_3D ( 'NONE', #892, #369, #569 ) ;
#348 = DIRECTION ( 'NONE',  ( 0.000000000000000000, 0.000000000000000000, -1.000000000000000000 ) ) ;
#349 = DIRECTION ( 'NONE',  ( -1.000000000000000000, 0.000000000000000000, 5.274318868886618175E-16 ) ) ;
#350 = MANIFOLD_SOLID_BREP ( 'Sketch-Pattern1[10]', #957 ) ;
#351 = COLOUR_RGB ( '',1.000000000000000000, 1.000000000000000000, 1.000000000000000000 ) ;
#352 = CARTESIAN_POINT ( 'NONE',  ( 0.4000000000000006328, 0.1250000000000001110, 0.2000000000000000389 ) ) ;
#353 = DIRECTION ( 'NONE',  ( -0.000000000000000000, -1.000000000000000000, -0.000000000000000000 ) ) ;
#354 = FACE_OUTER_BOUND ( 'NONE', #579, .T. ) ;
#355 = EDGE_CURVE ( 'NONE', #563, #850, #422, .T. ) ;
#356 = CARTESIAN_POINT ( 'NONE',  ( -0.4886013224165708380, 0.5250000000000000222, -0.6993172939742735572 ) ) ;
#357 = SURFACE_STYLE_FILL_AREA ( #128 ) ;
#358 = SPHERICAL_SURFACE ( 'NONE', #138, 0.1250000000000000555 ) ;
#359 = MANIFOLD_SOLID_BREP ( 'Sketch-Pattern1[3]', #655 ) ;
#360 = PRODUCT_DEFINITION_FORMATION_WITH_SPECIFIED_SOURCE ( 'ANY', '', #672, .NOT_KNOWN. ) ;
#361 = PRESENTATION_STYLE_ASSIGNMENT (( #176 ) ) ;
#362 = AXIS2_PLACEMENT_3D ( 'NONE', #623, #424, #227 ) ;
#363 = PRESENTATION_STYLE_ASSIGNMENT (( #1294 ) ) ;
#364 = MANIFOLD_SOLID_BREP ( 'Sketch-Pattern1[1]', #1064 ) ;
#365 = CARTESIAN_POINT ( 'NONE',  ( -0.3999999999999993006, 0.1250000000000001110, -0.1999999999999999833 ) ) ;
#366 = VERTEX_POINT ( 'NONE', #648 ) ;
#367 = SHAPE_DEFINITION_REPRESENTATION ( #1044, #772 ) ;
#368 = DIRECTION ( 'NONE',  ( 0.000000000000000000, 0.000000000000000000, 1.000000000000000000 ) ) ;
#369 = DIRECTION ( 'NONE',  ( 0.000000000000000000, 0.000000000000000000, -1.000000000000000000 ) ) ;
#370 = FILL_AREA_STYLE ('',( #570 ) ) ;
#371 = DIRECTION ( 'NONE',  ( 0.000000000000000000, 0.000000000000000000, -1.000000000000000000 ) ) ;
#372 = EDGE_LOOP ( 'NONE', ( #926, #698 ) ) ;
#373 = ORIENTED_EDGE ( 'NONE', *, *, #196, .T. ) ;
#374 = CLOSED_SHELL ( 'NONE', ( #382, #418, #634 ) ) ;
#375 = DIRECTION ( 'NONE',  ( 0.000000000000000000, 1.000000000000000000, 0.000000000000000000 ) ) ;
#376 = CARTESIAN_POINT ( 'NONE',  ( -0.4886013224165708380, 0.5250000000000000222, -0.6150192058385073324 ) ) ;
#377 = CARTESIAN_POINT ( 'NONE',  ( -0.3999999999999993006, 0.2100000000000001310, 0.2000000000000000389 ) ) ;
#378 = CARTESIAN_POINT ( 'NONE',  ( -0.4886013224165708380, 0.6250000000000000000, -0.6150192058385073324 ) ) ;
#379 = SURFACE_STYLE_FILL_AREA ( #895 ) ;
#380 = VERTEX_POINT ( 'NONE', #1332 ) ;
#381 = ADVANCED_FACE ( 'NONE', ( #135 ), #1051, .T. ) ;
#382 = ADVANCED_FACE ( 'NONE', ( #952 ), #856, .T. ) ;
#383 = EDGE_CURVE ( 'NONE', #139, #265, #1152, .T. ) ;
#384 = FACE_OUTER_BOUND ( 'NONE', #620, .T. ) ;
#385 = DIRECTION ( 'NONE',  ( 0.000000000000000000, 0.000000000000000000, -1.000000000000000000 ) ) ;
#386 = CIRCLE ( 'NONE', #708, 0.09165151389911688207 ) ;
#387 =( NAMED_UNIT ( * ) SI_UNIT ( $, .STERADIAN. ) SOLID_ANGLE_UNIT ( ) );
#388 = COLOUR_RGB ( '',0.7921568627450980005, 0.8196078431372548767, 0.9333333333333333481 ) ;
#389 = EDGE_LOOP ( 'NONE', ( #696, #1236 ) ) ;
#390 = PRESENTATION_LAYER_ASSIGNMENT (  '', '', ( #970 ) ) ;
#391 = FACE_OUTER_BOUND ( 'NONE', #960, .T. ) ;
#392 =( LENGTH_UNIT ( ) NAMED_UNIT ( * ) SI_UNIT ( .MILLI., .METRE. ) );
#393 = FILL_AREA_STYLE ('',( #1203 ) ) ;
#394 = VERTEX_POINT ( 'NONE', #632 ) ;
#395 = EDGE_CURVE ( 'NONE', #307, #325, #228, .T. ) ;
#396 = AXIS2_PLACEMENT_3D ( 'NONE', #779, #898, #1179 ) ;
#397 = EDGE_CURVE ( 'NONE', #704, #599, #887, .T. ) ;
#398 = DIRECTION ( 'NONE',  ( 0.000000000000000000, 0.000000000000000000, -1.000000000000000000 ) ) ;
#399 = SPHERICAL_SURFACE ( 'NONE', #1090, 0.1250000000000000555 ) ;
#400 = CIRCLE ( 'NONE', #289, 0.09165151389911688207 ) ;
#401 = DIRECTION ( 'NONE',  ( 1.000000000000000000, 0.000000000000000000, 0.000000000000000000 ) ) ;
#402 = CARTESIAN_POINT ( 'NONE',  ( -0.4886013224165708380, 0.6250000000000000000, -0.6150192058385073324 ) ) ;
#403 = VERTEX_POINT ( 'NONE', #1059 ) ;
#404 =( GEOMETRIC_REPRESENTATION_CONTEXT ( 3 ) GLOBAL_UNCERTAINTY_ASSIGNED_CONTEXT ( ( #1102 ) ) GLOBAL_UNIT_ASSIGNED_CONTEXT ( ( #115, #521, #941 ) ) REPRESENTATION_CONTEXT ( 'NONE', 'WORKASPACE' ) );
#405 = DIRECTION ( 'NONE',  ( 1.000000000000000000, 0.000000000000000000, 0.000000000000000000 ) ) ;
#406 = AXIS2_PLACEMENT_3D ( 'NONE', #1024, #203, #1324 ) ;
#407 = FILL_AREA_STYLE_COLOUR ( '', #388 ) ;
#408 = CIRCLE ( 'NONE', #1095, 0.09165151389911693758 ) ;
#409 = DIRECTION ( 'NONE',  ( 1.224646799147353207E-16, 0.000000000000000000, -1.000000000000000000 ) ) ;
#410 = CARTESIAN_POINT ( 'NONE',  ( -0.4886013224165708380, 0.6250000000000000000, -0.6150192058385073324 ) ) ;
#411 = ORIENTED_EDGE ( 'NONE', *, *, #282, .F. ) ;
#412 = MECHANICAL_DESIGN_GEOMETRIC_PRESENTATION_REPRESENTATION (  '', ( #810 ), #57 ) ;
#413 = DIRECTION ( 'NONE',  ( -0.000000000000000000, -1.000000000000000000, -0.000000000000000000 ) ) ;
#414 = DIRECTION ( 'NONE',  ( 0.000000000000000000, 0.000000000000000000, -1.000000000000000000 ) ) ;
#415 = CARTESIAN_POINT ( 'NONE',  ( 0.3083484861008837230, 0.2100000000000001310, 0.6000000000000000888 ) ) ;
#416 = ORIENTED_EDGE ( 'NONE', *, *, #616, .T. ) ;
#417 = EDGE_CURVE ( 'NONE', #1110, #121, #1047, .T. ) ;
#418 = ADVANCED_FACE ( 'NONE', ( #119 ), #750, .F. ) ;
#419 = DIRECTION ( 'NONE',  ( -0.000000000000000000, -1.000000000000000000, -0.000000000000000000 ) ) ;
#420 = CARTESIAN_POINT ( 'NONE',  ( 0.5999999999999996447, 0.2100000000000001310, -1.022250000000000991 ) ) ;
#421 = ORIENTED_EDGE ( 'NONE', *, *, #1243, .F. ) ;
#422 = CIRCLE ( 'NONE', #1317, 0.1250000000000001110 ) ;
#423 = LINE ( 'NONE', #1042, #611 ) ;
#424 = DIRECTION ( 'NONE',  ( 0.000000000000000000, -1.000000000000000000, -0.000000000000000000 ) ) ;
#425 = DIRECTION ( 'NONE',  ( 0.000000000000000000, -1.000000000000000000, -0.000000000000000000 ) ) ;
#426 = ORIENTED_EDGE ( 'NONE', *, *, #3, .F. ) ;
#427 = EDGE_LOOP ( 'NONE', ( #636, #689, #496 ) ) ;
#428 = ADVANCED_FACE ( 'NONE', ( #511 ), #22, .F. ) ;
#429 = EDGE_CURVE ( 'NONE', #32, #914, #2, .T. ) ;
#430 = FACE_OUTER_BOUND ( 'NONE', #165, .T. ) ;
#431 = AXIS2_PLACEMENT_3D ( 'NONE', #497, #1114, #193 ) ;
#432 = DIRECTION ( 'NONE',  ( -1.000000000000000000, 0.000000000000000000, 0.000000000000000000 ) ) ;
#433 = DIRECTION ( 'NONE',  ( 0.000000000000000000, 0.000000000000000000, -1.000000000000000000 ) ) ;
#434 = CIRCLE ( 'NONE', #986, 0.1250000000000001110 ) ;
#435 = ORIENTED_EDGE ( 'NONE', *, *, #1053, .T. ) ;
#436 = ORIENTED_EDGE ( 'NONE', *, *, #764, .F. ) ;
#437 = DIRECTION ( 'NONE',  ( 1.224646799147353207E-16, 0.000000000000000000, -1.000000000000000000 ) ) ;
#438 = DIRECTION ( 'NONE',  ( 0.000000000000000000, 0.000000000000000000, -1.000000000000000000 ) ) ;
#439 = LINE ( 'NONE', #544, #280 ) ;
#440 = SURFACE_SIDE_STYLE ('',( #357 ) ) ;
#441 = ORIENTED_EDGE ( 'NONE', *, *, #1053, .F. ) ;
#442 = AXIS2_PLACEMENT_3D ( 'NONE', #190, #413, #207 ) ;
#443 = PRESENTATION_LAYER_ASSIGNMENT (  '', '', ( #231 ) ) ;
#444 = ORIENTED_EDGE ( 'NONE', *, *, #719, .F. ) ;
#445 = PRESENTATION_LAYER_ASSIGNMENT (  '', '', ( #298 ) ) ;
#446 = DIRECTION ( 'NONE',  ( 0.000000000000000000, 0.000000000000000000, 1.000000000000000000 ) ) ;
#447 = DIRECTION ( 'NONE',  ( 1.224646799147353207E-16, 0.000000000000000000, -1.000000000000000000 ) ) ;
#448 = CARTESIAN_POINT ( 'NONE',  ( 6.505213034913026604E-16, 0.1250000000000001110, 0.6000000000000000888 ) ) ;
#449 =( GEOMETRIC_REPRESENTATION_CONTEXT ( 3 ) GLOBAL_UNCERTAINTY_ASSIGNED_CONTEXT ( ( #827 ) ) GLOBAL_UNIT_ASSIGNED_CONTEXT ( ( #239, #1054, #1274 ) ) REPRESENTATION_CONTEXT ( 'NONE', 'WORKASPACE' ) );
#450 = CARTESIAN_POINT ( 'NONE',  ( -0.3083484861008824462, 0.2100000000000001310, -0.1999999999999999833 ) ) ;
#451 = COLOUR_RGB ( '',0.7921568627450980005, 0.8196078431372548767, 0.9333333333333333481 ) ;
#452 = CARTESIAN_POINT ( 'NONE',  ( -0.6939999999999995062, 0.2100000000000001310, 0.8222499999999974829 ) ) ;
#453 = CARTESIAN_POINT ( 'NONE',  ( 0.6939999999999992841, 0.6250000000000000000, 0.8222499999999983711 ) ) ;
#454 = ORIENTED_EDGE ( 'NONE', *, *, #766, .F. ) ;
#455 = DIRECTION ( 'NONE',  ( 0.000000000000000000, 0.000000000000000000, -1.000000000000000000 ) ) ;
#456 = PRESENTATION_STYLE_ASSIGNMENT (( #994 ) ) ;
#457 = CARTESIAN_POINT ( 'NONE',  ( -0.3999999999999993006, 0.1250000000000001110, 0.6000000000000000888 ) ) ;
#458 = PRESENTATION_LAYER_ASSIGNMENT (  '', '', ( #810 ) ) ;
#459 = FACE_OUTER_BOUND ( 'NONE', #1307, .T. ) ;
#460 = DIRECTION ( 'NONE',  ( 1.000000000000000000, 0.000000000000000000, 0.000000000000000000 ) ) ;
#461 = FACE_OUTER_BOUND ( 'NONE', #427, .T. ) ;
#462 =( LENGTH_UNIT ( ) NAMED_UNIT ( * ) SI_UNIT ( .MILLI., .METRE. ) );
#463 = COLOUR_RGB ( '',0.7921568627450980005, 0.8196078431372548767, 0.9333333333333333481 ) ;
#464 = CARTESIAN_POINT ( 'NONE',  ( -0.09165151389911602164, 0.2100000000000001310, -0.1999999999999999833 ) ) ;
#465 = AXIS2_PLACEMENT_3D ( 'NONE', #776, #1269, #531 ) ;
#466 = FILL_AREA_STYLE_COLOUR ( '', #991 ) ;
#467 = FACE_OUTER_BOUND ( 'NONE', #300, .T. ) ;
#468 = DIRECTION ( 'NONE',  ( 0.000000000000000000, 0.000000000000000000, -1.000000000000000000 ) ) ;
#469 = ORIENTED_EDGE ( 'NONE', *, *, #513, .F. ) ;
#470 = FILL_AREA_STYLE_COLOUR ( '', #238 ) ;
#471 = ORIENTED_EDGE ( 'NONE', *, *, #1099, .T. ) ;
#472 = CARTESIAN_POINT ( 'NONE',  ( -0.3999999999999990785, 0.1250000000000001110, -0.6000000000000000888 ) ) ;
#473 = DIRECTION ( 'NONE',  ( 1.000000000000000000, 0.000000000000000000, 0.000000000000000000 ) ) ;
#474 =( GEOMETRIC_REPRESENTATION_CONTEXT ( 3 ) GLOBAL_UNCERTAINTY_ASSIGNED_CONTEXT ( ( #242 ) ) GLOBAL_UNIT_ASSIGNED_CONTEXT ( ( #462, #984, #683 ) ) REPRESENTATION_CONTEXT ( 'NONE', 'WORKASPACE' ) );
#475 = EDGE_CURVE ( 'NONE', #599, #704, #755, .T. ) ;
#476 = VERTEX_POINT ( 'NONE', #415 ) ;
#477 = CLOSED_SHELL ( 'NONE', ( #5, #428, #1040 ) ) ;
#478 = EDGE_CURVE ( 'NONE', #1154, #403, #1318, .T. ) ;
#479 =( LENGTH_UNIT ( ) NAMED_UNIT ( * ) SI_UNIT ( .MILLI., .METRE. ) );
#480 = CARTESIAN_POINT ( 'NONE',  ( -0.3999999999999993006, 0.1250000000000001110, 0.2000000000000000389 ) ) ;
#481 = EDGE_CURVE ( 'NONE', #291, #606, #153, .T. ) ;
#482 = FILL_AREA_STYLE_COLOUR ( '', #351 ) ;
#483 = ORIENTED_EDGE ( 'NONE', *, *, #1002, .F. ) ;
#484 = FACE_OUTER_BOUND ( 'NONE', #232, .T. ) ;
#485 = CARTESIAN_POINT ( 'NONE',  ( 0.6939999999999992841, 0.2100000000000001310, 0.8222499999999983711 ) ) ;
#486 = AXIS2_PLACEMENT_3D ( 'NONE', #646, #133, #66 ) ;
#487 = EDGE_CURVE ( 'NONE', #1316, #174, #54, .T. ) ;
#488 = AXIS2_PLACEMENT_3D ( 'NONE', #269, #1290, #656 ) ;
#489 = EDGE_CURVE ( 'NONE', #380, #1119, #175, .T. ) ;
#490 = ORIENTED_EDGE ( 'NONE', *, *, #1108, .T. ) ;
#491 = CARTESIAN_POINT ( 'NONE',  ( -0.4886013224165708380, 0.6250000000000000000, -0.6150192058385073324 ) ) ;
#492 = PLANE ( 'NONE',  #609 ) ;
#493 = PRODUCT_RELATED_PRODUCT_CATEGORY ( 'part', '', ( #672 ) ) ;
#494 = CYLINDRICAL_SURFACE ( 'NONE', #993, 0.08429808813576628035 ) ;
#495 = EDGE_LOOP ( 'NONE', ( #1041, #939 ) ) ;
#496 = ORIENTED_EDGE ( 'NONE', *, *, #795, .T. ) ;
#497 = CARTESIAN_POINT ( 'NONE',  ( 0.4000000000000006328, 0.1250000000000001110, 0.6000000000000000888 ) ) ;
#498 = DIRECTION ( 'NONE',  ( 1.000000000000000000, 0.000000000000000000, 0.000000000000000000 ) ) ;
#499 =( LENGTH_UNIT ( ) NAMED_UNIT ( * ) SI_UNIT ( .MILLI., .METRE. ) );
#500 = EDGE_LOOP ( 'NONE', ( #794, #649, #18 ) ) ;
#501 = PRESENTATION_LAYER_ASSIGNMENT (  '', '', ( #1087 ) ) ;
#502 = CARTESIAN_POINT ( 'NONE',  ( -0.3999999999999990785, 0.1250000000000001110, -0.6000000000000000888 ) ) ;
#503 = FACE_OUTER_BOUND ( 'NONE', #997, .T. ) ;
#504 = VECTOR ( 'NONE', #295, 1000.000000000000000 ) ;
#505 =( NAMED_UNIT ( * ) PLANE_ANGLE_UNIT ( ) SI_UNIT ( $, .RADIAN. ) );
#506 = VERTEX_POINT ( 'NONE', #1066 ) ;
#507 = AXIS2_PLACEMENT_3D ( 'NONE', #1321, #197, #998 ) ;
#508 = AXIS2_PLACEMENT_3D ( 'NONE', #1258, #837, #1032 ) ;
#509 = PRESENTATION_STYLE_ASSIGNMENT (( #313 ) ) ;
#510 = FACE_OUTER_BOUND ( 'NONE', #1277, .T. ) ;
#511 = FACE_OUTER_BOUND ( 'NONE', #833, .T. ) ;
#512 = ADVANCED_FACE ( 'NONE', ( #354 ), #1174, .F. ) ;
#513 = EDGE_CURVE ( 'NONE', #914, #32, #1210, .T. ) ;
#514 = EDGE_CURVE ( 'NONE', #403, #1326, #109, .T. ) ;
#515 = DIRECTION ( 'NONE',  ( 0.000000000000000000, -1.000000000000000000, -0.000000000000000000 ) ) ;
#516 = CARTESIAN_POINT ( 'NONE',  ( -0.3999999999999990785, 0.2100000000000001310, -0.6000000000000000888 ) ) ;
#517 = PRESENTATION_LAYER_ASSIGNMENT (  '', '', ( #813 ) ) ;
#518 = ORIENTED_EDGE ( 'NONE', *, *, #3, .T. ) ;
#519 = VERTEX_POINT ( 'NONE', #346 ) ;
#520 = DIRECTION ( 'NONE',  ( 1.224646799147353207E-16, 0.000000000000000000, -1.000000000000000000 ) ) ;
#521 =( NAMED_UNIT ( * ) PLANE_ANGLE_UNIT ( ) SI_UNIT ( $, .RADIAN. ) );
#522 = EDGE_CURVE ( 'NONE', #318, #506, #621, .T. ) ;
#523 = CIRCLE ( 'NONE', #1052, 0.1250000000000000555 ) ;
#524 = ORIENTED_EDGE ( 'NONE', *, *, #282, .T. ) ;
#525 = EDGE_CURVE ( 'NONE', #1015, #325, #694, .T. ) ;
#526 = DIRECTION ( 'NONE',  ( -1.000000000000000000, 0.000000000000000000, 0.000000000000000000 ) ) ;
#527 = PLANE ( 'NONE',  #598 ) ;
#528 = EDGE_CURVE ( 'NONE', #851, #606, #439, .T. ) ;
#529 = CARTESIAN_POINT ( 'NONE',  ( -0.3999999999999993006, 0.2100000000000001310, 0.6000000000000000888 ) ) ;
#530 = ORIENTED_EDGE ( 'NONE', *, *, #397, .T. ) ;
#531 = DIRECTION ( 'NONE',  ( 1.000000000000000000, 0.000000000000000000, 0.000000000000000000 ) ) ;
#532 = PLANE ( 'NONE',  #546 ) ;
#533 = AXIS2_PLACEMENT_3D ( 'NONE', #96, #1328, #405 ) ;
#534 = SPHERICAL_SURFACE ( 'NONE', #938, 0.1250000000000000555 ) ;
#535 = DIRECTION ( 'NONE',  ( 0.000000000000000000, 0.000000000000000000, 1.000000000000000000 ) ) ;
#536 = CLOSED_SHELL ( 'NONE', ( #826, #902, #663 ) ) ;
#537 = VERTEX_POINT ( 'NONE', #450 ) ;
#538 = PLANE ( 'NONE',  #1331 ) ;
#539 = UNCERTAINTY_MEASURE_WITH_UNIT (LENGTH_MEASURE( 1.000000000000000082E-05 ), #79, 'distance_accuracy_value', 'NONE');
#540 = PRODUCT_CONTEXT ( 'NONE', #706, 'mechanical' ) ;
#541 = AXIS2_PLACEMENT_3D ( 'NONE', #1089, #545, #473 ) ;
#542 = CARTESIAN_POINT ( 'NONE',  ( 1.399999999999999467, 0.2100000000000001310, -0.2222500000000008635 ) ) ;
#543 = DIRECTION ( 'NONE',  ( -0.000000000000000000, 1.000000000000000000, -0.000000000000000000 ) ) ;
#544 = CARTESIAN_POINT ( 'NONE',  ( 0.6939999999999992841, 0.6250000000000000000, 0.8222499999999983711 ) ) ;
#545 = DIRECTION ( 'NONE',  ( 0.000000000000000000, 0.000000000000000000, -1.000000000000000000 ) ) ;
#546 = AXIS2_PLACEMENT_3D ( 'NONE', #1147, #934, #607 ) ;
#547 = CARTESIAN_POINT ( 'NONE',  ( 0.4000000000000006328, 0.1250000000000001110, 0.2000000000000000389 ) ) ;
#548 = STYLED_ITEM ( 'NONE', ( #847 ), #815 ) ;
#549 = AXIS2_PLACEMENT_3D ( 'NONE', #1183, #673, #981 ) ;
#550 = CARTESIAN_POINT ( 'NONE',  ( -0.6939999999999992841, 0.6250000000000000000, 0.8222499999999974829 ) ) ;
#551 = CARTESIAN_POINT ( 'NONE',  ( -0.3083484861008824462, 0.2100000000000001310, 0.6000000000000000888 ) ) ;
#552 = CARTESIAN_POINT ( 'NONE',  ( 8.673617379884035472E-16, 0.1250000000000001110, -0.1999999999999999833 ) ) ;
#553 = AXIS2_PLACEMENT_3D ( 'NONE', #1167, #245, #654 ) ;
#554 = FACE_OUTER_BOUND ( 'NONE', #793, .T. ) ;
#555 = DIRECTION ( 'NONE',  ( 0.000000000000000000, 0.000000000000000000, -1.000000000000000000 ) ) ;
#556 = LINE ( 'NONE', #897, #1158 ) ;
#557 = LINE ( 'NONE', #1189, #700 ) ;
#558 = FILL_AREA_STYLE_COLOUR ( '', #1217 ) ;
#559 = DIRECTION ( 'NONE',  ( 0.000000000000000000, 0.000000000000000000, 1.000000000000000000 ) ) ;
#560 = DIRECTION ( 'NONE',  ( -0.000000000000000000, -1.000000000000000000, -0.000000000000000000 ) ) ;
#561 =( NAMED_UNIT ( * ) SI_UNIT ( $, .STERADIAN. ) SOLID_ANGLE_UNIT ( ) );
#562 = DIRECTION ( 'NONE',  ( 0.000000000000000000, 1.000000000000000000, 0.000000000000000000 ) ) ;
#563 = VERTEX_POINT ( 'NONE', #1280 ) ;
#564 = AXIS2_PLACEMENT_3D ( 'NONE', #1062, #326, #555 ) ;
#565 = ORIENTED_EDGE ( 'NONE', *, *, #780, .T. ) ;
#566 = CIRCLE ( 'NONE', #690, 0.09165151389911693758 ) ;
#567 = AXIS2_PLACEMENT_3D ( 'NONE', #65, #446, #1178 ) ;
#568 = DIRECTION ( 'NONE',  ( 0.000000000000000000, 0.000000000000000000, -1.000000000000000000 ) ) ;
#569 = DIRECTION ( 'NONE',  ( 1.000000000000000000, 0.000000000000000000, 0.000000000000000000 ) ) ;
#570 = FILL_AREA_STYLE_COLOUR ( '', #451 ) ;
#571 = STYLED_ITEM ( 'NONE', ( #1184 ), #148 ) ;
#572 = VECTOR ( 'NONE', #771, 1000.000000000000000 ) ;
#573 = ADVANCED_FACE ( 'NONE', ( #251 ), #1305, .T. ) ;
#574 = ORIENTED_EDGE ( 'NONE', *, *, #1299, .F. ) ;
#575 = EDGE_LOOP ( 'NONE', ( #905, #276, #1261, #711 ) ) ;
#576 = MANIFOLD_SOLID_BREP ( 'Sketch-Pattern1[2]', #1235 ) ;
#577 = FACE_OUTER_BOUND ( 'NONE', #204, .T. ) ;
#578 = SURFACE_STYLE_USAGE ( .BOTH. , #1012 ) ;
#579 = EDGE_LOOP ( 'NONE', ( #469, #811 ) ) ;
#580 = AXIS2_PLACEMENT_3D ( 'NONE', #215, #314, #320 ) ;
#581 = ORIENTED_EDGE ( 'NONE', *, *, #198, .F. ) ;
#582 = UNCERTAINTY_MEASURE_WITH_UNIT (LENGTH_MEASURE( 1.000000000000000082E-05 ), #1279, 'distance_accuracy_value', 'NONE');
#583 = DIRECTION ( 'NONE',  ( 0.000000000000000000, 0.000000000000000000, -1.000000000000000000 ) ) ;
#584 = CARTESIAN_POINT ( 'NONE',  ( 0.4000000000000006328, 0.1250000000000001110, 0.6000000000000000888 ) ) ;
#585 = ORIENTED_EDGE ( 'NONE', *, *, #89, .F. ) ;
#586 = AXIS2_PLACEMENT_3D ( 'NONE', #1157, #132, #1034 ) ;
#587 = CARTESIAN_POINT ( 'NONE',  ( -0.3999999999999990785, 5.421010862427522170E-17, -0.6000000000000000888 ) ) ;
#588 =( NAMED_UNIT ( * ) SI_UNIT ( $, .STERADIAN. ) SOLID_ANGLE_UNIT ( ) );
#589 = AXIS2_PLACEMENT_3D ( 'NONE', #862, #855, #951 ) ;
#590 = FILL_AREA_STYLE_COLOUR ( '', #913 ) ;
#591 = PRESENTATION_LAYER_ASSIGNMENT (  '', '', ( #212 ) ) ;
#592 = DIRECTION ( 'NONE',  ( 1.000000000000000000, 0.000000000000000000, 0.000000000000000000 ) ) ;
#593 = ORIENTED_EDGE ( 'NONE', *, *, #478, .F. ) ;
#594 = EDGE_LOOP ( 'NONE', ( #1252, #147, #943 ) ) ;
#595 = FACE_OUTER_BOUND ( 'NONE', #1146, .T. ) ;
#596 = DIRECTION ( 'NONE',  ( 1.000000000000000000, 0.000000000000000000, 0.000000000000000000 ) ) ;
#597 = SURFACE_STYLE_FILL_AREA ( #195 ) ;
#598 = AXIS2_PLACEMENT_3D ( 'NONE', #1250, #1143, #329 ) ;
#599 = VERTEX_POINT ( 'NONE', #684 ) ;
#600 = CLOSED_SHELL ( 'NONE', ( #1256, #149, #677 ) ) ;
#601 = DIRECTION ( 'NONE',  ( 0.000000000000000000, 0.000000000000000000, -1.000000000000000000 ) ) ;
#602 = CARTESIAN_POINT ( 'NONE',  ( -0.6939999999999992841, 0.2100000000000001310, 0.8222499999999974829 ) ) ;
#603 = MANIFOLD_SOLID_BREP ( 'Boss-Extrude2', #716 ) ;
#604 = SURFACE_STYLE_FILL_AREA ( #824 ) ;
#605 = CIRCLE ( 'NONE', #1309, 0.09165151389911693758 ) ;
#606 = VERTEX_POINT ( 'NONE', #995 ) ;
#607 = DIRECTION ( 'NONE',  ( 1.000000000000000000, 0.000000000000000000, 6.249003875997149637E-16 ) ) ;
#608 = CARTESIAN_POINT ( 'NONE',  ( 8.673617379884035472E-16, 0.1250000000000001110, 0.2000000000000000389 ) ) ;
#609 = AXIS2_PLACEMENT_3D ( 'NONE', #1293, #267, #1304 ) ;
#610 = DIRECTION ( 'NONE',  ( 0.000000000000000000, 0.000000000000000000, -1.000000000000000000 ) ) ;
#611 = VECTOR ( 'NONE', #834, 1000.000000000000000 ) ;
#612 = EDGE_CURVE ( 'NONE', #291, #187, #83, .T. ) ;
#613 = DIRECTION ( 'NONE',  ( 0.000000000000000000, 1.000000000000000000, 0.000000000000000000 ) ) ;
#614 = CIRCLE ( 'NONE', #947, 0.09165151389911688207 ) ;
#615 = EDGE_CURVE ( 'NONE', #1248, #130, #400, .T. ) ;
#616 = EDGE_CURVE ( 'NONE', #366, #537, #919, .T. ) ;
#617 = AXIS2_PLACEMENT_3D ( 'NONE', #1067, #767, #1175 ) ;
#618 = ORIENTED_EDGE ( 'NONE', *, *, #1111, .F. ) ;
#619 = AXIS2_PLACEMENT_3D ( 'NONE', #1092, #86, #284 ) ;
#620 = EDGE_LOOP ( 'NONE', ( #1141, #94, #1322 ) ) ;
#621 = CIRCLE ( 'NONE', #553, 0.09165151389911693758 ) ;
#622 = DIRECTION ( 'NONE',  ( 0.000000000000000000, 0.000000000000000000, -1.000000000000000000 ) ) ;
#623 = CARTESIAN_POINT ( 'NONE',  ( 0.5999999999999996447, 0.2100000000000001310, -0.6222500000000008580 ) ) ;
#624 = CARTESIAN_POINT ( 'NONE',  ( -0.3999999999999993006, 0.1250000000000001110, -0.1999999999999999833 ) ) ;
#625 = MANIFOLD_SOLID_BREP ( 'Sketch-Pattern1[9]', #477 ) ;
#626 = ORIENTED_EDGE ( 'NONE', *, *, #1038, .F. ) ;
#627 = ORIENTED_EDGE ( 'NONE', *, *, #160, .T. ) ;
#628 = CIRCLE ( 'NONE', #396, 0.09165151389911693758 ) ;
#629 = CARTESIAN_POINT ( 'NONE',  ( 0.4000000000000006328, 5.421010862427522170E-17, 0.2000000000000000389 ) ) ;
#630 = EDGE_CURVE ( 'NONE', #187, #1316, #1081, .T. ) ;
#631 = CARTESIAN_POINT ( 'NONE',  ( 8.673617379884035472E-16, 0.1250000000000001110, -0.6000000000000000888 ) ) ;
#632 = CARTESIAN_POINT ( 'NONE',  ( -0.4886013224165708380, 0.6250000000000000000, -0.5307211177027411075 ) ) ;
#633 = MECHANICAL_DESIGN_GEOMETRIC_PRESENTATION_REPRESENTATION (  '', ( #742 ), #1028 ) ;
#634 = ADVANCED_FACE ( 'NONE', ( #503 ), #1127, .T. ) ;
#635 = ORIENTED_EDGE ( 'NONE', *, *, #1185, .T. ) ;
#636 = ORIENTED_EDGE ( 'NONE', *, *, #1099, .F. ) ;
#637 = CARTESIAN_POINT ( 'NONE',  ( 0.5999999999999996447, 0.2100000000000001310, -0.2222500000000008635 ) ) ;
#638 = AXIS2_PLACEMENT_3D ( 'NONE', #420, #830, #733 ) ;
#639 = SURFACE_SIDE_STYLE ('',( #1298 ) ) ;
#640 = FACE_OUTER_BOUND ( 'NONE', #211, .T. ) ;
#641 = FILL_AREA_STYLE_COLOUR ( '', #463 ) ;
#642 = CIRCLE ( 'NONE', #823, 0.1250000000000001110 ) ;
#643 = ORIENTED_EDGE ( 'NONE', *, *, #782, .T. ) ;
#644 = ORIENTED_EDGE ( 'NONE', *, *, #49, .F. ) ;
#645 = FACE_OUTER_BOUND ( 'NONE', #372, .T. ) ;
#646 = CARTESIAN_POINT ( 'NONE',  ( 1.399999999999999467, 0.2100000000000001310, -0.6222500000000008580 ) ) ;
#647 = CARTESIAN_POINT ( 'NONE',  ( -0.3999999999999993006, 0.1250000000000001110, 0.6000000000000000888 ) ) ;
#648 = CARTESIAN_POINT ( 'NONE',  ( -0.4916515138991162659, 0.2100000000000001310, -0.1999999999999999833 ) ) ;
#649 = ORIENTED_EDGE ( 'NONE', *, *, #1002, .T. ) ;
#650 = EDGE_LOOP ( 'NONE', ( #581, #832, #199 ) ) ;
#651 = SPHERICAL_SURFACE ( 'NONE', #151, 0.1250000000000000555 ) ;
#652 = AXIS2_PLACEMENT_3D ( 'NONE', #964, #1173, #661 ) ;
#653 = FACE_OUTER_BOUND ( 'NONE', #317, .T. ) ;
#654 = DIRECTION ( 'NONE',  ( 0.000000000000000000, 0.000000000000000000, -1.000000000000000000 ) ) ;
#655 = CLOSED_SHELL ( 'NONE', ( #1013, #871, #1151 ) ) ;
#656 = DIRECTION ( 'NONE',  ( 0.000000000000000000, 0.000000000000000000, -1.000000000000000000 ) ) ;
#657 = DIRECTION ( 'NONE',  ( 0.000000000000000000, 0.000000000000000000, -1.000000000000000000 ) ) ;
#658 = ORIENTED_EDGE ( 'NONE', *, *, #612, .F. ) ;
#659 = DIRECTION ( 'NONE',  ( 0.000000000000000000, 0.000000000000000000, 1.000000000000000000 ) ) ;
#660 =( NAMED_UNIT ( * ) PLANE_ANGLE_UNIT ( ) SI_UNIT ( $, .RADIAN. ) );
#661 = DIRECTION ( 'NONE',  ( 0.000000000000000000, 0.000000000000000000, 1.000000000000000000 ) ) ;
#662 = DIRECTION ( 'NONE',  ( -0.000000000000000000, -1.000000000000000000, -0.000000000000000000 ) ) ;
#663 = ADVANCED_FACE ( 'NONE', ( #510 ), #829, .T. ) ;
#664 = PLANE ( 'NONE',  #328 ) ;
#665 = CARTESIAN_POINT ( 'NONE',  ( -0.4916515138991162659, 0.2100000000000001310, 0.2000000000000000389 ) ) ;
#666 = ADVANCED_FACE ( 'NONE', ( #7 ), #399, .T. ) ;
#667 = VERTEX_POINT ( 'NONE', #1222 ) ;
#668 = CIRCLE ( 'NONE', #85, 0.09165151389911688207 ) ;
#669 =( GEOMETRIC_REPRESENTATION_CONTEXT ( 3 ) GLOBAL_UNCERTAINTY_ASSIGNED_CONTEXT ( ( #1238 ) ) GLOBAL_UNIT_ASSIGNED_CONTEXT ( ( #499, #1020, #92 ) ) REPRESENTATION_CONTEXT ( 'NONE', 'WORKASPACE' ) );
#670 = DIRECTION ( 'NONE',  ( -0.000000000000000000, -1.000000000000000000, -0.000000000000000000 ) ) ;
#671 = LINE ( 'NONE', #1070, #1283 ) ;
#672 = PRODUCT ( 'YFF12', 'YFF12', '', ( #540 ) ) ;
#673 = DIRECTION ( 'NONE',  ( 0.000000000000000000, 1.000000000000000000, 0.000000000000000000 ) ) ;
#674 = DIRECTION ( 'NONE',  ( 1.000000000000000000, 0.000000000000000000, 0.000000000000000000 ) ) ;
#675 = SPHERICAL_SURFACE ( 'NONE', #347, 0.1250000000000000555 ) ;
#676 = DIRECTION ( 'NONE',  ( -0.000000000000000000, -1.000000000000000000, -0.000000000000000000 ) ) ;
#677 = ADVANCED_FACE ( 'NONE', ( #1329 ), #305, .T. ) ;
#678 = CLOSED_SHELL ( 'NONE', ( #1239, #920, #1286 ) ) ;
#679 = CYLINDRICAL_SURFACE ( 'NONE', #1266, 0.08429808813576628035 ) ;
#680 = EDGE_LOOP ( 'NONE', ( #969, #948 ) ) ;
#681 = EDGE_CURVE ( 'NONE', #187, #851, #1230, .T. ) ;
#682 = CARTESIAN_POINT ( 'NONE',  ( -0.4886013224165708380, 0.5250000000000000222, -0.6150192058385073324 ) ) ;
#683 =( NAMED_UNIT ( * ) SI_UNIT ( $, .STERADIAN. ) SOLID_ANGLE_UNIT ( ) );
#684 = CARTESIAN_POINT ( 'NONE',  ( 0.3083484861008841671, 0.2100000000000001310, -0.6000000000000000888 ) ) ;
#685 = CIRCLE ( 'NONE', #1327, 0.1250000000000000555 ) ;
#686 = AXIS2_PLACEMENT_3D ( 'NONE', #1251, #433, #946 ) ;
#687 = FACE_OUTER_BOUND ( 'NONE', #71, .T. ) ;
#688 = VERTEX_POINT ( 'NONE', #935 ) ;
#689 = ORIENTED_EDGE ( 'NONE', *, *, #719, .T. ) ;
#690 = AXIS2_PLACEMENT_3D ( 'NONE', #1188, #670, #72 ) ;
#691 = DIRECTION ( 'NONE',  ( -0.000000000000000000, -1.000000000000000000, -0.000000000000000000 ) ) ;
#692 = DIRECTION ( 'NONE',  ( 0.000000000000000000, 0.000000000000000000, -1.000000000000000000 ) ) ;
#693 = MECHANICAL_DESIGN_GEOMETRIC_PRESENTATION_REPRESENTATION (  '', ( #571 ), #449 ) ;
#694 = CIRCLE ( 'NONE', #870, 0.1250000000000000555 ) ;
#695 = FACE_BOUND ( 'NONE', #205, .T. ) ;
#696 = ORIENTED_EDGE ( 'NONE', *, *, #117, .F. ) ;
#697 = SURFACE_SIDE_STYLE ('',( #379 ) ) ;
#698 = ORIENTED_EDGE ( 'NONE', *, *, #145, .F. ) ;
#699 = SPHERICAL_SURFACE ( 'NONE', #1132, 0.1250000000000000555 ) ;
#700 = VECTOR ( 'NONE', #353, 1000.000000000000000 ) ;
#701 = EDGE_LOOP ( 'NONE', ( #421, #95, #758 ) ) ;
#702 = CARTESIAN_POINT ( 'NONE',  ( 8.673617379884035472E-16, 0.1250000000000001110, 0.2000000000000000389 ) ) ;
#703 = AXIS2_PLACEMENT_3D ( 'NONE', #624, #221, #209 ) ;
#704 = VERTEX_POINT ( 'NONE', #822 ) ;
#705 = ORIENTED_EDGE ( 'NONE', *, *, #429, .T. ) ;
#706 = APPLICATION_CONTEXT ( 'automotive_design' ) ;
#707 = DIRECTION ( 'NONE',  ( 0.000000000000000000, 0.000000000000000000, -1.000000000000000000 ) ) ;
#708 = AXIS2_PLACEMENT_3D ( 'NONE', #1080, #560, #982 ) ;
#709 =( NAMED_UNIT ( * ) PLANE_ANGLE_UNIT ( ) SI_UNIT ( $, .RADIAN. ) );
#710 = EDGE_LOOP ( 'NONE', ( #11, #644 ) ) ;
#711 = ORIENTED_EDGE ( 'NONE', *, *, #612, .T. ) ;
#712 = DIRECTION ( 'NONE',  ( 0.000000000000000000, 1.000000000000000000, 0.000000000000000000 ) ) ;
#713 = DIRECTION ( 'NONE',  ( 0.000000000000000000, 0.000000000000000000, -1.000000000000000000 ) ) ;
#714 = CIRCLE ( 'NONE', #136, 0.09165151389911688207 ) ;
#715 = EDGE_LOOP ( 'NONE', ( #444, #471, #435 ) ) ;
#716 = CLOSED_SHELL ( 'NONE', ( #1140, #162, #316, #976 ) ) ;
#717 = CARTESIAN_POINT ( 'NONE',  ( 0.09165151389911775637, 0.2100000000000001310, 0.2000000000000000389 ) ) ;
#718 = DIRECTION ( 'NONE',  ( -5.274318868886618175E-16, 0.000000000000000000, -1.000000000000000000 ) ) ;
#719 = EDGE_CURVE ( 'NONE', #31, #1198, #796, .T. ) ;
#720 = PRESENTATION_STYLE_ASSIGNMENT (( #1036 ) ) ;
#721 = CIRCLE ( 'NONE', #37, 0.1250000000000001110 ) ;
#722 = ORIENTED_EDGE ( 'NONE', *, *, #522, .F. ) ;
#723 = ORIENTED_EDGE ( 'NONE', *, *, #383, .F. ) ;
#724 = CARTESIAN_POINT ( 'NONE',  ( -0.4886013224165708380, 0.5250000000000000222, -0.5307211177027411075 ) ) ;
#725 =( GEOMETRIC_REPRESENTATION_CONTEXT ( 3 ) GLOBAL_UNCERTAINTY_ASSIGNED_CONTEXT ( ( #737 ) ) GLOBAL_UNIT_ASSIGNED_CONTEXT ( ( #206, #319, #828 ) ) REPRESENTATION_CONTEXT ( 'NONE', 'WORKASPACE' ) );
#726 = DIRECTION ( 'NONE',  ( 1.224646799147353207E-16, 0.000000000000000000, -1.000000000000000000 ) ) ;
#727 = AXIS2_PLACEMENT_3D ( 'NONE', #1172, #739, #526 ) ;
#728 = PRESENTATION_LAYER_ASSIGNMENT (  '', '', ( #1186 ) ) ;
#729 = ORIENTED_EDGE ( 'NONE', *, *, #1126, .T. ) ;
#730 = ORIENTED_EDGE ( 'NONE', *, *, #417, .T. ) ;
#731 = EDGE_CURVE ( 'NONE', #394, #334, #274, .T. ) ;
#732 = SURFACE_STYLE_FILL_AREA ( #940 ) ;
#733 = DIRECTION ( 'NONE',  ( 0.000000000000000000, 0.000000000000000000, -1.000000000000000000 ) ) ;
#734 = EDGE_CURVE ( 'NONE', #1119, #519, #987, .T. ) ;
#735 = EDGE_LOOP ( 'NONE', ( #1268, #736, #618, #858 ) ) ;
#736 = ORIENTED_EDGE ( 'NONE', *, *, #681, .T. ) ;
#737 = UNCERTAINTY_MEASURE_WITH_UNIT (LENGTH_MEASURE( 1.000000000000000082E-05 ), #206, 'distance_accuracy_value', 'NONE');
#738 = FILL_AREA_STYLE ('',( #12 ) ) ;
#739 = DIRECTION ( 'NONE',  ( 1.224646799147353207E-16, 0.000000000000000000, -1.000000000000000000 ) ) ;
#740 = FILL_AREA_STYLE_COLOUR ( '', #979 ) ;
#741 = DIRECTION ( 'NONE',  ( 0.000000000000000000, 0.000000000000000000, 1.000000000000000000 ) ) ;
#742 = STYLED_ITEM ( 'NONE', ( #363 ), #625 ) ;
#743 = EDGE_LOOP ( 'NONE', ( #593, #1227, #787 ) ) ;
#744 = CIRCLE ( 'NONE', #792, 0.1250000000000000555 ) ;
#745 = EDGE_LOOP ( 'NONE', ( #877, #1022, #1142 ) ) ;
#746 = LINE ( 'NONE', #233, #173 ) ;
#747 =( LENGTH_UNIT ( ) NAMED_UNIT ( * ) SI_UNIT ( .MILLI., .METRE. ) );
#748 = PLANE ( 'NONE',  #486 ) ;
#749 = CARTESIAN_POINT ( 'NONE',  ( 8.750157804830744940E-16, 5.421010862427522170E-17, -0.1999999999999999833 ) ) ;
#750 = PLANE ( 'NONE',  #638 ) ;
#751 = AXIS2_PLACEMENT_3D ( 'NONE', #778, #1086, #992 ) ;
#752 = CARTESIAN_POINT ( 'NONE',  ( -0.3999999999999993006, 5.421010862427522170E-17, 0.2000000000000000389 ) ) ;
#753 = ORIENTED_EDGE ( 'NONE', *, *, #283, .F. ) ;
#754 = DIRECTION ( 'NONE',  ( -1.000000000000000000, 0.000000000000000000, 0.000000000000000000 ) ) ;
#755 = CIRCLE ( 'NONE', #802, 0.09165151389911693758 ) ;
#756 = CARTESIAN_POINT ( 'NONE',  ( 0.4916515138991175426, 0.2100000000000001310, 0.6000000000000000888 ) ) ;
#757 = DIRECTION ( 'NONE',  ( 0.000000000000000000, 0.000000000000000000, -1.000000000000000000 ) ) ;
#758 = ORIENTED_EDGE ( 'NONE', *, *, #766, .T. ) ;
#759 = FACE_OUTER_BOUND ( 'NONE', #735, .T. ) ;
#760 = FILL_AREA_STYLE_COLOUR ( '', #1315 ) ;
#761 = AXIS2_PLACEMENT_3D ( 'NONE', #376, #712, #90 ) ;
#762 = ADVANCED_FACE ( 'NONE', ( #1241 ), #492, .T. ) ;
#763 = DIRECTION ( 'NONE',  ( 0.000000000000000000, 0.000000000000000000, 1.000000000000000000 ) ) ;
#764 = EDGE_CURVE ( 'NONE', #174, #688, #556, .T. ) ;
#765 = DIRECTION ( 'NONE',  ( 1.000000000000000000, -0.000000000000000000, 0.000000000000000000 ) ) ;
#766 = EDGE_CURVE ( 'NONE', #253, #1205, #566, .T. ) ;
#767 = DIRECTION ( 'NONE',  ( -0.000000000000000000, -1.000000000000000000, -0.000000000000000000 ) ) ;
#768 = EDGE_CURVE ( 'NONE', #240, #1005, #106, .T. ) ;
#769 = ORIENTED_EDGE ( 'NONE', *, *, #1108, .F. ) ;
#770 =( LENGTH_UNIT ( ) NAMED_UNIT ( * ) SI_UNIT ( .MILLI., .METRE. ) );
#771 = DIRECTION ( 'NONE',  ( 0.000000000000000000, 1.000000000000000000, 0.000000000000000000 ) ) ;
#772 = ADVANCED_BREP_SHAPE_REPRESENTATION ( 'YFF12', ( #364, #576, #359, #344, #148, #1063, #179, #1027, #625, #350, #817, #815, #804, #603, #567 ), #725 ) ;
#773 = PLANE ( 'NONE',  #549 ) ;
#774 = DIRECTION ( 'NONE',  ( 0.000000000000000000, 0.000000000000000000, -1.000000000000000000 ) ) ;
#775 = COLOUR_RGB ( '',0.7921568627450980005, 0.8196078431372548767, 0.9333333333333333481 ) ;
#776 = CARTESIAN_POINT ( 'NONE',  ( 6.505213034913026604E-16, 0.1250000000000001110, 0.6000000000000000888 ) ) ;
#777 = MECHANICAL_DESIGN_GEOMETRIC_PRESENTATION_REPRESENTATION (  '', ( #548 ), #1295 ) ;
#778 = CARTESIAN_POINT ( 'NONE',  ( -0.4886013224165708380, 0.5250000000000000222, -0.6150192058385073324 ) ) ;
#779 = CARTESIAN_POINT ( 'NONE',  ( 6.505213034913026604E-16, 0.2100000000000001310, 0.6000000000000000888 ) ) ;
#780 = EDGE_CURVE ( 'NONE', #265, #139, #1333, .T. ) ;
#781 = EDGE_LOOP ( 'NONE', ( #441, #342 ) ) ;
#782 = EDGE_CURVE ( 'NONE', #1039, #318, #170, .T. ) ;
#783 = SURFACE_STYLE_FILL_AREA ( #255 ) ;
#784 = AXIS2_PLACEMENT_3D ( 'NONE', #1058, #414, #134 ) ;
#785 = CLOSED_SHELL ( 'NONE', ( #257, #50, #381, #762, #1259, #336, #1246, #1100, #1136 ) ) ;
#786 = DIRECTION ( 'NONE',  ( -1.000000000000000000, 0.000000000000000000, -2.168404344971007882E-16 ) ) ;
#787 = ORIENTED_EDGE ( 'NONE', *, *, #911, .T. ) ;
#788 = EDGE_LOOP ( 'NONE', ( #933, #1048, #705 ) ) ;
#789 = DIRECTION ( 'NONE',  ( 0.000000000000000000, 0.000000000000000000, 1.000000000000000000 ) ) ;
#790 = CARTESIAN_POINT ( 'NONE',  ( -0.4916515138991160438, 0.2100000000000001310, -0.6000000000000000888 ) ) ;
#791 = DIRECTION ( 'NONE',  ( -1.000000000000000000, 0.000000000000000000, -6.249003875997149637E-16 ) ) ;
#792 = AXIS2_PLACEMENT_3D ( 'NONE', #171, #996, #1190 ) ;
#793 = EDGE_LOOP ( 'NONE', ( #730, #490 ) ) ;
#794 = ORIENTED_EDGE ( 'NONE', *, *, #489, .F. ) ;
#795 = EDGE_CURVE ( 'NONE', #1198, #100, #1204, .T. ) ;
#796 = CIRCLE ( 'NONE', #230, 0.1250000000000000555 ) ;
#797 =( GEOMETRIC_REPRESENTATION_CONTEXT ( 3 ) GLOBAL_UNCERTAINTY_ASSIGNED_CONTEXT ( ( #188 ) ) GLOBAL_UNIT_ASSIGNED_CONTEXT ( ( #747, #308, #1240 ) ) REPRESENTATION_CONTEXT ( 'NONE', 'WORKASPACE' ) );
#798 = AXIS2_PLACEMENT_3D ( 'NONE', #472, #368, #674 ) ;
#799 = CARTESIAN_POINT ( 'NONE',  ( -0.3999999999999993006, 5.421010862427522170E-17, -0.1999999999999999833 ) ) ;
#800 = SURFACE_SIDE_STYLE ('',( #985 ) ) ;
#801 = AXIS2_PLACEMENT_3D ( 'NONE', #1187, #335, #754 ) ;
#802 = AXIS2_PLACEMENT_3D ( 'NONE', #111, #937, #10 ) ;
#803 = ORIENTED_EDGE ( 'NONE', *, *, #89, .T. ) ;
#804 = MANIFOLD_SOLID_BREP ( 'Cut-Extrude1', #785 ) ;
#805 = SPHERICAL_SURFACE ( 'NONE', #431, 0.1250000000000000555 ) ;
#806 = SURFACE_STYLE_USAGE ( .BOTH. , #899 ) ;
#807 = EDGE_CURVE ( 'NONE', #1144, #253, #125, .T. ) ;
#808 = EDGE_CURVE ( 'NONE', #537, #366, #386, .T. ) ;
#809 =( NAMED_UNIT ( * ) SI_UNIT ( $, .STERADIAN. ) SOLID_ANGLE_UNIT ( ) );
#810 = STYLED_ITEM ( 'NONE', ( #456 ), #1063 ) ;
#811 = ORIENTED_EDGE ( 'NONE', *, *, #429, .F. ) ;
#812 = ORIENTED_EDGE ( 'NONE', *, *, #489, .T. ) ;
#813 = STYLED_ITEM ( 'NONE', ( #1212 ), #603 ) ;
#814 = SPHERICAL_SURFACE ( 'NONE', #1019, 0.1250000000000000555 ) ;
#815 = MANIFOLD_SOLID_BREP ( 'Sketch-Pattern1[12]', #266 ) ;
#816 = DIRECTION ( 'NONE',  ( 0.000000000000000000, -0.000000000000000000, 1.000000000000000000 ) ) ;
#817 = MANIFOLD_SOLID_BREP ( 'Sketch-Pattern1[11]', #374 ) ;
#818 = ORIENTED_EDGE ( 'NONE', *, *, #397, .F. ) ;
#819 = ORIENTED_EDGE ( 'NONE', *, *, #1200, .T. ) ;
#820 = FACE_OUTER_BOUND ( 'NONE', #1091, .T. ) ;
#821 = EDGE_CURVE ( 'NONE', #563, #476, #967, .T. ) ;
#822 = CARTESIAN_POINT ( 'NONE',  ( 0.4916515138991179867, 0.2100000000000001310, -0.6000000000000000888 ) ) ;
#823 = AXIS2_PLACEMENT_3D ( 'NONE', #647, #520, #1031 ) ;
#824 = FILL_AREA_STYLE ('',( #407 ) ) ;
#825 = ORIENTED_EDGE ( 'NONE', *, *, #884, .F. ) ;
#826 = ADVANCED_FACE ( 'NONE', ( #958 ), #651, .T. ) ;
#827 = UNCERTAINTY_MEASURE_WITH_UNIT (LENGTH_MEASURE( 1.000000000000000082E-05 ), #239, 'distance_accuracy_value', 'NONE');
#828 =( NAMED_UNIT ( * ) SI_UNIT ( $, .STERADIAN. ) SOLID_ANGLE_UNIT ( ) );
#829 = SPHERICAL_SURFACE ( 'NONE', #966, 0.1250000000000000555 ) ;
#830 = DIRECTION ( 'NONE',  ( 0.000000000000000000, -1.000000000000000000, -0.000000000000000000 ) ) ;
#831 = AXIS2_PLACEMENT_3D ( 'NONE', #273, #281, #1097 ) ;
#832 = ORIENTED_EDGE ( 'NONE', *, *, #525, .T. ) ;
#833 = EDGE_LOOP ( 'NONE', ( #818, #218 ) ) ;
#834 = DIRECTION ( 'NONE',  ( -0.000000000000000000, 0.000000000000000000, 1.000000000000000000 ) ) ;
#835 = CARTESIAN_POINT ( 'NONE',  ( -0.6939999999999992841, -2.151958236118906687, 0.8222499999999974829 ) ) ;
#836 = DIRECTION ( 'NONE',  ( 1.000000000000000000, 0.000000000000000000, 0.000000000000000000 ) ) ;
#837 = DIRECTION ( 'NONE',  ( -0.000000000000000000, -1.000000000000000000, -0.000000000000000000 ) ) ;
#838 = VERTEX_POINT ( 'NONE', #150 ) ;
#839 = UNCERTAINTY_MEASURE_WITH_UNIT (LENGTH_MEASURE( 1.000000000000000082E-05 ), #297, 'distance_accuracy_value', 'NONE');
#840 = CARTESIAN_POINT ( 'NONE',  ( -0.6940000000000003944, 0.2100000000000001310, -0.8222500000000009246 ) ) ;
#841 = PLANE ( 'NONE',  #589 ) ;
#842 = CARTESIAN_POINT ( 'NONE',  ( 0.4000000000000010214, 0.2100000000000001310, -0.6000000000000000888 ) ) ;
#843 = AXIS2_PLACEMENT_3D ( 'NONE', #631, #1244, #432 ) ;
#844 = AXIS2_PLACEMENT_3D ( 'NONE', #1313, #1123, #816 ) ;
#845 = VERTEX_POINT ( 'NONE', #629 ) ;
#846 = ORIENTED_EDGE ( 'NONE', *, *, #868, .F. ) ;
#847 = PRESENTATION_STYLE_ASSIGNMENT (( #878 ) ) ;
#848 = FILL_AREA_STYLE ('',( #641 ) ) ;
#849 = SURFACE_STYLE_USAGE ( .BOTH. , #440 ) ;
#850 = VERTEX_POINT ( 'NONE', #756 ) ;
#851 = VERTEX_POINT ( 'NONE', #550 ) ;
#852 = PRODUCT_DEFINITION_CONTEXT ( 'detailed design', #1115, 'design' ) ;
#853 = SURFACE_STYLE_FILL_AREA ( #738 ) ;
#854 = CIRCLE ( 'NONE', #1021, 0.1250000000000001110 ) ;
#855 = DIRECTION ( 'NONE',  ( 0.000000000000000000, -1.000000000000000000, -0.000000000000000000 ) ) ;
#856 = SPHERICAL_SURFACE ( 'NONE', #703, 0.1250000000000000555 ) ;
#857 = FACE_OUTER_BOUND ( 'NONE', #680, .T. ) ;
#858 = ORIENTED_EDGE ( 'NONE', *, *, #885, .F. ) ;
#859 = CIRCLE ( 'NONE', #271, 0.1250000000000000555 ) ;
#860 = EDGE_LOOP ( 'NONE', ( #1260, #1131, #954 ) ) ;
#861 = CARTESIAN_POINT ( 'NONE',  ( 0.3083484861008841671, 0.2100000000000001310, -0.1999999999999999833 ) ) ;
#862 = CARTESIAN_POINT ( 'NONE',  ( 0.9999999999999997780, 0.2100000000000001310, -1.422250000000000902 ) ) ;
#863 = DIRECTION ( 'NONE',  ( 0.000000000000000000, 0.000000000000000000, -1.000000000000000000 ) ) ;
#864 = AXIS2_PLACEMENT_3D ( 'NONE', #682, #375, #886 ) ;
#865 = MECHANICAL_DESIGN_GEOMETRIC_PRESENTATION_REPRESENTATION (  '', ( #1182 ), #1030 ) ;
#866 = ORIENTED_EDGE ( 'NONE', *, *, #296, .T. ) ;
#867 = ORIENTED_EDGE ( 'NONE', *, *, #481, .F. ) ;
#868 = EDGE_CURVE ( 'NONE', #916, #667, #614, .T. ) ;
#869 = AXIS2_PLACEMENT_3D ( 'NONE', #1176, #348, #460 ) ;
#870 = AXIS2_PLACEMENT_3D ( 'NONE', #552, #880, #1289 ) ;
#871 = ADVANCED_FACE ( 'NONE', ( #141 ), #236, .F. ) ;
#872 =( NAMED_UNIT ( * ) PLANE_ANGLE_UNIT ( ) SI_UNIT ( $, .RADIAN. ) );
#873 = CARTESIAN_POINT ( 'NONE',  ( 8.750157804830744940E-16, 5.421010862427522170E-17, -0.6000000000000000888 ) ) ;
#874 = DIRECTION ( 'NONE',  ( 1.000000000000000000, 0.000000000000000000, 0.000000000000000000 ) ) ;
#875 = CARTESIAN_POINT ( 'NONE',  ( 0.5999999999999998668, 0.2100000000000001310, -1.422250000000000902 ) ) ;
#876 = CARTESIAN_POINT ( 'NONE',  ( -0.3999999999999993006, 0.1250000000000001110, 0.2000000000000000389 ) ) ;
#877 = ORIENTED_EDGE ( 'NONE', *, *, #160, .F. ) ;
#878 = SURFACE_STYLE_USAGE ( .BOTH. , #639 ) ;
#879 = COLOUR_RGB ( '',0.7921568627450980005, 0.8196078431372548767, 0.9333333333333333481 ) ;
#880 = DIRECTION ( 'NONE',  ( 1.224646799147353207E-16, 0.000000000000000000, -1.000000000000000000 ) ) ;
#881 = CARTESIAN_POINT ( 'NONE',  ( 0.4000000000000006328, 0.1250000000000001110, 0.2000000000000000389 ) ) ;
#882 = VECTOR ( 'NONE', #791, 1000.000000000000000 ) ;
#883 = DIRECTION ( 'NONE',  ( -0.000000000000000000, -1.000000000000000000, -0.000000000000000000 ) ) ;
#884 = EDGE_CURVE ( 'NONE', #146, #32, #311, .T. ) ;
#885 = EDGE_CURVE ( 'NONE', #1316, #988, #126, .T. ) ;
#886 = DIRECTION ( 'NONE',  ( 0.000000000000000000, 0.000000000000000000, 1.000000000000000000 ) ) ;
#887 = CIRCLE ( 'NONE', #292, 0.09165151389911693758 ) ;
#888 = DIRECTION ( 'NONE',  ( 0.000000000000000000, 0.000000000000000000, -1.000000000000000000 ) ) ;
#889 = SURFACE_SIDE_STYLE ('',( #1000 ) ) ;
#890 = CARTESIAN_POINT ( 'NONE',  ( -0.4886013224165708380, 0.6250000000000000000, -0.6993172939742735572 ) ) ;
#891 = FILL_AREA_STYLE ('',( #466 ) ) ;
#892 = CARTESIAN_POINT ( 'NONE',  ( 0.4000000000000010214, 0.1250000000000001110, -0.6000000000000000888 ) ) ;
#893 = SPHERICAL_SURFACE ( 'NONE', #541, 0.1250000000000000555 ) ;
#894 = ORIENTED_EDGE ( 'NONE', *, *, #525, .F. ) ;
#895 = FILL_AREA_STYLE ('',( #470 ) ) ;
#896 = EDGE_LOOP ( 'NONE', ( #279, #1093, #803, #635 ) ) ;
#897 = CARTESIAN_POINT ( 'NONE',  ( 0.6939999999999992841, -2.151958236118906687, -0.8222500000000009246 ) ) ;
#898 = DIRECTION ( 'NONE',  ( -0.000000000000000000, -1.000000000000000000, -0.000000000000000000 ) ) ;
#899 = SURFACE_SIDE_STYLE ('',( #980 ) ) ;
#900 = CIRCLE ( 'NONE', #303, 0.1250000000000001110 ) ;
#901 = CLOSED_SHELL ( 'NONE', ( #1288, #512, #1254 ) ) ;
#902 = ADVANCED_FACE ( 'NONE', ( #430 ), #748, .F. ) ;
#903 = CARTESIAN_POINT ( 'NONE',  ( 8.673617379884035472E-16, 0.1250000000000001110, -0.1999999999999999833 ) ) ;
#904 = EDGE_LOOP ( 'NONE', ( #483, #812, #1014 ) ) ;
#905 = ORIENTED_EDGE ( 'NONE', *, *, #630, .T. ) ;
#906 = DIRECTION ( 'NONE',  ( 1.000000000000000000, 0.000000000000000000, 0.000000000000000000 ) ) ;
#907 = FACE_OUTER_BOUND ( 'NONE', #575, .T. ) ;
#908 = ORIENTED_EDGE ( 'NONE', *, *, #615, .T. ) ;
#909 = ADVANCED_FACE ( 'NONE', ( #28 ), #35, .T. ) ;
#910 = AXIS2_PLACEMENT_3D ( 'NONE', #542, #1050, #455 ) ;
#911 = EDGE_CURVE ( 'NONE', #1326, #403, #668, .T. ) ;
#912 = UNCERTAINTY_MEASURE_WITH_UNIT (LENGTH_MEASURE( 1.000000000000000082E-05 ), #479, 'distance_accuracy_value', 'NONE');
#913 = COLOUR_RGB ( '',0.7921568627450980005, 0.8196078431372548767, 0.9333333333333333481 ) ;
#914 = VERTEX_POINT ( 'NONE', #208 ) ;
#915 = DIRECTION ( 'NONE',  ( 0.000000000000000000, 0.000000000000000000, 1.000000000000000000 ) ) ;
#916 = VERTEX_POINT ( 'NONE', #1161 ) ;
#917 = ORIENTED_EDGE ( 'NONE', *, *, #1242, .F. ) ;
#918 = EDGE_CURVE ( 'NONE', #1039, #506, #20, .T. ) ;
#919 = CIRCLE ( 'NONE', #1043, 0.09165151389911688207 ) ;
#920 = ADVANCED_FACE ( 'NONE', ( #13 ), #841, .F. ) ;
#921 = CARTESIAN_POINT ( 'NONE',  ( -0.09165151389911622981, 0.2100000000000001310, 0.6000000000000000888 ) ) ;
#922 = CARTESIAN_POINT ( 'NONE',  ( 8.673617379884035472E-16, 0.1250000000000001110, -0.1999999999999999833 ) ) ;
#923 = CIRCLE ( 'NONE', #101, 0.08429808813576628035 ) ;
#924 = ADVANCED_FACE ( 'NONE', ( #1149 ), #237, .F. ) ;
#925 = PRESENTATION_LAYER_ASSIGNMENT (  '', '', ( #1135 ) ) ;
#926 = ORIENTED_EDGE ( 'NONE', *, *, #734, .F. ) ;
#927 = VECTOR ( 'NONE', #718, 1000.000000000000000 ) ;
#928 = DIRECTION ( 'NONE',  ( 1.224646799147353207E-16, 0.000000000000000000, -1.000000000000000000 ) ) ;
#929 = PLANE ( 'NONE',  #844 ) ;
#930 = CIRCLE ( 'NONE', #339, 0.09165151389911693758 ) ;
#931 = AXIS2_PLACEMENT_3D ( 'NONE', #143, #662, #757 ) ;
#932 = ORIENTED_EDGE ( 'NONE', *, *, #17, .T. ) ;
#933 = ORIENTED_EDGE ( 'NONE', *, *, #1200, .F. ) ;
#934 = DIRECTION ( 'NONE',  ( -6.249003875997149637E-16, 0.000000000000000000, 1.000000000000000000 ) ) ;
#935 = CARTESIAN_POINT ( 'NONE',  ( 0.6939999999999992841, 0.6250000000000000000, -0.8222500000000009246 ) ) ;
#936 = CARTESIAN_POINT ( 'NONE',  ( -0.6940000000000001723, 0.6250000000000000000, -0.8222500000000009246 ) ) ;
#937 = DIRECTION ( 'NONE',  ( -0.000000000000000000, -1.000000000000000000, -0.000000000000000000 ) ) ;
#938 = AXIS2_PLACEMENT_3D ( 'NONE', #959, #1128, #836 ) ;
#939 = ORIENTED_EDGE ( 'NONE', *, *, #768, .T. ) ;
#940 = FILL_AREA_STYLE ('',( #740 ) ) ;
#941 =( NAMED_UNIT ( * ) SI_UNIT ( $, .STERADIAN. ) SOLID_ANGLE_UNIT ( ) );
#942 = ORIENTED_EDGE ( 'NONE', *, *, #522, .T. ) ;
#943 = ORIENTED_EDGE ( 'NONE', *, *, #294, .T. ) ;
#944 = PRESENTATION_STYLE_ASSIGNMENT (( #1065 ) ) ;
#945 = FACE_OUTER_BOUND ( 'NONE', #781, .T. ) ;
#946 = DIRECTION ( 'NONE',  ( -1.000000000000000000, 0.000000000000000000, -0.000000000000000000 ) ) ;
#947 = AXIS2_PLACEMENT_3D ( 'NONE', #226, #971, #52 ) ;
#948 = ORIENTED_EDGE ( 'NONE', *, *, #514, .F. ) ;
#949 = APPLICATION_PROTOCOL_DEFINITION ( 'draft international standard', 'automotive_design', 1998, #706 ) ;
#950 = CARTESIAN_POINT ( 'NONE',  ( -0.6940000000000001723, -2.151958236118906687, -0.8222500000000009246 ) ) ;
#951 = DIRECTION ( 'NONE',  ( 0.000000000000000000, 0.000000000000000000, -1.000000000000000000 ) ) ;
#952 = FACE_OUTER_BOUND ( 'NONE', #1214, .T. ) ;
#953 = DIRECTION ( 'NONE',  ( 0.000000000000000000, 0.000000000000000000, -1.000000000000000000 ) ) ;
#954 = ORIENTED_EDGE ( 'NONE', *, *, #868, .T. ) ;
#955 = AXIS2_PLACEMENT_3D ( 'NONE', #491, #691, #601 ) ;
#956 = LINE ( 'NONE', #140, #98 ) ;
#957 = CLOSED_SHELL ( 'NONE', ( #1148, #924, #105 ) ) ;
#958 = FACE_OUTER_BOUND ( 'NONE', #860, .T. ) ;
#959 = CARTESIAN_POINT ( 'NONE',  ( 0.4000000000000006328, 0.1250000000000001110, 0.6000000000000000888 ) ) ;
#960 = EDGE_LOOP ( 'NONE', ( #658, #290, #24, #172 ) ) ;
#961 = EDGE_CURVE ( 'NONE', #1154, #1326, #523, .T. ) ;
#962 =( GEOMETRIC_REPRESENTATION_CONTEXT ( 3 ) GLOBAL_UNCERTAINTY_ASSIGNED_CONTEXT ( ( #224 ) ) GLOBAL_UNIT_ASSIGNED_CONTEXT ( ( #122, #1208, #1296 ) ) REPRESENTATION_CONTEXT ( 'NONE', 'WORKASPACE' ) );
#963 = LINE ( 'NONE', #1262, #1209 ) ;
#964 = CARTESIAN_POINT ( 'NONE',  ( -0.4886013224165708380, 0.6250000000000000000, -0.6150192058385073324 ) ) ;
#965 = DIRECTION ( 'NONE',  ( 1.000000000000000000, -0.000000000000000000, 6.249003875997149637E-16 ) ) ;
#966 = AXIS2_PLACEMENT_3D ( 'NONE', #97, #713, #498 ) ;
#967 = CIRCLE ( 'NONE', #727, 0.1250000000000000555 ) ;
#968 = DIRECTION ( 'NONE',  ( 1.000000000000000000, 0.000000000000000000, 0.000000000000000000 ) ) ;
#969 = ORIENTED_EDGE ( 'NONE', *, *, #911, .F. ) ;
#970 = STYLED_ITEM ( 'NONE', ( #1098 ), #576 ) ;
#971 = DIRECTION ( 'NONE',  ( -0.000000000000000000, -1.000000000000000000, -0.000000000000000000 ) ) ;
#972 = CARTESIAN_POINT ( 'NONE',  ( -0.4886013224165708380, 0.6250000000000000000, -0.6993172939742735572 ) ) ;
#973 = CARTESIAN_POINT ( 'NONE',  ( 8.673617379884035472E-16, 0.2100000000000001310, 0.2000000000000000389 ) ) ;
#974 = DIRECTION ( 'NONE',  ( 0.000000000000000000, 0.000000000000000000, 1.000000000000000000 ) ) ;
#975 = FACE_OUTER_BOUND ( 'NONE', #129, .T. ) ;
#976 = ADVANCED_FACE ( 'NONE', ( #640 ), #1264, .F. ) ;
#977 = CARTESIAN_POINT ( 'NONE',  ( -0.6939999999999992841, -2.151958236118906687, 0.8222499999999974829 ) ) ;
#978 =( NAMED_UNIT ( * ) SI_UNIT ( $, .STERADIAN. ) SOLID_ANGLE_UNIT ( ) );
#979 = COLOUR_RGB ( '',0.7921568627450980005, 0.8196078431372548767, 0.9333333333333333481 ) ;
#980 = SURFACE_STYLE_FILL_AREA ( #178 ) ;
#981 = DIRECTION ( 'NONE',  ( 0.000000000000000000, -0.000000000000000000, 1.000000000000000000 ) ) ;
#982 = DIRECTION ( 'NONE',  ( 0.000000000000000000, 0.000000000000000000, -1.000000000000000000 ) ) ;
#983 = AXIS2_PLACEMENT_3D ( 'NONE', #1265, #1150, #1046 ) ;
#984 =( NAMED_UNIT ( * ) PLANE_ANGLE_UNIT ( ) SI_UNIT ( $, .RADIAN. ) );
#985 = SURFACE_STYLE_FILL_AREA ( #370 ) ;
#986 = AXIS2_PLACEMENT_3D ( 'NONE', #155, #437, #131 ) ;
#987 = CIRCLE ( 'NONE', #442, 0.09165151389911693758 ) ;
#988 = VERTEX_POINT ( 'NONE', #936 ) ;
#989 = DIRECTION ( 'NONE',  ( 0.000000000000000000, 0.000000000000000000, -1.000000000000000000 ) ) ;
#990 = ORIENTED_EDGE ( 'NONE', *, *, #67, .T. ) ;
#991 = COLOUR_RGB ( '',0.7921568627450980005, 0.8196078431372548767, 0.9333333333333333481 ) ;
#992 = DIRECTION ( 'NONE',  ( 0.000000000000000000, 0.000000000000000000, 1.000000000000000000 ) ) ;
#993 = AXIS2_PLACEMENT_3D ( 'NONE', #402, #277, #989 ) ;
#994 = SURFACE_STYLE_USAGE ( .BOTH. , #1194 ) ;
#995 = CARTESIAN_POINT ( 'NONE',  ( 0.6939999999999992841, 0.6250000000000000000, 0.8222499999999983711 ) ) ;
#996 = DIRECTION ( 'NONE',  ( 0.000000000000000000, 0.000000000000000000, 1.000000000000000000 ) ) ;
#997 = EDGE_LOOP ( 'NONE', ( #107, #1302, #87 ) ) ;
#998 = DIRECTION ( 'NONE',  ( 1.000000000000000000, 0.000000000000000000, 0.000000000000000000 ) ) ;
#999 = EDGE_LOOP ( 'NONE', ( #722, #1169 ) ) ;
#1000 = SURFACE_STYLE_FILL_AREA ( #60 ) ;
#1001 = AXIS2_PLACEMENT_3D ( 'NONE', #302, #78, #202 ) ;
#1002 = EDGE_CURVE ( 'NONE', #380, #519, #642, .T. ) ;
#1003 = DIRECTION ( 'NONE',  ( 0.000000000000000000, 0.000000000000000000, 1.000000000000000000 ) ) ;
#1004 = ADVANCED_FACE ( 'NONE', ( #945 ), #527, .F. ) ;
#1005 = VERTEX_POINT ( 'NONE', #724 ) ;
#1006 = ADVANCED_FACE ( 'NONE', ( #8 ), #113, .T. ) ;
#1007 = DIRECTION ( 'NONE',  ( 1.000000000000000000, 0.000000000000000000, 0.000000000000000000 ) ) ;
#1008 = ORIENTED_EDGE ( 'NONE', *, *, #1185, .F. ) ;
#1009 = MECHANICAL_DESIGN_GEOMETRIC_PRESENTATION_REPRESENTATION (  '', ( #298 ), #191 ) ;
#1010 = DIRECTION ( 'NONE',  ( 0.000000000000000000, 0.000000000000000000, -1.000000000000000000 ) ) ;
#1011 = CARTESIAN_POINT ( 'NONE',  ( 6.505213034913026604E-16, 0.1250000000000001110, 0.6000000000000000888 ) ) ;
#1012 = SURFACE_SIDE_STYLE ('',( #597 ) ) ;
#1013 = ADVANCED_FACE ( 'NONE', ( #1134 ), #534, .T. ) ;
#1014 = ORIENTED_EDGE ( 'NONE', *, *, #734, .T. ) ;
#1015 = VERTEX_POINT ( 'NONE', #749 ) ;
#1016 = LINE ( 'NONE', #1023, #1122 ) ;
#1017 = DIRECTION ( 'NONE',  ( 0.000000000000000000, 0.000000000000000000, 1.000000000000000000 ) ) ;
#1018 = EDGE_CURVE ( 'NONE', #1197, #537, #182, .T. ) ;
#1019 = AXIS2_PLACEMENT_3D ( 'NONE', #480, #398, #1221 ) ;
#1020 =( NAMED_UNIT ( * ) PLANE_ANGLE_UNIT ( ) SI_UNIT ( $, .RADIAN. ) );
#1021 = AXIS2_PLACEMENT_3D ( 'NONE', #547, #659, #241 ) ;
#1022 = ORIENTED_EDGE ( 'NONE', *, *, #63, .T. ) ;
#1023 = CARTESIAN_POINT ( 'NONE',  ( 0.6939999999999992841, 0.6250000000000000000, -0.8222500000000009246 ) ) ;
#1024 = CARTESIAN_POINT ( 'NONE',  ( -0.3999999999999993006, 0.1250000000000001110, -0.1999999999999999833 ) ) ;
#1025 = CIRCLE ( 'NONE', #488, 0.09165151389911693758 ) ;
#1026 = SURFACE_SIDE_STYLE ('',( #604 ) ) ;
#1027 = MANIFOLD_SOLID_BREP ( 'Sketch-Pattern1[8]', #678 ) ;
#1028 =( GEOMETRIC_REPRESENTATION_CONTEXT ( 3 ) GLOBAL_UNCERTAINTY_ASSIGNED_CONTEXT ( ( #1113 ) ) GLOBAL_UNIT_ASSIGNED_CONTEXT ( ( #263, #1300, #588 ) ) REPRESENTATION_CONTEXT ( 'NONE', 'WORKASPACE' ) );
#1029 = PLANE ( 'NONE',  #1180 ) ;
#1030 =( GEOMETRIC_REPRESENTATION_CONTEXT ( 3 ) GLOBAL_UNCERTAINTY_ASSIGNED_CONTEXT ( ( #912 ) ) GLOBAL_UNIT_ASSIGNED_CONTEXT ( ( #479, #1094, #978 ) ) REPRESENTATION_CONTEXT ( 'NONE', 'WORKASPACE' ) );
#1031 = DIRECTION ( 'NONE',  ( -1.000000000000000000, 0.000000000000000000, 0.000000000000000000 ) ) ;
#1032 = DIRECTION ( 'NONE',  ( 0.000000000000000000, 0.000000000000000000, -1.000000000000000000 ) ) ;
#1033 = AXIS2_PLACEMENT_3D ( 'NONE', #1195, #385, #275 ) ;
#1034 = DIRECTION ( 'NONE',  ( 1.000000000000000000, 0.000000000000000000, 0.000000000000000000 ) ) ;
#1035 = CARTESIAN_POINT ( 'NONE',  ( 8.673617379884035472E-16, 0.1250000000000001110, 0.2000000000000000389 ) ) ;
#1036 = SURFACE_STYLE_USAGE ( .BOTH. , #1162 ) ;
#1037 = CIRCLE ( 'NONE', #9, 0.09165151389911693758 ) ;
#1038 = EDGE_CURVE ( 'NONE', #1205, #253, #1037, .T. ) ;
#1039 = VERTEX_POINT ( 'NONE', #873 ) ;
#1040 = ADVANCED_FACE ( 'NONE', ( #467 ), #675, .T. ) ;
#1041 = ORIENTED_EDGE ( 'NONE', *, *, #1138, .T. ) ;
#1042 = CARTESIAN_POINT ( 'NONE',  ( 0.6939999999999992841, 0.2100000000000001310, 0.8222499999999983711 ) ) ;
#1043 = AXIS2_PLACEMENT_3D ( 'NONE', #1202, #676, #692 ) ;
#1044 = PRODUCT_DEFINITION_SHAPE ( 'NONE', 'NONE',  #301 ) ;
#1045 = CARTESIAN_POINT ( 'NONE',  ( 8.673617379884035472E-16, 0.2100000000000001310, 0.2000000000000000389 ) ) ;
#1046 = DIRECTION ( 'NONE',  ( 0.000000000000000000, 0.000000000000000000, -1.000000000000000000 ) ) ;
#1047 = CIRCLE ( 'NONE', #1223, 0.08429808813576628035 ) ;
#1048 = ORIENTED_EDGE ( 'NONE', *, *, #884, .T. ) ;
#1049 = SPHERICAL_SURFACE ( 'NONE', #586, 0.1250000000000000555 ) ;
#1050 = DIRECTION ( 'NONE',  ( 0.000000000000000000, -1.000000000000000000, -0.000000000000000000 ) ) ;
#1051 = PLANE ( 'NONE',  #686 ) ;
#1052 = AXIS2_PLACEMENT_3D ( 'NONE', #1035, #110, #1272 ) ;
#1053 = EDGE_CURVE ( 'NONE', #100, #1198, #628, .T. ) ;
#1054 =( NAMED_UNIT ( * ) PLANE_ANGLE_UNIT ( ) SI_UNIT ( $, .RADIAN. ) );
#1055 = ORIENTED_EDGE ( 'NONE', *, *, #768, .F. ) ;
#1056 = DIRECTION ( 'NONE',  ( -0.000000000000000000, -1.000000000000000000, -0.000000000000000000 ) ) ;
#1057 = SURFACE_SIDE_STYLE ('',( #1285 ) ) ;
#1058 = CARTESIAN_POINT ( 'NONE',  ( 8.673617379884035472E-16, 0.1250000000000001110, -0.1999999999999999833 ) ) ;
#1059 = CARTESIAN_POINT ( 'NONE',  ( -0.09165151389911602164, 0.2100000000000001310, 0.2000000000000000389 ) ) ;
#1060 = CARTESIAN_POINT ( 'NONE',  ( -0.4886013224165708380, 0.5250000000000000222, -0.6993172939742735572 ) ) ;
#1061 = ORIENTED_EDGE ( 'NONE', *, *, #731, .T. ) ;
#1062 = CARTESIAN_POINT ( 'NONE',  ( -0.3999999999999993006, 0.2100000000000001310, 0.2000000000000000389 ) ) ;
#1063 = MANIFOLD_SOLID_BREP ( 'Sketch-Pattern1[6]', #30 ) ;
#1064 = CLOSED_SHELL ( 'NONE', ( #573, #1297, #186 ) ) ;
#1065 = SURFACE_STYLE_USAGE ( .BOTH. , #1057 ) ;
#1066 = CARTESIAN_POINT ( 'NONE',  ( -0.09165151389911602164, 0.2100000000000001310, -0.6000000000000000888 ) ) ;
#1067 = CARTESIAN_POINT ( 'NONE',  ( 0.4000000000000006328, 0.2100000000000001310, 0.2000000000000000389 ) ) ;
#1068 = LINE ( 'NONE', #453, #1 ) ;
#1069 = ORIENTED_EDGE ( 'NONE', *, *, #885, .T. ) ;
#1070 = CARTESIAN_POINT ( 'NONE',  ( -0.6939999999999992841, 0.6250000000000000000, 0.8222499999999974829 ) ) ;
#1071 = DIRECTION ( 'NONE',  ( -0.000000000000000000, -1.000000000000000000, -0.000000000000000000 ) ) ;
#1072 = AXIS2_PLACEMENT_3D ( 'NONE', #42, #447, #1263 ) ;
#1073 = DIRECTION ( 'NONE',  ( 0.000000000000000000, 0.000000000000000000, 1.000000000000000000 ) ) ;
#1074 = MECHANICAL_DESIGN_GEOMETRIC_PRESENTATION_REPRESENTATION (  '', ( #212 ), #669 ) ;
#1075 = ORIENTED_EDGE ( 'NONE', *, *, #918, .T. ) ;
#1076 = CARTESIAN_POINT ( 'NONE',  ( 6.505213034913026604E-16, 0.2100000000000001310, 0.6000000000000000888 ) ) ;
#1077 = PLANE ( 'NONE',  #761 ) ;
#1078 = DIRECTION ( 'NONE',  ( 1.224646799147353207E-16, 0.000000000000000000, -1.000000000000000000 ) ) ;
#1079 = SPHERICAL_SURFACE ( 'NONE', #108, 0.1250000000000000555 ) ;
#1080 = CARTESIAN_POINT ( 'NONE',  ( -0.3999999999999993006, 0.2100000000000001310, -0.1999999999999999833 ) ) ;
#1081 = LINE ( 'NONE', #602, #927 ) ;
#1082 = DIRECTION ( 'NONE',  ( -0.000000000000000000, 1.000000000000000000, -0.000000000000000000 ) ) ;
#1083 =( GEOMETRIC_REPRESENTATION_CONTEXT ( 3 ) GLOBAL_UNCERTAINTY_ASSIGNED_CONTEXT ( ( #25 ) ) GLOBAL_UNIT_ASSIGNED_CONTEXT ( ( #392, #288, #561 ) ) REPRESENTATION_CONTEXT ( 'NONE', 'WORKASPACE' ) );
#1084 = ORIENTED_EDGE ( 'NONE', *, *, #196, .F. ) ;
#1085 = MECHANICAL_DESIGN_GEOMETRIC_PRESENTATION_REPRESENTATION (  '', ( #1129 ), #962 ) ;
#1086 = DIRECTION ( 'NONE',  ( 0.000000000000000000, 1.000000000000000000, 0.000000000000000000 ) ) ;
#1087 = STYLED_ITEM ( 'NONE', ( #720 ), #364 ) ;
#1088 = DIRECTION ( 'NONE',  ( -0.000000000000000000, -1.000000000000000000, -0.000000000000000000 ) ) ;
#1089 = CARTESIAN_POINT ( 'NONE',  ( -0.3999999999999993006, 0.1250000000000001110, 0.6000000000000000888 ) ) ;
#1090 = AXIS2_PLACEMENT_3D ( 'NONE', #922, #1232, #596 ) ;
#1091 = EDGE_LOOP ( 'NONE', ( #192, #1075, #116 ) ) ;
#1092 = CARTESIAN_POINT ( 'NONE',  ( 0.9999999999999997780, 0.2100000000000001310, -0.6222500000000008580 ) ) ;
#1093 = ORIENTED_EDGE ( 'NONE', *, *, #528, .T. ) ;
#1094 =( NAMED_UNIT ( * ) PLANE_ANGLE_UNIT ( ) SI_UNIT ( $, .RADIAN. ) );
#1095 = AXIS2_PLACEMENT_3D ( 'NONE', #529, #883, #774 ) ;
#1096 = AXIS2_PLACEMENT_3D ( 'NONE', #973, #1071, #43 ) ;
#1097 = DIRECTION ( 'NONE',  ( 0.000000000000000000, -0.000000000000000000, 1.000000000000000000 ) ) ;
#1098 = PRESENTATION_STYLE_ASSIGNMENT (( #74 ) ) ;
#1099 = EDGE_CURVE ( 'NONE', #31, #100, #29, .T. ) ;
#1100 = ADVANCED_FACE ( 'NONE', ( #653 ), #1287, .F. ) ;
#1101 = EDGE_LOOP ( 'NONE', ( #769, #729, #565, #426 ) ) ;
#1102 = UNCERTAINTY_MEASURE_WITH_UNIT (LENGTH_MEASURE( 1.000000000000000082E-05 ), #115, 'distance_accuracy_value', 'NONE');
#1103 = CARTESIAN_POINT ( 'NONE',  ( 0.4000000000000010214, 0.1250000000000001110, -0.1999999999999999833 ) ) ;
#1104 = MECHANICAL_DESIGN_GEOMETRIC_PRESENTATION_REPRESENTATION (  '', ( #813 ), #1083 ) ;
#1105 = ORIENTED_EDGE ( 'NONE', *, *, #64, .F. ) ;
#1106 = DIRECTION ( 'NONE',  ( -1.000000000000000000, 0.000000000000000000, 0.000000000000000000 ) ) ;
#1107 = DIRECTION ( 'NONE',  ( 0.000000000000000000, 0.000000000000000000, -1.000000000000000000 ) ) ;
#1108 = EDGE_CURVE ( 'NONE', #121, #1110, #220, .T. ) ;
#1109 = CARTESIAN_POINT ( 'NONE',  ( 0.4000000000000010214, 0.1250000000000001110, -0.6000000000000000888 ) ) ;
#1110 = VERTEX_POINT ( 'NONE', #972 ) ;
#1111 = EDGE_CURVE ( 'NONE', #988, #851, #671, .T. ) ;
#1112 = PRESENTATION_LAYER_ASSIGNMENT (  '', '', ( #548 ) ) ;
#1113 = UNCERTAINTY_MEASURE_WITH_UNIT (LENGTH_MEASURE( 1.000000000000000082E-05 ), #263, 'distance_accuracy_value', 'NONE');
#1114 = DIRECTION ( 'NONE',  ( 0.000000000000000000, 0.000000000000000000, -1.000000000000000000 ) ) ;
#1115 = APPLICATION_CONTEXT ( 'automotive_design' ) ;
#1116 = DIRECTION ( 'NONE',  ( -1.000000000000000000, 0.000000000000000000, 0.000000000000000000 ) ) ;
#1117 = FACE_OUTER_BOUND ( 'NONE', #896, .T. ) ;
#1118 = FACE_OUTER_BOUND ( 'NONE', #701, .T. ) ;
#1119 = VERTEX_POINT ( 'NONE', #551 ) ;
#1120 = CYLINDRICAL_SURFACE ( 'NONE', #955, 0.08429808813576628035 ) ;
#1121 = DIRECTION ( 'NONE',  ( 1.000000000000000000, 0.000000000000000000, 0.000000000000000000 ) ) ;
#1122 = VECTOR ( 'NONE', #1106, 1000.000000000000000 ) ;
#1123 = DIRECTION ( 'NONE',  ( 0.000000000000000000, 1.000000000000000000, 0.000000000000000000 ) ) ;
#1124 = ORIENTED_EDGE ( 'NONE', *, *, #417, .F. ) ;
#1125 = ORIENTED_EDGE ( 'NONE', *, *, #63, .F. ) ;
#1126 = EDGE_CURVE ( 'NONE', #121, #265, #557, .T. ) ;
#1127 = SPHERICAL_SURFACE ( 'NONE', #406, 0.1250000000000000555 ) ;
#1128 = DIRECTION ( 'NONE',  ( 0.000000000000000000, 0.000000000000000000, -1.000000000000000000 ) ) ;
#1129 = STYLED_ITEM ( 'NONE', ( #1145 ), #179 ) ;
#1130 = ORIENTED_EDGE ( 'NONE', *, *, #296, .F. ) ;
#1131 = ORIENTED_EDGE ( 'NONE', *, *, #283, .T. ) ;
#1132 = AXIS2_PLACEMENT_3D ( 'NONE', #1103, #183, #1007 ) ;
#1133 = PRESENTATION_LAYER_ASSIGNMENT (  '', '', ( #1182 ) ) ;
#1134 = FACE_OUTER_BOUND ( 'NONE', #594, .T. ) ;
#1135 = STYLED_ITEM ( 'NONE', ( #1231 ), #359 ) ;
#1136 = ADVANCED_FACE ( 'NONE', ( #262 ), #1077, .T. ) ;
#1137 = DIRECTION ( 'NONE',  ( -1.000000000000000000, 0.000000000000000000, -2.168404344971007882E-16 ) ) ;
#1138 = EDGE_CURVE ( 'NONE', #1005, #240, #201, .T. ) ;
#1139 = AXIS2_PLACEMENT_3D ( 'NONE', #1181, #36, #863 ) ;
#1140 = ADVANCED_FACE ( 'NONE', ( #1311 ), #1120, .T. ) ;
#1141 = ORIENTED_EDGE ( 'NONE', *, *, #821, .F. ) ;
#1142 = ORIENTED_EDGE ( 'NONE', *, *, #475, .T. ) ;
#1143 = DIRECTION ( 'NONE',  ( 0.000000000000000000, -1.000000000000000000, -0.000000000000000000 ) ) ;
#1144 = VERTEX_POINT ( 'NONE', #587 ) ;
#1145 = PRESENTATION_STYLE_ASSIGNMENT (( #180 ) ) ;
#1146 = EDGE_LOOP ( 'NONE', ( #1084, #932, #1303 ) ) ;
#1147 = CARTESIAN_POINT ( 'NONE',  ( 0.6939999999999992841, -2.151958236118906687, 0.8222499999999983711 ) ) ;
#1148 = ADVANCED_FACE ( 'NONE', ( #595 ), #814, .T. ) ;
#1149 = FACE_OUTER_BOUND ( 'NONE', #710, .T. ) ;
#1150 = DIRECTION ( 'NONE',  ( -0.000000000000000000, -1.000000000000000000, -0.000000000000000000 ) ) ;
#1151 = ADVANCED_FACE ( 'NONE', ( #384 ), #805, .T. ) ;
#1152 = CIRCLE ( 'NONE', #120, 0.08429808813576628035 ) ;
#1153 = ORIENTED_EDGE ( 'NONE', *, *, #918, .F. ) ;
#1154 = VERTEX_POINT ( 'NONE', #1319 ) ;
#1155 = CIRCLE ( 'NONE', #564, 0.09165151389911688207 ) ;
#1156 = DIRECTION ( 'NONE',  ( -0.000000000000000000, 1.000000000000000000, -0.000000000000000000 ) ) ;
#1157 = CARTESIAN_POINT ( 'NONE',  ( 0.4000000000000010214, 0.1250000000000001110, -0.1999999999999999833 ) ) ;
#1158 = VECTOR ( 'NONE', #1193, 1000.000000000000000 ) ;
#1159 = MECHANICAL_DESIGN_GEOMETRIC_PRESENTATION_REPRESENTATION (  '', ( #231 ), #797 ) ;
#1160 =( NAMED_UNIT ( * ) SI_UNIT ( $, .STERADIAN. ) SOLID_ANGLE_UNIT ( ) );
#1161 = CARTESIAN_POINT ( 'NONE',  ( 0.3083484861008837230, 0.2100000000000001310, 0.2000000000000000389 ) ) ;
#1162 = SURFACE_SIDE_STYLE ('',( #321 ) ) ;
#1163 = DIRECTION ( 'NONE',  ( 0.000000000000000000, 0.000000000000000000, -1.000000000000000000 ) ) ;
#1164 = EDGE_LOOP ( 'NONE', ( #181, #1308, #1253 ) ) ;
#1165 = ORIENTED_EDGE ( 'NONE', *, *, #15, .T. ) ;
#1166 = PRESENTATION_STYLE_ASSIGNMENT (( #118 ) ) ;
#1167 = CARTESIAN_POINT ( 'NONE',  ( 8.673617379884035472E-16, 0.2100000000000001310, -0.6000000000000000888 ) ) ;
#1168 = DIRECTION ( 'NONE',  ( 1.224646799147353207E-16, 0.000000000000000000, -1.000000000000000000 ) ) ;
#1169 = ORIENTED_EDGE ( 'NONE', *, *, #246, .F. ) ;
#1170 = AXIS2_PLACEMENT_3D ( 'NONE', #448, #256, #345 ) ;
#1171 = DIRECTION ( 'NONE',  ( 5.274318868886618175E-16, 0.000000000000000000, 1.000000000000000000 ) ) ;
#1172 = CARTESIAN_POINT ( 'NONE',  ( 0.4000000000000006328, 0.1250000000000001110, 0.6000000000000000888 ) ) ;
#1173 = DIRECTION ( 'NONE',  ( 0.000000000000000000, 1.000000000000000000, 0.000000000000000000 ) ) ;
#1174 = PLANE ( 'NONE',  #1139 ) ;
#1175 = DIRECTION ( 'NONE',  ( 0.000000000000000000, 0.000000000000000000, -1.000000000000000000 ) ) ;
#1176 = CARTESIAN_POINT ( 'NONE',  ( -0.3999999999999990785, 0.1250000000000001110, -0.6000000000000000888 ) ) ;
#1177 = DIRECTION ( 'NONE',  ( 1.000000000000000000, 0.000000000000000000, 0.000000000000000000 ) ) ;
#1178 = DIRECTION ( 'NONE',  ( 1.000000000000000000, 0.000000000000000000, 0.000000000000000000 ) ) ;
#1179 = DIRECTION ( 'NONE',  ( 0.000000000000000000, 0.000000000000000000, -1.000000000000000000 ) ) ;
#1180 = AXIS2_PLACEMENT_3D ( 'NONE', #637, #515, #26 ) ;
#1181 = CARTESIAN_POINT ( 'NONE',  ( 1.399999999999999911, 0.2100000000000001310, -1.022250000000000991 ) ) ;
#1182 = STYLED_ITEM ( 'NONE', ( #361 ), #804 ) ;
#1183 = CARTESIAN_POINT ( 'NONE',  ( -0.4886013224165708380, 0.6250000000000000000, -0.6150192058385073324 ) ) ;
#1184 = PRESENTATION_STYLE_ASSIGNMENT (( #849 ) ) ;
#1185 = EDGE_CURVE ( 'NONE', #688, #988, #1016, .T. ) ;
#1186 = STYLED_ITEM ( 'NONE', ( #1216 ), #344 ) ;
#1187 = CARTESIAN_POINT ( 'NONE',  ( 0.4000000000000010214, 0.1250000000000001110, -0.6000000000000000888 ) ) ;
#1188 = CARTESIAN_POINT ( 'NONE',  ( -0.3999999999999990785, 0.2100000000000001310, -0.6000000000000000888 ) ) ;
#1189 = CARTESIAN_POINT ( 'NONE',  ( -0.4886013224165708380, 0.6250000000000000000, -0.5307211177027411075 ) ) ;
#1190 = DIRECTION ( 'NONE',  ( 1.000000000000000000, 0.000000000000000000, 0.000000000000000000 ) ) ;
#1191 = APPLICATION_PROTOCOL_DEFINITION ( 'draft international standard', 'automotive_design', 1998, #1115 ) ;
#1192 = CIRCLE ( 'NONE', #533, 0.1250000000000001110 ) ;
#1193 = DIRECTION ( 'NONE',  ( 0.000000000000000000, 1.000000000000000000, 0.000000000000000000 ) ) ;
#1194 = SURFACE_SIDE_STYLE ('',( #142 ) ) ;
#1195 = CARTESIAN_POINT ( 'NONE',  ( -0.3999999999999993006, 0.1250000000000001110, 0.6000000000000000888 ) ) ;
#1196 = CARTESIAN_POINT ( 'NONE',  ( 0.6939999999999992841, 0.2100000000000001310, 0.8222499999999983711 ) ) ;
#1197 = VERTEX_POINT ( 'NONE', #799 ) ;
#1198 = VERTEX_POINT ( 'NONE', #921 ) ;
#1199 = PRESENTATION_LAYER_ASSIGNMENT (  '', '', ( #1129 ) ) ;
#1200 = EDGE_CURVE ( 'NONE', #146, #914, #1192, .T. ) ;
#1201 = PLANE ( 'NONE',  #831 ) ;
#1202 = CARTESIAN_POINT ( 'NONE',  ( -0.3999999999999993006, 0.2100000000000001310, -0.1999999999999999833 ) ) ;
#1203 = FILL_AREA_STYLE_COLOUR ( '', #259 ) ;
#1204 = CIRCLE ( 'NONE', #41, 0.09165151389911693758 ) ;
#1205 = VERTEX_POINT ( 'NONE', #790 ) ;
#1206 = AXIS2_PLACEMENT_3D ( 'NONE', #225, #622, #304 ) ;
#1207 = ORIENTED_EDGE ( 'NONE', *, *, #1126, .F. ) ;
#1208 =( NAMED_UNIT ( * ) PLANE_ANGLE_UNIT ( ) SI_UNIT ( $, .RADIAN. ) );
#1209 = VECTOR ( 'NONE', #40, 1000.000000000000000 ) ;
#1210 = CIRCLE ( 'NONE', #931, 0.09165151389911688207 ) ;
#1211 = DIRECTION ( 'NONE',  ( -1.000000000000000000, 0.000000000000000000, 0.000000000000000000 ) ) ;
#1212 = PRESENTATION_STYLE_ASSIGNMENT (( #806 ) ) ;
#1213 = SURFACE_STYLE_USAGE ( .BOTH. , #184 ) ;
#1214 = EDGE_LOOP ( 'NONE', ( #1325, #1237, #416 ) ) ;
#1215 = MECHANICAL_DESIGN_GEOMETRIC_PRESENTATION_REPRESENTATION (  '', ( #114 ), #474 ) ;
#1216 = PRESENTATION_STYLE_ASSIGNMENT (( #1213 ) ) ;
#1217 = COLOUR_RGB ( '',0.7921568627450980005, 0.8196078431372548767, 0.9333333333333333481 ) ;
#1218 = SPHERICAL_SURFACE ( 'NONE', #507, 0.1250000000000000555 ) ;
#1219 = EDGE_LOOP ( 'NONE', ( #81, #917 ) ) ;
#1220 = ORIENTED_EDGE ( 'NONE', *, *, #487, .F. ) ;
#1221 = DIRECTION ( 'NONE',  ( 1.000000000000000000, 0.000000000000000000, 0.000000000000000000 ) ) ;
#1222 = CARTESIAN_POINT ( 'NONE',  ( 0.4916515138991175426, 0.2100000000000001310, 0.2000000000000000389 ) ) ;
#1223 = AXIS2_PLACEMENT_3D ( 'NONE', #410, #330, #741 ) ;
#1224 = CIRCLE ( 'NONE', #801, 0.1250000000000000555 ) ;
#1225 = SURFACE_STYLE_FILL_AREA ( #393 ) ;
#1226 = CARTESIAN_POINT ( 'NONE',  ( 0.6939999999999992841, 0.2100000000000001310, -0.8222500000000011466 ) ) ;
#1227 = ORIENTED_EDGE ( 'NONE', *, *, #961, .T. ) ;
#1228 = AXIS2_PLACEMENT_3D ( 'NONE', #127, #338, #309 ) ;
#1229 = SPHERICAL_SURFACE ( 'NONE', #1001, 0.1250000000000000555 ) ;
#1230 = LINE ( 'NONE', #835, #504 ) ;
#1231 = PRESENTATION_STYLE_ASSIGNMENT (( #84 ) ) ;
#1232 = DIRECTION ( 'NONE',  ( 0.000000000000000000, 0.000000000000000000, -1.000000000000000000 ) ) ;
#1233 = AXIS2_PLACEMENT_3D ( 'NONE', #59, #543, #763 ) ;
#1234 = CARTESIAN_POINT ( 'NONE',  ( 1.399999999999999911, 0.2100000000000001310, -1.422250000000000902 ) ) ;
#1235 = CLOSED_SHELL ( 'NONE', ( #51, #1004, #909 ) ) ;
#1236 = ORIENTED_EDGE ( 'NONE', *, *, #294, .F. ) ;
#1237 = ORIENTED_EDGE ( 'NONE', *, *, #185, .T. ) ;
#1238 = UNCERTAINTY_MEASURE_WITH_UNIT (LENGTH_MEASURE( 1.000000000000000082E-05 ), #499, 'distance_accuracy_value', 'NONE');
#1239 = ADVANCED_FACE ( 'NONE', ( #820 ), #1229, .T. ) ;
#1240 =( NAMED_UNIT ( * ) SI_UNIT ( $, .STERADIAN. ) SOLID_ANGLE_UNIT ( ) );
#1241 = FACE_OUTER_BOUND ( 'NONE', #4, .T. ) ;
#1242 = EDGE_CURVE ( 'NONE', #325, #307, #714, .T. ) ;
#1243 = EDGE_CURVE ( 'NONE', #1144, #1205, #900, .T. ) ;
#1244 = DIRECTION ( 'NONE',  ( 1.224646799147353207E-16, 0.000000000000000000, -1.000000000000000000 ) ) ;
#1245 = CARTESIAN_POINT ( 'NONE',  ( -0.4886013224165708380, 0.5250000000000000222, -0.6150192058385073324 ) ) ;
#1246 = ADVANCED_FACE ( 'NONE', ( #907 ), #1201, .F. ) ;
#1247 = EDGE_LOOP ( 'NONE', ( #1207, #1124, #518, #217 ) ) ;
#1248 = VERTEX_POINT ( 'NONE', #177 ) ;
#1249 = AXIS2_PLACEMENT_3D ( 'NONE', #21, #610, #1257 ) ;
#1250 = CARTESIAN_POINT ( 'NONE',  ( 0.9999999999999995559, 0.2100000000000001310, -0.2222500000000008635 ) ) ;
#1251 = CARTESIAN_POINT ( 'NONE',  ( 0.6939999999999992841, -2.151958236118906687, -0.8222500000000009246 ) ) ;
#1252 = ORIENTED_EDGE ( 'NONE', *, *, #355, .F. ) ;
#1253 = ORIENTED_EDGE ( 'NONE', *, *, #1038, .T. ) ;
#1254 = ADVANCED_FACE ( 'NONE', ( #577 ), #699, .T. ) ;
#1255 = UNCERTAINTY_MEASURE_WITH_UNIT (LENGTH_MEASURE( 1.000000000000000082E-05 ), #770, 'distance_accuracy_value', 'NONE');
#1256 = ADVANCED_FACE ( 'NONE', ( #484 ), #287, .T. ) ;
#1257 = DIRECTION ( 'NONE',  ( 1.000000000000000000, 0.000000000000000000, 0.000000000000000000 ) ) ;
#1258 = CARTESIAN_POINT ( 'NONE',  ( 0.4000000000000010214, 0.2100000000000001310, -0.1999999999999999833 ) ) ;
#1259 = ADVANCED_FACE ( 'NONE', ( #391 ), #532, .T. ) ;
#1260 = ORIENTED_EDGE ( 'NONE', *, *, #15, .F. ) ;
#1261 = ORIENTED_EDGE ( 'NONE', *, *, #1299, .T. ) ;
#1262 = CARTESIAN_POINT ( 'NONE',  ( -0.4886013224165708380, 0.5250000000000000222, -0.6993172939742735572 ) ) ;
#1263 = DIRECTION ( 'NONE',  ( -1.000000000000000000, 0.000000000000000000, -2.168404344971007882E-16 ) ) ;
#1264 = PLANE ( 'NONE',  #1228 ) ;
#1265 = CARTESIAN_POINT ( 'NONE',  ( 8.673617379884035472E-16, 0.2100000000000001310, -0.1999999999999999833 ) ) ;
#1266 = AXIS2_PLACEMENT_3D ( 'NONE', #247, #1082, #1073 ) ;
#1267 = CARTESIAN_POINT ( 'NONE',  ( 0.4000000000000010214, 5.421010862427522170E-17, -0.1999999999999999833 ) ) ;
#1268 = ORIENTED_EDGE ( 'NONE', *, *, #630, .F. ) ;
#1269 = DIRECTION ( 'NONE',  ( 0.000000000000000000, 0.000000000000000000, -1.000000000000000000 ) ) ;
#1270 = AXIS2_PLACEMENT_3D ( 'NONE', #168, #789, #906 ) ;
#1271 =( LENGTH_UNIT ( ) NAMED_UNIT ( * ) SI_UNIT ( .MILLI., .METRE. ) );
#1272 = DIRECTION ( 'NONE',  ( 1.000000000000000000, 0.000000000000000000, 0.000000000000000000 ) ) ;
#1273 = CARTESIAN_POINT ( 'NONE',  ( 0.6939999999999992841, 0.2100000000000001310, -0.8222500000000009246 ) ) ;
#1274 =( NAMED_UNIT ( * ) SI_UNIT ( $, .STERADIAN. ) SOLID_ANGLE_UNIT ( ) );
#1275 = PRESENTATION_LAYER_ASSIGNMENT (  '', '', ( #571 ) ) ;
#1276 = VECTOR ( 'NONE', #765, 1000.000000000000000 ) ;
#1277 = EDGE_LOOP ( 'NONE', ( #753, #1165, #866 ) ) ;
#1278 = EDGE_LOOP ( 'NONE', ( #1153, #643, #942 ) ) ;
#1279 =( LENGTH_UNIT ( ) NAMED_UNIT ( * ) SI_UNIT ( .MILLI., .METRE. ) );
#1280 = CARTESIAN_POINT ( 'NONE',  ( 0.4000000000000006328, 5.421010862427522170E-17, 0.6000000000000000888 ) ) ;
#1281 = CARTESIAN_POINT ( 'NONE',  ( -0.4886013224165708380, 0.5250000000000000222, -0.5307211177027411075 ) ) ;
#1282 = CARTESIAN_POINT ( 'NONE',  ( 0.4000000000000006328, 0.2100000000000001310, 0.6000000000000000888 ) ) ;
#1283 = VECTOR ( 'NONE', #152, 1000.000000000000000 ) ;
#1284 = CARTESIAN_POINT ( 'NONE',  ( 6.581753459859736072E-16, 5.421010862427522170E-17, 0.6000000000000000888 ) ) ;
#1285 = SURFACE_STYLE_FILL_AREA ( #250 ) ;
#1286 = ADVANCED_FACE ( 'NONE', ( #19 ), #234, .T. ) ;
#1287 = CYLINDRICAL_SURFACE ( 'NONE', #1233, 0.08429808813576628035 ) ;
#1288 = ADVANCED_FACE ( 'NONE', ( #124 ), #1049, .T. ) ;
#1289 = DIRECTION ( 'NONE',  ( -1.000000000000000000, 0.000000000000000000, -2.168404344971007882E-16 ) ) ;
#1290 = DIRECTION ( 'NONE',  ( -0.000000000000000000, -1.000000000000000000, -0.000000000000000000 ) ) ;
#1291 = FILL_AREA_STYLE_COLOUR ( '', #278 ) ;
#1292 = SPHERICAL_SURFACE ( 'NONE', #465, 0.1250000000000000555 ) ;
#1293 = CARTESIAN_POINT ( 'NONE',  ( 0.6939999999999992841, -2.151958236118906687, 0.8222499999999983711 ) ) ;
#1294 = SURFACE_STYLE_USAGE ( .BOTH. , #889 ) ;
#1295 =( GEOMETRIC_REPRESENTATION_CONTEXT ( 3 ) GLOBAL_UNCERTAINTY_ASSIGNED_CONTEXT ( ( #582 ) ) GLOBAL_UNIT_ASSIGNED_CONTEXT ( ( #1279, #872, #243 ) ) REPRESENTATION_CONTEXT ( 'NONE', 'WORKASPACE' ) );
#1296 =( NAMED_UNIT ( * ) SI_UNIT ( $, .STERADIAN. ) SOLID_ANGLE_UNIT ( ) );
#1297 = ADVANCED_FACE ( 'NONE', ( #645 ), #1029, .F. ) ;
#1298 = SURFACE_STYLE_FILL_AREA ( #891 ) ;
#1299 = EDGE_CURVE ( 'NONE', #174, #291, #423, .T. ) ;
#1300 =( NAMED_UNIT ( * ) PLANE_ANGLE_UNIT ( ) SI_UNIT ( $, .RADIAN. ) );
#1301 = DIRECTION ( 'NONE',  ( 0.000000000000000000, -1.000000000000000000, -0.000000000000000000 ) ) ;
#1302 = ORIENTED_EDGE ( 'NONE', *, *, #1018, .T. ) ;
#1303 = ORIENTED_EDGE ( 'NONE', *, *, #49, .T. ) ;
#1304 = DIRECTION ( 'NONE',  ( 0.000000000000000000, 0.000000000000000000, -1.000000000000000000 ) ) ;
#1305 = SPHERICAL_SURFACE ( 'NONE', #1033, 0.1250000000000000555 ) ;
#1306 = CARTESIAN_POINT ( 'NONE',  ( -0.3083484861008822242, 0.2100000000000001310, -0.6000000000000000888 ) ) ;
#1307 = EDGE_LOOP ( 'NONE', ( #454, #626 ) ) ;
#1308 = ORIENTED_EDGE ( 'NONE', *, *, #1243, .T. ) ;
#1309 = AXIS2_PLACEMENT_3D ( 'NONE', #264, #260, #468 ) ;
#1310 = FILL_AREA_STYLE_COLOUR ( '', #235 ) ;
#1311 = FACE_OUTER_BOUND ( 'NONE', #1101, .T. ) ;
#1312 =( NAMED_UNIT ( * ) SI_UNIT ( $, .STERADIAN. ) SOLID_ANGLE_UNIT ( ) );
#1313 = CARTESIAN_POINT ( 'NONE',  ( 0.000000000000000000, 0.6250000000000000000, 0.000000000000000000 ) ) ;
#1314 = AXIS2_PLACEMENT_3D ( 'NONE', #702, #1010, #6 ) ;
#1315 = COLOUR_RGB ( '',0.7921568627450980005, 0.8196078431372548767, 0.9333333333333333481 ) ;
#1316 = VERTEX_POINT ( 'NONE', #840 ) ;
#1317 = AXIS2_PLACEMENT_3D ( 'NONE', #584, #99, #401 ) ;
#1318 = CIRCLE ( 'NONE', #214, 0.1250000000000000555 ) ;
#1319 = CARTESIAN_POINT ( 'NONE',  ( 8.750157804830744940E-16, 5.421010862427522170E-17, 0.2000000000000000389 ) ) ;
#1320 =( NAMED_UNIT ( * ) PLANE_ANGLE_UNIT ( ) SI_UNIT ( $, .RADIAN. ) );
#1321 = CARTESIAN_POINT ( 'NONE',  ( -0.3999999999999990785, 0.1250000000000001110, -0.6000000000000000888 ) ) ;
#1322 = ORIENTED_EDGE ( 'NONE', *, *, #117, .T. ) ;
#1323 = UNCERTAINTY_MEASURE_WITH_UNIT (LENGTH_MEASURE( 1.000000000000000082E-05 ), #104, 'distance_accuracy_value', 'NONE');
#1324 = DIRECTION ( 'NONE',  ( 1.000000000000000000, 0.000000000000000000, 0.000000000000000000 ) ) ;
#1325 = ORIENTED_EDGE ( 'NONE', *, *, #1018, .F. ) ;
#1326 = VERTEX_POINT ( 'NONE', #717 ) ;
#1327 = AXIS2_PLACEMENT_3D ( 'NONE', #903, #974, #968 ) ;
#1328 = DIRECTION ( 'NONE',  ( 0.000000000000000000, 0.000000000000000000, 1.000000000000000000 ) ) ;
#1329 = FACE_OUTER_BOUND ( 'NONE', #743, .T. ) ;
#1330 = MECHANICAL_DESIGN_GEOMETRIC_PRESENTATION_REPRESENTATION (  '', ( #1087 ), #404 ) ;
#1331 = AXIS2_PLACEMENT_3D ( 'NONE', #977, #349, #1171 ) ;
#1332 = CARTESIAN_POINT ( 'NONE',  ( -0.3999999999999993006, 5.421010862427522170E-17, 0.6000000000000000888 ) ) ;
#1333 = CIRCLE ( 'NONE', #751, 0.08429808813576628035 ) ;
ENDSEC;
END-ISO-10303-21;
