ISO-10303-21;
HEADER;
FILE_DESCRIPTION (( 'STEP AP214' ),
    '1' );
FILE_NAME ('LQM2MPN1R0NG0L.STEP',
    '2020-01-17T10:11:18',
    ( '' ),
    ( '' ),
    'SwSTEP 2.0',
    'SolidWorks 2017',
    '' );
FILE_SCHEMA (( 'AUTOMOTIVE_DESIGN' ));
ENDSEC;

DATA;
#1 = ORIENTED_EDGE ( 'NONE', *, *, #1215, .F. ) ;
#2 = ORIENTED_EDGE ( 'NONE', *, *, #197, .T. ) ;
#3 = ADVANCED_FACE ( 'NONE', ( #924 ), #187, .T. ) ;
#4 = FACE_OUTER_BOUND ( 'NONE', #836, .T. ) ;
#5 = EDGE_CURVE ( 'NONE', #606, #641, #1237, .T. ) ;
#6 = DIRECTION ( 'NONE',  ( 0.0000000000000000000, 0.0000000000000000000, 1.000000000000000000 ) ) ;
#7 = DIRECTION ( 'NONE',  ( -1.000000000000000000, 0.0000000000000000000, 1.355252715606883000E-016 ) ) ;
#8 =( GEOMETRIC_REPRESENTATION_CONTEXT ( 3 ) GLOBAL_UNCERTAINTY_ASSIGNED_CONTEXT ( ( #839 ) ) GLOBAL_UNIT_ASSIGNED_CONTEXT ( ( #529, #414, #95 ) ) REPRESENTATION_CONTEXT ( 'NONE', 'WORKASPACE' ) );
#9 = DIRECTION ( 'NONE',  ( 1.000000000000000000, 0.0000000000000000000, -8.673617379884036700E-017 ) ) ;
#10 = DIRECTION ( 'NONE',  ( 0.0000000000000000000, 0.0000000000000000000, -1.000000000000000000 ) ) ;
#11 = CIRCLE ( 'NONE', #31, 0.05000000000000002400 ) ;
#12 = ORIENTED_EDGE ( 'NONE', *, *, #635, .T. ) ;
#13 = CARTESIAN_POINT ( 'NONE',  ( -1.000000000000000200, 0.05000000000000002400, -0.7500000000000000000 ) ) ;
#14 = ORIENTED_EDGE ( 'NONE', *, *, #5, .T. ) ;
#15 = ADVANCED_FACE ( 'NONE', ( #997 ), #482, .T. ) ;
#16 = EDGE_LOOP ( 'NONE', ( #1046, #79, #1263, #62 ) ) ;
#17 = CARTESIAN_POINT ( 'NONE',  ( 0.0000000000000000000, 0.0000000000000000000, 0.7499999999999997800 ) ) ;
#18 = DIRECTION ( 'NONE',  ( 1.355252715606880800E-016, -0.0000000000000000000, -1.000000000000000000 ) ) ;
#19 = EDGE_CURVE ( 'NONE', #702, #553, #721, .T. ) ;
#20 = DIRECTION ( 'NONE',  ( -8.673617379884036700E-017, 0.0000000000000000000, -1.000000000000000000 ) ) ;
#21 = FACE_OUTER_BOUND ( 'NONE', #1240, .T. ) ;
#22 = DIRECTION ( 'NONE',  ( 1.000000000000000000, -0.0000000000000000000, -0.0000000000000000000 ) ) ;
#23 = CARTESIAN_POINT ( 'NONE',  ( 1.000000000000000000, 1.000000000000000000, 0.7999999999999998200 ) ) ;
#24 = ADVANCED_FACE ( 'NONE', ( #685 ), #1140, .T. ) ;
#25 = EDGE_LOOP ( 'NONE', ( #521, #495, #1208, #815 ) ) ;
#26 = DIRECTION ( 'NONE',  ( 1.000000000000000000, 0.0000000000000000000, 1.355252715606880800E-016 ) ) ;
#27 = EDGE_CURVE ( 'NONE', #1072, #965, #985, .T. ) ;
#28 = ORIENTED_EDGE ( 'NONE', *, *, #1261, .F. ) ;
#29 = CYLINDRICAL_SURFACE ( 'NONE', #256, 0.05000000000000002400 ) ;
#30 = CARTESIAN_POINT ( 'NONE',  ( -0.5000000000000000000, 0.9499999999999999600, 0.7999999999999998200 ) ) ;
#31 = AXIS2_PLACEMENT_3D ( 'NONE', #560, #154, #675 ) ;
#32 = EDGE_LOOP ( 'NONE', ( #1227, #447, #229, #1125 ) ) ;
#33 = ORIENTED_EDGE ( 'NONE', *, *, #329, .F. ) ;
#34 = CARTESIAN_POINT ( 'NONE',  ( -1.000000000000000000, 0.9499999999999999600, 0.7499999999999997800 ) ) ;
#35 = DIRECTION ( 'NONE',  ( 1.000000000000000000, 0.0000000000000000000, 0.0000000000000000000 ) ) ;
#36 = AXIS2_PLACEMENT_3D ( 'NONE', #1010, #1102, #1096 ) ;
#37 = CARTESIAN_POINT ( 'NONE',  ( 1.000000000000000200, 1.000000000000000000, -0.7500000000000000000 ) ) ;
#38 = DIRECTION ( 'NONE',  ( -0.0000000000000000000, -1.000000000000000000, -0.0000000000000000000 ) ) ;
#39 = FACE_OUTER_BOUND ( 'NONE', #82, .T. ) ;
#40 = SHAPE_DEFINITION_REPRESENTATION ( #1179, #747 ) ;
#41 = ORIENTED_EDGE ( 'NONE', *, *, #811, .F. ) ;
#42 = FACE_OUTER_BOUND ( 'NONE', #94, .T. ) ;
#43 = ORIENTED_EDGE ( 'NONE', *, *, #904, .T. ) ;
#44 = DIRECTION ( 'NONE',  ( -0.0000000000000000000, -1.000000000000000000, -0.0000000000000000000 ) ) ;
#45 = EDGE_CURVE ( 'NONE', #688, #1253, #655, .T. ) ;
#46 = CARTESIAN_POINT ( 'NONE',  ( -1.000000000000000200, 0.05000000000000002400, -0.8000000000000000400 ) ) ;
#47 = VERTEX_POINT ( 'NONE', #199 ) ;
#48 = DIRECTION ( 'NONE',  ( 1.355252715606880800E-016, 0.0000000000000000000, -1.000000000000000000 ) ) ;
#49 =( NAMED_UNIT ( * ) SI_UNIT ( $, .STERADIAN. ) SOLID_ANGLE_UNIT ( ) );
#50 = DIRECTION ( 'NONE',  ( -0.0000000000000000000, 1.000000000000000000, -0.0000000000000000000 ) ) ;
#51 = SURFACE_STYLE_USAGE ( .BOTH. , #562 ) ;
#52 = DIRECTION ( 'NONE',  ( -8.673617379884036700E-017, 0.0000000000000000000, -1.000000000000000000 ) ) ;
#53 = AXIS2_PLACEMENT_3D ( 'NONE', #580, #1152, #278 ) ;
#54 = CIRCLE ( 'NONE', #561, 0.05000000000000002400 ) ;
#55 = CIRCLE ( 'NONE', #764, 0.05000000000000002400 ) ;
#56 = ORIENTED_EDGE ( 'NONE', *, *, #1254, .T. ) ;
#57 = ORIENTED_EDGE ( 'NONE', *, *, #574, .T. ) ;
#58 = CIRCLE ( 'NONE', #880, 0.05000000000000002400 ) ;
#59 = AXIS2_PLACEMENT_3D ( 'NONE', #586, #491, #873 ) ;
#60 = SURFACE_STYLE_USAGE ( .BOTH. , #64 ) ;
#61 = EDGE_CURVE ( 'NONE', #612, #1111, #55, .T. ) ;
#62 = ORIENTED_EDGE ( 'NONE', *, *, #752, .F. ) ;
#63 = DIRECTION ( 'NONE',  ( -1.000000000000000000, -0.0000000000000000000, 8.673617379884036700E-017 ) ) ;
#64 = SURFACE_SIDE_STYLE ('',( #400 ) ) ;
#65 = CARTESIAN_POINT ( 'NONE',  ( 0.4999999999881765700, 0.9499999999999999600, -0.7833333333333332100 ) ) ;
#66 = CIRCLE ( 'NONE', #1251, 0.03333333333333345800 ) ;
#67 = EDGE_LOOP ( 'NONE', ( #210, #830, #70, #236 ) ) ;
#68 = VECTOR ( 'NONE', #1225, 1000.000000000000000 ) ;
#69 = AXIS2_PLACEMENT_3D ( 'NONE', #516, #9, #712 ) ;
#70 = ORIENTED_EDGE ( 'NONE', *, *, #407, .F. ) ;
#71 = ORIENTED_EDGE ( 'NONE', *, *, #1059, .T. ) ;
#72 = CARTESIAN_POINT ( 'NONE',  ( 0.5000000000000000000, 1.000000000000000000, 0.7999999999999998200 ) ) ;
#73 = ORIENTED_EDGE ( 'NONE', *, *, #1195, .T. ) ;
#74 = DIRECTION ( 'NONE',  ( 0.0000000000000000000, 1.000000000000000000, 0.0000000000000000000 ) ) ;
#75 = DIRECTION ( 'NONE',  ( 1.355252715606880800E-016, -0.0000000000000000000, -1.000000000000000000 ) ) ;
#76 = CIRCLE ( 'NONE', #968, 0.05000000000000002400 ) ;
#77 =( NAMED_UNIT ( * ) SI_UNIT ( $, .STERADIAN. ) SOLID_ANGLE_UNIT ( ) );
#78 = CARTESIAN_POINT ( 'NONE',  ( -0.5000000000000000000, 0.05000000000000002400, 0.7999999999999998200 ) ) ;
#79 = ORIENTED_EDGE ( 'NONE', *, *, #395, .F. ) ;
#80 = ORIENTED_EDGE ( 'NONE', *, *, #650, .F. ) ;
#81 = VERTEX_POINT ( 'NONE', #1085 ) ;
#82 = EDGE_LOOP ( 'NONE', ( #881, #387, #109, #1239 ) ) ;
#83 = EDGE_CURVE ( 'NONE', #90, #865, #983, .T. ) ;
#84 = EDGE_CURVE ( 'NONE', #1111, #688, #421, .T. ) ;
#85 = CARTESIAN_POINT ( 'NONE',  ( 0.4999999999881765700, 0.05000000000000002400, -0.7833333333333332100 ) ) ;
#86 = ADVANCED_FACE ( 'NONE', ( #781 ), #1170, .T. ) ;
#87 = CIRCLE ( 'NONE', #767, 0.05000000000000002400 ) ;
#88 = CIRCLE ( 'NONE', #593, 0.05000000000000002400 ) ;
#89 = DIRECTION ( 'NONE',  ( 0.0000000000000000000, 1.000000000000000000, 0.0000000000000000000 ) ) ;
#90 = VERTEX_POINT ( 'NONE', #1110 ) ;
#91 = ADVANCED_FACE ( 'NONE', ( #566 ), #440, .T. ) ;
#92 = ORIENTED_EDGE ( 'NONE', *, *, #1131, .F. ) ;
#93 = CARTESIAN_POINT ( 'NONE',  ( -0.9499999999999999600, 0.9499999999999999600, 0.7499999999999997800 ) ) ;
#94 = EDGE_LOOP ( 'NONE', ( #56, #944, #393, #628 ) ) ;
#95 =( NAMED_UNIT ( * ) SI_UNIT ( $, .STERADIAN. ) SOLID_ANGLE_UNIT ( ) );
#96 = DIRECTION ( 'NONE',  ( 1.000000000000000000, -0.0000000000000000000, 0.0000000000000000000 ) ) ;
#97 = ORIENTED_EDGE ( 'NONE', *, *, #513, .F. ) ;
#98 = ORIENTED_EDGE ( 'NONE', *, *, #61, .F. ) ;
#99 = AXIS2_PLACEMENT_3D ( 'NONE', #770, #479, #1151 ) ;
#100 = ADVANCED_FACE ( 'NONE', ( #371 ), #633, .F. ) ;
#101 = EDGE_CURVE ( 'NONE', #965, #1159, #637, .T. ) ;
#102 = DIRECTION ( 'NONE',  ( 0.0000000000000000000, 1.000000000000000000, 0.0000000000000000000 ) ) ;
#103 = CARTESIAN_POINT ( 'NONE',  ( 0.9499999999999999600, 0.05000000000000002400, 0.7499999999999997800 ) ) ;
#104 = CYLINDRICAL_SURFACE ( 'NONE', #420, 0.03333333333333345800 ) ;
#105 = DIRECTION ( 'NONE',  ( -1.000000000000000000, 0.0000000000000000000, 0.0000000000000000000 ) ) ;
#106 = VECTOR ( 'NONE', #998, 1000.000000000000000 ) ;
#107 = CARTESIAN_POINT ( 'NONE',  ( -0.9499999999999999600, 0.9499999999999999600, 0.7499999999999997800 ) ) ;
#108 = EDGE_LOOP ( 'NONE', ( #28, #911, #832, #388 ) ) ;
#109 = ORIENTED_EDGE ( 'NONE', *, *, #167, .T. ) ;
#110 = AXIS2_PLACEMENT_3D ( 'NONE', #13, #812, #512 ) ;
#111 = VECTOR ( 'NONE', #208, 1000.000000000000000 ) ;
#112 = ORIENTED_EDGE ( 'NONE', *, *, #383, .F. ) ;
#113 = CARTESIAN_POINT ( 'NONE',  ( 0.4999999999881765700, 0.05000000000000002400, -0.7499999999999998900 ) ) ;
#114 = ORIENTED_EDGE ( 'NONE', *, *, #525, .F. ) ;
#115 = ADVANCED_FACE ( 'NONE', ( #1064 ), #117, .F. ) ;
#116 = CARTESIAN_POINT ( 'NONE',  ( 0.0000000000000000000, 0.9499999999999999600, 0.7499999999999997800 ) ) ;
#117 = PLANE ( 'NONE',  #446 ) ;
#118 = EDGE_LOOP ( 'NONE', ( #325, #71, #57, #1269 ) ) ;
#119 = EDGE_CURVE ( 'NONE', #702, #987, #1236, .T. ) ;
#120 = DIRECTION ( 'NONE',  ( -1.355252715606880800E-016, 0.0000000000000000000, -1.000000000000000000 ) ) ;
#121 = CARTESIAN_POINT ( 'NONE',  ( 0.4999999999881765700, 0.9499999999999999600, 0.7833333333333333300 ) ) ;
#122 = UNCERTAINTY_MEASURE_WITH_UNIT (LENGTH_MEASURE( 1.000000000000000100E-005 ), #790, 'distance_accuracy_value', 'NONE');
#123 = SPHERICAL_SURFACE ( 'NONE', #1040, 0.05000000000000000300 ) ;
#124 = CARTESIAN_POINT ( 'NONE',  ( -0.9499999999999999600, 0.05000000000000002400, 0.7499999999999997800 ) ) ;
#125 = ORIENTED_EDGE ( 'NONE', *, *, #840, .F. ) ;
#126 = LINE ( 'NONE', #691, #172 ) ;
#127 = CARTESIAN_POINT ( 'NONE',  ( -0.9500000000000001800, 0.05000000000000000300, -0.7500000000000000000 ) ) ;
#128 = ORIENTED_EDGE ( 'NONE', *, *, #922, .T. ) ;
#129 = VECTOR ( 'NONE', #780, 1000.000000000000000 ) ;
#130 = CARTESIAN_POINT ( 'NONE',  ( 1.000000000000000200, 1.000000000000000000, -0.8000000000000000400 ) ) ;
#131 = ORIENTED_EDGE ( 'NONE', *, *, #1131, .T. ) ;
#132 = EDGE_LOOP ( 'NONE', ( #950, #1060, #131, #879 ) ) ;
#133 = CARTESIAN_POINT ( 'NONE',  ( 0.4999999999881765700, 0.9833333333333335000, -0.7500000001111305500 ) ) ;
#134 = CARTESIAN_POINT ( 'NONE',  ( -0.5000000000000002200, 0.05000000000000002400, -0.7499999999999998900 ) ) ;
#135 = AXIS2_PLACEMENT_3D ( 'NONE', #1273, #396, #695 ) ;
#136 = CARTESIAN_POINT ( 'NONE',  ( -0.5000000000000000000, 0.01666666666666666600, 0.7499999999999993300 ) ) ;
#137 = CARTESIAN_POINT ( 'NONE',  ( -0.5000000000000000000, 0.9499999999999999600, 0.7499999999999997800 ) ) ;
#138 = FACE_OUTER_BOUND ( 'NONE', #986, .T. ) ;
#139 = DIRECTION ( 'NONE',  ( 0.0000000000000000000, 0.0000000000000000000, 1.000000000000000000 ) ) ;
#140 = VECTOR ( 'NONE', #35, 1000.000000000000000 ) ;
#141 = DIRECTION ( 'NONE',  ( 1.445602896647340100E-016, 0.0000000000000000000, 1.000000000000000000 ) ) ;
#142 = FACE_OUTER_BOUND ( 'NONE', #526, .T. ) ;
#143 = ORIENTED_EDGE ( 'NONE', *, *, #1254, .F. ) ;
#144 = ORIENTED_EDGE ( 'NONE', *, *, #226, .F. ) ;
#145 = LINE ( 'NONE', #697, #111 ) ;
#146 =( LENGTH_UNIT ( ) NAMED_UNIT ( * ) SI_UNIT ( .MILLI., .METRE. ) );
#147 = EDGE_CURVE ( 'NONE', #492, #639, #170, .T. ) ;
#148 = DIRECTION ( 'NONE',  ( -0.0000000000000000000, 1.000000000000000000, -0.0000000000000000000 ) ) ;
#149 = ORIENTED_EDGE ( 'NONE', *, *, #151, .F. ) ;
#150 = CARTESIAN_POINT ( 'NONE',  ( 1.000000000000000000, 1.000000000000000000, 0.7499999999999996700 ) ) ;
#151 = EDGE_CURVE ( 'NONE', #1001, #1006, #353, .T. ) ;
#152 = LINE ( 'NONE', #569, #385 ) ;
#153 = DIRECTION ( 'NONE',  ( 0.0000000000000000000, -1.000000000000000000, 0.0000000000000000000 ) ) ;
#154 = DIRECTION ( 'NONE',  ( -0.0000000000000000000, -1.000000000000000000, -0.0000000000000000000 ) ) ;
#155 = EDGE_CURVE ( 'NONE', #1067, #975, #519, .T. ) ;
#156 = LINE ( 'NONE', #345, #754 ) ;
#157 = VECTOR ( 'NONE', #619, 1000.000000000000000 ) ;
#158 = MECHANICAL_DESIGN_GEOMETRIC_PRESENTATION_REPRESENTATION (  '', ( #181 ), #8 ) ;
#159 = ORIENTED_EDGE ( 'NONE', *, *, #846, .T. ) ;
#160 = DIRECTION ( 'NONE',  ( -1.000000000000000000, 0.0000000000000000000, 0.0000000000000000000 ) ) ;
#161 = EDGE_LOOP ( 'NONE', ( #555, #579, #896, #789 ) ) ;
#162 = LINE ( 'NONE', #405, #1020 ) ;
#163 = ORIENTED_EDGE ( 'NONE', *, *, #1184, .F. ) ;
#164 = ORIENTED_EDGE ( 'NONE', *, *, #356, .T. ) ;
#165 = EDGE_LOOP ( 'NONE', ( #876, #748, #502, #1149 ) ) ;
#166 = CARTESIAN_POINT ( 'NONE',  ( -0.9499999999999999600, 1.000000000000000000, 0.7999999999999998200 ) ) ;
#167 = EDGE_CURVE ( 'NONE', #673, #742, #66, .T. ) ;
#168 = CIRCLE ( 'NONE', #548, 0.05000000000000002400 ) ;
#169 = DIRECTION ( 'NONE',  ( 0.0000000000000000000, 0.0000000000000000000, 1.000000000000000000 ) ) ;
#170 = LINE ( 'NONE', #1221, #603 ) ;
#171 = VECTOR ( 'NONE', #1013, 1000.000000000000000 ) ;
#172 = VECTOR ( 'NONE', #284, 1000.000000000000000 ) ;
#173 = EDGE_LOOP ( 'NONE', ( #73, #1187, #1080, #114 ) ) ;
#174 = VECTOR ( 'NONE', #44, 1000.000000000000000 ) ;
#175 = DIRECTION ( 'NONE',  ( 0.0000000000000000000, 0.0000000000000000000, 1.000000000000000000 ) ) ;
#176 = EDGE_LOOP ( 'NONE', ( #473, #250, #1019 ) ) ;
#177 = VECTOR ( 'NONE', #299, 1000.000000000000000 ) ;
#178 = ORIENTED_EDGE ( 'NONE', *, *, #887, .F. ) ;
#179 = ORIENTED_EDGE ( 'NONE', *, *, #167, .F. ) ;
#180 = SURFACE_SIDE_STYLE ('',( #686 ) ) ;
#181 = STYLED_ITEM ( 'NONE', ( #1260 ), #390 ) ;
#182 = EDGE_CURVE ( 'NONE', #746, #639, #809, .T. ) ;
#183 = DIRECTION ( 'NONE',  ( -1.000000000000000000, -0.0000000000000000000, 8.673617379884036700E-017 ) ) ;
#184 = CARTESIAN_POINT ( 'NONE',  ( 0.9500000000000001800, 0.9499999999999999600, -0.7500000000000000000 ) ) ;
#185 = FACE_OUTER_BOUND ( 'NONE', #118, .T. ) ;
#186 = AXIS2_PLACEMENT_3D ( 'NONE', #713, #96, #615 ) ;
#187 = CYLINDRICAL_SURFACE ( 'NONE', #899, 0.05000000000000002400 ) ;
#188 = ADVANCED_FACE ( 'NONE', ( #386 ), #547, .F. ) ;
#189 = ORIENTED_EDGE ( 'NONE', *, *, #574, .F. ) ;
#190 = LINE ( 'NONE', #133, #484 ) ;
#191 = ORIENTED_EDGE ( 'NONE', *, *, #27, .F. ) ;
#192 = CIRCLE ( 'NONE', #522, 0.05000000000000002400 ) ;
#193 = ORIENTED_EDGE ( 'NONE', *, *, #1012, .F. ) ;
#194 = ORIENTED_EDGE ( 'NONE', *, *, #298, .F. ) ;
#195 = EDGE_CURVE ( 'NONE', #742, #965, #1138, .T. ) ;
#196 = ADVANCED_FACE ( 'NONE', ( #906 ), #952, .T. ) ;
#197 = EDGE_CURVE ( 'NONE', #692, #785, #921, .T. ) ;
#198 = CARTESIAN_POINT ( 'NONE',  ( 1.000000000000000200, 0.05000000000000002400, -0.8000000000000000400 ) ) ;
#199 = CARTESIAN_POINT ( 'NONE',  ( -0.9500000000000001800, 0.0000000000000000000, -0.7500000000000000000 ) ) ;
#200 = AXIS2_PLACEMENT_3D ( 'NONE', #816, #205, #417 ) ;
#201 = DIRECTION ( 'NONE',  ( -1.000000000000000000, -0.0000000000000000000, 8.673617379884036700E-017 ) ) ;
#202 = ADVANCED_FACE ( 'NONE', ( #1091 ), #648, .F. ) ;
#203 = CARTESIAN_POINT ( 'NONE',  ( 0.9499999999999999600, 1.000000000000000000, 0.7999999999999998200 ) ) ;
#204 = VECTOR ( 'NONE', #201, 1000.000000000000000 ) ;
#205 = DIRECTION ( 'NONE',  ( 0.0000000000000000000, 1.000000000000000000, 0.0000000000000000000 ) ) ;
#206 = ORIENTED_EDGE ( 'NONE', *, *, #953, .F. ) ;
#207 = FACE_OUTER_BOUND ( 'NONE', #787, .T. ) ;
#208 = DIRECTION ( 'NONE',  ( 0.0000000000000000000, -1.000000000000000000, 0.0000000000000000000 ) ) ;
#209 = CARTESIAN_POINT ( 'NONE',  ( 0.5000000000000002200, 1.000000000000000000, -0.8000000000000000400 ) ) ;
#210 = ORIENTED_EDGE ( 'NONE', *, *, #699, .F. ) ;
#211 = DIRECTION ( 'NONE',  ( 1.000000000000000000, 0.0000000000000000000, 0.0000000000000000000 ) ) ;
#212 = DIRECTION ( 'NONE',  ( 0.0000000000000000000, 0.0000000000000000000, 1.000000000000000000 ) ) ;
#213 = ORIENTED_EDGE ( 'NONE', *, *, #608, .F. ) ;
#214 = EDGE_CURVE ( 'NONE', #857, #362, #552, .T. ) ;
#215 = CARTESIAN_POINT ( 'NONE',  ( 500000.0000000000600, 0.9499999999999999600, 0.7833333332899652400 ) ) ;
#216 = DIRECTION ( 'NONE',  ( 0.0000000000000000000, -0.0000000000000000000, 1.000000000000000000 ) ) ;
#217 = LINE ( 'NONE', #166, #423 ) ;
#218 = CARTESIAN_POINT ( 'NONE',  ( 0.9500000000000000700, 0.0000000000000000000, 1.287490079826537000E-016 ) ) ;
#219 = CARTESIAN_POINT ( 'NONE',  ( -0.5000000000000002200, 1.000000000000000000, -0.7500000000000000000 ) ) ;
#220 = DIRECTION ( 'NONE',  ( -0.0000000000000000000, 0.0000000000000000000, 1.000000000000000000 ) ) ;
#221 = DIRECTION ( 'NONE',  ( -1.355252715606880800E-016, 0.0000000000000000000, 1.000000000000000000 ) ) ;
#222 = CIRCLE ( 'NONE', #564, 0.05000000000000002400 ) ;
#223 = CARTESIAN_POINT ( 'NONE',  ( -1.000000000000000200, 1.000000000000000000, -0.8000000000000000400 ) ) ;
#224 = DIRECTION ( 'NONE',  ( 0.0000000000000000000, 0.0000000000000000000, 1.000000000000000000 ) ) ;
#225 = UNCERTAINTY_MEASURE_WITH_UNIT (LENGTH_MEASURE( 1.000000000000000100E-005 ), #146, 'distance_accuracy_value', 'NONE');
#226 = EDGE_CURVE ( 'NONE', #1204, #1033, #617, .T. ) ;
#227 = CARTESIAN_POINT ( 'NONE',  ( 0.9500000000000001800, 0.05000000000000002400, -0.8000000000000000400 ) ) ;
#228 = ORIENTED_EDGE ( 'NONE', *, *, #296, .T. ) ;
#229 = ORIENTED_EDGE ( 'NONE', *, *, #1215, .T. ) ;
#230 = EDGE_CURVE ( 'NONE', #1031, #1253, #683, .T. ) ;
#231 = CIRCLE ( 'NONE', #481, 0.05000000000000002400 ) ;
#232 = DIRECTION ( 'NONE',  ( 1.000000000000000000, 0.0000000000000000000, -0.0000000000000000000 ) ) ;
#233 = ORIENTED_EDGE ( 'NONE', *, *, #1244, .F. ) ;
#234 = DIRECTION ( 'NONE',  ( 0.0000000000000000000, -1.000000000000000000, 0.0000000000000000000 ) ) ;
#235 = CARTESIAN_POINT ( 'NONE',  ( -0.5000000000000000000, 1.000000000000000000, 0.7499999999999997800 ) ) ;
#236 = ORIENTED_EDGE ( 'NONE', *, *, #859, .F. ) ;
#237 = AXIS2_PLACEMENT_3D ( 'NONE', #622, #920, #437 ) ;
#238 = PLANE ( 'NONE',  #1004 ) ;
#239 = CARTESIAN_POINT ( 'NONE',  ( -0.5000000000000002200, 0.05000000000000003100, -0.7833333333333332100 ) ) ;
#240 = VECTOR ( 'NONE', #338, 1000.000000000000000 ) ;
#241 = DIRECTION ( 'NONE',  ( 0.0000000000000000000, 0.0000000000000000000, 1.000000000000000000 ) ) ;
#242 = CARTESIAN_POINT ( 'NONE',  ( 0.5000000000000000000, 0.9499999999999999600, 0.7499999999999997800 ) ) ;
#243 = FACE_OUTER_BOUND ( 'NONE', #595, .T. ) ;
#244 = VECTOR ( 'NONE', #75, 1000.000000000000000 ) ;
#245 = CARTESIAN_POINT ( 'NONE',  ( -1.000000000000000200, 0.05000000000000002400, -0.8000000000000000400 ) ) ;
#246 = EDGE_CURVE ( 'NONE', #785, #673, #670, .T. ) ;
#247 = EDGE_LOOP ( 'NONE', ( #402, #1126, #12, #1035 ) ) ;
#248 = LINE ( 'NONE', #1043, #174 ) ;
#249 = DIRECTION ( 'NONE',  ( -1.000000000000000000, 0.0000000000000000000, 0.0000000000000000000 ) ) ;
#250 = ORIENTED_EDGE ( 'NONE', *, *, #513, .T. ) ;
#251 = CYLINDRICAL_SURFACE ( 'NONE', #735, 0.05000000000000002400 ) ;
#252 = PRODUCT ( 'LQM2MPN1R0NG0L', 'LQM2MPN1R0NG0L', '', ( #469 ) ) ;
#253 = EDGE_LOOP ( 'NONE', ( #591, #426, #610, #332 ) ) ;
#254 = CLOSED_SHELL ( 'NONE', ( #91, #115, #810, #714, #1022, #934, #202, #1025, #626, #307 ) ) ;
#255 = DIRECTION ( 'NONE',  ( 0.0000000000000000000, 0.0000000000000000000, -1.000000000000000000 ) ) ;
#256 = AXIS2_PLACEMENT_3D ( 'NONE', #1026, #412, #1211 ) ;
#257 = CARTESIAN_POINT ( 'NONE',  ( 0.9500000000000001800, 1.000000000000000000, -0.8000000000000000400 ) ) ;
#258 = EDGE_CURVE ( 'NONE', #1031, #492, #88, .T. ) ;
#259 =( LENGTH_UNIT ( ) NAMED_UNIT ( * ) SI_UNIT ( .MILLI., .METRE. ) );
#260 = EDGE_LOOP ( 'NONE', ( #1278, #1109, #178, #143 ) ) ;
#261 = AXIS2_PLACEMENT_3D ( 'NONE', #130, #1230, #935 ) ;
#262 = ORIENTED_EDGE ( 'NONE', *, *, #195, .F. ) ;
#263 = CARTESIAN_POINT ( 'NONE',  ( -0.5000000000000002200, 0.01666666666666666600, -0.7499999999999997800 ) ) ;
#264 = ORIENTED_EDGE ( 'NONE', *, *, #434, .F. ) ;
#265 = CARTESIAN_POINT ( 'NONE',  ( -0.9500000000000001800, 0.05000000000000002400, -0.8000000000000000400 ) ) ;
#266 = EDGE_CURVE ( 'NONE', #1072, #506, #863, .T. ) ;
#267 = VECTOR ( 'NONE', #755, 1000.000000000000000 ) ;
#268 = DIRECTION ( 'NONE',  ( -1.000000000000000000, -0.0000000000000000000, 8.673617379884036700E-017 ) ) ;
#269 = VECTOR ( 'NONE', #435, 1000.000000000000000 ) ;
#270 = VECTOR ( 'NONE', #148, 1000.000000000000000 ) ;
#271 = AXIS2_PLACEMENT_3D ( 'NONE', #304, #1008, #823 ) ;
#272 = DIRECTION ( 'NONE',  ( -1.000000000000000000, -0.0000000000000000000, -0.0000000000000000000 ) ) ;
#273 = SURFACE_STYLE_FILL_AREA ( #1050 ) ;
#274 = DIRECTION ( 'NONE',  ( 1.000000000000000000, -0.0000000000000000000, -1.355252715606880800E-016 ) ) ;
#275 = ORIENTED_EDGE ( 'NONE', *, *, #723, .F. ) ;
#276 = LINE ( 'NONE', #334, #772 ) ;
#277 = AXIS2_PLACEMENT_3D ( 'NONE', #223, #537, #120 ) ;
#278 = DIRECTION ( 'NONE',  ( 0.0000000000000000000, 0.0000000000000000000, 1.000000000000000000 ) ) ;
#279 = ORIENTED_EDGE ( 'NONE', *, *, #1086, .T. ) ;
#280 = EDGE_LOOP ( 'NONE', ( #1176, #451, #866, #309 ) ) ;
#281 = FILL_AREA_STYLE_COLOUR ( '', #403 ) ;
#282 = EDGE_CURVE ( 'NONE', #1061, #639, #875, .T. ) ;
#283 = CARTESIAN_POINT ( 'NONE',  ( -1.000000000000000200, 1.000000000000000000, -0.7500000000000000000 ) ) ;
#284 = DIRECTION ( 'NONE',  ( -1.355252715606880800E-016, -0.0000000000000000000, -1.000000000000000000 ) ) ;
#285 = DIRECTION ( 'NONE',  ( -0.0000000000000000000, -0.0000000000000000000, -1.000000000000000000 ) ) ;
#286 = DIRECTION ( 'NONE',  ( 0.0000000000000000000, 0.0000000000000000000, 1.000000000000000000 ) ) ;
#287 = EDGE_CURVE ( 'NONE', #857, #47, #305, .T. ) ;
#288 = VECTOR ( 'NONE', #871, 1000.000000000000000 ) ;
#289 = CARTESIAN_POINT ( 'NONE',  ( -0.5000000000000002200, 1.000000000000000000, -0.8000000000000000400 ) ) ;
#290 = SPHERICAL_SURFACE ( 'NONE', #1194, 0.05000000000000000300 ) ;
#291 = ORIENTED_EDGE ( 'NONE', *, *, #195, .T. ) ;
#292 = ORIENTED_EDGE ( 'NONE', *, *, #119, .F. ) ;
#293 = FACE_OUTER_BOUND ( 'NONE', #409, .T. ) ;
#294 = DIRECTION ( 'NONE',  ( -1.355252715606880800E-016, 0.0000000000000000000, -1.000000000000000000 ) ) ;
#295 = ADVANCED_FACE ( 'NONE', ( #1185 ), #1106, .T. ) ;
#296 = EDGE_CURVE ( 'NONE', #1006, #857, #893, .T. ) ;
#297 = VERTEX_POINT ( 'NONE', #1235 ) ;
#298 = EDGE_CURVE ( 'NONE', #1255, #81, #11, .T. ) ;
#299 = DIRECTION ( 'NONE',  ( -1.355252715606880800E-016, -0.0000000000000000000, -1.000000000000000000 ) ) ;
#300 = ADVANCED_FACE ( 'NONE', ( #850 ), #958, .T. ) ;
#301 = DIRECTION ( 'NONE',  ( 0.0000000000000000000, 0.0000000000000000000, 1.000000000000000000 ) ) ;
#302 = AXIS2_PLACEMENT_3D ( 'NONE', #343, #1036, #347 ) ;
#303 = VECTOR ( 'NONE', #63, 1000.000000000000000 ) ;
#304 = CARTESIAN_POINT ( 'NONE',  ( -0.9499999999999999600, 1.000000000000000000, 0.7499999999999997800 ) ) ;
#305 = CIRCLE ( 'NONE', #828, 0.05000000000000002400 ) ;
#306 = DIRECTION ( 'NONE',  ( -1.355252715606880800E-016, 0.0000000000000000000, -1.000000000000000000 ) ) ;
#307 = ADVANCED_FACE ( 'NONE', ( #39 ), #104, .T. ) ;
#308 = ORIENTED_EDGE ( 'NONE', *, *, #1226, .T. ) ;
#309 = ORIENTED_EDGE ( 'NONE', *, *, #1051, .T. ) ;
#310 = AXIS2_PLACEMENT_3D ( 'NONE', #116, #645, #1034 ) ;
#311 = EDGE_CURVE ( 'NONE', #567, #1067, #76, .T. ) ;
#312 = DIRECTION ( 'NONE',  ( 0.0000000000000000000, -1.000000000000000000, 0.0000000000000000000 ) ) ;
#313 = ADVANCED_FACE ( 'NONE', ( #589 ), #654, .T. ) ;
#314 = CARTESIAN_POINT ( 'NONE',  ( 0.5000000000000002200, 1.000000000000000000, -0.8000000000000000400 ) ) ;
#315 = CARTESIAN_POINT ( 'NONE',  ( -0.5000000000000000000, 0.9499999999999999600, 0.7499999999999998900 ) ) ;
#316 = PLANE ( 'NONE',  #795 ) ;
#317 = CIRCLE ( 'NONE', #99, 0.05000000000000002400 ) ;
#318 = MECHANICAL_DESIGN_GEOMETRIC_PRESENTATION_REPRESENTATION (  '', ( #1136 ), #916 ) ;
#319 = CIRCLE ( 'NONE', #1074, 0.05000000000000002400 ) ;
#320 = ADVANCED_FACE ( 'NONE', ( #243 ), #822, .F. ) ;
#321 = EDGE_CURVE ( 'NONE', #297, #702, #54, .T. ) ;
#322 = ORIENTED_EDGE ( 'NONE', *, *, #910, .T. ) ;
#323 = CARTESIAN_POINT ( 'NONE',  ( -0.9499999999999999600, 1.000000000000000000, 0.7499999999999997800 ) ) ;
#324 = FILL_AREA_STYLE_COLOUR ( '', #578 ) ;
#325 = ORIENTED_EDGE ( 'NONE', *, *, #282, .F. ) ;
#326 = LINE ( 'NONE', #571, #129 ) ;
#327 = CARTESIAN_POINT ( 'NONE',  ( 0.5000000000000000000, 0.05000000000000002400, 0.7499999999999997800 ) ) ;
#328 = CARTESIAN_POINT ( 'NONE',  ( -0.5000000000000002200, 1.000000000000000000, -0.8000000000000000400 ) ) ;
#329 = EDGE_CURVE ( 'NONE', #1265, #977, #1075, .T. ) ;
#330 = AXIS2_PLACEMENT_3D ( 'NONE', #1257, #268, #981 ) ;
#331 = PLANE ( 'NONE',  #302 ) ;
#332 = ORIENTED_EDGE ( 'NONE', *, *, #882, .F. ) ;
#333 = DIRECTION ( 'NONE',  ( 0.0000000000000000000, 0.0000000000000000000, -1.000000000000000000 ) ) ;
#334 = CARTESIAN_POINT ( 'NONE',  ( 0.9499999999999999600, 1.000000000000000000, 0.7999999999999998200 ) ) ;
#335 = DIRECTION ( 'NONE',  ( 1.000000000000000000, 0.0000000000000000000, 0.0000000000000000000 ) ) ;
#336 = VECTOR ( 'NONE', #1217, 1000.000000000000000 ) ;
#337 = EDGE_CURVE ( 'NONE', #854, #688, #319, .T. ) ;
#338 = DIRECTION ( 'NONE',  ( -1.000000000000000000, -0.0000000000000000000, -0.0000000000000000000 ) ) ;
#339 = VERTEX_POINT ( 'NONE', #1097 ) ;
#340 = CARTESIAN_POINT ( 'NONE',  ( 0.0000000000000000000, 1.000000000000000000, 0.0000000000000000000 ) ) ;
#341 = ORIENTED_EDGE ( 'NONE', *, *, #329, .T. ) ;
#342 = VERTEX_POINT ( 'NONE', #219 ) ;
#343 = CARTESIAN_POINT ( 'NONE',  ( -0.5000000000000002200, 1.000000000000000000, -0.8000000000000000400 ) ) ;
#344 = ORIENTED_EDGE ( 'NONE', *, *, #1086, .F. ) ;
#345 = CARTESIAN_POINT ( 'NONE',  ( 500000.0000000000600, 0.05000000000000002400, 0.7833333332899651300 ) ) ;
#346 = AXIS2_PLACEMENT_3D ( 'NONE', #127, #1039, #1233 ) ;
#347 = DIRECTION ( 'NONE',  ( 1.355252715606880800E-016, 0.0000000000000000000, 1.000000000000000000 ) ) ;
#348 = CARTESIAN_POINT ( 'NONE',  ( -0.5000000000000002200, 0.05000000000000002400, -0.7500000000000000000 ) ) ;
#349 =( LENGTH_UNIT ( ) NAMED_UNIT ( * ) SI_UNIT ( .MILLI., .METRE. ) );
#350 = LINE ( 'NONE', #1250, #288 ) ;
#351 = DIRECTION ( 'NONE',  ( 1.000000000000000000, 0.0000000000000000000, 0.0000000000000000000 ) ) ;
#352 = DIRECTION ( 'NONE',  ( 1.000000000000000000, 0.0000000000000000000, -8.673617379884036700E-017 ) ) ;
#353 = LINE ( 'NONE', #328, #336 ) ;
#354 = AXIS2_PLACEMENT_3D ( 'NONE', #1166, #74, #788 ) ;
#355 = CARTESIAN_POINT ( 'NONE',  ( 0.4999999999881765700, 0.01666666666666666600, -0.7499999999999997800 ) ) ;
#356 = EDGE_CURVE ( 'NONE', #1255, #1142, #942, .T. ) ;
#357 = EDGE_LOOP ( 'NONE', ( #558, #1093, #799, #817 ) ) ;
#358 = CARTESIAN_POINT ( 'NONE',  ( 0.0000000000000000000, 0.0000000000000000000, 0.0000000000000000000 ) ) ;
#359 = DIRECTION ( 'NONE',  ( 0.0000000000000000000, 0.0000000000000000000, 1.000000000000000000 ) ) ;
#360 = VERTEX_POINT ( 'NONE', #835 ) ;
#361 = FACE_OUTER_BOUND ( 'NONE', #427, .T. ) ;
#362 = VERTEX_POINT ( 'NONE', #933 ) ;
#363 = CLOSED_SHELL ( 'NONE', ( #1084, #707, #1088, #1100, #196, #188, #86, #429, #15, #401, #722, #913, #903, #919, #24, #300, #1108, #600 ) ) ;
#364 = DIRECTION ( 'NONE',  ( -0.0000000000000000000, 1.000000000000000000, -0.0000000000000000000 ) ) ;
#365 = UNCERTAINTY_MEASURE_WITH_UNIT (LENGTH_MEASURE( 1.000000000000000100E-005 ), #349, 'distance_accuracy_value', 'NONE');
#366 = CARTESIAN_POINT ( 'NONE',  ( -0.5000000000000002200, 0.9499999999999999600, -0.7833333333333332100 ) ) ;
#367 = AXIS2_PLACEMENT_3D ( 'NONE', #315, #1213, #1116 ) ;
#368 = LINE ( 'NONE', #559, #267 ) ;
#369 = VECTOR ( 'NONE', #848, 1000.000000000000000 ) ;
#370 = PLANE ( 'NONE',  #1242 ) ;
#371 = FACE_OUTER_BOUND ( 'NONE', #16, .T. ) ;
#372 = ORIENTED_EDGE ( 'NONE', *, *, #543, .F. ) ;
#373 = AXIS2_PLACEMENT_3D ( 'NONE', #749, #761, #844 ) ;
#374 = LINE ( 'NONE', #1165, #244 ) ;
#375 = ORIENTED_EDGE ( 'NONE', *, *, #246, .F. ) ;
#376 = FACE_OUTER_BOUND ( 'NONE', #260, .T. ) ;
#377 = ORIENTED_EDGE ( 'NONE', *, *, #155, .T. ) ;
#378 = DIRECTION ( 'NONE',  ( 0.0000000000000000000, 1.000000000000000000, -0.0000000000000000000 ) ) ;
#379 = DIRECTION ( 'NONE',  ( -1.000000000000000000, -0.0000000000000000000, 8.673617379884036700E-017 ) ) ;
#380 = EDGE_LOOP ( 'NONE', ( #1174, #677, #410, #163 ) ) ;
#381 = CARTESIAN_POINT ( 'NONE',  ( 0.5000000000000000000, 0.05000000000000002400, 0.7999999999999998200 ) ) ;
#382 = DIRECTION ( 'NONE',  ( 1.000000000000000000, 0.0000000000000000000, 0.0000000000000000000 ) ) ;
#383 = EDGE_CURVE ( 'NONE', #987, #90, #445, .T. ) ;
#384 = CARTESIAN_POINT ( 'NONE',  ( 1.000000000000000000, 0.05000000000000002400, 0.7999999999999998200 ) ) ;
#385 = VECTOR ( 'NONE', #1139, 1000.000000000000000 ) ;
#386 = FACE_OUTER_BOUND ( 'NONE', #624, .T. ) ;
#387 = ORIENTED_EDGE ( 'NONE', *, *, #1184, .T. ) ;
#388 = ORIENTED_EDGE ( 'NONE', *, *, #989, .F. ) ;
#389 = VECTOR ( 'NONE', #693, 1000.000000000000000 ) ;
#390 = MANIFOLD_SOLID_BREP ( 'Fillet1', #363 ) ;
#391 = ORIENTED_EDGE ( 'NONE', *, *, #635, .F. ) ;
#392 = EDGE_CURVE ( 'NONE', #946, #702, #668, .T. ) ;
#393 = ORIENTED_EDGE ( 'NONE', *, *, #1118, .T. ) ;
#394 = CARTESIAN_POINT ( 'NONE',  ( 0.0000000000000000000, 0.9499999999999999600, -0.7500000000000000000 ) ) ;
#395 = EDGE_CURVE ( 'NONE', #1033, #81, #489, .T. ) ;
#396 = DIRECTION ( 'NONE',  ( 1.000000000000000000, 0.0000000000000000000, 1.355252715606880800E-016 ) ) ;
#397 = AXIS2_PLACEMENT_3D ( 'NONE', #791, #378, #1153 ) ;
#398 = CARTESIAN_POINT ( 'NONE',  ( 500000.0000000000600, 0.01666666666666667300, 0.7499999999566312500 ) ) ;
#399 = LINE ( 'NONE', #198, #982 ) ;
#400 = SURFACE_STYLE_FILL_AREA ( #493 ) ;
#401 = ADVANCED_FACE ( 'NONE', ( #1055 ), #939, .T. ) ;
#402 = ORIENTED_EDGE ( 'NONE', *, *, #226, .T. ) ;
#403 = COLOUR_RGB ( '',0.7921568627450980000, 0.8196078431372548800, 0.9333333333333333500 ) ;
#404 = VERTEX_POINT ( 'NONE', #1192 ) ;
#405 = CARTESIAN_POINT ( 'NONE',  ( -0.9500000000000000700, 0.0000000000000000000, 1.287490079826537000E-016 ) ) ;
#406 = EDGE_LOOP ( 'NONE', ( #179, #375, #621, #92, #1058, #80, #596, #262 ) ) ;
#407 = EDGE_CURVE ( 'NONE', #404, #362, #796, .T. ) ;
#408 = CARTESIAN_POINT ( 'NONE',  ( -0.9500000000000001800, 0.9499999999999999600, -0.7500000000000000000 ) ) ;
#409 = EDGE_LOOP ( 'NONE', ( #279, #925, #963, #14 ) ) ;
#410 = ORIENTED_EDGE ( 'NONE', *, *, #246, .T. ) ;
#411 = ADVANCED_FACE ( 'NONE', ( #1234 ), #123, .T. ) ;
#412 = DIRECTION ( 'NONE',  ( 1.000000000000000000, 0.0000000000000000000, 0.0000000000000000000 ) ) ;
#413 = DIRECTION ( 'NONE',  ( -1.000000000000000000, 0.0000000000000000000, 0.0000000000000000000 ) ) ;
#414 =( NAMED_UNIT ( * ) PLANE_ANGLE_UNIT ( ) SI_UNIT ( $, .RADIAN. ) );
#415 = DIRECTION ( 'NONE',  ( 0.0000000000000000000, 0.0000000000000000000, 1.000000000000000000 ) ) ;
#416 = ADVANCED_FACE ( 'NONE', ( #517 ), #1188, .T. ) ;
#417 = DIRECTION ( 'NONE',  ( 0.0000000000000000000, 0.0000000000000000000, -1.000000000000000000 ) ) ;
#418 = DIRECTION ( 'NONE',  ( 0.0000000000000000000, 0.0000000000000000000, -1.000000000000000000 ) ) ;
#419 = VECTOR ( 'NONE', #1219, 1000.000000000000000 ) ;
#420 = AXIS2_PLACEMENT_3D ( 'NONE', #878, #379, #286 ) ;
#421 = LINE ( 'NONE', #37, #140 ) ;
#422 = DIRECTION ( 'NONE',  ( -1.000000000000000000, -0.0000000000000000000, -0.0000000000000000000 ) ) ;
#423 = VECTOR ( 'NONE', #674, 1000.000000000000000 ) ;
#424 = VECTOR ( 'NONE', #48, 1000.000000000000000 ) ;
#425 = DIRECTION ( 'NONE',  ( 0.0000000000000000000, 0.0000000000000000000, 1.000000000000000000 ) ) ;
#426 = ORIENTED_EDGE ( 'NONE', *, *, #575, .T. ) ;
#427 = EDGE_LOOP ( 'NONE', ( #125, #1056, #1157, #1162 ) ) ;
#428 = CYLINDRICAL_SURFACE ( 'NONE', #590, 0.03333333333333334700 ) ;
#429 = ADVANCED_FACE ( 'NONE', ( #1090 ), #1042, .T. ) ;
#430 = MECHANICAL_DESIGN_GEOMETRIC_PRESENTATION_REPRESENTATION (  '', ( #1104 ), #1171 ) ;
#431 = DIRECTION ( 'NONE',  ( 0.0000000000000000000, 0.0000000000000000000, -1.000000000000000000 ) ) ;
#432 = DIRECTION ( 'NONE',  ( 1.000000000000000000, 0.0000000000000000000, 0.0000000000000000000 ) ) ;
#433 = ORIENTED_EDGE ( 'NONE', *, *, #904, .F. ) ;
#434 = EDGE_CURVE ( 'NONE', #1142, #1204, #1154, .T. ) ;
#435 = DIRECTION ( 'NONE',  ( 1.000000000000000000, -0.0000000000000000000, -0.0000000000000000000 ) ) ;
#436 = DIRECTION ( 'NONE',  ( 0.0000000000000000000, 0.0000000000000000000, -1.000000000000000000 ) ) ;
#437 = DIRECTION ( 'NONE',  ( 0.0000000000000000000, 0.0000000000000000000, 1.000000000000000000 ) ) ;
#438 = CARTESIAN_POINT ( 'NONE',  ( 0.9500000000000001800, 0.9499999999999999600, -0.7500000000000000000 ) ) ;
#439 = CARTESIAN_POINT ( 'NONE',  ( 0.5000000000000002200, 0.9499999999999999600, -0.8000000000000000400 ) ) ;
#440 = PLANE ( 'NONE',  #687 ) ;
#441 = FACE_OUTER_BOUND ( 'NONE', #173, .T. ) ;
#442 = EDGE_CURVE ( 'NONE', #973, #1267, #971, .T. ) ;
#443 = CYLINDRICAL_SURFACE ( 'NONE', #694, 0.05000000000000002400 ) ;
#444 = CARTESIAN_POINT ( 'NONE',  ( 0.0000000000000000000, 0.9499999999999999600, 0.7499999999999997800 ) ) ;
#445 = CIRCLE ( 'NONE', #53, 0.05000000000000002400 ) ;
#446 = AXIS2_PLACEMENT_3D ( 'NONE', #450, #1228, #20 ) ;
#447 = ORIENTED_EDGE ( 'NONE', *, *, #504, .T. ) ;
#448 = EDGE_LOOP ( 'NONE', ( #97, #689, #771, #642 ) ) ;
#449 = FACE_OUTER_BOUND ( 'NONE', #380, .T. ) ;
#450 = CARTESIAN_POINT ( 'NONE',  ( -0.5000000000000002200, 0.9499999999999999600, -0.7499999999999998900 ) ) ;
#451 = ORIENTED_EDGE ( 'NONE', *, *, #119, .T. ) ;
#452 = EDGE_CURVE ( 'NONE', #857, #339, #996, .T. ) ;
#453 = ORIENTED_EDGE ( 'NONE', *, *, #1156, .T. ) ;
#454 = AXIS2_PLACEMENT_3D ( 'NONE', #984, #272, #175 ) ;
#455 = CARTESIAN_POINT ( 'NONE',  ( 0.9499999999999999600, 1.000000000000000000, 0.7499999999999997800 ) ) ;
#456 = CARTESIAN_POINT ( 'NONE',  ( -0.5000000000000000000, 0.9499999999999999600, 0.7833333333333333300 ) ) ;
#457 = DIRECTION ( 'NONE',  ( 0.0000000000000000000, 0.0000000000000000000, 1.000000000000000000 ) ) ;
#458 = FACE_OUTER_BOUND ( 'NONE', #32, .T. ) ;
#459 = CIRCLE ( 'NONE', #825, 0.05000000000000002400 ) ;
#460 = CARTESIAN_POINT ( 'NONE',  ( 0.4999999999881765700, 0.01666666666666666600, 0.7499999998888687800 ) ) ;
#461 = VECTOR ( 'NONE', #50, 1000.000000000000000 ) ;
#462 = EDGE_CURVE ( 'NONE', #506, #1159, #698, .T. ) ;
#463 =( NAMED_UNIT ( * ) PLANE_ANGLE_UNIT ( ) SI_UNIT ( $, .RADIAN. ) );
#464 = CIRCLE ( 'NONE', #779, 0.03333333333333334700 ) ;
#465 = EDGE_LOOP ( 'NONE', ( #33, #1144, #2, #213 ) ) ;
#466 = VECTOR ( 'NONE', #18, 1000.000000000000000 ) ;
#467 = ORIENTED_EDGE ( 'NONE', *, *, #842, .F. ) ;
#468 = LINE ( 'NONE', #283, #775 ) ;
#469 = PRODUCT_CONTEXT ( 'NONE', #1168, 'mechanical' ) ;
#470 = EDGE_CURVE ( 'NONE', #908, #1031, #399, .T. ) ;
#471 = PLANE ( 'NONE',  #604 ) ;
#472 = DIRECTION ( 'NONE',  ( 0.0000000000000000000, -1.000000000000000000, 0.0000000000000000000 ) ) ;
#473 = ORIENTED_EDGE ( 'NONE', *, *, #337, .F. ) ;
#474 = AXIS2_PLACEMENT_3D ( 'NONE', #643, #38, #751 ) ;
#475 = FILL_AREA_STYLE_COLOUR ( '', #701 ) ;
#476 = EDGE_CURVE ( 'NONE', #1253, #612, #739, .T. ) ;
#477 = EDGE_CURVE ( 'NONE', #797, #641, #636, .T. ) ;
#478 = UNCERTAINTY_MEASURE_WITH_UNIT (LENGTH_MEASURE( 1.000000000000000100E-005 ), #259, 'distance_accuracy_value', 'NONE');
#479 = DIRECTION ( 'NONE',  ( -1.000000000000000000, -0.0000000000000000000, -0.0000000000000000000 ) ) ;
#480 = VECTOR ( 'NONE', #22, 1000.000000000000000 ) ;
#481 = AXIS2_PLACEMENT_3D ( 'NONE', #93, #1089, #301 ) ;
#482 = CYLINDRICAL_SURFACE ( 'NONE', #186, 0.05000000000000002400 ) ;
#483 = EDGE_LOOP ( 'NONE', ( #544, #527, #1101 ) ) ;
#484 = VECTOR ( 'NONE', #891, 1000.000000000000000 ) ;
#485 = DIRECTION ( 'NONE',  ( 0.0000000000000000000, 0.0000000000000000000, 1.000000000000000000 ) ) ;
#486 = VERTEX_POINT ( 'NONE', #30 ) ;
#487 = EDGE_LOOP ( 'NONE', ( #978, #592, #851, #1161 ) ) ;
#488 = EDGE_CURVE ( 'NONE', #506, #894, #535, .T. ) ;
#489 = LINE ( 'NONE', #738, #269 ) ;
#490 = DIRECTION ( 'NONE',  ( 0.0000000000000000000, 0.0000000000000000000, -1.000000000000000000 ) ) ;
#491 = DIRECTION ( 'NONE',  ( 8.673617379884036700E-017, -0.0000000000000000000, 1.000000000000000000 ) ) ;
#492 = VERTEX_POINT ( 'NONE', #740 ) ;
#493 = FILL_AREA_STYLE ('',( #324 ) ) ;
#494 = ORIENTED_EDGE ( 'NONE', *, *, #723, .T. ) ;
#495 = ORIENTED_EDGE ( 'NONE', *, *, #504, .F. ) ;
#496 = CYLINDRICAL_SURFACE ( 'NONE', #1270, 0.04999999999999991300 ) ;
#497 = CARTESIAN_POINT ( 'NONE',  ( 0.5000000000000002200, 1.000000000000000000, -0.8000000000000000400 ) ) ;
#498 =( NAMED_UNIT ( * ) SI_UNIT ( $, .STERADIAN. ) SOLID_ANGLE_UNIT ( ) );
#499 = EDGE_CURVE ( 'NONE', #744, #797, #222, .T. ) ;
#500 = DIRECTION ( 'NONE',  ( 1.355252715606880800E-016, -0.0000000000000000000, 1.000000000000000000 ) ) ;
#501 = CARTESIAN_POINT ( 'NONE',  ( -0.5000000000000000000, 0.9833333333333335000, 0.7499999999999992200 ) ) ;
#502 = ORIENTED_EDGE ( 'NONE', *, *, #910, .F. ) ;
#503 = FACE_OUTER_BOUND ( 'NONE', #1223, .T. ) ;
#504 = EDGE_CURVE ( 'NONE', #797, #1061, #847, .T. ) ;
#505 = EDGE_LOOP ( 'NONE', ( #43, #1220, #1224, #377 ) ) ;
#506 = VERTEX_POINT ( 'NONE', #121 ) ;
#507 = ADVANCED_FACE ( 'NONE', ( #185 ), #443, .T. ) ;
#508 = AXIS2_PLACEMENT_3D ( 'NONE', #824, #530, #216 ) ;
#509 = ORIENTED_EDGE ( 'NONE', *, *, #287, .F. ) ;
#510 = ORIENTED_EDGE ( 'NONE', *, *, #321, .F. ) ;
#511 = DIRECTION ( 'NONE',  ( -1.000000000000000000, 0.0000000000000000000, 0.0000000000000000000 ) ) ;
#512 = DIRECTION ( 'NONE',  ( 0.0000000000000000000, 0.0000000000000000000, 1.000000000000000000 ) ) ;
#513 = EDGE_CURVE ( 'NONE', #854, #1253, #87, .T. ) ;
#514 = DIRECTION ( 'NONE',  ( 1.000000000000000000, 0.0000000000000000000, 0.0000000000000000000 ) ) ;
#515 = ADVANCED_FACE ( 'NONE', ( #21 ), #290, .T. ) ;
#516 = CARTESIAN_POINT ( 'NONE',  ( -0.5000000000000000000, 0.05000000000000002400, 0.7499999999999998900 ) ) ;
#517 = FACE_OUTER_BOUND ( 'NONE', #782, .T. ) ;
#518 = DIRECTION ( 'NONE',  ( 1.000000000000000000, 0.0000000000000000000, 1.355252715606880800E-016 ) ) ;
#519 = LINE ( 'NONE', #235, #719 ) ;
#520 = ADVANCED_FACE ( 'NONE', ( #1275 ), #682, .T. ) ;
#521 = ORIENTED_EDGE ( 'NONE', *, *, #1059, .F. ) ;
#522 = AXIS2_PLACEMENT_3D ( 'NONE', #1071, #285, #1062 ) ;
#523 = DIRECTION ( 'NONE',  ( 0.0000000000000000000, -0.0000000000000000000, 1.000000000000000000 ) ) ;
#524 = ORIENTED_EDGE ( 'NONE', *, *, #488, .T. ) ;
#525 = EDGE_CURVE ( 'NONE', #1049, #339, #1122, .T. ) ;
#526 = EDGE_LOOP ( 'NONE', ( #948, #729, #1005, #1129 ) ) ;
#527 = ORIENTED_EDGE ( 'NONE', *, *, #407, .T. ) ;
#528 = PLANE ( 'NONE',  #940 ) ;
#529 =( LENGTH_UNIT ( ) NAMED_UNIT ( * ) SI_UNIT ( .MILLI., .METRE. ) );
#530 = DIRECTION ( 'NONE',  ( 0.0000000000000000000, 1.000000000000000000, 0.0000000000000000000 ) ) ;
#531 = CARTESIAN_POINT ( 'NONE',  ( -0.5000000000000002200, 0.05000000000000002400, -0.8000000000000000400 ) ) ;
#532 = DIRECTION ( 'NONE',  ( -1.000000000000000000, -0.0000000000000000000, 8.673617379884036700E-017 ) ) ;
#533 = DIRECTION ( 'NONE',  ( -1.355252715606880800E-016, 0.0000000000000000000, 1.000000000000000000 ) ) ;
#534 = AXIS2_PLACEMENT_3D ( 'NONE', #340, #659, #750 ) ;
#535 = LINE ( 'NONE', #1212, #419 ) ;
#536 = ADVANCED_FACE ( 'NONE', ( #718 ), #638, .F. ) ;
#537 = DIRECTION ( 'NONE',  ( 1.000000000000000000, 0.0000000000000000000, -1.355252715606880800E-016 ) ) ;
#538 = DIRECTION ( 'NONE',  ( 0.0000000000000000000, 0.0000000000000000000, 1.000000000000000000 ) ) ;
#539 = PRESENTATION_LAYER_ASSIGNMENT (  '', '', ( #181 ) ) ;
#540 = DIRECTION ( 'NONE',  ( 0.0000000000000000000, 1.000000000000000000, 0.0000000000000000000 ) ) ;
#541 = ORIENTED_EDGE ( 'NONE', *, *, #383, .T. ) ;
#542 = DIRECTION ( 'NONE',  ( -1.000000000000000000, 0.0000000000000000000, 0.0000000000000000000 ) ) ;
#543 = EDGE_CURVE ( 'NONE', #297, #553, #168, .T. ) ;
#544 = ORIENTED_EDGE ( 'NONE', *, *, #887, .T. ) ;
#545 = DIRECTION ( 'NONE',  ( 0.0000000000000000000, 0.0000000000000000000, -1.000000000000000000 ) ) ;
#546 = CARTESIAN_POINT ( 'NONE',  ( -1.000000000000000000, 0.05000000000000002400, 0.7499999999999997800 ) ) ;
#547 = PLANE ( 'NONE',  #508 ) ;
#548 = AXIS2_PLACEMENT_3D ( 'NONE', #124, #943, #335 ) ;
#549 = DIRECTION ( 'NONE',  ( 1.000000000000000000, 0.0000000000000000000, 1.355252715606883000E-016 ) ) ;
#550 = CYLINDRICAL_SURFACE ( 'NONE', #330, 0.03333333333333334700 ) ;
#551 = CARTESIAN_POINT ( 'NONE',  ( -0.5000000000000002200, 0.9833333333333335000, -0.7499999999999998900 ) ) ;
#552 = LINE ( 'NONE', #838, #270 ) ;
#553 = VERTEX_POINT ( 'NONE', #546 ) ;
#554 = LINE ( 'NONE', #460, #424 ) ;
#555 = ORIENTED_EDGE ( 'NONE', *, *, #266, .F. ) ;
#556 = MECHANICAL_DESIGN_GEOMETRIC_PRESENTATION_REPRESENTATION (  '', ( #1098 ), #1164 ) ;
#557 = CARTESIAN_POINT ( 'NONE',  ( -1.000000000000000200, 1.000000000000000000, -0.8000000000000000400 ) ) ;
#558 = ORIENTED_EDGE ( 'NONE', *, *, #61, .T. ) ;
#559 = CARTESIAN_POINT ( 'NONE',  ( 0.0000000000000000000, 0.0000000000000000000, -0.7500000000000000000 ) ) ;
#560 = CARTESIAN_POINT ( 'NONE',  ( 0.9499999999999999600, 0.9499999999999999600, 0.7499999999999997800 ) ) ;
#561 = AXIS2_PLACEMENT_3D ( 'NONE', #1114, #623, #538 ) ;
#562 = SURFACE_SIDE_STYLE ('',( #956 ) ) ;
#563 = CARTESIAN_POINT ( 'NONE',  ( 0.9499999999999999600, 0.05000000000000002400, 0.7499999999999997800 ) ) ;
#564 = AXIS2_PLACEMENT_3D ( 'NONE', #327, #951, #837 ) ;
#565 = SURFACE_STYLE_USAGE ( .BOTH. , #180 ) ;
#566 = FACE_OUTER_BOUND ( 'NONE', #710, .T. ) ;
#567 = VERTEX_POINT ( 'NONE', #34 ) ;
#568 = ORIENTED_EDGE ( 'NONE', *, *, #597, .T. ) ;
#569 = CARTESIAN_POINT ( 'NONE',  ( -0.5000000000000000000, 0.9499999999999999600, 0.7833333333333332100 ) ) ;
#570 = EDGE_LOOP ( 'NONE', ( #194, #164, #391 ) ) ;
#571 = CARTESIAN_POINT ( 'NONE',  ( 0.4999999999881765700, 0.05000000000000003100, -0.7833333333333332100 ) ) ;
#572 = AXIS2_PLACEMENT_3D ( 'NONE', #242, #1247, #1053 ) ;
#573 = AXIS2_PLACEMENT_3D ( 'NONE', #408, #724, #425 ) ;
#574 = EDGE_CURVE ( 'NONE', #606, #492, #459, .T. ) ;
#575 = EDGE_CURVE ( 'NONE', #894, #973, #156, .T. ) ;
#576 = DIRECTION ( 'NONE',  ( -1.000000000000000000, 0.0000000000000000000, -0.0000000000000000000 ) ) ;
#577 = AXIS2_PLACEMENT_3D ( 'NONE', #949, #649, #549 ) ;
#578 = COLOUR_RGB ( '',0.7921568627450980000, 0.8196078431372548800, 0.9333333333333333500 ) ;
#579 = ORIENTED_EDGE ( 'NONE', *, *, #27, .T. ) ;
#580 = CARTESIAN_POINT ( 'NONE',  ( -0.5000000000000000000, 0.05000000000000002400, 0.7499999999999997800 ) ) ;
#581 = ORIENTED_EDGE ( 'NONE', *, *, #266, .T. ) ;
#582 = SURFACE_SIDE_STYLE ('',( #273 ) ) ;
#583 = DIRECTION ( 'NONE',  ( 0.0000000000000000000, -1.000000000000000000, -0.0000000000000000000 ) ) ;
#584 = MANIFOLD_SOLID_BREP ( 'Boss-Extrude2', #254 ) ;
#585 = FILL_AREA_STYLE ('',( #281 ) ) ;
#586 = CARTESIAN_POINT ( 'NONE',  ( 500000.0000000000600, 0.05000000000000003100, -0.7833333333767013000 ) ) ;
#587 = EDGE_CURVE ( 'NONE', #1094, #742, #794, .T. ) ;
#588 = CARTESIAN_POINT ( 'NONE',  ( 0.0000000000000000000, 0.0000000000000000000, 0.0000000000000000000 ) ) ;
#589 = FACE_OUTER_BOUND ( 'NONE', #176, .T. ) ;
#590 = AXIS2_PLACEMENT_3D ( 'NONE', #1186, #183, #1183 ) ;
#591 = ORIENTED_EDGE ( 'NONE', *, *, #1226, .F. ) ;
#592 = ORIENTED_EDGE ( 'NONE', *, *, #462, .T. ) ;
#593 = AXIS2_PLACEMENT_3D ( 'NONE', #954, #763, #665 ) ;
#594 = VECTOR ( 'NONE', #1274, 1000.000000000000000 ) ;
#595 = EDGE_LOOP ( 'NONE', ( #870, #1099, #41, #144, #1280, #98, #804, #344 ) ) ;
#596 = ORIENTED_EDGE ( 'NONE', *, *, #101, .F. ) ;
#597 = EDGE_CURVE ( 'NONE', #865, #1006, #651, .T. ) ;
#598 = CARTESIAN_POINT ( 'NONE',  ( -0.9499999999999999600, 0.9499999999999999600, 0.7999999999999998200 ) ) ;
#599 = PRODUCT_RELATED_PRODUCT_CATEGORY ( 'part', '', ( #252 ) ) ;
#600 = ADVANCED_FACE ( 'NONE', ( #441 ), #769, .T. ) ;
#601 = DIRECTION ( 'NONE',  ( 0.0000000000000000000, 1.000000000000000000, 0.0000000000000000000 ) ) ;
#602 = PRESENTATION_STYLE_ASSIGNMENT (( #51 ) ) ;
#603 = VECTOR ( 'NONE', #221, 1000.000000000000000 ) ;
#604 = AXIS2_PLACEMENT_3D ( 'NONE', #765, #153, #868 ) ;
#605 = CARTESIAN_POINT ( 'NONE',  ( -0.9500000000000000700, 0.9499999999999999600, 1.287490079826537000E-016 ) ) ;
#606 = VERTEX_POINT ( 'NONE', #1245 ) ;
#607 = PRESENTATION_STYLE_ASSIGNMENT (( #1268 ) ) ;
#608 = EDGE_CURVE ( 'NONE', #977, #785, #872, .T. ) ;
#609 = CARTESIAN_POINT ( 'NONE',  ( 0.0000000000000000000, 1.000000000000000000, 0.0000000000000000000 ) ) ;
#610 = ORIENTED_EDGE ( 'NONE', *, *, #442, .T. ) ;
#611 = CARTESIAN_POINT ( 'NONE',  ( 0.9500000000000001800, 1.000000000000000000, -0.7500000000000000000 ) ) ;
#612 = VERTEX_POINT ( 'NONE', #1052 ) ;
#613 = ORIENTED_EDGE ( 'NONE', *, *, #678, .T. ) ;
#614 = ADVANCED_FACE ( 'NONE', ( #634 ), #658, .F. ) ;
#615 = DIRECTION ( 'NONE',  ( 0.0000000000000000000, 0.0000000000000000000, -1.000000000000000000 ) ) ;
#616 = EDGE_CURVE ( 'NONE', #47, #865, #368, .T. ) ;
#617 = CIRCLE ( 'NONE', #572, 0.05000000000000002400 ) ;
#618 = CARTESIAN_POINT ( 'NONE',  ( 0.5000000000000000000, 1.000000000000000000, 0.7499999999999997800 ) ) ;
#619 = DIRECTION ( 'NONE',  ( -1.355252715606880800E-016, -0.0000000000000000000, -1.000000000000000000 ) ) ;
#620 = EDGE_LOOP ( 'NONE', ( #1117, #672, #509, #1047 ) ) ;
#621 = ORIENTED_EDGE ( 'NONE', *, *, #197, .F. ) ;
#622 = CARTESIAN_POINT ( 'NONE',  ( 500000.0000000000600, 0.9499999999999999600, 0.7499999999566318000 ) ) ;
#623 = DIRECTION ( 'NONE',  ( -1.000000000000000000, 0.0000000000000000000, 0.0000000000000000000 ) ) ;
#624 = EDGE_LOOP ( 'NONE', ( #725, #928, #802, #757 ) ) ;
#625 = CIRCLE ( 'NONE', #36, 0.05000000000000002400 ) ;
#626 = ADVANCED_FACE ( 'NONE', ( #138 ), #471, .F. ) ;
#627 = AXIS2_PLACEMENT_3D ( 'NONE', #134, #352, #766 ) ;
#628 = ORIENTED_EDGE ( 'NONE', *, *, #953, .T. ) ;
#629 = CARTESIAN_POINT ( 'NONE',  ( 0.9500000000000001800, 0.05000000000000002400, -0.8000000000000000400 ) ) ;
#630 = CARTESIAN_POINT ( 'NONE',  ( 0.5000000000000002200, 0.05000000000000002400, -0.7500000000000000000 ) ) ;
#631 = EDGE_CURVE ( 'NONE', #639, #1255, #1218, .T. ) ;
#632 = DIRECTION ( 'NONE',  ( -1.355252715606880800E-016, 0.0000000000000000000, 1.000000000000000000 ) ) ;
#633 = PLANE ( 'NONE',  #703 ) ;
#634 = FACE_OUTER_BOUND ( 'NONE', #25, .T. ) ;
#635 = EDGE_CURVE ( 'NONE', #81, #1142, #317, .T. ) ;
#636 = LINE ( 'NONE', #745, #369 ) ;
#637 = CIRCLE ( 'NONE', #367, 0.03333333333333345800 ) ;
#638 = PLANE ( 'NONE',  #261 ) ;
#639 = VERTEX_POINT ( 'NONE', #647 ) ;
#640 = EDGE_CURVE ( 'NONE', #1265, #692, #350, .T. ) ;
#641 = VERTEX_POINT ( 'NONE', #972 ) ;
#642 = ORIENTED_EDGE ( 'NONE', *, *, #230, .T. ) ;
#643 = CARTESIAN_POINT ( 'NONE',  ( -0.9500000000000001800, 0.9499999999999999600, -0.7500000000000000000 ) ) ;
#644 = ORIENTED_EDGE ( 'NONE', *, *, #1028, .F. ) ;
#645 = DIRECTION ( 'NONE',  ( 1.000000000000000000, 0.0000000000000000000, 0.0000000000000000000 ) ) ;
#646 = CARTESIAN_POINT ( 'NONE',  ( 0.4999999999881765700, 0.9833333333333335000, -0.7499999999999998900 ) ) ;
#647 = CARTESIAN_POINT ( 'NONE',  ( 1.000000000000000000, 0.05000000000000002400, 0.7499999999999997800 ) ) ;
#648 = PLANE ( 'NONE',  #1082 ) ;
#649 = DIRECTION ( 'NONE',  ( 1.355252715606880800E-016, 0.0000000000000000000, -1.000000000000000000 ) ) ;
#650 = EDGE_CURVE ( 'NONE', #1159, #973, #152, .T. ) ;
#651 = CIRCLE ( 'NONE', #1276, 0.05000000000000002400 ) ;
#652 = FILL_AREA_STYLE ('',( #1147 ) ) ;
#653 = CARTESIAN_POINT ( 'NONE',  ( 500000.0000000000600, 0.9499999999999999600, 0.7833333332899651300 ) ) ;
#654 = SPHERICAL_SURFACE ( 'NONE', #1277, 0.05000000000000000300 ) ;
#655 = CIRCLE ( 'NONE', #936, 0.05000000000000002400 ) ;
#656 = ORIENTED_EDGE ( 'NONE', *, *, #298, .T. ) ;
#657 = FACE_OUTER_BOUND ( 'NONE', #570, .T. ) ;
#658 = PLANE ( 'NONE',  #808 ) ;
#659 = DIRECTION ( 'NONE',  ( 0.0000000000000000000, 1.000000000000000000, 0.0000000000000000000 ) ) ;
#660 = ORIENTED_EDGE ( 'NONE', *, *, #84, .F. ) ;
#661 = LINE ( 'NONE', #915, #389 ) ;
#662 = AXIS2_PLACEMENT_3D ( 'NONE', #1198, #105, #431 ) ;
#663 = APPLICATION_PROTOCOL_DEFINITION ( 'draft international standard', 'automotive_design', 1998, #1137 ) ;
#664 = DIRECTION ( 'NONE',  ( 1.000000000000000000, -0.0000000000000000000, -1.355252715606880800E-016 ) ) ;
#665 = DIRECTION ( 'NONE',  ( 0.0000000000000000000, 0.0000000000000000000, -1.000000000000000000 ) ) ;
#666 = AXIS2_PLACEMENT_3D ( 'NONE', #563, #457, #1133 ) ;
#667 = CARTESIAN_POINT ( 'NONE',  ( 0.9500000000000001800, 1.000000000000000000, -0.7500000000000000000 ) ) ;
#668 = LINE ( 'NONE', #708, #1014 ) ;
#669 = DIRECTION ( 'NONE',  ( 0.0000000000000000000, 0.0000000000000000000, -1.000000000000000000 ) ) ;
#670 = LINE ( 'NONE', #239, #1124 ) ;
#671 = ORIENTED_EDGE ( 'NONE', *, *, #1182, .T. ) ;
#672 = ORIENTED_EDGE ( 'NONE', *, *, #616, .F. ) ;
#673 = VERTEX_POINT ( 'NONE', #366 ) ;
#674 = DIRECTION ( 'NONE',  ( 1.355252715606880800E-016, -0.0000000000000000000, 1.000000000000000000 ) ) ;
#675 = DIRECTION ( 'NONE',  ( 0.0000000000000000000, 0.0000000000000000000, 1.000000000000000000 ) ) ;
#676 = ORIENTED_EDGE ( 'NONE', *, *, #311, .F. ) ;
#677 = ORIENTED_EDGE ( 'NONE', *, *, #608, .T. ) ;
#678 = EDGE_CURVE ( 'NONE', #975, #486, #992, .T. ) ;
#679 = CARTESIAN_POINT ( 'NONE',  ( -0.5000000000000002200, 0.9499999999999999600, -0.7500000000000000000 ) ) ;
#680 =( NAMED_UNIT ( * ) PLANE_ANGLE_UNIT ( ) SI_UNIT ( $, .RADIAN. ) );
#681 = CARTESIAN_POINT ( 'NONE',  ( -0.9499999999999999600, 0.05000000000000002400, 0.7999999999999998200 ) ) ;
#682 = CYLINDRICAL_SURFACE ( 'NONE', #310, 0.05000000000000002400 ) ;
#683 = LINE ( 'NONE', #257, #461 ) ;
#684 = CARTESIAN_POINT ( 'NONE',  ( 0.5000000000000000000, 1.000000000000000000, 0.7499999999999992200 ) ) ;
#685 = FACE_OUTER_BOUND ( 'NONE', #620, .T. ) ;
#686 = SURFACE_STYLE_FILL_AREA ( #585 ) ;
#687 = AXIS2_PLACEMENT_3D ( 'NONE', #1120, #923, #533 ) ;
#688 = VERTEX_POINT ( 'NONE', #667 ) ;
#689 = ORIENTED_EDGE ( 'NONE', *, *, #989, .T. ) ;
#690 = CIRCLE ( 'NONE', #135, 0.03333333333333345800 ) ;
#691 = CARTESIAN_POINT ( 'NONE',  ( -1.000000000000000200, 0.9499999999999999600, -0.8000000000000000400 ) ) ;
#692 = VERTEX_POINT ( 'NONE', #263 ) ;
#693 = DIRECTION ( 'NONE',  ( 1.000000000000000000, -0.0000000000000000000, -0.0000000000000000000 ) ) ;
#694 = AXIS2_PLACEMENT_3D ( 'NONE', #227, #632, #1119 ) ;
#695 = DIRECTION ( 'NONE',  ( 0.0000000000000000000, 0.0000000000000000000, -1.000000000000000000 ) ) ;
#696 = ADVANCED_FACE ( 'NONE', ( #458 ), #889, .T. ) ;
#697 = CARTESIAN_POINT ( 'NONE',  ( 1.000000000000000200, 1.000000000000000000, -0.7500000000000000000 ) ) ;
#698 = LINE ( 'NONE', #215, #204 ) ;
#699 = EDGE_CURVE ( 'NONE', #1001, #342, #1232, .T. ) ;
#700 = ORIENTED_EDGE ( 'NONE', *, *, #1023, .F. ) ;
#701 = COLOUR_RGB ( '',0.7921568627450980000, 0.8196078431372548800, 0.9333333333333333500 ) ;
#702 = VERTEX_POINT ( 'NONE', #681 ) ;
#703 = AXIS2_PLACEMENT_3D ( 'NONE', #23, #545, #938 ) ;
#704 = FACE_OUTER_BOUND ( 'NONE', #67, .T. ) ;
#705 = CARTESIAN_POINT ( 'NONE',  ( -0.9500000000000001800, 0.9499999999999999600, -0.7500000000000000000 ) ) ;
#706 = ORIENTED_EDGE ( 'NONE', *, *, #974, .T. ) ;
#707 = ADVANCED_FACE ( 'NONE', ( #1248 ), #370, .F. ) ;
#708 = CARTESIAN_POINT ( 'NONE',  ( -0.9499999999999999600, 1.000000000000000000, 0.7999999999999998200 ) ) ;
#709 = EDGE_LOOP ( 'NONE', ( #494, #322, #676 ) ) ;
#710 = EDGE_LOOP ( 'NONE', ( #128, #976, #581, #524, #308, #671, #341, #159 ) ) ;
#711 = CARTESIAN_POINT ( 'NONE',  ( -1.000000000000000000, 1.000000000000000000, 0.7499999999999996700 ) ) ;
#712 = DIRECTION ( 'NONE',  ( 0.0000000000000000000, 0.0000000000000000000, -1.000000000000000000 ) ) ;
#713 = CARTESIAN_POINT ( 'NONE',  ( -1.000000000000000000, 0.05000000000000002400, 0.7499999999999997800 ) ) ;
#714 = ADVANCED_FACE ( 'NONE', ( #1197 ), #550, .T. ) ;
#715 = DIRECTION ( 'NONE',  ( -1.000000000000000000, 0.0000000000000000000, -0.0000000000000000000 ) ) ;
#716 = DIRECTION ( 'NONE',  ( -1.355252715606880800E-016, 0.0000000000000000000, 1.000000000000000000 ) ) ;
#717 = DIRECTION ( 'NONE',  ( 1.000000000000000000, 0.0000000000000000000, 0.0000000000000000000 ) ) ;
#718 = FACE_OUTER_BOUND ( 'NONE', #108, .T. ) ;
#719 = VECTOR ( 'NONE', #843, 1000.000000000000000 ) ;
#720 = CARTESIAN_POINT ( 'NONE',  ( 1.000000000000000200, 1.000000000000000000, -0.8000000000000000400 ) ) ;
#721 = CIRCLE ( 'NONE', #777, 0.05000000000000002400 ) ;
#722 = ADVANCED_FACE ( 'NONE', ( #4 ), #806, .T. ) ;
#723 = EDGE_CURVE ( 'NONE', #567, #946, #970, .T. ) ;
#724 = DIRECTION ( 'NONE',  ( -1.000000000000000000, 0.0000000000000000000, 0.0000000000000000000 ) ) ;
#725 = ORIENTED_EDGE ( 'NONE', *, *, #869, .T. ) ;
#726 = VECTOR ( 'NONE', #1238, 1000.000000000000000 ) ;
#727 = ORIENTED_EDGE ( 'NONE', *, *, #19, .F. ) ;
#728 = LINE ( 'NONE', #711, #594 ) ;
#729 = ORIENTED_EDGE ( 'NONE', *, *, #1261, .T. ) ;
#730 = CARTESIAN_POINT ( 'NONE',  ( 0.4999999999881765700, 0.9833333333333335000, 0.7499999999999992200 ) ) ;
#731 = ORIENTED_EDGE ( 'NONE', *, *, #151, .T. ) ;
#732 = DIRECTION ( 'NONE',  ( 0.0000000000000000000, -1.000000000000000000, 0.0000000000000000000 ) ) ;
#733 = DIRECTION ( 'NONE',  ( -1.355252715606880800E-016, 0.0000000000000000000, 1.000000000000000000 ) ) ;
#734 = DIRECTION ( 'NONE',  ( 1.000000000000000000, 0.0000000000000000000, 0.0000000000000000000 ) ) ;
#735 = AXIS2_PLACEMENT_3D ( 'NONE', #394, #514, #1076 ) ;
#736 = EDGE_CURVE ( 'NONE', #404, #1067, #217, .T. ) ;
#737 = CARTESIAN_POINT ( 'NONE',  ( 0.5000000000000000000, 0.9499999999999999600, 0.7999999999999998200 ) ) ;
#738 = CARTESIAN_POINT ( 'NONE',  ( 1.000000000000000000, 0.9499999999999999600, 0.7999999999999998200 ) ) ;
#739 = LINE ( 'NONE', #439, #240 ) ;
#740 = CARTESIAN_POINT ( 'NONE',  ( 1.000000000000000200, 0.05000000000000002400, -0.7500000000000000000 ) ) ;
#741 = DIRECTION ( 'NONE',  ( 1.000000000000000000, -0.0000000000000000000, 0.0000000000000000000 ) ) ;
#742 = VERTEX_POINT ( 'NONE', #888 ) ;
#743 = DIRECTION ( 'NONE',  ( 0.0000000000000000000, 0.0000000000000000000, 1.000000000000000000 ) ) ;
#744 = VERTEX_POINT ( 'NONE', #381 ) ;
#745 = CARTESIAN_POINT ( 'NONE',  ( 0.5000000000000002200, 0.0000000000000000000, -0.8000000000000000400 ) ) ;
#746 = VERTEX_POINT ( 'NONE', #885 ) ;
#747 = ADVANCED_BREP_SHAPE_REPRESENTATION ( 'LQM2MPN1R0NG0L', ( #390, #1229, #584, #819 ), #980 ) ;
#748 = ORIENTED_EDGE ( 'NONE', *, *, #155, .F. ) ;
#749 = CARTESIAN_POINT ( 'NONE',  ( 0.9499999999999999600, 0.9499999999999999600, 0.7499999999999997800 ) ) ;
#750 = DIRECTION ( 'NONE',  ( 0.0000000000000000000, -0.0000000000000000000, 1.000000000000000000 ) ) ;
#751 = DIRECTION ( 'NONE',  ( 0.0000000000000000000, 0.0000000000000000000, 1.000000000000000000 ) ) ;
#752 = EDGE_CURVE ( 'NONE', #746, #744, #1266, .T. ) ;
#753 = CARTESIAN_POINT ( 'NONE',  ( 0.9500000000000001800, 0.9499999999999999600, -0.7500000000000000000 ) ) ;
#754 = VECTOR ( 'NONE', #532, 1000.000000000000000 ) ;
#755 = DIRECTION ( 'NONE',  ( 1.000000000000000000, -0.0000000000000000000, -0.0000000000000000000 ) ) ;
#756 = DIRECTION ( 'NONE',  ( -1.000000000000000000, 0.0000000000000000000, 0.0000000000000000000 ) ) ;
#757 = ORIENTED_EDGE ( 'NONE', *, *, #1023, .T. ) ;
#758 = LINE ( 'NONE', #203, #1032 ) ;
#759 = ORIENTED_EDGE ( 'NONE', *, *, #287, .T. ) ;
#760 = CYLINDRICAL_SURFACE ( 'NONE', #1181, 0.05000000000000002400 ) ;
#761 = DIRECTION ( 'NONE',  ( 0.0000000000000000000, -1.000000000000000000, 0.0000000000000000000 ) ) ;
#762 = CARTESIAN_POINT ( 'NONE',  ( -0.9500000000000001800, 1.000000000000000000, -0.7500000000000000000 ) ) ;
#763 = DIRECTION ( 'NONE',  ( 0.0000000000000000000, -1.000000000000000000, -0.0000000000000000000 ) ) ;
#764 = AXIS2_PLACEMENT_3D ( 'NONE', #1009, #917, #1030 ) ;
#765 = CARTESIAN_POINT ( 'NONE',  ( 500000.0000000000600, 0.9833333333333335000, -0.7500000000433679800 ) ) ;
#766 = DIRECTION ( 'NONE',  ( 0.0000000000000000000, 0.0000000000000000000, -1.000000000000000000 ) ) ;
#767 = AXIS2_PLACEMENT_3D ( 'NONE', #753, #540, #241 ) ;
#768 = AXIS2_PLACEMENT_3D ( 'NONE', #1054, #856, #255 ) ;
#769 = CYLINDRICAL_SURFACE ( 'NONE', #967, 0.05000000000000002400 ) ;
#770 = CARTESIAN_POINT ( 'NONE',  ( 0.9499999999999999600, 0.9499999999999999600, 0.7499999999999997800 ) ) ;
#771 = ORIENTED_EDGE ( 'NONE', *, *, #258, .F. ) ;
#772 = VECTOR ( 'NONE', #853, 1000.000000000000000 ) ;
#773 = DIRECTION ( 'NONE',  ( -1.000000000000000000, -0.0000000000000000000, 8.673617379884036700E-017 ) ) ;
#774 = VERTEX_POINT ( 'NONE', #65 ) ;
#775 = VECTOR ( 'NONE', #160, 1000.000000000000000 ) ;
#776 = ORIENTED_EDGE ( 'NONE', *, *, #543, .T. ) ;
#777 = AXIS2_PLACEMENT_3D ( 'NONE', #1202, #1087, #418 ) ;
#778 = CARTESIAN_POINT ( 'NONE',  ( -0.5000000000000002200, 0.0000000000000000000, -0.7500000000000000000 ) ) ;
#779 = AXIS2_PLACEMENT_3D ( 'NONE', #883, #786, #490 ) ;
#780 = DIRECTION ( 'NONE',  ( -0.0000000000000000000, 1.000000000000000000, 0.0000000000000000000 ) ) ;
#781 = FACE_OUTER_BOUND ( 'NONE', #165, .T. ) ;
#782 = EDGE_LOOP ( 'NONE', ( #644, #264, #1115, #660 ) ) ;
#783 = CIRCLE ( 'NONE', #474, 0.05000000000000002400 ) ;
#784 = DIRECTION ( 'NONE',  ( -1.000000000000000000, 0.0000000000000000000, 0.0000000000000000000 ) ) ;
#785 = VERTEX_POINT ( 'NONE', #1258 ) ;
#786 = DIRECTION ( 'NONE',  ( 1.000000000000000000, 0.0000000000000000000, 1.355252715606880800E-016 ) ) ;
#787 = EDGE_LOOP ( 'NONE', ( #999, #568, #149, #1252, #433, #613, #1048, #541 ) ) ;
#788 = DIRECTION ( 'NONE',  ( 1.000000000000000000, 0.0000000000000000000, 0.0000000000000000000 ) ) ;
#789 = ORIENTED_EDGE ( 'NONE', *, *, #462, .F. ) ;
#790 =( LENGTH_UNIT ( ) NAMED_UNIT ( * ) SI_UNIT ( .MILLI., .METRE. ) );
#791 = CARTESIAN_POINT ( 'NONE',  ( -0.9499999999999999600, 0.9499999999999999600, 0.7499999999999997800 ) ) ;
#792 = CARTESIAN_POINT ( 'NONE',  ( 0.9500000000000001800, 0.9499999999999999600, -0.7500000000000000000 ) ) ;
#793 = CARTESIAN_POINT ( 'NONE',  ( 1.000000000000000000, 0.9499999999999999600, 0.7499999999999997800 ) ) ;
#794 = LINE ( 'NONE', #864, #845 ) ;
#795 = AXIS2_PLACEMENT_3D ( 'NONE', #720, #415, #826 ) ;
#796 = CIRCLE ( 'NONE', #573, 0.05000000000000002400 ) ;
#797 = VERTEX_POINT ( 'NONE', #877 ) ;
#798 = AXIS2_PLACEMENT_3D ( 'NONE', #103, #1105, #436 ) ;
#799 = ORIENTED_EDGE ( 'NONE', *, *, #45, .T. ) ;
#800 = ORIENTED_EDGE ( 'NONE', *, *, #631, .T. ) ;
#801 = CARTESIAN_POINT ( 'NONE',  ( 500000.0000000000600, 0.9833333333333335000, 0.7499999999566311400 ) ) ;
#802 = ORIENTED_EDGE ( 'NONE', *, *, #83, .F. ) ;
#803 = DIRECTION ( 'NONE',  ( -1.000000000000000000, 0.0000000000000000000, 0.0000000000000000000 ) ) ;
#804 = ORIENTED_EDGE ( 'NONE', *, *, #840, .T. ) ;
#805 = DIRECTION ( 'NONE',  ( 0.0000000000000000000, 0.0000000000000000000, -1.000000000000000000 ) ) ;
#806 = SPHERICAL_SURFACE ( 'NONE', #354, 0.05000000000000000300 ) ;
#807 = CARTESIAN_POINT ( 'NONE',  ( -0.5000000000000002200, 0.0000000000000000000, -0.8000000000000000400 ) ) ;
#808 = AXIS2_PLACEMENT_3D ( 'NONE', #358, #860, #1135 ) ;
#809 = CIRCLE ( 'NONE', #798, 0.05000000000000002400 ) ;
#810 = ADVANCED_FACE ( 'NONE', ( #449 ), #990, .F. ) ;
#811 = EDGE_CURVE ( 'NONE', #1033, #744, #947, .T. ) ;
#812 = DIRECTION ( 'NONE',  ( -1.000000000000000000, 0.0000000000000000000, 0.0000000000000000000 ) ) ;
#813 = ORIENTED_EDGE ( 'NONE', *, *, #842, .T. ) ;
#814 = LINE ( 'NONE', #314, #855 ) ;
#815 = ORIENTED_EDGE ( 'NONE', *, *, #5, .F. ) ;
#816 = CARTESIAN_POINT ( 'NONE',  ( -0.9500000000000001800, 0.05000000000000002400, -0.7500000000000000000 ) ) ;
#817 = ORIENTED_EDGE ( 'NONE', *, *, #476, .T. ) ;
#818 = DIRECTION ( 'NONE',  ( 0.0000000000000000000, -1.000000000000000000, 0.0000000000000000000 ) ) ;
#819 = AXIS2_PLACEMENT_3D ( 'NONE', #588, #169, #1271 ) ;
#820 = DIRECTION ( 'NONE',  ( 1.000000000000000000, 0.0000000000000000000, -8.673617379884036700E-017 ) ) ;
#821 = AXIS2_PLACEMENT_3D ( 'NONE', #113, #26, #827 ) ;
#822 = PLANE ( 'NONE',  #1210 ) ;
#823 = DIRECTION ( 'NONE',  ( 0.0000000000000000000, 0.0000000000000000000, -1.000000000000000000 ) ) ;
#824 = CARTESIAN_POINT ( 'NONE',  ( 0.0000000000000000000, 0.0000000000000000000, 0.0000000000000000000 ) ) ;
#825 = AXIS2_PLACEMENT_3D ( 'NONE', #829, #220, #351 ) ;
#826 = DIRECTION ( 'NONE',  ( -1.000000000000000000, 0.0000000000000000000, 0.0000000000000000000 ) ) ;
#827 = DIRECTION ( 'NONE',  ( 0.0000000000000000000, 0.0000000000000000000, -1.000000000000000000 ) ) ;
#828 = AXIS2_PLACEMENT_3D ( 'NONE', #1045, #1246, #359 ) ;
#829 = CARTESIAN_POINT ( 'NONE',  ( 0.9500000000000001800, 0.05000000000000000300, -0.7500000000000000000 ) ) ;
#830 = ORIENTED_EDGE ( 'NONE', *, *, #974, .F. ) ;
#831 = LINE ( 'NONE', #218, #466 ) ;
#832 = ORIENTED_EDGE ( 'NONE', *, *, #147, .F. ) ;
#833 = CYLINDRICAL_SURFACE ( 'NONE', #662, 0.05000000000000002400 ) ;
#834 = PLANE ( 'NONE',  #277 ) ;
#835 = CARTESIAN_POINT ( 'NONE',  ( 0.4999999999881765700, 0.01666666666666667300, 0.7499999999999993300 ) ) ;
#836 = EDGE_LOOP ( 'NONE', ( #900, #1243, #372 ) ) ;
#837 = DIRECTION ( 'NONE',  ( 0.0000000000000000000, 0.0000000000000000000, 1.000000000000000000 ) ) ;
#838 = CARTESIAN_POINT ( 'NONE',  ( -0.9500000000000001800, 1.000000000000000000, -0.8000000000000000400 ) ) ;
#839 = UNCERTAINTY_MEASURE_WITH_UNIT (LENGTH_MEASURE( 1.000000000000000100E-005 ), #529, 'distance_accuracy_value', 'NONE');
#840 = EDGE_CURVE ( 'NONE', #612, #908, #1002, .T. ) ;
#841 = DIRECTION ( 'NONE',  ( 1.000000000000000000, 0.0000000000000000000, 1.355252715606880800E-016 ) ) ;
#842 = EDGE_CURVE ( 'NONE', #47, #339, #192, .T. ) ;
#843 = DIRECTION ( 'NONE',  ( 1.000000000000000000, -0.0000000000000000000, 0.0000000000000000000 ) ) ;
#844 = DIRECTION ( 'NONE',  ( -1.000000000000000000, 0.0000000000000000000, 0.0000000000000000000 ) ) ;
#845 = VECTOR ( 'NONE', #773, 1000.000000000000000 ) ;
#846 = EDGE_CURVE ( 'NONE', #977, #774, #326, .T. ) ;
#847 = LINE ( 'NONE', #1041, #480 ) ;
#848 = DIRECTION ( 'NONE',  ( 1.355252715606880800E-016, -0.0000000000000000000, -1.000000000000000000 ) ) ;
#849 = DIRECTION ( 'NONE',  ( 0.0000000000000000000, 1.000000000000000000, 0.0000000000000000000 ) ) ;
#850 = FACE_OUTER_BOUND ( 'NONE', #483, .T. ) ;
#851 = ORIENTED_EDGE ( 'NONE', *, *, #650, .T. ) ;
#852 = PRESENTATION_LAYER_ASSIGNMENT (  '', '', ( #1136 ) ) ;
#853 = DIRECTION ( 'NONE',  ( 0.0000000000000000000, -1.000000000000000000, 0.0000000000000000000 ) ) ;
#854 = VERTEX_POINT ( 'NONE', #892 ) ;
#855 = VECTOR ( 'NONE', #1021, 1000.000000000000000 ) ;
#856 = DIRECTION ( 'NONE',  ( 1.000000000000000000, 0.0000000000000000000, 1.355252715606880800E-016 ) ) ;
#857 = VERTEX_POINT ( 'NONE', #265 ) ;
#858 = CARTESIAN_POINT ( 'NONE',  ( 1.000000000000000000, 0.05000000000000002400, 0.7499999999999997800 ) ) ;
#859 = EDGE_CURVE ( 'NONE', #342, #404, #468, .T. ) ;
#860 = DIRECTION ( 'NONE',  ( 0.0000000000000000000, 1.000000000000000000, 0.0000000000000000000 ) ) ;
#861 = DIRECTION ( 'NONE',  ( 0.0000000000000000000, 1.000000000000000000, 0.0000000000000000000 ) ) ;
#862 =( NAMED_UNIT ( * ) SI_UNIT ( $, .STERADIAN. ) SOLID_ANGLE_UNIT ( ) );
#863 = CIRCLE ( 'NONE', #768, 0.03333333333333345800 ) ;
#864 = CARTESIAN_POINT ( 'NONE',  ( 500000.0000000000600, 0.9833333333333335000, -0.7500000000433679800 ) ) ;
#865 = VERTEX_POINT ( 'NONE', #778 ) ;
#866 = ORIENTED_EDGE ( 'NONE', *, *, #1173, .F. ) ;
#867 = VECTOR ( 'NONE', #583, 1000.000000000000000 ) ;
#868 = DIRECTION ( 'NONE',  ( 0.0000000000000000000, -0.0000000000000000000, -1.000000000000000000 ) ) ;
#869 = EDGE_CURVE ( 'NONE', #297, #47, #162, .T. ) ;
#870 = ORIENTED_EDGE ( 'NONE', *, *, #477, .F. ) ;
#871 = DIRECTION ( 'NONE',  ( -1.000000000000000000, -0.0000000000000000000, 8.673617379884036700E-017 ) ) ;
#872 = LINE ( 'NONE', #1132, #303 ) ;
#873 = DIRECTION ( 'NONE',  ( 1.000000000000000000, 0.0000000000000000000, -8.673617379884036700E-017 ) ) ;
#874 = VECTOR ( 'NONE', #234, 1000.000000000000000 ) ;
#875 = CIRCLE ( 'NONE', #666, 0.05000000000000002400 ) ;
#876 = ORIENTED_EDGE ( 'NONE', *, *, #678, .F. ) ;
#877 = CARTESIAN_POINT ( 'NONE',  ( 0.5000000000000000000, 0.0000000000000000000, 0.7499999999999992200 ) ) ;
#878 = CARTESIAN_POINT ( 'NONE',  ( 500000.0000000000600, 0.9499999999999999600, -0.7500000000433679800 ) ) ;
#879 = ORIENTED_EDGE ( 'NONE', *, *, #640, .F. ) ;
#880 = AXIS2_PLACEMENT_3D ( 'NONE', #705, #805, #803 ) ;
#881 = ORIENTED_EDGE ( 'NONE', *, *, #922, .F. ) ;
#882 = EDGE_CURVE ( 'NONE', #360, #1267, #897, .T. ) ;
#883 = CARTESIAN_POINT ( 'NONE',  ( 0.4999999999881765700, 0.05000000000000002400, 0.7499999999999998900 ) ) ;
#884 = EDGE_LOOP ( 'NONE', ( #193, #1163, #189 ) ) ;
#885 = CARTESIAN_POINT ( 'NONE',  ( 0.9499999999999999600, 0.05000000000000002400, 0.7999999999999998200 ) ) ;
#886 = CARTESIAN_POINT ( 'NONE',  ( 0.9500000000000001800, 0.9499999999999999600, -0.8000000000000000400 ) ) ;
#887 = EDGE_CURVE ( 'NONE', #1049, #404, #58, .T. ) ;
#888 = CARTESIAN_POINT ( 'NONE',  ( -0.5000000000000002200, 0.9833333333333335000, -0.7499999999999998900 ) ) ;
#889 = CYLINDRICAL_SURFACE ( 'NONE', #1214, 0.05000000000000002400 ) ;
#890 = PRODUCT_DEFINITION ( 'UNKNOWN', '', #1207, #1024 ) ;
#891 = DIRECTION ( 'NONE',  ( -1.355252715606880800E-016, 0.0000000000000000000, 1.000000000000000000 ) ) ;
#892 = CARTESIAN_POINT ( 'NONE',  ( 1.000000000000000200, 0.9499999999999999600, -0.7500000000000000000 ) ) ;
#893 = LINE ( 'NONE', #46, #1200 ) ;
#894 = VERTEX_POINT ( 'NONE', #1003 ) ;
#895 = VECTOR ( 'NONE', #1134, 1000.000000000000000 ) ;
#896 = ORIENTED_EDGE ( 'NONE', *, *, #101, .T. ) ;
#897 = LINE ( 'NONE', #398, #1160 ) ;
#898 = CARTESIAN_POINT ( 'NONE',  ( 0.5000000000000002200, 0.05000000000000002400, -0.8000000000000000400 ) ) ;
#899 = AXIS2_PLACEMENT_3D ( 'NONE', #611, #902, #10 ) ;
#900 = ORIENTED_EDGE ( 'NONE', *, *, #321, .T. ) ;
#901 = CARTESIAN_POINT ( 'NONE',  ( -0.5000000000000000000, 0.05000000000000002400, 0.7833333333333332100 ) ) ;
#902 = DIRECTION ( 'NONE',  ( 0.0000000000000000000, -1.000000000000000000, 0.0000000000000000000 ) ) ;
#903 = ADVANCED_FACE ( 'NONE', ( #376 ), #496, .T. ) ;
#904 = EDGE_CURVE ( 'NONE', #975, #342, #929, .T. ) ;
#905 = VECTOR ( 'NONE', #511, 1000.000000000000000 ) ;
#906 = FACE_OUTER_BOUND ( 'NONE', #505, .T. ) ;
#907 = CARTESIAN_POINT ( 'NONE',  ( -0.9500000000000001800, 0.05000000000000002400, -0.8000000000000000400 ) ) ;
#908 = VERTEX_POINT ( 'NONE', #898 ) ;
#909 = AXIS2_PLACEMENT_3D ( 'NONE', #107, #89, #211 ) ;
#910 = EDGE_CURVE ( 'NONE', #946, #1067, #231, .T. ) ;
#911 = ORIENTED_EDGE ( 'NONE', *, *, #631, .F. ) ;
#912 = EDGE_LOOP ( 'NONE', ( #776, #914, #467, #1037 ) ) ;
#913 = ADVANCED_FACE ( 'NONE', ( #704 ), #251, .T. ) ;
#914 = ORIENTED_EDGE ( 'NONE', *, *, #1118, .F. ) ;
#915 = CARTESIAN_POINT ( 'NONE',  ( -0.5000000000000002200, 0.9499999999999999600, -0.8000000000000000400 ) ) ;
#916 =( GEOMETRIC_REPRESENTATION_CONTEXT ( 3 ) GLOBAL_UNCERTAINTY_ASSIGNED_CONTEXT ( ( #225 ) ) GLOBAL_UNIT_ASSIGNED_CONTEXT ( ( #146, #1069, #862 ) ) REPRESENTATION_CONTEXT ( 'NONE', 'WORKASPACE' ) );
#917 = DIRECTION ( 'NONE',  ( 1.000000000000000000, 0.0000000000000000000, 1.355252715606880800E-016 ) ) ;
#918 = CARTESIAN_POINT ( 'NONE',  ( -0.5000000000000002200, 0.9499999999999999600, -0.8000000000000000400 ) ) ;
#919 = ADVANCED_FACE ( 'NONE', ( #1081 ), #760, .T. ) ;
#920 = DIRECTION ( 'NONE',  ( -1.000000000000000000, -0.0000000000000000000, 8.673617379884036700E-017 ) ) ;
#921 = CIRCLE ( 'NONE', #627, 0.03333333333333334700 ) ;
#922 = EDGE_CURVE ( 'NONE', #774, #1094, #690, .T. ) ;
#923 = DIRECTION ( 'NONE',  ( 1.000000000000000000, 0.0000000000000000000, 1.355252715606880800E-016 ) ) ;
#924 = FACE_OUTER_BOUND ( 'NONE', #448, .T. ) ;
#925 = ORIENTED_EDGE ( 'NONE', *, *, #470, .T. ) ;
#926 = FACE_OUTER_BOUND ( 'NONE', #161, .T. ) ;
#927 = DIRECTION ( 'NONE',  ( -0.0000000000000000000, 0.0000000000000000000, -1.000000000000000000 ) ) ;
#928 = ORIENTED_EDGE ( 'NONE', *, *, #616, .T. ) ;
#929 = LINE ( 'NONE', #289, #177 ) ;
#930 = CARTESIAN_POINT ( 'NONE',  ( -1.000000000000000000, 0.05000000000000002400, 0.7999999999999998200 ) ) ;
#931 = ORIENTED_EDGE ( 'NONE', *, *, #282, .T. ) ;
#932 = CARTESIAN_POINT ( 'NONE',  ( 0.9499999999999999600, 0.0000000000000000000, 0.7499999999999997800 ) ) ;
#933 = CARTESIAN_POINT ( 'NONE',  ( -0.9500000000000001800, 0.9499999999999999600, -0.8000000000000000400 ) ) ;
#934 = ADVANCED_FACE ( 'NONE', ( #1241 ), #428, .T. ) ;
#935 = DIRECTION ( 'NONE',  ( 1.355252715606880800E-016, 0.0000000000000000000, -1.000000000000000000 ) ) ;
#936 = AXIS2_PLACEMENT_3D ( 'NONE', #184, #1196, #1190 ) ;
#937 = DIRECTION ( 'NONE',  ( -0.0000000000000000000, -0.0000000000000000000, 1.000000000000000000 ) ) ;
#938 = DIRECTION ( 'NONE',  ( 1.000000000000000000, 0.0000000000000000000, 0.0000000000000000000 ) ) ;
#939 = SPHERICAL_SURFACE ( 'NONE', #909, 0.05000000000000000300 ) ;
#940 = AXIS2_PLACEMENT_3D ( 'NONE', #1107, #102, #523 ) ;
#941 = CARTESIAN_POINT ( 'NONE',  ( 0.5000000000000002200, 1.000000000000000000, -0.7500000000000000000 ) ) ;
#942 = CIRCLE ( 'NONE', #1272, 0.05000000000000002400 ) ;
#943 = DIRECTION ( 'NONE',  ( -0.0000000000000000000, -0.0000000000000000000, -1.000000000000000000 ) ) ;
#944 = ORIENTED_EDGE ( 'NONE', *, *, #525, .T. ) ;
#945 = LINE ( 'NONE', #955, #68 ) ;
#946 = VERTEX_POINT ( 'NONE', #598 ) ;
#947 = LINE ( 'NONE', #72, #867 ) ;
#948 = ORIENTED_EDGE ( 'NONE', *, *, #356, .F. ) ;
#949 = CARTESIAN_POINT ( 'NONE',  ( 0.9500000000000000700, 0.9499999999999999600, 1.287490079826537000E-016 ) ) ;
#950 = ORIENTED_EDGE ( 'NONE', *, *, #1182, .F. ) ;
#951 = DIRECTION ( 'NONE',  ( 1.000000000000000000, 0.0000000000000000000, 1.355252715606880800E-016 ) ) ;
#952 = PLANE ( 'NONE',  #534 ) ;
#953 = EDGE_CURVE ( 'NONE', #553, #567, #728, .T. ) ;
#954 = CARTESIAN_POINT ( 'NONE',  ( 0.9500000000000001800, 0.05000000000000002400, -0.7500000000000000000 ) ) ;
#955 = CARTESIAN_POINT ( 'NONE',  ( 500000.0000000000600, 0.9499999999999999600, -0.7833333333767013000 ) ) ;
#956 = SURFACE_STYLE_FILL_AREA ( #652 ) ;
#957 = DIRECTION ( 'NONE',  ( 1.000000000000000000, -0.0000000000000000000, -1.355252715606880800E-016 ) ) ;
#958 = SPHERICAL_SURFACE ( 'NONE', #1150, 0.05000000000000000300 ) ;
#959 = SPHERICAL_SURFACE ( 'NONE', #373, 0.05000000000000000300 ) ;
#960 = APPLICATION_PROTOCOL_DEFINITION ( 'draft international standard', 'automotive_design', 1998, #1168 ) ;
#961 = ORIENTED_EDGE ( 'NONE', *, *, #452, .F. ) ;
#962 = DIRECTION ( 'NONE',  ( 0.0000000000000000000, -1.000000000000000000, 0.0000000000000000000 ) ) ;
#963 = ORIENTED_EDGE ( 'NONE', *, *, #1012, .T. ) ;
#964 = VECTOR ( 'NONE', #1158, 1000.000000000000000 ) ;
#965 = VERTEX_POINT ( 'NONE', #501 ) ;
#966 = DIRECTION ( 'NONE',  ( 0.0000000000000000000, 0.0000000000000000000, -1.000000000000000000 ) ) ;
#967 = AXIS2_PLACEMENT_3D ( 'NONE', #762, #962, #966 ) ;
#968 = AXIS2_PLACEMENT_3D ( 'NONE', #1011, #927, #432 ) ;
#969 = DIRECTION ( 'NONE',  ( 0.0000000000000000000, 0.0000000000000000000, 1.000000000000000000 ) ) ;
#970 = CIRCLE ( 'NONE', #397, 0.05000000000000002400 ) ;
#971 = CIRCLE ( 'NONE', #69, 0.03333333333333334700 ) ;
#972 = CARTESIAN_POINT ( 'NONE',  ( 0.5000000000000002200, 0.0000000000000000000, -0.7500000000000000000 ) ) ;
#973 = VERTEX_POINT ( 'NONE', #901 ) ;
#974 = EDGE_CURVE ( 'NONE', #362, #1001, #661, .T. ) ;
#975 = VERTEX_POINT ( 'NONE', #995 ) ;
#976 = ORIENTED_EDGE ( 'NONE', *, *, #1244, .T. ) ;
#977 = VERTEX_POINT ( 'NONE', #85 ) ;
#978 = ORIENTED_EDGE ( 'NONE', *, *, #488, .F. ) ;
#979 = DIRECTION ( 'NONE',  ( 0.0000000000000000000, -1.000000000000000000, -0.0000000000000000000 ) ) ;
#980 =( GEOMETRIC_REPRESENTATION_CONTEXT ( 3 ) GLOBAL_UNCERTAINTY_ASSIGNED_CONTEXT ( ( #365 ) ) GLOBAL_UNIT_ASSIGNED_CONTEXT ( ( #349, #1146, #77 ) ) REPRESENTATION_CONTEXT ( 'NONE', 'WORKASPACE' ) );
#981 = DIRECTION ( 'NONE',  ( 0.0000000000000000000, 0.0000000000000000000, 1.000000000000000000 ) ) ;
#982 = VECTOR ( 'NONE', #717, 1000.000000000000000 ) ;
#983 = LINE ( 'NONE', #807, #157 ) ;
#984 = CARTESIAN_POINT ( 'NONE',  ( 0.9499999999999999600, 0.05000000000000000300, 0.7499999999999997800 ) ) ;
#985 = LINE ( 'NONE', #801, #106 ) ;
#986 = EDGE_LOOP ( 'NONE', ( #233, #1077, #291, #191 ) ) ;
#987 = VERTEX_POINT ( 'NONE', #78 ) ;
#988 = FACE_OUTER_BOUND ( 'NONE', #132, .T. ) ;
#989 = EDGE_CURVE ( 'NONE', #854, #492, #145, .T. ) ;
#990 = PLANE ( 'NONE',  #59 ) ;
#991 = DIRECTION ( 'NONE',  ( -1.000000000000000000, -0.0000000000000000000, 8.673617379884036700E-017 ) ) ;
#992 = CIRCLE ( 'NONE', #1259, 0.05000000000000002400 ) ;
#993 = PRESENTATION_LAYER_ASSIGNMENT (  '', '', ( #1098 ) ) ;
#994 = AXIS2_PLACEMENT_3D ( 'NONE', #444, #542, #212 ) ;
#995 = CARTESIAN_POINT ( 'NONE',  ( -0.5000000000000000000, 1.000000000000000000, 0.7499999999999992200 ) ) ;
#996 = CIRCLE ( 'NONE', #200, 0.05000000000000002400 ) ;
#997 = FACE_OUTER_BOUND ( 'NONE', #1178, .T. ) ;
#998 = DIRECTION ( 'NONE',  ( -1.000000000000000000, -0.0000000000000000000, 8.673617379884036700E-017 ) ) ;
#999 = ORIENTED_EDGE ( 'NONE', *, *, #83, .T. ) ;
#1000 = ADVANCED_FACE ( 'NONE', ( #1209 ), #833, .T. ) ;
#1001 = VERTEX_POINT ( 'NONE', #918 ) ;
#1002 = LINE ( 'NONE', #497, #1177 ) ;
#1003 = CARTESIAN_POINT ( 'NONE',  ( 0.4999999999881765700, 0.05000000000000002400, 0.7833333333333332100 ) ) ;
#1004 = AXIS2_PLACEMENT_3D ( 'NONE', #557, #139, #232 ) ;
#1005 = ORIENTED_EDGE ( 'NONE', *, *, #337, .T. ) ;
#1006 = VERTEX_POINT ( 'NONE', #531 ) ;
#1007 = ADVANCED_FACE ( 'NONE', ( #361 ), #316, .F. ) ;
#1008 = DIRECTION ( 'NONE',  ( 0.0000000000000000000, -1.000000000000000000, 0.0000000000000000000 ) ) ;
#1009 = CARTESIAN_POINT ( 'NONE',  ( 0.5000000000000002200, 0.9499999999999999600, -0.7500000000000000000 ) ) ;
#1010 = CARTESIAN_POINT ( 'NONE',  ( 0.9500000000000001800, 0.05000000000000002400, -0.7500000000000000000 ) ) ;
#1011 = CARTESIAN_POINT ( 'NONE',  ( -0.9499999999999999600, 0.9499999999999999600, 0.7499999999999997800 ) ) ;
#1012 = EDGE_CURVE ( 'NONE', #1031, #606, #625, .T. ) ;
#1013 = DIRECTION ( 'NONE',  ( -1.000000000000000000, -0.0000000000000000000, -0.0000000000000000000 ) ) ;
#1014 = VECTOR ( 'NONE', #732, 1000.000000000000000 ) ;
#1015 = ADVANCED_FACE ( 'NONE', ( #293 ), #29, .T. ) ;
#1016 = CARTESIAN_POINT ( 'NONE',  ( 0.9500000000000001800, 0.05000000000000000300, -0.7500000000000000000 ) ) ;
#1017 = ORIENTED_EDGE ( 'NONE', *, *, #182, .F. ) ;
#1018 = CARTESIAN_POINT ( 'NONE',  ( 0.0000000000000000000, 0.0000000000000000000, -0.7500000000000000000 ) ) ;
#1019 = ORIENTED_EDGE ( 'NONE', *, *, #45, .F. ) ;
#1020 = VECTOR ( 'NONE', #306, 1000.000000000000000 ) ;
#1021 = DIRECTION ( 'NONE',  ( 1.355252715606880800E-016, -0.0000000000000000000, -1.000000000000000000 ) ) ;
#1022 = ADVANCED_FACE ( 'NONE', ( #988 ), #528, .F. ) ;
#1023 = EDGE_CURVE ( 'NONE', #90, #297, #1145, .T. ) ;
#1024 = PRODUCT_DEFINITION_CONTEXT ( 'detailed design', #1137, 'design' ) ;
#1025 = ADVANCED_FACE ( 'NONE', ( #926 ), #1095, .T. ) ;
#1026 = CARTESIAN_POINT ( 'NONE',  ( 1.000000000000000200, 0.05000000000000002400, -0.7500000000000000000 ) ) ;
#1027 = CARTESIAN_POINT ( 'NONE',  ( 0.9499999999999999600, 0.9499999999999999600, 0.7499999999999997800 ) ) ;
#1028 = EDGE_CURVE ( 'NONE', #1204, #1111, #814, .T. ) ;
#1029 = CARTESIAN_POINT ( 'NONE',  ( -1.000000000000000200, 1.000000000000000000, -0.7500000000000000000 ) ) ;
#1030 = DIRECTION ( 'NONE',  ( 0.0000000000000000000, 0.0000000000000000000, 1.000000000000000000 ) ) ;
#1031 = VERTEX_POINT ( 'NONE', #629 ) ;
#1032 = VECTOR ( 'NONE', #733, 1000.000000000000000 ) ;
#1033 = VERTEX_POINT ( 'NONE', #737 ) ;
#1034 = DIRECTION ( 'NONE',  ( 0.0000000000000000000, 0.0000000000000000000, 1.000000000000000000 ) ) ;
#1035 = ORIENTED_EDGE ( 'NONE', *, *, #434, .T. ) ;
#1036 = DIRECTION ( 'NONE',  ( -1.000000000000000000, 0.0000000000000000000, 1.355252715606880800E-016 ) ) ;
#1037 = ORIENTED_EDGE ( 'NONE', *, *, #869, .F. ) ;
#1038 = CARTESIAN_POINT ( 'NONE',  ( -0.5000000000000002200, 0.9499999999999999600, -0.7499999999999998900 ) ) ;
#1039 = DIRECTION ( 'NONE',  ( 0.0000000000000000000, 1.000000000000000000, 0.0000000000000000000 ) ) ;
#1040 = AXIS2_PLACEMENT_3D ( 'NONE', #1016, #312, #1103 ) ;
#1041 = CARTESIAN_POINT ( 'NONE',  ( 0.0000000000000000000, 0.0000000000000000000, 0.7499999999999997800 ) ) ;
#1042 = CYLINDRICAL_SURFACE ( 'NONE', #271, 0.05000000000000002400 ) ;
#1043 = CARTESIAN_POINT ( 'NONE',  ( -0.5000000000000000000, 1.000000000000000000, 0.7999999999999998200 ) ) ;
#1044 = VECTOR ( 'NONE', #141, 1000.000000000000000 ) ;
#1045 = CARTESIAN_POINT ( 'NONE',  ( -0.9500000000000001800, 0.05000000000000002400, -0.7500000000000000000 ) ) ;
#1046 = ORIENTED_EDGE ( 'NONE', *, *, #1156, .F. ) ;
#1047 = ORIENTED_EDGE ( 'NONE', *, *, #296, .F. ) ;
#1048 = ORIENTED_EDGE ( 'NONE', *, *, #1173, .T. ) ;
#1049 = VERTEX_POINT ( 'NONE', #1206 ) ;
#1050 = FILL_AREA_STYLE ('',( #475 ) ) ;
#1051 = EDGE_CURVE ( 'NONE', #486, #946, #1079, .T. ) ;
#1052 = CARTESIAN_POINT ( 'NONE',  ( 0.5000000000000002200, 0.9499999999999999600, -0.8000000000000000400 ) ) ;
#1053 = DIRECTION ( 'NONE',  ( 0.0000000000000000000, 0.0000000000000000000, 1.000000000000000000 ) ) ;
#1054 = CARTESIAN_POINT ( 'NONE',  ( 0.4999999999881765700, 0.9499999999999999600, 0.7499999999999998900 ) ) ;
#1055 = FACE_OUTER_BOUND ( 'NONE', #709, .T. ) ;
#1056 = ORIENTED_EDGE ( 'NONE', *, *, #476, .F. ) ;
#1057 = CLOSED_SHELL ( 'NONE', ( #536, #100, #320, #1007, #416, #614, #520, #295, #696, #1193, #515, #1000, #1201, #507, #1015, #313, #411, #3 ) ) ;
#1058 = ORIENTED_EDGE ( 'NONE', *, *, #442, .F. ) ;
#1059 = EDGE_CURVE ( 'NONE', #1061, #606, #831, .T. ) ;
#1060 = ORIENTED_EDGE ( 'NONE', *, *, #882, .T. ) ;
#1061 = VERTEX_POINT ( 'NONE', #932 ) ;
#1062 = DIRECTION ( 'NONE',  ( -1.000000000000000000, 0.0000000000000000000, 0.0000000000000000000 ) ) ;
#1063 = DIRECTION ( 'NONE',  ( 0.0000000000000000000, 0.0000000000000000000, -1.000000000000000000 ) ) ;
#1064 = FACE_OUTER_BOUND ( 'NONE', #406, .T. ) ;
#1065 = AXIS2_PLACEMENT_3D ( 'NONE', #679, #274, #485 ) ;
#1066 = EDGE_CURVE ( 'NONE', #688, #1142, #758, .T. ) ;
#1067 = VERTEX_POINT ( 'NONE', #323 ) ;
#1068 = LINE ( 'NONE', #245, #726 ) ;
#1069 =( NAMED_UNIT ( * ) PLANE_ANGLE_UNIT ( ) SI_UNIT ( $, .RADIAN. ) );
#1070 = ORIENTED_EDGE ( 'NONE', *, *, #214, .T. ) ;
#1071 = CARTESIAN_POINT ( 'NONE',  ( -0.9500000000000001800, 0.05000000000000000300, -0.7500000000000000000 ) ) ;
#1072 = VERTEX_POINT ( 'NONE', #730 ) ;
#1073 = DIRECTION ( 'NONE',  ( 0.0000000000000000000, 0.0000000000000000000, 1.000000000000000000 ) ) ;
#1074 = AXIS2_PLACEMENT_3D ( 'NONE', #438, #937, #734 ) ;
#1075 = CIRCLE ( 'NONE', #821, 0.03333333333333334700 ) ;
#1076 = DIRECTION ( 'NONE',  ( 0.0000000000000000000, 0.0000000000000000000, -1.000000000000000000 ) ) ;
#1077 = ORIENTED_EDGE ( 'NONE', *, *, #587, .T. ) ;
#1078 = PRESENTATION_LAYER_ASSIGNMENT (  '', '', ( #1104 ) ) ;
#1079 = LINE ( 'NONE', #1113, #1264 ) ;
#1080 = ORIENTED_EDGE ( 'NONE', *, *, #452, .T. ) ;
#1081 = FACE_OUTER_BOUND ( 'NONE', #912, .T. ) ;
#1082 = AXIS2_PLACEMENT_3D ( 'NONE', #653, #52, #1231 ) ;
#1083 = ORIENTED_EDGE ( 'NONE', *, *, #392, .F. ) ;
#1084 = ADVANCED_FACE ( 'NONE', ( #42 ), #834, .F. ) ;
#1085 = CARTESIAN_POINT ( 'NONE',  ( 0.9499999999999999600, 0.9499999999999999600, 0.7999999999999998200 ) ) ;
#1086 = EDGE_CURVE ( 'NONE', #641, #908, #1175, .T. ) ;
#1087 = DIRECTION ( 'NONE',  ( 0.0000000000000000000, -1.000000000000000000, 0.0000000000000000000 ) ) ;
#1088 = ADVANCED_FACE ( 'NONE', ( #207 ), #331, .F. ) ;
#1089 = DIRECTION ( 'NONE',  ( -1.000000000000000000, 0.0000000000000000000, 0.0000000000000000000 ) ) ;
#1090 = FACE_OUTER_BOUND ( 'NONE', #1191, .T. ) ;
#1091 = FACE_OUTER_BOUND ( 'NONE', #487, .T. ) ;
#1092 = AXIS2_PLACEMENT_3D ( 'NONE', #609, #601, #6 ) ;
#1093 = ORIENTED_EDGE ( 'NONE', *, *, #84, .T. ) ;
#1094 = VERTEX_POINT ( 'NONE', #646 ) ;
#1095 = CYLINDRICAL_SURFACE ( 'NONE', #237, 0.03333333333333345800 ) ;
#1096 = DIRECTION ( 'NONE',  ( 0.0000000000000000000, 0.0000000000000000000, 1.000000000000000000 ) ) ;
#1097 = CARTESIAN_POINT ( 'NONE',  ( -1.000000000000000200, 0.05000000000000002400, -0.7500000000000000000 ) ) ;
#1098 = STYLED_ITEM ( 'NONE', ( #607 ), #747 ) ;
#1099 = ORIENTED_EDGE ( 'NONE', *, *, #499, .F. ) ;
#1100 = ADVANCED_FACE ( 'NONE', ( #503 ), #238, .F. ) ;
#1101 = ORIENTED_EDGE ( 'NONE', *, *, #1195, .F. ) ;
#1102 = DIRECTION ( 'NONE',  ( -1.000000000000000000, 0.0000000000000000000, 0.0000000000000000000 ) ) ;
#1103 = DIRECTION ( 'NONE',  ( -1.000000000000000000, 0.0000000000000000000, 0.0000000000000000000 ) ) ;
#1104 = STYLED_ITEM ( 'NONE', ( #602 ), #584 ) ;
#1105 = DIRECTION ( 'NONE',  ( -0.0000000000000000000, 1.000000000000000000, -0.0000000000000000000 ) ) ;
#1106 = CYLINDRICAL_SURFACE ( 'NONE', #1141, 0.05000000000000002400 ) ;
#1107 = CARTESIAN_POINT ( 'NONE',  ( 500000.0000000000600, 0.01666666666666666600, 0.7499999999566312500 ) ) ;
#1108 = ADVANCED_FACE ( 'NONE', ( #1279 ), #1205, .T. ) ;
#1109 = ORIENTED_EDGE ( 'NONE', *, *, #736, .F. ) ;
#1110 = CARTESIAN_POINT ( 'NONE',  ( -0.5000000000000000000, 0.0000000000000000000, 0.7499999999999992200 ) ) ;
#1111 = VERTEX_POINT ( 'NONE', #941 ) ;
#1112 = VECTOR ( 'NONE', #715, 1000.000000000000000 ) ;
#1113 = CARTESIAN_POINT ( 'NONE',  ( -1.000000000000000000, 0.9499999999999999600, 0.7999999999999998200 ) ) ;
#1114 = CARTESIAN_POINT ( 'NONE',  ( -0.9499999999999999600, 0.05000000000000000300, 0.7499999999999997800 ) ) ;
#1115 = ORIENTED_EDGE ( 'NONE', *, *, #1066, .F. ) ;
#1116 = DIRECTION ( 'NONE',  ( 0.0000000000000000000, 0.0000000000000000000, -1.000000000000000000 ) ) ;
#1117 = ORIENTED_EDGE ( 'NONE', *, *, #597, .F. ) ;
#1118 = EDGE_CURVE ( 'NONE', #339, #553, #1068, .T. ) ;
#1119 = DIRECTION ( 'NONE',  ( -1.000000000000000000, 0.0000000000000000000, 0.0000000000000000000 ) ) ;
#1120 = CARTESIAN_POINT ( 'NONE',  ( 0.5000000000000002200, 1.000000000000000000, -0.8000000000000000400 ) ) ;
#1121 = CARTESIAN_POINT ( 'NONE',  ( 0.9499999999999999600, 1.000000000000000000, 0.7499999999999997800 ) ) ;
#1122 = LINE ( 'NONE', #1029, #874 ) ;
#1123 = CARTESIAN_POINT ( 'NONE',  ( 0.9499999999999999600, 0.05000000000000000300, 0.7499999999999997800 ) ) ;
#1124 = VECTOR ( 'NONE', #849, 1000.000000000000000 ) ;
#1125 = ORIENTED_EDGE ( 'NONE', *, *, #752, .T. ) ;
#1126 = ORIENTED_EDGE ( 'NONE', *, *, #395, .T. ) ;
#1127 = DIRECTION ( 'NONE',  ( -1.000000000000000000, 0.0000000000000000000, 0.0000000000000000000 ) ) ;
#1128 = DIRECTION ( 'NONE',  ( 0.0000000000000000000, 0.0000000000000000000, -1.000000000000000000 ) ) ;
#1129 = ORIENTED_EDGE ( 'NONE', *, *, #1066, .T. ) ;
#1130 = EDGE_LOOP ( 'NONE', ( #759, #813, #961 ) ) ;
#1131 = EDGE_CURVE ( 'NONE', #1267, #692, #1143, .T. ) ;
#1132 = CARTESIAN_POINT ( 'NONE',  ( 500000.0000000000600, 0.05000000000000002400, -0.7833333333767013000 ) ) ;
#1133 = DIRECTION ( 'NONE',  ( -1.000000000000000000, 0.0000000000000000000, 0.0000000000000000000 ) ) ;
#1134 = DIRECTION ( 'NONE',  ( -1.445602896647340100E-016, 0.0000000000000000000, -1.000000000000000000 ) ) ;
#1135 = DIRECTION ( 'NONE',  ( 0.0000000000000000000, 0.0000000000000000000, 1.000000000000000000 ) ) ;
#1136 = STYLED_ITEM ( 'NONE', ( #1222 ), #1229 ) ;
#1137 = APPLICATION_CONTEXT ( 'automotive_design' ) ;
#1138 = LINE ( 'NONE', #551, #1044 ) ;
#1139 = DIRECTION ( 'NONE',  ( 0.0000000000000000000, -1.000000000000000000, 0.0000000000000000000 ) ) ;
#1140 = CYLINDRICAL_SURFACE ( 'NONE', #110, 0.05000000000000002400 ) ;
#1141 = AXIS2_PLACEMENT_3D ( 'NONE', #455, #472, #1128 ) ;
#1142 = VERTEX_POINT ( 'NONE', #1121 ) ;
#1143 = LINE ( 'NONE', #136, #895 ) ;
#1144 = ORIENTED_EDGE ( 'NONE', *, *, #640, .T. ) ;
#1145 = LINE ( 'NONE', #17, #1112 ) ;
#1146 =( NAMED_UNIT ( * ) PLANE_ANGLE_UNIT ( ) SI_UNIT ( $, .RADIAN. ) );
#1147 = FILL_AREA_STYLE_COLOUR ( '', #1199 ) ;
#1148 = CARTESIAN_POINT ( 'NONE',  ( -0.9500000000000001800, 0.9499999999999999600, -0.7500000000000000000 ) ) ;
#1149 = ORIENTED_EDGE ( 'NONE', *, *, #1051, .F. ) ;
#1150 = AXIS2_PLACEMENT_3D ( 'NONE', #1148, #861, #382 ) ;
#1151 = DIRECTION ( 'NONE',  ( 0.0000000000000000000, 0.0000000000000000000, 1.000000000000000000 ) ) ;
#1152 = DIRECTION ( 'NONE',  ( 1.000000000000000000, -0.0000000000000000000, -1.355252715606880800E-016 ) ) ;
#1153 = DIRECTION ( 'NONE',  ( 0.0000000000000000000, 0.0000000000000000000, 1.000000000000000000 ) ) ;
#1154 = LINE ( 'NONE', #618, #905 ) ;
#1155 = VECTOR ( 'NONE', #741, 1000.000000000000000 ) ;
#1156 = EDGE_CURVE ( 'NONE', #81, #746, #276, .T. ) ;
#1157 = ORIENTED_EDGE ( 'NONE', *, *, #230, .F. ) ;
#1158 = DIRECTION ( 'NONE',  ( -1.000000000000000000, 0.0000000000000000000, 0.0000000000000000000 ) ) ;
#1159 = VERTEX_POINT ( 'NONE', #456 ) ;
#1160 = VECTOR ( 'NONE', #991, 1000.000000000000000 ) ;
#1161 = ORIENTED_EDGE ( 'NONE', *, *, #575, .F. ) ;
#1162 = ORIENTED_EDGE ( 'NONE', *, *, #470, .F. ) ;
#1163 = ORIENTED_EDGE ( 'NONE', *, *, #258, .T. ) ;
#1164 =( GEOMETRIC_REPRESENTATION_CONTEXT ( 3 ) GLOBAL_UNCERTAINTY_ASSIGNED_CONTEXT ( ( #122 ) ) GLOBAL_UNIT_ASSIGNED_CONTEXT ( ( #790, #680, #498 ) ) REPRESENTATION_CONTEXT ( 'NONE', 'WORKASPACE' ) );
#1165 = CARTESIAN_POINT ( 'NONE',  ( 1.000000000000000200, 0.9499999999999999600, -0.8000000000000000400 ) ) ;
#1166 = CARTESIAN_POINT ( 'NONE',  ( -0.9499999999999999600, 0.05000000000000000300, 0.7499999999999997800 ) ) ;
#1167 = VECTOR ( 'NONE', #364, 1000.000000000000000 ) ;
#1168 = APPLICATION_CONTEXT ( 'automotive_design' ) ;
#1169 = CARTESIAN_POINT ( 'NONE',  ( -1.000000000000000000, 1.000000000000000000, 0.7999999999999998200 ) ) ;
#1170 = CYLINDRICAL_SURFACE ( 'NONE', #994, 0.05000000000000002400 ) ;
#1171 =( GEOMETRIC_REPRESENTATION_CONTEXT ( 3 ) GLOBAL_UNCERTAINTY_ASSIGNED_CONTEXT ( ( #478 ) ) GLOBAL_UNIT_ASSIGNED_CONTEXT ( ( #259, #463, #49 ) ) REPRESENTATION_CONTEXT ( 'NONE', 'WORKASPACE' ) );
#1172 = CYLINDRICAL_SURFACE ( 'NONE', #577, 0.04999999999999991300 ) ;
#1173 = EDGE_CURVE ( 'NONE', #486, #987, #248, .T. ) ;
#1174 = ORIENTED_EDGE ( 'NONE', *, *, #846, .F. ) ;
#1175 = CIRCLE ( 'NONE', #1249, 0.05000000000000002400 ) ;
#1176 = ORIENTED_EDGE ( 'NONE', *, *, #392, .T. ) ;
#1177 = VECTOR ( 'NONE', #979, 1000.000000000000000 ) ;
#1178 = EDGE_LOOP ( 'NONE', ( #112, #292, #510, #700 ) ) ;
#1179 = PRODUCT_DEFINITION_SHAPE ( 'NONE', 'NONE',  #890 ) ;
#1180 = DIRECTION ( 'NONE',  ( 1.000000000000000000, 0.0000000000000000000, 0.0000000000000000000 ) ) ;
#1181 = AXIS2_PLACEMENT_3D ( 'NONE', #907, #500, #1180 ) ;
#1182 = EDGE_CURVE ( 'NONE', #360, #1265, #554, .T. ) ;
#1183 = DIRECTION ( 'NONE',  ( 0.0000000000000000000, 0.0000000000000000000, 1.000000000000000000 ) ) ;
#1184 = EDGE_CURVE ( 'NONE', #774, #673, #945, .T. ) ;
#1185 = FACE_OUTER_BOUND ( 'NONE', #1189, .T. ) ;
#1186 = CARTESIAN_POINT ( 'NONE',  ( 500000.0000000000600, 0.05000000000000002400, 0.7499999999566318000 ) ) ;
#1187 = ORIENTED_EDGE ( 'NONE', *, *, #214, .F. ) ;
#1188 = PLANE ( 'NONE',  #1092 ) ;
#1189 = EDGE_LOOP ( 'NONE', ( #1256, #800, #656, #453 ) ) ;
#1190 = DIRECTION ( 'NONE',  ( 0.0000000000000000000, 0.0000000000000000000, 1.000000000000000000 ) ) ;
#1191 = EDGE_LOOP ( 'NONE', ( #727, #1083, #275, #206 ) ) ;
#1192 = CARTESIAN_POINT ( 'NONE',  ( -0.9500000000000001800, 1.000000000000000000, -0.7500000000000000000 ) ) ;
#1193 = ADVANCED_FACE ( 'NONE', ( #657 ), #959, .T. ) ;
#1194 = AXIS2_PLACEMENT_3D ( 'NONE', #1123, #1216, #1127 ) ;
#1195 = EDGE_CURVE ( 'NONE', #1049, #362, #783, .T. ) ;
#1196 = DIRECTION ( 'NONE',  ( -1.000000000000000000, -0.0000000000000000000, -0.0000000000000000000 ) ) ;
#1197 = FACE_OUTER_BOUND ( 'NONE', #465, .T. ) ;
#1198 = CARTESIAN_POINT ( 'NONE',  ( 0.0000000000000000000, 0.9499999999999999600, -0.7500000000000000000 ) ) ;
#1199 = COLOUR_RGB ( '',0.2509803921568627400, 0.2509803921568627400, 0.2509803921568627400 ) ;
#1200 = VECTOR ( 'NONE', #756, 1000.000000000000000 ) ;
#1201 = ADVANCED_FACE ( 'NONE', ( #142 ), #1172, .T. ) ;
#1202 = CARTESIAN_POINT ( 'NONE',  ( -0.9499999999999999600, 0.05000000000000002400, 0.7499999999999997800 ) ) ;
#1203 = CIRCLE ( 'NONE', #454, 0.05000000000000002400 ) ;
#1204 = VERTEX_POINT ( 'NONE', #684 ) ;
#1205 = SPHERICAL_SURFACE ( 'NONE', #346, 0.05000000000000000300 ) ;
#1206 = CARTESIAN_POINT ( 'NONE',  ( -1.000000000000000200, 0.9499999999999999600, -0.7500000000000000000 ) ) ;
#1207 = PRODUCT_DEFINITION_FORMATION_WITH_SPECIFIED_SOURCE ( 'ANY', '', #252, .NOT_KNOWN. ) ;
#1208 = ORIENTED_EDGE ( 'NONE', *, *, #477, .T. ) ;
#1209 = FACE_OUTER_BOUND ( 'NONE', #357, .T. ) ;
#1210 = AXIS2_PLACEMENT_3D ( 'NONE', #209, #518, #716 ) ;
#1211 = DIRECTION ( 'NONE',  ( 0.0000000000000000000, 0.0000000000000000000, 1.000000000000000000 ) ) ;
#1212 = CARTESIAN_POINT ( 'NONE',  ( 0.4999999999881765700, 0.9499999999999999600, 0.7833333333333332100 ) ) ;
#1213 = DIRECTION ( 'NONE',  ( 1.000000000000000000, 0.0000000000000000000, -8.673617379884036700E-017 ) ) ;
#1214 = AXIS2_PLACEMENT_3D ( 'NONE', #858, #249, #669 ) ;
#1215 = EDGE_CURVE ( 'NONE', #1061, #746, #1203, .T. ) ;
#1216 = DIRECTION ( 'NONE',  ( 0.0000000000000000000, -1.000000000000000000, 0.0000000000000000000 ) ) ;
#1217 = DIRECTION ( 'NONE',  ( -0.0000000000000000000, -1.000000000000000000, -0.0000000000000000000 ) ) ;
#1218 = LINE ( 'NONE', #150, #1167 ) ;
#1219 = DIRECTION ( 'NONE',  ( 0.0000000000000000000, -1.000000000000000000, 0.0000000000000000000 ) ) ;
#1220 = ORIENTED_EDGE ( 'NONE', *, *, #859, .T. ) ;
#1221 = CARTESIAN_POINT ( 'NONE',  ( 1.000000000000000200, 0.05000000000000002400, -0.8000000000000000400 ) ) ;
#1222 = PRESENTATION_STYLE_ASSIGNMENT (( #565 ) ) ;
#1223 = EDGE_LOOP ( 'NONE', ( #731, #228, #1070, #706 ) ) ;
#1224 = ORIENTED_EDGE ( 'NONE', *, *, #736, .T. ) ;
#1225 = DIRECTION ( 'NONE',  ( -1.000000000000000000, -0.0000000000000000000, 8.673617379884036700E-017 ) ) ;
#1226 = EDGE_CURVE ( 'NONE', #894, #360, #464, .T. ) ;
#1227 = ORIENTED_EDGE ( 'NONE', *, *, #499, .T. ) ;
#1228 = DIRECTION ( 'NONE',  ( 1.000000000000000000, 0.0000000000000000000, -8.673617379884036700E-017 ) ) ;
#1229 = MANIFOLD_SOLID_BREP ( 'Mirror2', #1057 ) ;
#1230 = DIRECTION ( 'NONE',  ( -1.000000000000000000, 0.0000000000000000000, -1.355252715606880800E-016 ) ) ;
#1231 = DIRECTION ( 'NONE',  ( -1.000000000000000000, 0.0000000000000000000, 8.673617379884036700E-017 ) ) ;
#1232 = CIRCLE ( 'NONE', #1065, 0.05000000000000002400 ) ;
#1233 = DIRECTION ( 'NONE',  ( 1.000000000000000000, 0.0000000000000000000, 0.0000000000000000000 ) ) ;
#1234 = FACE_OUTER_BOUND ( 'NONE', #884, .T. ) ;
#1235 = CARTESIAN_POINT ( 'NONE',  ( -0.9499999999999999600, 0.0000000000000000000, 0.7499999999999997800 ) ) ;
#1236 = LINE ( 'NONE', #930, #1155 ) ;
#1237 = LINE ( 'NONE', #1018, #171 ) ;
#1238 = DIRECTION ( 'NONE',  ( 1.355252715606880800E-016, -0.0000000000000000000, 1.000000000000000000 ) ) ;
#1239 = ORIENTED_EDGE ( 'NONE', *, *, #587, .F. ) ;
#1240 = EDGE_LOOP ( 'NONE', ( #1, #931, #1017 ) ) ;
#1241 = FACE_OUTER_BOUND ( 'NONE', #253, .T. ) ;
#1242 = AXIS2_PLACEMENT_3D ( 'NONE', #1169, #1063, #576 ) ;
#1243 = ORIENTED_EDGE ( 'NONE', *, *, #19, .T. ) ;
#1244 = EDGE_CURVE ( 'NONE', #1094, #1072, #190, .T. ) ;
#1245 = CARTESIAN_POINT ( 'NONE',  ( 0.9500000000000001800, 0.0000000000000000000, -0.7500000000000000000 ) ) ;
#1246 = DIRECTION ( 'NONE',  ( -1.000000000000000000, -0.0000000000000000000, -0.0000000000000000000 ) ) ;
#1247 = DIRECTION ( 'NONE',  ( 1.000000000000000000, 0.0000000000000000000, 1.355252715606880800E-016 ) ) ;
#1248 = FACE_OUTER_BOUND ( 'NONE', #280, .T. ) ;
#1249 = AXIS2_PLACEMENT_3D ( 'NONE', #630, #841, #743 ) ;
#1250 = CARTESIAN_POINT ( 'NONE',  ( 500000.0000000000600, 0.01666666666666666600, -0.7500000000433678600 ) ) ;
#1251 = AXIS2_PLACEMENT_3D ( 'NONE', #1038, #820, #333 ) ;
#1252 = ORIENTED_EDGE ( 'NONE', *, *, #699, .T. ) ;
#1253 = VERTEX_POINT ( 'NONE', #886 ) ;
#1254 = EDGE_CURVE ( 'NONE', #567, #1049, #126, .T. ) ;
#1255 = VERTEX_POINT ( 'NONE', #793 ) ;
#1256 = ORIENTED_EDGE ( 'NONE', *, *, #182, .T. ) ;
#1257 = CARTESIAN_POINT ( 'NONE',  ( 500000.0000000000600, 0.05000000000000002400, -0.7500000000433679800 ) ) ;
#1258 = CARTESIAN_POINT ( 'NONE',  ( -0.5000000000000002200, 0.05000000000000002400, -0.7833333333333332100 ) ) ;
#1259 = AXIS2_PLACEMENT_3D ( 'NONE', #137, #957, #1073 ) ;
#1260 = PRESENTATION_STYLE_ASSIGNMENT (( #60 ) ) ;
#1261 = EDGE_CURVE ( 'NONE', #1255, #854, #374, .T. ) ;
#1262 = CARTESIAN_POINT ( 'NONE',  ( -0.5000000000000000000, 0.01666666666666667300, 0.7499999999999993300 ) ) ;
#1263 = ORIENTED_EDGE ( 'NONE', *, *, #811, .T. ) ;
#1264 = VECTOR ( 'NONE', #422, 1000.000000000000000 ) ;
#1265 = VERTEX_POINT ( 'NONE', #355 ) ;
#1266 = LINE ( 'NONE', #384, #964 ) ;
#1267 = VERTEX_POINT ( 'NONE', #1262 ) ;
#1268 = SURFACE_STYLE_USAGE ( .BOTH. , #582 ) ;
#1269 = ORIENTED_EDGE ( 'NONE', *, *, #147, .T. ) ;
#1270 = AXIS2_PLACEMENT_3D ( 'NONE', #605, #294, #7 ) ;
#1271 = DIRECTION ( 'NONE',  ( 1.000000000000000000, 0.0000000000000000000, 0.0000000000000000000 ) ) ;
#1272 = AXIS2_PLACEMENT_3D ( 'NONE', #1027, #224, #784 ) ;
#1273 = CARTESIAN_POINT ( 'NONE',  ( 0.4999999999881765700, 0.9499999999999999600, -0.7499999999999998900 ) ) ;
#1274 = DIRECTION ( 'NONE',  ( -0.0000000000000000000, 1.000000000000000000, -0.0000000000000000000 ) ) ;
#1275 = FACE_OUTER_BOUND ( 'NONE', #247, .T. ) ;
#1276 = AXIS2_PLACEMENT_3D ( 'NONE', #348, #664, #969 ) ;
#1277 = AXIS2_PLACEMENT_3D ( 'NONE', #792, #818, #413 ) ;
#1278 = ORIENTED_EDGE ( 'NONE', *, *, #311, .T. ) ;
#1279 = FACE_OUTER_BOUND ( 'NONE', #1130, .T. ) ;
#1280 = ORIENTED_EDGE ( 'NONE', *, *, #1028, .T. ) ;
ENDSEC;
END-ISO-10303-21;
