ISO-10303-21;
HEADER;
/* Generated by software containing ST-Developer
 * from STEP Tools, Inc. (www.steptools.com) 
 */

FILE_DESCRIPTION(
/* description */ ('',
'CAx-IF Rec.Pracs.---Representation and Presentation of Product Manufa
cturing Information (PMI)---4.0---2014-10-13'),
/* implementation_level */ '2;1');

FILE_NAME(
/* name */ 'NPPN031FGGN_RC.step',
/* time_stamp */ '2025-03-04T22:50:46-05:00',
/* author */ (''),
/* organization */ (''),
/* preprocessor_version */ 'ST-DEVELOPER v20',
/* originating_system */ 'Autodesk Translation Framework v13.20.0.188',

/* authorisation */ '');

FILE_SCHEMA (('AP242_MANAGED_MODEL_BASED_3D_ENGINEERING_MIM_LF { 1 0 10303 442 1 1 4 }'));
ENDSEC;

DATA;
#10=MECHANICAL_DESIGN_GEOMETRIC_PRESENTATION_REPRESENTATION('',(#22,#23,
#24,#25),#1356);
#11=SHAPE_REPRESENTATION_RELATIONSHIP('SRR','None',#1363,#12);
#12=ADVANCED_BREP_SHAPE_REPRESENTATION('',(#26,#27,#28,#29),#1355);
#13=CIRCLE('',#885,0.2);
#14=CIRCLE('',#886,0.2);
#15=CIRCLE('',#893,0.2);
#16=CIRCLE('',#896,0.2);
#17=CIRCLE('',#901,0.2);
#18=CIRCLE('',#902,0.2);
#19=CYLINDRICAL_SURFACE('',#884,0.2);
#20=CYLINDRICAL_SURFACE('',#897,0.2);
#21=CYLINDRICAL_SURFACE('',#900,0.2);
#22=STYLED_ITEM('',(#1373),#26);
#23=STYLED_ITEM('',(#1374),#27);
#24=STYLED_ITEM('',(#1374),#28);
#25=STYLED_ITEM('',(#1374),#29);
#26=MANIFOLD_SOLID_BREP('Body1',#833);
#27=MANIFOLD_SOLID_BREP('Body5',#834);
#28=MANIFOLD_SOLID_BREP('Body6',#835);
#29=MANIFOLD_SOLID_BREP('Body7',#836);
#30=FACE_BOUND('',#91,.T.);
#31=FACE_BOUND('',#92,.T.);
#32=FACE_BOUND('',#93,.T.);
#33=FACE_OUTER_BOUND('',#84,.T.);
#34=FACE_OUTER_BOUND('',#85,.T.);
#35=FACE_OUTER_BOUND('',#86,.T.);
#36=FACE_OUTER_BOUND('',#87,.T.);
#37=FACE_OUTER_BOUND('',#88,.T.);
#38=FACE_OUTER_BOUND('',#89,.T.);
#39=FACE_OUTER_BOUND('',#90,.T.);
#40=FACE_OUTER_BOUND('',#94,.T.);
#41=FACE_OUTER_BOUND('',#95,.T.);
#42=FACE_OUTER_BOUND('',#96,.T.);
#43=FACE_OUTER_BOUND('',#97,.T.);
#44=FACE_OUTER_BOUND('',#98,.T.);
#45=FACE_OUTER_BOUND('',#99,.T.);
#46=FACE_OUTER_BOUND('',#100,.T.);
#47=FACE_OUTER_BOUND('',#101,.T.);
#48=FACE_OUTER_BOUND('',#102,.T.);
#49=FACE_OUTER_BOUND('',#103,.T.);
#50=FACE_OUTER_BOUND('',#104,.T.);
#51=FACE_OUTER_BOUND('',#105,.T.);
#52=FACE_OUTER_BOUND('',#106,.T.);
#53=FACE_OUTER_BOUND('',#107,.T.);
#54=FACE_OUTER_BOUND('',#108,.T.);
#55=FACE_OUTER_BOUND('',#109,.T.);
#56=FACE_OUTER_BOUND('',#110,.T.);
#57=FACE_OUTER_BOUND('',#111,.T.);
#58=FACE_OUTER_BOUND('',#112,.T.);
#59=FACE_OUTER_BOUND('',#113,.T.);
#60=FACE_OUTER_BOUND('',#114,.T.);
#61=FACE_OUTER_BOUND('',#115,.T.);
#62=FACE_OUTER_BOUND('',#116,.T.);
#63=FACE_OUTER_BOUND('',#117,.T.);
#64=FACE_OUTER_BOUND('',#118,.T.);
#65=FACE_OUTER_BOUND('',#119,.T.);
#66=FACE_OUTER_BOUND('',#120,.T.);
#67=FACE_OUTER_BOUND('',#121,.T.);
#68=FACE_OUTER_BOUND('',#122,.T.);
#69=FACE_OUTER_BOUND('',#123,.T.);
#70=FACE_OUTER_BOUND('',#124,.T.);
#71=FACE_OUTER_BOUND('',#125,.T.);
#72=FACE_OUTER_BOUND('',#126,.T.);
#73=FACE_OUTER_BOUND('',#127,.T.);
#74=FACE_OUTER_BOUND('',#128,.T.);
#75=FACE_OUTER_BOUND('',#129,.T.);
#76=FACE_OUTER_BOUND('',#130,.T.);
#77=FACE_OUTER_BOUND('',#131,.T.);
#78=FACE_OUTER_BOUND('',#132,.T.);
#79=FACE_OUTER_BOUND('',#133,.T.);
#80=FACE_OUTER_BOUND('',#134,.T.);
#81=FACE_OUTER_BOUND('',#135,.T.);
#82=FACE_OUTER_BOUND('',#136,.T.);
#83=FACE_OUTER_BOUND('',#137,.T.);
#84=EDGE_LOOP('',(#518,#519,#520,#521));
#85=EDGE_LOOP('',(#522,#523,#524,#525));
#86=EDGE_LOOP('',(#526,#527,#528,#529));
#87=EDGE_LOOP('',(#530,#531,#532,#533));
#88=EDGE_LOOP('',(#534,#535,#536,#537));
#89=EDGE_LOOP('',(#538,#539,#540,#541));
#90=EDGE_LOOP('',(#542,#543,#544,#545));
#91=EDGE_LOOP('',(#546,#547,#548,#549));
#92=EDGE_LOOP('',(#550,#551,#552,#553));
#93=EDGE_LOOP('',(#554,#555,#556,#557));
#94=EDGE_LOOP('',(#558,#559,#560,#561));
#95=EDGE_LOOP('',(#562,#563,#564,#565));
#96=EDGE_LOOP('',(#566,#567,#568,#569));
#97=EDGE_LOOP('',(#570,#571,#572,#573));
#98=EDGE_LOOP('',(#574,#575,#576,#577));
#99=EDGE_LOOP('',(#578,#579,#580,#581));
#100=EDGE_LOOP('',(#582,#583,#584,#585));
#101=EDGE_LOOP('',(#586,#587,#588,#589));
#102=EDGE_LOOP('',(#590,#591,#592,#593));
#103=EDGE_LOOP('',(#594,#595,#596,#597));
#104=EDGE_LOOP('',(#598,#599,#600,#601));
#105=EDGE_LOOP('',(#602,#603,#604,#605));
#106=EDGE_LOOP('',(#606,#607,#608,#609));
#107=EDGE_LOOP('',(#610,#611,#612,#613));
#108=EDGE_LOOP('',(#614,#615,#616,#617));
#109=EDGE_LOOP('',(#618,#619,#620,#621));
#110=EDGE_LOOP('',(#622,#623,#624,#625));
#111=EDGE_LOOP('',(#626,#627,#628,#629));
#112=EDGE_LOOP('',(#630,#631,#632,#633));
#113=EDGE_LOOP('',(#634,#635,#636,#637));
#114=EDGE_LOOP('',(#638,#639,#640,#641));
#115=EDGE_LOOP('',(#642,#643,#644,#645));
#116=EDGE_LOOP('',(#646,#647,#648,#649));
#117=EDGE_LOOP('',(#650,#651,#652,#653));
#118=EDGE_LOOP('',(#654,#655,#656,#657));
#119=EDGE_LOOP('',(#658,#659,#660,#661));
#120=EDGE_LOOP('',(#662,#663,#664,#665));
#121=EDGE_LOOP('',(#666,#667,#668,#669));
#122=EDGE_LOOP('',(#670,#671,#672,#673));
#123=EDGE_LOOP('',(#674,#675,#676,#677));
#124=EDGE_LOOP('',(#678,#679,#680,#681));
#125=EDGE_LOOP('',(#682,#683,#684,#685));
#126=EDGE_LOOP('',(#686,#687,#688,#689));
#127=EDGE_LOOP('',(#690,#691,#692,#693));
#128=EDGE_LOOP('',(#694,#695,#696,#697));
#129=EDGE_LOOP('',(#698,#699,#700,#701));
#130=EDGE_LOOP('',(#702,#703,#704,#705));
#131=EDGE_LOOP('',(#706,#707,#708,#709));
#132=EDGE_LOOP('',(#710,#711,#712,#713));
#133=EDGE_LOOP('',(#714,#715,#716,#717));
#134=EDGE_LOOP('',(#718,#719,#720,#721));
#135=EDGE_LOOP('',(#722,#723,#724,#725));
#136=EDGE_LOOP('',(#726,#727,#728,#729));
#137=EDGE_LOOP('',(#730,#731,#732,#733));
#138=LINE('',#1129,#240);
#139=LINE('',#1131,#241);
#140=LINE('',#1133,#242);
#141=LINE('',#1134,#243);
#142=LINE('',#1137,#244);
#143=LINE('',#1139,#245);
#144=LINE('',#1140,#246);
#145=LINE('',#1143,#247);
#146=LINE('',#1145,#248);
#147=LINE('',#1146,#249);
#148=LINE('',#1148,#250);
#149=LINE('',#1149,#251);
#150=LINE('',#1152,#252);
#151=LINE('',#1154,#253);
#152=LINE('',#1155,#254);
#153=LINE('',#1158,#255);
#154=LINE('',#1159,#256);
#155=LINE('',#1163,#257);
#156=LINE('',#1165,#258);
#157=LINE('',#1167,#259);
#158=LINE('',#1168,#260);
#159=LINE('',#1171,#261);
#160=LINE('',#1173,#262);
#161=LINE('',#1175,#263);
#162=LINE('',#1176,#264);
#163=LINE('',#1179,#265);
#164=LINE('',#1181,#266);
#165=LINE('',#1183,#267);
#166=LINE('',#1184,#268);
#167=LINE('',#1187,#269);
#168=LINE('',#1189,#270);
#169=LINE('',#1190,#271);
#170=LINE('',#1193,#272);
#171=LINE('',#1194,#273);
#172=LINE('',#1197,#274);
#173=LINE('',#1198,#275);
#174=LINE('',#1200,#276);
#175=LINE('',#1203,#277);
#176=LINE('',#1205,#278);
#177=LINE('',#1206,#279);
#178=LINE('',#1209,#280);
#179=LINE('',#1210,#281);
#180=LINE('',#1213,#282);
#181=LINE('',#1215,#283);
#182=LINE('',#1216,#284);
#183=LINE('',#1219,#285);
#184=LINE('',#1221,#286);
#185=LINE('',#1222,#287);
#186=LINE('',#1224,#288);
#187=LINE('',#1226,#289);
#188=LINE('',#1229,#290);
#189=LINE('',#1231,#291);
#190=LINE('',#1232,#292);
#191=LINE('',#1235,#293);
#192=LINE('',#1236,#294);
#193=LINE('',#1239,#295);
#194=LINE('',#1241,#296);
#195=LINE('',#1242,#297);
#196=LINE('',#1245,#298);
#197=LINE('',#1246,#299);
#198=LINE('',#1249,#300);
#199=LINE('',#1250,#301);
#200=LINE('',#1252,#302);
#201=LINE('',#1255,#303);
#202=LINE('',#1256,#304);
#203=LINE('',#1258,#305);
#204=LINE('',#1262,#306);
#205=LINE('',#1263,#307);
#206=LINE('',#1265,#308);
#207=LINE('',#1269,#309);
#208=LINE('',#1270,#310);
#209=LINE('',#1272,#311);
#210=LINE('',#1278,#312);
#211=LINE('',#1280,#313);
#212=LINE('',#1282,#314);
#213=LINE('',#1283,#315);
#214=LINE('',#1287,#316);
#215=LINE('',#1292,#317);
#216=LINE('',#1293,#318);
#217=LINE('',#1296,#319);
#218=LINE('',#1297,#320);
#219=LINE('',#1299,#321);
#220=LINE('',#1304,#322);
#221=LINE('',#1306,#323);
#222=LINE('',#1308,#324);
#223=LINE('',#1309,#325);
#224=LINE('',#1312,#326);
#225=LINE('',#1314,#327);
#226=LINE('',#1318,#328);
#227=LINE('',#1319,#329);
#228=LINE('',#1322,#330);
#229=LINE('',#1325,#331);
#230=LINE('',#1330,#332);
#231=LINE('',#1332,#333);
#232=LINE('',#1334,#334);
#233=LINE('',#1335,#335);
#234=LINE('',#1339,#336);
#235=LINE('',#1344,#337);
#236=LINE('',#1345,#338);
#237=LINE('',#1348,#339);
#238=LINE('',#1349,#340);
#239=LINE('',#1351,#341);
#240=VECTOR('',#911,10.);
#241=VECTOR('',#912,10.);
#242=VECTOR('',#913,10.);
#243=VECTOR('',#914,10.);
#244=VECTOR('',#917,10.);
#245=VECTOR('',#918,10.);
#246=VECTOR('',#919,10.);
#247=VECTOR('',#922,10.);
#248=VECTOR('',#923,10.);
#249=VECTOR('',#924,10.);
#250=VECTOR('',#927,10.);
#251=VECTOR('',#928,10.);
#252=VECTOR('',#931,10.);
#253=VECTOR('',#932,10.);
#254=VECTOR('',#933,10.);
#255=VECTOR('',#936,10.);
#256=VECTOR('',#937,10.);
#257=VECTOR('',#940,10.);
#258=VECTOR('',#941,10.);
#259=VECTOR('',#942,10.);
#260=VECTOR('',#943,10.);
#261=VECTOR('',#944,10.);
#262=VECTOR('',#945,10.);
#263=VECTOR('',#946,10.);
#264=VECTOR('',#947,10.);
#265=VECTOR('',#948,10.);
#266=VECTOR('',#949,10.);
#267=VECTOR('',#950,10.);
#268=VECTOR('',#951,10.);
#269=VECTOR('',#954,10.);
#270=VECTOR('',#955,10.);
#271=VECTOR('',#956,10.);
#272=VECTOR('',#959,10.);
#273=VECTOR('',#960,10.);
#274=VECTOR('',#963,10.);
#275=VECTOR('',#964,10.);
#276=VECTOR('',#967,10.);
#277=VECTOR('',#970,10.);
#278=VECTOR('',#971,10.);
#279=VECTOR('',#972,10.);
#280=VECTOR('',#975,10.);
#281=VECTOR('',#976,10.);
#282=VECTOR('',#979,10.);
#283=VECTOR('',#980,10.);
#284=VECTOR('',#981,10.);
#285=VECTOR('',#984,10.);
#286=VECTOR('',#985,10.);
#287=VECTOR('',#986,10.);
#288=VECTOR('',#989,10.);
#289=VECTOR('',#992,10.);
#290=VECTOR('',#995,10.);
#291=VECTOR('',#996,10.);
#292=VECTOR('',#997,10.);
#293=VECTOR('',#1000,10.);
#294=VECTOR('',#1001,10.);
#295=VECTOR('',#1004,10.);
#296=VECTOR('',#1005,10.);
#297=VECTOR('',#1006,10.);
#298=VECTOR('',#1009,10.);
#299=VECTOR('',#1010,10.);
#300=VECTOR('',#1013,10.);
#301=VECTOR('',#1014,10.);
#302=VECTOR('',#1017,10.);
#303=VECTOR('',#1020,10.);
#304=VECTOR('',#1021,10.);
#305=VECTOR('',#1024,10.);
#306=VECTOR('',#1029,10.);
#307=VECTOR('',#1030,10.);
#308=VECTOR('',#1033,10.);
#309=VECTOR('',#1038,10.);
#310=VECTOR('',#1039,10.);
#311=VECTOR('',#1042,10.);
#312=VECTOR('',#1049,10.);
#313=VECTOR('',#1050,10.);
#314=VECTOR('',#1051,10.);
#315=VECTOR('',#1052,10.);
#316=VECTOR('',#1055,10.);
#317=VECTOR('',#1062,10.);
#318=VECTOR('',#1063,10.);
#319=VECTOR('',#1066,10.);
#320=VECTOR('',#1067,10.);
#321=VECTOR('',#1070,10.);
#322=VECTOR('',#1075,10.);
#323=VECTOR('',#1076,10.);
#324=VECTOR('',#1077,10.);
#325=VECTOR('',#1078,10.);
#326=VECTOR('',#1081,10.);
#327=VECTOR('',#1082,10.);
#328=VECTOR('',#1087,10.);
#329=VECTOR('',#1088,10.);
#330=VECTOR('',#1091,10.);
#331=VECTOR('',#1096,10.);
#332=VECTOR('',#1101,10.);
#333=VECTOR('',#1102,10.);
#334=VECTOR('',#1103,10.);
#335=VECTOR('',#1104,10.);
#336=VECTOR('',#1107,10.);
#337=VECTOR('',#1114,10.);
#338=VECTOR('',#1115,10.);
#339=VECTOR('',#1118,10.);
#340=VECTOR('',#1119,10.);
#341=VECTOR('',#1122,10.);
#342=VERTEX_POINT('',#1127);
#343=VERTEX_POINT('',#1128);
#344=VERTEX_POINT('',#1130);
#345=VERTEX_POINT('',#1132);
#346=VERTEX_POINT('',#1136);
#347=VERTEX_POINT('',#1138);
#348=VERTEX_POINT('',#1142);
#349=VERTEX_POINT('',#1144);
#350=VERTEX_POINT('',#1151);
#351=VERTEX_POINT('',#1153);
#352=VERTEX_POINT('',#1157);
#353=VERTEX_POINT('',#1161);
#354=VERTEX_POINT('',#1162);
#355=VERTEX_POINT('',#1164);
#356=VERTEX_POINT('',#1166);
#357=VERTEX_POINT('',#1169);
#358=VERTEX_POINT('',#1170);
#359=VERTEX_POINT('',#1172);
#360=VERTEX_POINT('',#1174);
#361=VERTEX_POINT('',#1177);
#362=VERTEX_POINT('',#1178);
#363=VERTEX_POINT('',#1180);
#364=VERTEX_POINT('',#1182);
#365=VERTEX_POINT('',#1186);
#366=VERTEX_POINT('',#1188);
#367=VERTEX_POINT('',#1192);
#368=VERTEX_POINT('',#1196);
#369=VERTEX_POINT('',#1202);
#370=VERTEX_POINT('',#1204);
#371=VERTEX_POINT('',#1208);
#372=VERTEX_POINT('',#1212);
#373=VERTEX_POINT('',#1214);
#374=VERTEX_POINT('',#1218);
#375=VERTEX_POINT('',#1220);
#376=VERTEX_POINT('',#1228);
#377=VERTEX_POINT('',#1230);
#378=VERTEX_POINT('',#1234);
#379=VERTEX_POINT('',#1238);
#380=VERTEX_POINT('',#1240);
#381=VERTEX_POINT('',#1244);
#382=VERTEX_POINT('',#1248);
#383=VERTEX_POINT('',#1254);
#384=VERTEX_POINT('',#1261);
#385=VERTEX_POINT('',#1268);
#386=VERTEX_POINT('',#1276);
#387=VERTEX_POINT('',#1277);
#388=VERTEX_POINT('',#1279);
#389=VERTEX_POINT('',#1281);
#390=VERTEX_POINT('',#1285);
#391=VERTEX_POINT('',#1286);
#392=VERTEX_POINT('',#1291);
#393=VERTEX_POINT('',#1295);
#394=VERTEX_POINT('',#1302);
#395=VERTEX_POINT('',#1303);
#396=VERTEX_POINT('',#1305);
#397=VERTEX_POINT('',#1307);
#398=VERTEX_POINT('',#1311);
#399=VERTEX_POINT('',#1313);
#400=VERTEX_POINT('',#1317);
#401=VERTEX_POINT('',#1321);
#402=VERTEX_POINT('',#1328);
#403=VERTEX_POINT('',#1329);
#404=VERTEX_POINT('',#1331);
#405=VERTEX_POINT('',#1333);
#406=VERTEX_POINT('',#1337);
#407=VERTEX_POINT('',#1338);
#408=VERTEX_POINT('',#1343);
#409=VERTEX_POINT('',#1347);
#410=EDGE_CURVE('',#342,#343,#138,.T.);
#411=EDGE_CURVE('',#343,#344,#139,.T.);
#412=EDGE_CURVE('',#344,#345,#140,.T.);
#413=EDGE_CURVE('',#345,#342,#141,.T.);
#414=EDGE_CURVE('',#343,#346,#142,.T.);
#415=EDGE_CURVE('',#346,#347,#143,.T.);
#416=EDGE_CURVE('',#347,#344,#144,.T.);
#417=EDGE_CURVE('',#348,#347,#145,.T.);
#418=EDGE_CURVE('',#346,#349,#146,.T.);
#419=EDGE_CURVE('',#349,#348,#147,.T.);
#420=EDGE_CURVE('',#349,#342,#148,.T.);
#421=EDGE_CURVE('',#345,#348,#149,.T.);
#422=EDGE_CURVE('',#345,#350,#150,.T.);
#423=EDGE_CURVE('',#350,#351,#151,.T.);
#424=EDGE_CURVE('',#348,#351,#152,.T.);
#425=EDGE_CURVE('',#344,#352,#153,.T.);
#426=EDGE_CURVE('',#352,#350,#154,.T.);
#427=EDGE_CURVE('',#353,#354,#155,.T.);
#428=EDGE_CURVE('',#354,#355,#156,.T.);
#429=EDGE_CURVE('',#355,#356,#157,.T.);
#430=EDGE_CURVE('',#356,#353,#158,.T.);
#431=EDGE_CURVE('',#357,#358,#159,.T.);
#432=EDGE_CURVE('',#359,#357,#160,.T.);
#433=EDGE_CURVE('',#360,#359,#161,.T.);
#434=EDGE_CURVE('',#358,#360,#162,.T.);
#435=EDGE_CURVE('',#361,#362,#163,.T.);
#436=EDGE_CURVE('',#363,#361,#164,.T.);
#437=EDGE_CURVE('',#364,#363,#165,.T.);
#438=EDGE_CURVE('',#362,#364,#166,.T.);
#439=EDGE_CURVE('',#358,#365,#167,.T.);
#440=EDGE_CURVE('',#365,#366,#168,.T.);
#441=EDGE_CURVE('',#366,#357,#169,.T.);
#442=EDGE_CURVE('',#360,#367,#170,.T.);
#443=EDGE_CURVE('',#367,#365,#171,.T.);
#444=EDGE_CURVE('',#359,#368,#172,.T.);
#445=EDGE_CURVE('',#368,#367,#173,.T.);
#446=EDGE_CURVE('',#366,#368,#174,.T.);
#447=EDGE_CURVE('',#366,#369,#175,.T.);
#448=EDGE_CURVE('',#369,#370,#176,.T.);
#449=EDGE_CURVE('',#368,#370,#177,.T.);
#450=EDGE_CURVE('',#365,#371,#178,.T.);
#451=EDGE_CURVE('',#371,#369,#179,.T.);
#452=EDGE_CURVE('',#363,#372,#180,.T.);
#453=EDGE_CURVE('',#372,#373,#181,.T.);
#454=EDGE_CURVE('',#364,#373,#182,.T.);
#455=EDGE_CURVE('',#362,#374,#183,.T.);
#456=EDGE_CURVE('',#374,#375,#184,.T.);
#457=EDGE_CURVE('',#375,#361,#185,.T.);
#458=EDGE_CURVE('',#373,#374,#186,.T.);
#459=EDGE_CURVE('',#375,#372,#187,.T.);
#460=EDGE_CURVE('',#375,#376,#188,.T.);
#461=EDGE_CURVE('',#376,#377,#189,.T.);
#462=EDGE_CURVE('',#372,#377,#190,.T.);
#463=EDGE_CURVE('',#374,#378,#191,.T.);
#464=EDGE_CURVE('',#378,#376,#192,.T.);
#465=EDGE_CURVE('',#353,#379,#193,.T.);
#466=EDGE_CURVE('',#380,#379,#194,.T.);
#467=EDGE_CURVE('',#354,#380,#195,.T.);
#468=EDGE_CURVE('',#356,#381,#196,.T.);
#469=EDGE_CURVE('',#379,#381,#197,.T.);
#470=EDGE_CURVE('',#355,#382,#198,.T.);
#471=EDGE_CURVE('',#381,#382,#199,.T.);
#472=EDGE_CURVE('',#382,#380,#200,.T.);
#473=EDGE_CURVE('',#383,#352,#201,.T.);
#474=EDGE_CURVE('',#351,#383,#202,.T.);
#475=EDGE_CURVE('',#347,#383,#203,.T.);
#476=EDGE_CURVE('',#384,#371,#204,.T.);
#477=EDGE_CURVE('',#370,#384,#205,.T.);
#478=EDGE_CURVE('',#367,#384,#206,.T.);
#479=EDGE_CURVE('',#385,#378,#207,.T.);
#480=EDGE_CURVE('',#377,#385,#208,.T.);
#481=EDGE_CURVE('',#373,#385,#209,.T.);
#482=EDGE_CURVE('',#386,#387,#210,.T.);
#483=EDGE_CURVE('',#387,#388,#211,.T.);
#484=EDGE_CURVE('',#388,#389,#212,.T.);
#485=EDGE_CURVE('',#386,#389,#213,.T.);
#486=EDGE_CURVE('',#390,#391,#214,.T.);
#487=EDGE_CURVE('',#390,#388,#13,.T.);
#488=EDGE_CURVE('',#391,#387,#14,.T.);
#489=EDGE_CURVE('',#390,#392,#215,.T.);
#490=EDGE_CURVE('',#389,#392,#216,.T.);
#491=EDGE_CURVE('',#391,#393,#217,.T.);
#492=EDGE_CURVE('',#392,#393,#218,.T.);
#493=EDGE_CURVE('',#393,#386,#219,.T.);
#494=EDGE_CURVE('',#394,#395,#220,.T.);
#495=EDGE_CURVE('',#395,#396,#221,.T.);
#496=EDGE_CURVE('',#396,#397,#222,.T.);
#497=EDGE_CURVE('',#397,#394,#223,.T.);
#498=EDGE_CURVE('',#396,#398,#224,.T.);
#499=EDGE_CURVE('',#399,#395,#225,.T.);
#500=EDGE_CURVE('',#399,#398,#15,.T.);
#501=EDGE_CURVE('',#400,#399,#226,.T.);
#502=EDGE_CURVE('',#400,#394,#227,.T.);
#503=EDGE_CURVE('',#401,#397,#228,.T.);
#504=EDGE_CURVE('',#400,#401,#16,.T.);
#505=EDGE_CURVE('',#398,#401,#229,.T.);
#506=EDGE_CURVE('',#402,#403,#230,.T.);
#507=EDGE_CURVE('',#403,#404,#231,.T.);
#508=EDGE_CURVE('',#404,#405,#232,.T.);
#509=EDGE_CURVE('',#402,#405,#233,.T.);
#510=EDGE_CURVE('',#406,#407,#234,.T.);
#511=EDGE_CURVE('',#406,#404,#17,.T.);
#512=EDGE_CURVE('',#407,#403,#18,.T.);
#513=EDGE_CURVE('',#406,#408,#235,.T.);
#514=EDGE_CURVE('',#405,#408,#236,.T.);
#515=EDGE_CURVE('',#407,#409,#237,.T.);
#516=EDGE_CURVE('',#408,#409,#238,.T.);
#517=EDGE_CURVE('',#409,#402,#239,.T.);
#518=ORIENTED_EDGE('',*,*,#410,.T.);
#519=ORIENTED_EDGE('',*,*,#411,.T.);
#520=ORIENTED_EDGE('',*,*,#412,.T.);
#521=ORIENTED_EDGE('',*,*,#413,.T.);
#522=ORIENTED_EDGE('',*,*,#414,.T.);
#523=ORIENTED_EDGE('',*,*,#415,.T.);
#524=ORIENTED_EDGE('',*,*,#416,.T.);
#525=ORIENTED_EDGE('',*,*,#411,.F.);
#526=ORIENTED_EDGE('',*,*,#417,.T.);
#527=ORIENTED_EDGE('',*,*,#415,.F.);
#528=ORIENTED_EDGE('',*,*,#418,.T.);
#529=ORIENTED_EDGE('',*,*,#419,.T.);
#530=ORIENTED_EDGE('',*,*,#420,.T.);
#531=ORIENTED_EDGE('',*,*,#413,.F.);
#532=ORIENTED_EDGE('',*,*,#421,.T.);
#533=ORIENTED_EDGE('',*,*,#419,.F.);
#534=ORIENTED_EDGE('',*,*,#421,.F.);
#535=ORIENTED_EDGE('',*,*,#422,.T.);
#536=ORIENTED_EDGE('',*,*,#423,.T.);
#537=ORIENTED_EDGE('',*,*,#424,.F.);
#538=ORIENTED_EDGE('',*,*,#412,.F.);
#539=ORIENTED_EDGE('',*,*,#425,.T.);
#540=ORIENTED_EDGE('',*,*,#426,.T.);
#541=ORIENTED_EDGE('',*,*,#422,.F.);
#542=ORIENTED_EDGE('',*,*,#427,.T.);
#543=ORIENTED_EDGE('',*,*,#428,.T.);
#544=ORIENTED_EDGE('',*,*,#429,.T.);
#545=ORIENTED_EDGE('',*,*,#430,.T.);
#546=ORIENTED_EDGE('',*,*,#431,.F.);
#547=ORIENTED_EDGE('',*,*,#432,.F.);
#548=ORIENTED_EDGE('',*,*,#433,.F.);
#549=ORIENTED_EDGE('',*,*,#434,.F.);
#550=ORIENTED_EDGE('',*,*,#435,.F.);
#551=ORIENTED_EDGE('',*,*,#436,.F.);
#552=ORIENTED_EDGE('',*,*,#437,.F.);
#553=ORIENTED_EDGE('',*,*,#438,.F.);
#554=ORIENTED_EDGE('',*,*,#410,.F.);
#555=ORIENTED_EDGE('',*,*,#420,.F.);
#556=ORIENTED_EDGE('',*,*,#418,.F.);
#557=ORIENTED_EDGE('',*,*,#414,.F.);
#558=ORIENTED_EDGE('',*,*,#431,.T.);
#559=ORIENTED_EDGE('',*,*,#439,.T.);
#560=ORIENTED_EDGE('',*,*,#440,.T.);
#561=ORIENTED_EDGE('',*,*,#441,.T.);
#562=ORIENTED_EDGE('',*,*,#434,.T.);
#563=ORIENTED_EDGE('',*,*,#442,.T.);
#564=ORIENTED_EDGE('',*,*,#443,.T.);
#565=ORIENTED_EDGE('',*,*,#439,.F.);
#566=ORIENTED_EDGE('',*,*,#433,.T.);
#567=ORIENTED_EDGE('',*,*,#444,.T.);
#568=ORIENTED_EDGE('',*,*,#445,.T.);
#569=ORIENTED_EDGE('',*,*,#442,.F.);
#570=ORIENTED_EDGE('',*,*,#446,.T.);
#571=ORIENTED_EDGE('',*,*,#444,.F.);
#572=ORIENTED_EDGE('',*,*,#432,.T.);
#573=ORIENTED_EDGE('',*,*,#441,.F.);
#574=ORIENTED_EDGE('',*,*,#446,.F.);
#575=ORIENTED_EDGE('',*,*,#447,.T.);
#576=ORIENTED_EDGE('',*,*,#448,.T.);
#577=ORIENTED_EDGE('',*,*,#449,.F.);
#578=ORIENTED_EDGE('',*,*,#440,.F.);
#579=ORIENTED_EDGE('',*,*,#450,.T.);
#580=ORIENTED_EDGE('',*,*,#451,.T.);
#581=ORIENTED_EDGE('',*,*,#447,.F.);
#582=ORIENTED_EDGE('',*,*,#437,.T.);
#583=ORIENTED_EDGE('',*,*,#452,.T.);
#584=ORIENTED_EDGE('',*,*,#453,.T.);
#585=ORIENTED_EDGE('',*,*,#454,.F.);
#586=ORIENTED_EDGE('',*,*,#435,.T.);
#587=ORIENTED_EDGE('',*,*,#455,.T.);
#588=ORIENTED_EDGE('',*,*,#456,.T.);
#589=ORIENTED_EDGE('',*,*,#457,.T.);
#590=ORIENTED_EDGE('',*,*,#458,.T.);
#591=ORIENTED_EDGE('',*,*,#455,.F.);
#592=ORIENTED_EDGE('',*,*,#438,.T.);
#593=ORIENTED_EDGE('',*,*,#454,.T.);
#594=ORIENTED_EDGE('',*,*,#436,.T.);
#595=ORIENTED_EDGE('',*,*,#457,.F.);
#596=ORIENTED_EDGE('',*,*,#459,.T.);
#597=ORIENTED_EDGE('',*,*,#452,.F.);
#598=ORIENTED_EDGE('',*,*,#459,.F.);
#599=ORIENTED_EDGE('',*,*,#460,.T.);
#600=ORIENTED_EDGE('',*,*,#461,.T.);
#601=ORIENTED_EDGE('',*,*,#462,.F.);
#602=ORIENTED_EDGE('',*,*,#456,.F.);
#603=ORIENTED_EDGE('',*,*,#463,.T.);
#604=ORIENTED_EDGE('',*,*,#464,.T.);
#605=ORIENTED_EDGE('',*,*,#460,.F.);
#606=ORIENTED_EDGE('',*,*,#427,.F.);
#607=ORIENTED_EDGE('',*,*,#465,.T.);
#608=ORIENTED_EDGE('',*,*,#466,.F.);
#609=ORIENTED_EDGE('',*,*,#467,.F.);
#610=ORIENTED_EDGE('',*,*,#430,.F.);
#611=ORIENTED_EDGE('',*,*,#468,.T.);
#612=ORIENTED_EDGE('',*,*,#469,.F.);
#613=ORIENTED_EDGE('',*,*,#465,.F.);
#614=ORIENTED_EDGE('',*,*,#429,.F.);
#615=ORIENTED_EDGE('',*,*,#470,.T.);
#616=ORIENTED_EDGE('',*,*,#471,.F.);
#617=ORIENTED_EDGE('',*,*,#468,.F.);
#618=ORIENTED_EDGE('',*,*,#428,.F.);
#619=ORIENTED_EDGE('',*,*,#467,.T.);
#620=ORIENTED_EDGE('',*,*,#472,.F.);
#621=ORIENTED_EDGE('',*,*,#470,.F.);
#622=ORIENTED_EDGE('',*,*,#423,.F.);
#623=ORIENTED_EDGE('',*,*,#426,.F.);
#624=ORIENTED_EDGE('',*,*,#473,.F.);
#625=ORIENTED_EDGE('',*,*,#474,.F.);
#626=ORIENTED_EDGE('',*,*,#417,.F.);
#627=ORIENTED_EDGE('',*,*,#424,.T.);
#628=ORIENTED_EDGE('',*,*,#474,.T.);
#629=ORIENTED_EDGE('',*,*,#475,.F.);
#630=ORIENTED_EDGE('',*,*,#416,.F.);
#631=ORIENTED_EDGE('',*,*,#475,.T.);
#632=ORIENTED_EDGE('',*,*,#473,.T.);
#633=ORIENTED_EDGE('',*,*,#425,.F.);
#634=ORIENTED_EDGE('',*,*,#448,.F.);
#635=ORIENTED_EDGE('',*,*,#451,.F.);
#636=ORIENTED_EDGE('',*,*,#476,.F.);
#637=ORIENTED_EDGE('',*,*,#477,.F.);
#638=ORIENTED_EDGE('',*,*,#445,.F.);
#639=ORIENTED_EDGE('',*,*,#449,.T.);
#640=ORIENTED_EDGE('',*,*,#477,.T.);
#641=ORIENTED_EDGE('',*,*,#478,.F.);
#642=ORIENTED_EDGE('',*,*,#443,.F.);
#643=ORIENTED_EDGE('',*,*,#478,.T.);
#644=ORIENTED_EDGE('',*,*,#476,.T.);
#645=ORIENTED_EDGE('',*,*,#450,.F.);
#646=ORIENTED_EDGE('',*,*,#461,.F.);
#647=ORIENTED_EDGE('',*,*,#464,.F.);
#648=ORIENTED_EDGE('',*,*,#479,.F.);
#649=ORIENTED_EDGE('',*,*,#480,.F.);
#650=ORIENTED_EDGE('',*,*,#453,.F.);
#651=ORIENTED_EDGE('',*,*,#462,.T.);
#652=ORIENTED_EDGE('',*,*,#480,.T.);
#653=ORIENTED_EDGE('',*,*,#481,.F.);
#654=ORIENTED_EDGE('',*,*,#458,.F.);
#655=ORIENTED_EDGE('',*,*,#481,.T.);
#656=ORIENTED_EDGE('',*,*,#479,.T.);
#657=ORIENTED_EDGE('',*,*,#463,.F.);
#658=ORIENTED_EDGE('',*,*,#466,.T.);
#659=ORIENTED_EDGE('',*,*,#469,.T.);
#660=ORIENTED_EDGE('',*,*,#471,.T.);
#661=ORIENTED_EDGE('',*,*,#472,.T.);
#662=ORIENTED_EDGE('',*,*,#482,.T.);
#663=ORIENTED_EDGE('',*,*,#483,.T.);
#664=ORIENTED_EDGE('',*,*,#484,.T.);
#665=ORIENTED_EDGE('',*,*,#485,.F.);
#666=ORIENTED_EDGE('',*,*,#486,.F.);
#667=ORIENTED_EDGE('',*,*,#487,.T.);
#668=ORIENTED_EDGE('',*,*,#483,.F.);
#669=ORIENTED_EDGE('',*,*,#488,.F.);
#670=ORIENTED_EDGE('',*,*,#489,.T.);
#671=ORIENTED_EDGE('',*,*,#490,.F.);
#672=ORIENTED_EDGE('',*,*,#484,.F.);
#673=ORIENTED_EDGE('',*,*,#487,.F.);
#674=ORIENTED_EDGE('',*,*,#486,.T.);
#675=ORIENTED_EDGE('',*,*,#491,.T.);
#676=ORIENTED_EDGE('',*,*,#492,.F.);
#677=ORIENTED_EDGE('',*,*,#489,.F.);
#678=ORIENTED_EDGE('',*,*,#482,.F.);
#679=ORIENTED_EDGE('',*,*,#493,.F.);
#680=ORIENTED_EDGE('',*,*,#491,.F.);
#681=ORIENTED_EDGE('',*,*,#488,.T.);
#682=ORIENTED_EDGE('',*,*,#492,.T.);
#683=ORIENTED_EDGE('',*,*,#493,.T.);
#684=ORIENTED_EDGE('',*,*,#485,.T.);
#685=ORIENTED_EDGE('',*,*,#490,.T.);
#686=ORIENTED_EDGE('',*,*,#494,.T.);
#687=ORIENTED_EDGE('',*,*,#495,.T.);
#688=ORIENTED_EDGE('',*,*,#496,.T.);
#689=ORIENTED_EDGE('',*,*,#497,.T.);
#690=ORIENTED_EDGE('',*,*,#498,.F.);
#691=ORIENTED_EDGE('',*,*,#495,.F.);
#692=ORIENTED_EDGE('',*,*,#499,.F.);
#693=ORIENTED_EDGE('',*,*,#500,.T.);
#694=ORIENTED_EDGE('',*,*,#501,.T.);
#695=ORIENTED_EDGE('',*,*,#499,.T.);
#696=ORIENTED_EDGE('',*,*,#494,.F.);
#697=ORIENTED_EDGE('',*,*,#502,.F.);
#698=ORIENTED_EDGE('',*,*,#502,.T.);
#699=ORIENTED_EDGE('',*,*,#497,.F.);
#700=ORIENTED_EDGE('',*,*,#503,.F.);
#701=ORIENTED_EDGE('',*,*,#504,.F.);
#702=ORIENTED_EDGE('',*,*,#501,.F.);
#703=ORIENTED_EDGE('',*,*,#504,.T.);
#704=ORIENTED_EDGE('',*,*,#505,.F.);
#705=ORIENTED_EDGE('',*,*,#500,.F.);
#706=ORIENTED_EDGE('',*,*,#498,.T.);
#707=ORIENTED_EDGE('',*,*,#505,.T.);
#708=ORIENTED_EDGE('',*,*,#503,.T.);
#709=ORIENTED_EDGE('',*,*,#496,.F.);
#710=ORIENTED_EDGE('',*,*,#506,.T.);
#711=ORIENTED_EDGE('',*,*,#507,.T.);
#712=ORIENTED_EDGE('',*,*,#508,.T.);
#713=ORIENTED_EDGE('',*,*,#509,.F.);
#714=ORIENTED_EDGE('',*,*,#510,.F.);
#715=ORIENTED_EDGE('',*,*,#511,.T.);
#716=ORIENTED_EDGE('',*,*,#507,.F.);
#717=ORIENTED_EDGE('',*,*,#512,.F.);
#718=ORIENTED_EDGE('',*,*,#513,.T.);
#719=ORIENTED_EDGE('',*,*,#514,.F.);
#720=ORIENTED_EDGE('',*,*,#508,.F.);
#721=ORIENTED_EDGE('',*,*,#511,.F.);
#722=ORIENTED_EDGE('',*,*,#510,.T.);
#723=ORIENTED_EDGE('',*,*,#515,.T.);
#724=ORIENTED_EDGE('',*,*,#516,.F.);
#725=ORIENTED_EDGE('',*,*,#513,.F.);
#726=ORIENTED_EDGE('',*,*,#506,.F.);
#727=ORIENTED_EDGE('',*,*,#517,.F.);
#728=ORIENTED_EDGE('',*,*,#515,.F.);
#729=ORIENTED_EDGE('',*,*,#512,.T.);
#730=ORIENTED_EDGE('',*,*,#516,.T.);
#731=ORIENTED_EDGE('',*,*,#517,.T.);
#732=ORIENTED_EDGE('',*,*,#509,.T.);
#733=ORIENTED_EDGE('',*,*,#514,.T.);
#734=PLANE('',#850);
#735=PLANE('',#851);
#736=PLANE('',#852);
#737=PLANE('',#853);
#738=PLANE('',#854);
#739=PLANE('',#855);
#740=PLANE('',#856);
#741=PLANE('',#857);
#742=PLANE('',#858);
#743=PLANE('',#859);
#744=PLANE('',#860);
#745=PLANE('',#861);
#746=PLANE('',#862);
#747=PLANE('',#863);
#748=PLANE('',#864);
#749=PLANE('',#865);
#750=PLANE('',#866);
#751=PLANE('',#867);
#752=PLANE('',#868);
#753=PLANE('',#869);
#754=PLANE('',#870);
#755=PLANE('',#871);
#756=PLANE('',#872);
#757=PLANE('',#873);
#758=PLANE('',#874);
#759=PLANE('',#875);
#760=PLANE('',#876);
#761=PLANE('',#877);
#762=PLANE('',#878);
#763=PLANE('',#879);
#764=PLANE('',#880);
#765=PLANE('',#881);
#766=PLANE('',#882);
#767=PLANE('',#883);
#768=PLANE('',#887);
#769=PLANE('',#888);
#770=PLANE('',#889);
#771=PLANE('',#890);
#772=PLANE('',#891);
#773=PLANE('',#892);
#774=PLANE('',#894);
#775=PLANE('',#895);
#776=PLANE('',#898);
#777=PLANE('',#899);
#778=PLANE('',#903);
#779=PLANE('',#904);
#780=PLANE('',#905);
#781=PLANE('',#906);
#782=ADVANCED_FACE('',(#33),#734,.T.);
#783=ADVANCED_FACE('',(#34),#735,.T.);
#784=ADVANCED_FACE('',(#35),#736,.T.);
#785=ADVANCED_FACE('',(#36),#737,.T.);
#786=ADVANCED_FACE('',(#37),#738,.F.);
#787=ADVANCED_FACE('',(#38),#739,.F.);
#788=ADVANCED_FACE('',(#39,#30,#31,#32),#740,.F.);
#789=ADVANCED_FACE('',(#40),#741,.T.);
#790=ADVANCED_FACE('',(#41),#742,.T.);
#791=ADVANCED_FACE('',(#42),#743,.T.);
#792=ADVANCED_FACE('',(#43),#744,.T.);
#793=ADVANCED_FACE('',(#44),#745,.F.);
#794=ADVANCED_FACE('',(#45),#746,.F.);
#795=ADVANCED_FACE('',(#46),#747,.T.);
#796=ADVANCED_FACE('',(#47),#748,.T.);
#797=ADVANCED_FACE('',(#48),#749,.T.);
#798=ADVANCED_FACE('',(#49),#750,.T.);
#799=ADVANCED_FACE('',(#50),#751,.F.);
#800=ADVANCED_FACE('',(#51),#752,.F.);
#801=ADVANCED_FACE('',(#52),#753,.T.);
#802=ADVANCED_FACE('',(#53),#754,.T.);
#803=ADVANCED_FACE('',(#54),#755,.T.);
#804=ADVANCED_FACE('',(#55),#756,.T.);
#805=ADVANCED_FACE('',(#56),#757,.F.);
#806=ADVANCED_FACE('',(#57),#758,.F.);
#807=ADVANCED_FACE('',(#58),#759,.F.);
#808=ADVANCED_FACE('',(#59),#760,.F.);
#809=ADVANCED_FACE('',(#60),#761,.F.);
#810=ADVANCED_FACE('',(#61),#762,.F.);
#811=ADVANCED_FACE('',(#62),#763,.F.);
#812=ADVANCED_FACE('',(#63),#764,.F.);
#813=ADVANCED_FACE('',(#64),#765,.F.);
#814=ADVANCED_FACE('',(#65),#766,.T.);
#815=ADVANCED_FACE('',(#66),#767,.F.);
#816=ADVANCED_FACE('',(#67),#19,.T.);
#817=ADVANCED_FACE('',(#68),#768,.T.);
#818=ADVANCED_FACE('',(#69),#769,.T.);
#819=ADVANCED_FACE('',(#70),#770,.T.);
#820=ADVANCED_FACE('',(#71),#771,.T.);
#821=ADVANCED_FACE('',(#72),#772,.T.);
#822=ADVANCED_FACE('',(#73),#773,.T.);
#823=ADVANCED_FACE('',(#74),#774,.T.);
#824=ADVANCED_FACE('',(#75),#775,.T.);
#825=ADVANCED_FACE('',(#76),#20,.T.);
#826=ADVANCED_FACE('',(#77),#776,.F.);
#827=ADVANCED_FACE('',(#78),#777,.F.);
#828=ADVANCED_FACE('',(#79),#21,.T.);
#829=ADVANCED_FACE('',(#80),#778,.T.);
#830=ADVANCED_FACE('',(#81),#779,.T.);
#831=ADVANCED_FACE('',(#82),#780,.T.);
#832=ADVANCED_FACE('',(#83),#781,.T.);
#833=CLOSED_SHELL('',(#782,#783,#784,#785,#786,#787,#788,#789,#790,#791,
#792,#793,#794,#795,#796,#797,#798,#799,#800,#801,#802,#803,#804,#805,#806,
#807,#808,#809,#810,#811,#812,#813,#814));
#834=CLOSED_SHELL('',(#815,#816,#817,#818,#819,#820));
#835=CLOSED_SHELL('',(#821,#822,#823,#824,#825,#826));
#836=CLOSED_SHELL('',(#827,#828,#829,#830,#831,#832));
#837=DERIVED_UNIT_ELEMENT(#839,1.);
#838=DERIVED_UNIT_ELEMENT(#1358,-3.);
#839=(
MASS_UNIT()
NAMED_UNIT(*)
SI_UNIT(.KILO.,.GRAM.)
);
#840=DERIVED_UNIT((#837,#838));
#841=MEASURE_REPRESENTATION_ITEM('density measure',
POSITIVE_RATIO_MEASURE(7850.),#840);
#842=PROPERTY_DEFINITION_REPRESENTATION(#847,#844);
#843=PROPERTY_DEFINITION_REPRESENTATION(#848,#845);
#844=REPRESENTATION('material name',(#846),#1355);
#845=REPRESENTATION('density',(#841),#1355);
#846=DESCRIPTIVE_REPRESENTATION_ITEM('Steel','Steel');
#847=PROPERTY_DEFINITION('material property','material name',#1365);
#848=PROPERTY_DEFINITION('material property','density of part',#1365);
#849=AXIS2_PLACEMENT_3D('',#1125,#907,#908);
#850=AXIS2_PLACEMENT_3D('',#1126,#909,#910);
#851=AXIS2_PLACEMENT_3D('',#1135,#915,#916);
#852=AXIS2_PLACEMENT_3D('',#1141,#920,#921);
#853=AXIS2_PLACEMENT_3D('',#1147,#925,#926);
#854=AXIS2_PLACEMENT_3D('',#1150,#929,#930);
#855=AXIS2_PLACEMENT_3D('',#1156,#934,#935);
#856=AXIS2_PLACEMENT_3D('',#1160,#938,#939);
#857=AXIS2_PLACEMENT_3D('',#1185,#952,#953);
#858=AXIS2_PLACEMENT_3D('',#1191,#957,#958);
#859=AXIS2_PLACEMENT_3D('',#1195,#961,#962);
#860=AXIS2_PLACEMENT_3D('',#1199,#965,#966);
#861=AXIS2_PLACEMENT_3D('',#1201,#968,#969);
#862=AXIS2_PLACEMENT_3D('',#1207,#973,#974);
#863=AXIS2_PLACEMENT_3D('',#1211,#977,#978);
#864=AXIS2_PLACEMENT_3D('',#1217,#982,#983);
#865=AXIS2_PLACEMENT_3D('',#1223,#987,#988);
#866=AXIS2_PLACEMENT_3D('',#1225,#990,#991);
#867=AXIS2_PLACEMENT_3D('',#1227,#993,#994);
#868=AXIS2_PLACEMENT_3D('',#1233,#998,#999);
#869=AXIS2_PLACEMENT_3D('',#1237,#1002,#1003);
#870=AXIS2_PLACEMENT_3D('',#1243,#1007,#1008);
#871=AXIS2_PLACEMENT_3D('',#1247,#1011,#1012);
#872=AXIS2_PLACEMENT_3D('',#1251,#1015,#1016);
#873=AXIS2_PLACEMENT_3D('',#1253,#1018,#1019);
#874=AXIS2_PLACEMENT_3D('',#1257,#1022,#1023);
#875=AXIS2_PLACEMENT_3D('',#1259,#1025,#1026);
#876=AXIS2_PLACEMENT_3D('',#1260,#1027,#1028);
#877=AXIS2_PLACEMENT_3D('',#1264,#1031,#1032);
#878=AXIS2_PLACEMENT_3D('',#1266,#1034,#1035);
#879=AXIS2_PLACEMENT_3D('',#1267,#1036,#1037);
#880=AXIS2_PLACEMENT_3D('',#1271,#1040,#1041);
#881=AXIS2_PLACEMENT_3D('',#1273,#1043,#1044);
#882=AXIS2_PLACEMENT_3D('',#1274,#1045,#1046);
#883=AXIS2_PLACEMENT_3D('',#1275,#1047,#1048);
#884=AXIS2_PLACEMENT_3D('',#1284,#1053,#1054);
#885=AXIS2_PLACEMENT_3D('',#1288,#1056,#1057);
#886=AXIS2_PLACEMENT_3D('',#1289,#1058,#1059);
#887=AXIS2_PLACEMENT_3D('',#1290,#1060,#1061);
#888=AXIS2_PLACEMENT_3D('',#1294,#1064,#1065);
#889=AXIS2_PLACEMENT_3D('',#1298,#1068,#1069);
#890=AXIS2_PLACEMENT_3D('',#1300,#1071,#1072);
#891=AXIS2_PLACEMENT_3D('',#1301,#1073,#1074);
#892=AXIS2_PLACEMENT_3D('',#1310,#1079,#1080);
#893=AXIS2_PLACEMENT_3D('',#1315,#1083,#1084);
#894=AXIS2_PLACEMENT_3D('',#1316,#1085,#1086);
#895=AXIS2_PLACEMENT_3D('',#1320,#1089,#1090);
#896=AXIS2_PLACEMENT_3D('',#1323,#1092,#1093);
#897=AXIS2_PLACEMENT_3D('',#1324,#1094,#1095);
#898=AXIS2_PLACEMENT_3D('',#1326,#1097,#1098);
#899=AXIS2_PLACEMENT_3D('',#1327,#1099,#1100);
#900=AXIS2_PLACEMENT_3D('',#1336,#1105,#1106);
#901=AXIS2_PLACEMENT_3D('',#1340,#1108,#1109);
#902=AXIS2_PLACEMENT_3D('',#1341,#1110,#1111);
#903=AXIS2_PLACEMENT_3D('',#1342,#1112,#1113);
#904=AXIS2_PLACEMENT_3D('',#1346,#1116,#1117);
#905=AXIS2_PLACEMENT_3D('',#1350,#1120,#1121);
#906=AXIS2_PLACEMENT_3D('',#1352,#1123,#1124);
#907=DIRECTION('axis',(0.,0.,1.));
#908=DIRECTION('refdir',(1.,0.,0.));
#909=DIRECTION('center_axis',(0.,-0.707106781186548,-0.707106781186548));
#910=DIRECTION('ref_axis',(-1.,0.,0.));
#911=DIRECTION('',(-1.,0.,0.));
#912=DIRECTION('',(0.577350269189626,0.577350269189626,-0.577350269189626));
#913=DIRECTION('',(1.,0.,0.));
#914=DIRECTION('',(0.577350269189626,-0.577350269189626,0.577350269189626));
#915=DIRECTION('center_axis',(0.707106781186548,-0.707106781186548,0.));
#916=DIRECTION('ref_axis',(0.,0.,-1.));
#917=DIRECTION('',(0.,0.,-1.));
#918=DIRECTION('',(0.577350269189626,0.577350269189626,0.577350269189626));
#919=DIRECTION('',(0.,0.,1.));
#920=DIRECTION('center_axis',(0.,-0.707106781186548,0.707106781186548));
#921=DIRECTION('ref_axis',(1.,0.,0.));
#922=DIRECTION('',(-1.,0.,0.));
#923=DIRECTION('',(1.,0.,0.));
#924=DIRECTION('',(-0.577350269189626,0.577350269189626,0.577350269189626));
#925=DIRECTION('center_axis',(-0.707106781186548,-0.707106781186547,0.));
#926=DIRECTION('ref_axis',(0.,0.,1.));
#927=DIRECTION('',(0.,0.,1.));
#928=DIRECTION('',(0.,0.,-1.));
#929=DIRECTION('center_axis',(1.,0.,0.));
#930=DIRECTION('ref_axis',(0.,0.,-1.));
#931=DIRECTION('',(0.,1.,0.));
#932=DIRECTION('',(0.,0.,-1.));
#933=DIRECTION('',(0.,1.,0.));
#934=DIRECTION('center_axis',(0.,0.,1.));
#935=DIRECTION('ref_axis',(1.,0.,0.));
#936=DIRECTION('',(0.,1.,0.));
#937=DIRECTION('',(1.,0.,0.));
#938=DIRECTION('center_axis',(0.,1.,0.));
#939=DIRECTION('ref_axis',(1.,0.,0.));
#940=DIRECTION('',(1.,0.,0.));
#941=DIRECTION('',(0.,0.,1.));
#942=DIRECTION('',(-1.,0.,0.));
#943=DIRECTION('',(0.,0.,-1.));
#944=DIRECTION('',(-1.,0.,0.));
#945=DIRECTION('',(0.,0.,1.));
#946=DIRECTION('',(1.,0.,0.));
#947=DIRECTION('',(0.,0.,-1.));
#948=DIRECTION('',(1.,0.,0.));
#949=DIRECTION('',(0.,0.,-1.));
#950=DIRECTION('',(-1.,0.,0.));
#951=DIRECTION('',(0.,0.,1.));
#952=DIRECTION('center_axis',(0.,-0.707106781186548,-0.707106781186548));
#953=DIRECTION('ref_axis',(-1.,0.,0.));
#954=DIRECTION('',(0.577350269189626,0.577350269189626,-0.577350269189626));
#955=DIRECTION('',(1.,0.,0.));
#956=DIRECTION('',(0.577350269189626,-0.577350269189626,0.577350269189626));
#957=DIRECTION('center_axis',(0.707106781186548,-0.707106781186548,0.));
#958=DIRECTION('ref_axis',(0.,0.,-1.));
#959=DIRECTION('',(0.577350269189626,0.577350269189626,0.577350269189626));
#960=DIRECTION('',(0.,0.,1.));
#961=DIRECTION('center_axis',(0.,-0.707106781186548,0.707106781186548));
#962=DIRECTION('ref_axis',(1.,0.,0.));
#963=DIRECTION('',(-0.577350269189626,0.577350269189626,0.577350269189626));
#964=DIRECTION('',(-1.,0.,0.));
#965=DIRECTION('center_axis',(-0.707106781186548,-0.707106781186548,0.));
#966=DIRECTION('ref_axis',(0.,0.,1.));
#967=DIRECTION('',(0.,0.,-1.));
#968=DIRECTION('center_axis',(1.,0.,0.));
#969=DIRECTION('ref_axis',(0.,0.,-1.));
#970=DIRECTION('',(0.,1.,0.));
#971=DIRECTION('',(0.,0.,-1.));
#972=DIRECTION('',(0.,1.,0.));
#973=DIRECTION('center_axis',(0.,0.,1.));
#974=DIRECTION('ref_axis',(1.,0.,0.));
#975=DIRECTION('',(0.,1.,0.));
#976=DIRECTION('',(1.,0.,0.));
#977=DIRECTION('center_axis',(0.,-0.707106781186548,-0.707106781186548));
#978=DIRECTION('ref_axis',(-1.,0.,0.));
#979=DIRECTION('',(0.577350269189626,0.577350269189626,-0.577350269189626));
#980=DIRECTION('',(1.,0.,0.));
#981=DIRECTION('',(-0.577350269189626,0.577350269189626,-0.577350269189626));
#982=DIRECTION('center_axis',(0.,-0.707106781186548,0.707106781186548));
#983=DIRECTION('ref_axis',(1.,0.,0.));
#984=DIRECTION('',(-0.577350269189626,0.577350269189626,0.577350269189626));
#985=DIRECTION('',(-1.,0.,0.));
#986=DIRECTION('',(-0.577350269189626,-0.577350269189626,-0.577350269189626));
#987=DIRECTION('center_axis',(-0.707106781186548,-0.707106781186548,0.));
#988=DIRECTION('ref_axis',(0.,0.,1.));
#989=DIRECTION('',(0.,0.,-1.));
#990=DIRECTION('center_axis',(0.707106781186548,-0.707106781186547,0.));
#991=DIRECTION('ref_axis',(0.,0.,-1.));
#992=DIRECTION('',(0.,0.,1.));
#993=DIRECTION('center_axis',(-1.,0.,0.));
#994=DIRECTION('ref_axis',(0.,0.,1.));
#995=DIRECTION('',(0.,1.,0.));
#996=DIRECTION('',(0.,0.,1.));
#997=DIRECTION('',(0.,1.,0.));
#998=DIRECTION('center_axis',(0.,0.,-1.));
#999=DIRECTION('ref_axis',(-1.,0.,0.));
#1000=DIRECTION('',(0.,1.,0.));
#1001=DIRECTION('',(-1.,0.,0.));
#1002=DIRECTION('center_axis',(0.,0.,-1.));
#1003=DIRECTION('ref_axis',(-1.,0.,0.));
#1004=DIRECTION('',(0.,1.,0.));
#1005=DIRECTION('',(-1.,0.,0.));
#1006=DIRECTION('',(0.,1.,0.));
#1007=DIRECTION('center_axis',(-1.,0.,0.));
#1008=DIRECTION('ref_axis',(0.,0.,1.));
#1009=DIRECTION('',(0.,1.,0.));
#1010=DIRECTION('',(0.,0.,1.));
#1011=DIRECTION('center_axis',(0.,0.,1.));
#1012=DIRECTION('ref_axis',(1.,0.,0.));
#1013=DIRECTION('',(0.,1.,0.));
#1014=DIRECTION('',(1.,0.,0.));
#1015=DIRECTION('center_axis',(1.,0.,0.));
#1016=DIRECTION('ref_axis',(0.,0.,-1.));
#1017=DIRECTION('',(0.,0.,-1.));
#1018=DIRECTION('center_axis',(0.,1.,0.));
#1019=DIRECTION('ref_axis',(0.,0.,1.));
#1020=DIRECTION('',(0.,0.,1.));
#1021=DIRECTION('',(-1.,0.,0.));
#1022=DIRECTION('center_axis',(0.,0.,-1.));
#1023=DIRECTION('ref_axis',(-1.,0.,0.));
#1024=DIRECTION('',(0.,1.,0.));
#1025=DIRECTION('center_axis',(-1.,0.,0.));
#1026=DIRECTION('ref_axis',(0.,0.,1.));
#1027=DIRECTION('center_axis',(0.,1.,0.));
#1028=DIRECTION('ref_axis',(0.,0.,1.));
#1029=DIRECTION('',(0.,0.,1.));
#1030=DIRECTION('',(-1.,0.,0.));
#1031=DIRECTION('center_axis',(0.,0.,-1.));
#1032=DIRECTION('ref_axis',(-1.,0.,0.));
#1033=DIRECTION('',(0.,1.,0.));
#1034=DIRECTION('center_axis',(-1.,0.,0.));
#1035=DIRECTION('ref_axis',(0.,0.,1.));
#1036=DIRECTION('center_axis',(0.,1.,0.));
#1037=DIRECTION('ref_axis',(0.,0.,1.));
#1038=DIRECTION('',(0.,0.,-1.));
#1039=DIRECTION('',(1.,0.,0.));
#1040=DIRECTION('center_axis',(0.,0.,1.));
#1041=DIRECTION('ref_axis',(1.,0.,0.));
#1042=DIRECTION('',(0.,1.,0.));
#1043=DIRECTION('center_axis',(1.,0.,0.));
#1044=DIRECTION('ref_axis',(0.,0.,-1.));
#1045=DIRECTION('center_axis',(0.,1.,0.));
#1046=DIRECTION('ref_axis',(0.,0.,1.));
#1047=DIRECTION('center_axis',(0.,1.,0.));
#1048=DIRECTION('ref_axis',(0.,0.,1.));
#1049=DIRECTION('',(0.,0.,1.));
#1050=DIRECTION('',(-1.,0.,0.));
#1051=DIRECTION('',(0.,0.,-1.));
#1052=DIRECTION('',(-1.,0.,0.));
#1053=DIRECTION('center_axis',(1.,0.,0.));
#1054=DIRECTION('ref_axis',(0.,1.,0.));
#1055=DIRECTION('',(1.,0.,0.));
#1056=DIRECTION('center_axis',(1.,4.18799294267023E-16,4.18799294267023E-16));
#1057=DIRECTION('ref_axis',(-3.46944695195361E-16,1.,2.08166817117217E-15));
#1058=DIRECTION('center_axis',(1.,-8.37598588534045E-16,-8.37598588534045E-16));
#1059=DIRECTION('ref_axis',(8.67361737988403E-16,1.,2.08166817117217E-15));
#1060=DIRECTION('center_axis',(-1.,0.,0.));
#1061=DIRECTION('ref_axis',(0.,1.,0.));
#1062=DIRECTION('',(0.,0.,-1.));
#1063=DIRECTION('',(0.,1.,0.));
#1064=DIRECTION('center_axis',(0.,1.,0.));
#1065=DIRECTION('ref_axis',(1.,0.,0.));
#1066=DIRECTION('',(0.,0.,-1.));
#1067=DIRECTION('',(1.,0.,0.));
#1068=DIRECTION('center_axis',(1.,0.,0.));
#1069=DIRECTION('ref_axis',(0.,-1.,0.));
#1070=DIRECTION('',(0.,-1.,0.));
#1071=DIRECTION('center_axis',(0.,0.,-1.));
#1072=DIRECTION('ref_axis',(-1.,0.,0.));
#1073=DIRECTION('center_axis',(0.,0.,-1.));
#1074=DIRECTION('ref_axis',(-1.,0.,0.));
#1075=DIRECTION('',(1.,0.,0.));
#1076=DIRECTION('',(0.,-1.,0.));
#1077=DIRECTION('',(-1.,0.,0.));
#1078=DIRECTION('',(0.,1.,0.));
#1079=DIRECTION('center_axis',(1.,0.,0.));
#1080=DIRECTION('ref_axis',(0.,-1.,0.));
#1081=DIRECTION('',(0.,0.,1.));
#1082=DIRECTION('',(0.,0.,-1.));
#1083=DIRECTION('center_axis',(1.,0.,0.));
#1084=DIRECTION('ref_axis',(0.,1.,2.08166817117217E-15));
#1085=DIRECTION('center_axis',(0.,1.,0.));
#1086=DIRECTION('ref_axis',(1.,0.,0.));
#1087=DIRECTION('',(1.,0.,0.));
#1088=DIRECTION('',(0.,0.,-1.));
#1089=DIRECTION('center_axis',(-1.,0.,0.));
#1090=DIRECTION('ref_axis',(0.,1.,0.));
#1091=DIRECTION('',(0.,0.,-1.));
#1092=DIRECTION('center_axis',(1.,0.,0.));
#1093=DIRECTION('ref_axis',(0.,1.,2.08166817117217E-15));
#1094=DIRECTION('center_axis',(1.,0.,0.));
#1095=DIRECTION('ref_axis',(0.,1.,0.));
#1096=DIRECTION('',(-1.,0.,0.));
#1097=DIRECTION('center_axis',(0.,1.,0.));
#1098=DIRECTION('ref_axis',(0.,0.,1.));
#1099=DIRECTION('center_axis',(0.,1.,0.));
#1100=DIRECTION('ref_axis',(0.,0.,1.));
#1101=DIRECTION('',(0.,0.,1.));
#1102=DIRECTION('',(-1.,0.,0.));
#1103=DIRECTION('',(0.,0.,-1.));
#1104=DIRECTION('',(-1.,0.,0.));
#1105=DIRECTION('center_axis',(1.,0.,0.));
#1106=DIRECTION('ref_axis',(0.,1.,0.));
#1107=DIRECTION('',(1.,0.,0.));
#1108=DIRECTION('center_axis',(1.,0.,0.));
#1109=DIRECTION('ref_axis',(0.,1.,2.08166817117217E-15));
#1110=DIRECTION('center_axis',(1.,0.,0.));
#1111=DIRECTION('ref_axis',(0.,1.,2.08166817117217E-15));
#1112=DIRECTION('center_axis',(-1.,0.,0.));
#1113=DIRECTION('ref_axis',(0.,1.,0.));
#1114=DIRECTION('',(0.,0.,-1.));
#1115=DIRECTION('',(0.,1.,0.));
#1116=DIRECTION('center_axis',(0.,1.,0.));
#1117=DIRECTION('ref_axis',(1.,0.,0.));
#1118=DIRECTION('',(0.,0.,-1.));
#1119=DIRECTION('',(1.,0.,0.));
#1120=DIRECTION('center_axis',(1.,0.,0.));
#1121=DIRECTION('ref_axis',(0.,-1.,0.));
#1122=DIRECTION('',(0.,-1.,0.));
#1123=DIRECTION('center_axis',(0.,0.,-1.));
#1124=DIRECTION('ref_axis',(-1.,0.,0.));
#1125=CARTESIAN_POINT('',(0.,0.,0.));
#1126=CARTESIAN_POINT('Origin',(0.75,0.2,0.900000000000001));
#1127=CARTESIAN_POINT('',(2.9,0.,1.1));
#1128=CARTESIAN_POINT('',(1.1,0.,1.1));
#1129=CARTESIAN_POINT('',(0.75,0.,1.1));
#1130=CARTESIAN_POINT('',(1.5,0.4,0.700000000000001));
#1131=CARTESIAN_POINT('',(1.1,0.,1.1));
#1132=CARTESIAN_POINT('',(2.5,0.4,0.700000000000001));
#1133=CARTESIAN_POINT('',(0.75,0.4,0.700000000000001));
#1134=CARTESIAN_POINT('',(2.5,0.4,0.700000000000001));
#1135=CARTESIAN_POINT('Origin',(1.3,0.2,-0.15));
#1136=CARTESIAN_POINT('',(1.1,0.,-0.7));
#1137=CARTESIAN_POINT('',(1.1,0.,-0.15));
#1138=CARTESIAN_POINT('',(1.5,0.4,-0.3));
#1139=CARTESIAN_POINT('',(1.1,0.,-0.7));
#1140=CARTESIAN_POINT('',(1.5,0.4,-0.15));
#1141=CARTESIAN_POINT('Origin',(1.25,0.2,-0.5));
#1142=CARTESIAN_POINT('',(2.5,0.4,-0.3));
#1143=CARTESIAN_POINT('',(1.25,0.4,-0.3));
#1144=CARTESIAN_POINT('',(2.9,0.,-0.7));
#1145=CARTESIAN_POINT('',(1.25,0.,-0.7));
#1146=CARTESIAN_POINT('',(2.9,0.,-0.7));
#1147=CARTESIAN_POINT('Origin',(2.7,0.2,0.35));
#1148=CARTESIAN_POINT('',(2.9,0.,0.35));
#1149=CARTESIAN_POINT('',(2.5,0.4,0.35));
#1150=CARTESIAN_POINT('Origin',(2.5,0.,0.700000000000001));
#1151=CARTESIAN_POINT('',(2.5,3.8,0.700000000000001));
#1152=CARTESIAN_POINT('',(2.5,0.,0.700000000000001));
#1153=CARTESIAN_POINT('',(2.5,3.8,-0.3));
#1154=CARTESIAN_POINT('',(2.5,3.8,0.700000000000001));
#1155=CARTESIAN_POINT('',(2.5,0.,-0.3));
#1156=CARTESIAN_POINT('Origin',(1.5,0.,0.700000000000001));
#1157=CARTESIAN_POINT('',(1.5,3.8,0.700000000000001));
#1158=CARTESIAN_POINT('',(1.5,0.,0.700000000000001));
#1159=CARTESIAN_POINT('',(1.5,3.8,0.700000000000001));
#1160=CARTESIAN_POINT('Origin',(0.,0.,0.));
#1161=CARTESIAN_POINT('',(-3.2,0.,-1.4));
#1162=CARTESIAN_POINT('',(3.2,0.,-1.4));
#1163=CARTESIAN_POINT('',(-3.2,0.,-1.4));
#1164=CARTESIAN_POINT('',(3.2,0.,1.4));
#1165=CARTESIAN_POINT('',(3.2,0.,-1.4));
#1166=CARTESIAN_POINT('',(-3.2,0.,1.4));
#1167=CARTESIAN_POINT('',(3.2,0.,1.4));
#1168=CARTESIAN_POINT('',(-3.2,0.,1.4));
#1169=CARTESIAN_POINT('',(0.900000000000001,0.,1.1));
#1170=CARTESIAN_POINT('',(-0.899999999999999,0.,1.1));
#1171=CARTESIAN_POINT('',(-0.25,0.,1.1));
#1172=CARTESIAN_POINT('',(0.900000000000001,0.,-0.7));
#1173=CARTESIAN_POINT('',(0.900000000000001,0.,0.35));
#1174=CARTESIAN_POINT('',(-0.899999999999999,0.,-0.7));
#1175=CARTESIAN_POINT('',(0.25,0.,-0.7));
#1176=CARTESIAN_POINT('',(-0.899999999999999,0.,-0.15));
#1177=CARTESIAN_POINT('',(-2.9,0.,-0.7));
#1178=CARTESIAN_POINT('',(-1.1,0.,-0.7));
#1179=CARTESIAN_POINT('',(-0.75,0.,-0.7));
#1180=CARTESIAN_POINT('',(-2.9,0.,1.1));
#1181=CARTESIAN_POINT('',(-2.9,0.,-0.15));
#1182=CARTESIAN_POINT('',(-1.1,0.,1.1));
#1183=CARTESIAN_POINT('',(-1.25,0.,1.1));
#1184=CARTESIAN_POINT('',(-1.1,0.,0.35));
#1185=CARTESIAN_POINT('Origin',(-0.25,0.2,0.900000000000001));
#1186=CARTESIAN_POINT('',(-0.499999999999999,0.4,0.700000000000001));
#1187=CARTESIAN_POINT('',(-0.899999999999999,0.,1.1));
#1188=CARTESIAN_POINT('',(0.5,0.4,0.700000000000001));
#1189=CARTESIAN_POINT('',(-0.25,0.4,0.700000000000001));
#1190=CARTESIAN_POINT('',(0.5,0.4,0.700000000000001));
#1191=CARTESIAN_POINT('Origin',(-0.699999999999999,0.2,-0.15));
#1192=CARTESIAN_POINT('',(-0.499999999999999,0.4,-0.3));
#1193=CARTESIAN_POINT('',(-0.899999999999999,0.,-0.7));
#1194=CARTESIAN_POINT('',(-0.499999999999999,0.4,-0.15));
#1195=CARTESIAN_POINT('Origin',(0.25,0.2,-0.5));
#1196=CARTESIAN_POINT('',(0.5,0.4,-0.3));
#1197=CARTESIAN_POINT('',(0.900000000000001,0.,-0.7));
#1198=CARTESIAN_POINT('',(0.25,0.4,-0.3));
#1199=CARTESIAN_POINT('Origin',(0.700000000000001,0.2,0.35));
#1200=CARTESIAN_POINT('',(0.5,0.4,0.35));
#1201=CARTESIAN_POINT('Origin',(0.5,0.,0.700000000000001));
#1202=CARTESIAN_POINT('',(0.5,3.8,0.700000000000001));
#1203=CARTESIAN_POINT('',(0.5,0.,0.700000000000001));
#1204=CARTESIAN_POINT('',(0.5,3.8,-0.3));
#1205=CARTESIAN_POINT('',(0.5,3.8,0.700000000000001));
#1206=CARTESIAN_POINT('',(0.5,0.,-0.3));
#1207=CARTESIAN_POINT('Origin',(-0.499999999999999,0.,0.700000000000001));
#1208=CARTESIAN_POINT('',(-0.499999999999999,3.8,0.700000000000001));
#1209=CARTESIAN_POINT('',(-0.499999999999999,0.,0.700000000000001));
#1210=CARTESIAN_POINT('',(-0.499999999999999,3.8,0.700000000000001));
#1211=CARTESIAN_POINT('Origin',(-1.25,0.2,0.900000000000001));
#1212=CARTESIAN_POINT('',(-2.5,0.4,0.700000000000001));
#1213=CARTESIAN_POINT('',(-2.9,0.,1.1));
#1214=CARTESIAN_POINT('',(-1.5,0.4,0.700000000000001));
#1215=CARTESIAN_POINT('',(-1.25,0.4,0.700000000000001));
#1216=CARTESIAN_POINT('',(-1.1,0.,1.1));
#1217=CARTESIAN_POINT('Origin',(-0.75,0.2,-0.5));
#1218=CARTESIAN_POINT('',(-1.5,0.4,-0.3));
#1219=CARTESIAN_POINT('',(-1.1,0.,-0.7));
#1220=CARTESIAN_POINT('',(-2.5,0.4,-0.3));
#1221=CARTESIAN_POINT('',(-0.75,0.4,-0.3));
#1222=CARTESIAN_POINT('',(-2.5,0.4,-0.3));
#1223=CARTESIAN_POINT('Origin',(-1.3,0.2,0.35));
#1224=CARTESIAN_POINT('',(-1.5,0.4,0.35));
#1225=CARTESIAN_POINT('Origin',(-2.7,0.2,-0.15));
#1226=CARTESIAN_POINT('',(-2.5,0.4,-0.15));
#1227=CARTESIAN_POINT('Origin',(-2.5,0.,-0.3));
#1228=CARTESIAN_POINT('',(-2.5,3.8,-0.3));
#1229=CARTESIAN_POINT('',(-2.5,0.,-0.3));
#1230=CARTESIAN_POINT('',(-2.5,3.8,0.700000000000001));
#1231=CARTESIAN_POINT('',(-2.5,3.8,-0.3));
#1232=CARTESIAN_POINT('',(-2.5,0.,0.700000000000001));
#1233=CARTESIAN_POINT('Origin',(-1.5,0.,-0.3));
#1234=CARTESIAN_POINT('',(-1.5,3.8,-0.3));
#1235=CARTESIAN_POINT('',(-1.5,0.,-0.3));
#1236=CARTESIAN_POINT('',(-1.5,3.8,-0.3));
#1237=CARTESIAN_POINT('Origin',(3.2,0.,-1.4));
#1238=CARTESIAN_POINT('',(-3.2,4.3,-1.4));
#1239=CARTESIAN_POINT('',(-3.2,0.,-1.4));
#1240=CARTESIAN_POINT('',(3.2,4.3,-1.4));
#1241=CARTESIAN_POINT('',(-3.2,4.3,-1.4));
#1242=CARTESIAN_POINT('',(3.2,0.,-1.4));
#1243=CARTESIAN_POINT('Origin',(-3.2,0.,-1.4));
#1244=CARTESIAN_POINT('',(-3.2,4.3,1.4));
#1245=CARTESIAN_POINT('',(-3.2,0.,1.4));
#1246=CARTESIAN_POINT('',(-3.2,4.3,1.4));
#1247=CARTESIAN_POINT('Origin',(-3.2,0.,1.4));
#1248=CARTESIAN_POINT('',(3.2,4.3,1.4));
#1249=CARTESIAN_POINT('',(3.2,0.,1.4));
#1250=CARTESIAN_POINT('',(3.2,4.3,1.4));
#1251=CARTESIAN_POINT('Origin',(3.2,0.,1.4));
#1252=CARTESIAN_POINT('',(3.2,4.3,-1.4));
#1253=CARTESIAN_POINT('Origin',(2.,3.8,0.2));
#1254=CARTESIAN_POINT('',(1.5,3.8,-0.3));
#1255=CARTESIAN_POINT('',(1.5,3.8,-0.3));
#1256=CARTESIAN_POINT('',(2.5,3.8,-0.3));
#1257=CARTESIAN_POINT('Origin',(2.5,0.,-0.3));
#1258=CARTESIAN_POINT('',(1.5,0.,-0.3));
#1259=CARTESIAN_POINT('Origin',(1.5,0.,-0.3));
#1260=CARTESIAN_POINT('Origin',(5.55111512312578E-16,3.8,0.2));
#1261=CARTESIAN_POINT('',(-0.499999999999999,3.8,-0.3));
#1262=CARTESIAN_POINT('',(-0.499999999999999,3.8,-0.3));
#1263=CARTESIAN_POINT('',(0.5,3.8,-0.3));
#1264=CARTESIAN_POINT('Origin',(0.5,0.,-0.3));
#1265=CARTESIAN_POINT('',(-0.499999999999999,0.,-0.3));
#1266=CARTESIAN_POINT('Origin',(-0.499999999999999,0.,-0.3));
#1267=CARTESIAN_POINT('Origin',(-2.,3.8,0.2));
#1268=CARTESIAN_POINT('',(-1.5,3.8,0.700000000000001));
#1269=CARTESIAN_POINT('',(-1.5,3.8,0.700000000000001));
#1270=CARTESIAN_POINT('',(-2.5,3.8,0.700000000000001));
#1271=CARTESIAN_POINT('Origin',(-2.5,0.,0.700000000000001));
#1272=CARTESIAN_POINT('',(-1.5,0.,0.700000000000001));
#1273=CARTESIAN_POINT('Origin',(-1.5,0.,0.700000000000001));
#1274=CARTESIAN_POINT('Origin',(0.,4.3,0.));
#1275=CARTESIAN_POINT('Origin',(0.,4.3,-1.55));
#1276=CARTESIAN_POINT('',(0.249999999999999,4.3,-4.5));
#1277=CARTESIAN_POINT('',(0.249999999999999,4.3,-0.100000000000001));
#1278=CARTESIAN_POINT('',(0.249999999999999,4.3,-0.15));
#1279=CARTESIAN_POINT('',(-0.25,4.3,-0.100000000000001));
#1280=CARTESIAN_POINT('',(-5.55111512312578E-16,4.3,-0.100000000000001));
#1281=CARTESIAN_POINT('',(-0.25,4.3,-4.5));
#1282=CARTESIAN_POINT('',(-0.25,4.3,-0.15));
#1283=CARTESIAN_POINT('',(3.2,4.3,-4.5));
#1284=CARTESIAN_POINT('Origin',(-5.55111512312578E-16,4.3,-0.3));
#1285=CARTESIAN_POINT('',(-0.25,4.5,-0.3));
#1286=CARTESIAN_POINT('',(0.249999999999999,4.5,-0.3));
#1287=CARTESIAN_POINT('',(-0.125000000000001,4.5,-0.3));
#1288=CARTESIAN_POINT('Origin',(-0.25,4.3,-0.300000000000001));
#1289=CARTESIAN_POINT('Origin',(0.249999999999999,4.3,-0.300000000000001));
#1290=CARTESIAN_POINT('Origin',(-0.25,4.3,1.4));
#1291=CARTESIAN_POINT('',(-0.25,4.5,-4.5));
#1292=CARTESIAN_POINT('',(-0.25,4.5,1.4));
#1293=CARTESIAN_POINT('',(-0.25,4.5,-4.5));
#1294=CARTESIAN_POINT('Origin',(-0.25,4.5,1.4));
#1295=CARTESIAN_POINT('',(0.249999999999999,4.5,-4.5));
#1296=CARTESIAN_POINT('',(0.249999999999999,4.5,1.4));
#1297=CARTESIAN_POINT('',(-0.25,4.5,-4.5));
#1298=CARTESIAN_POINT('Origin',(0.249999999999999,4.5,1.4));
#1299=CARTESIAN_POINT('',(0.249999999999999,4.5,-4.5));
#1300=CARTESIAN_POINT('Origin',(-5.55111512312578E-16,4.4,-4.5));
#1301=CARTESIAN_POINT('Origin',(-2.,4.4,-4.5));
#1302=CARTESIAN_POINT('',(-2.25,4.5,-4.5));
#1303=CARTESIAN_POINT('',(-1.75,4.5,-4.5));
#1304=CARTESIAN_POINT('',(-2.25,4.5,-4.5));
#1305=CARTESIAN_POINT('',(-1.75,4.3,-4.5));
#1306=CARTESIAN_POINT('',(-1.75,4.5,-4.5));
#1307=CARTESIAN_POINT('',(-2.25,4.3,-4.5));
#1308=CARTESIAN_POINT('',(3.2,4.3,-4.5));
#1309=CARTESIAN_POINT('',(-2.25,4.5,-4.5));
#1310=CARTESIAN_POINT('Origin',(-1.75,4.5,1.4));
#1311=CARTESIAN_POINT('',(-1.75,4.3,-0.100000000000001));
#1312=CARTESIAN_POINT('',(-1.75,4.3,-0.15));
#1313=CARTESIAN_POINT('',(-1.75,4.5,-0.3));
#1314=CARTESIAN_POINT('',(-1.75,4.5,1.4));
#1315=CARTESIAN_POINT('Origin',(-1.75,4.3,-0.300000000000001));
#1316=CARTESIAN_POINT('Origin',(-2.25,4.5,1.4));
#1317=CARTESIAN_POINT('',(-2.25,4.5,-0.3));
#1318=CARTESIAN_POINT('',(-2.125,4.5,-0.3));
#1319=CARTESIAN_POINT('',(-2.25,4.5,1.4));
#1320=CARTESIAN_POINT('Origin',(-2.25,4.3,1.4));
#1321=CARTESIAN_POINT('',(-2.25,4.3,-0.100000000000001));
#1322=CARTESIAN_POINT('',(-2.25,4.3,-0.15));
#1323=CARTESIAN_POINT('Origin',(-2.25,4.3,-0.300000000000001));
#1324=CARTESIAN_POINT('Origin',(-2.,4.3,-0.3));
#1325=CARTESIAN_POINT('',(-2.,4.3,-0.100000000000001));
#1326=CARTESIAN_POINT('Origin',(0.,4.3,-1.55));
#1327=CARTESIAN_POINT('Origin',(0.,4.3,-1.55));
#1328=CARTESIAN_POINT('',(2.25,4.3,-4.5));
#1329=CARTESIAN_POINT('',(2.25,4.3,-0.100000000000001));
#1330=CARTESIAN_POINT('',(2.25,4.3,-0.15));
#1331=CARTESIAN_POINT('',(1.75,4.3,-0.100000000000001));
#1332=CARTESIAN_POINT('',(2.,4.3,-0.100000000000001));
#1333=CARTESIAN_POINT('',(1.75,4.3,-4.5));
#1334=CARTESIAN_POINT('',(1.75,4.3,-0.15));
#1335=CARTESIAN_POINT('',(3.2,4.3,-4.5));
#1336=CARTESIAN_POINT('Origin',(2.,4.3,-0.3));
#1337=CARTESIAN_POINT('',(1.75,4.5,-0.3));
#1338=CARTESIAN_POINT('',(2.25,4.5,-0.3));
#1339=CARTESIAN_POINT('',(1.875,4.5,-0.3));
#1340=CARTESIAN_POINT('Origin',(1.75,4.3,-0.300000000000001));
#1341=CARTESIAN_POINT('Origin',(2.25,4.3,-0.300000000000001));
#1342=CARTESIAN_POINT('Origin',(1.75,4.3,1.4));
#1343=CARTESIAN_POINT('',(1.75,4.5,-4.5));
#1344=CARTESIAN_POINT('',(1.75,4.5,1.4));
#1345=CARTESIAN_POINT('',(1.75,4.5,-4.5));
#1346=CARTESIAN_POINT('Origin',(1.75,4.5,1.4));
#1347=CARTESIAN_POINT('',(2.25,4.5,-4.5));
#1348=CARTESIAN_POINT('',(2.25,4.5,1.4));
#1349=CARTESIAN_POINT('',(1.75,4.5,-4.5));
#1350=CARTESIAN_POINT('Origin',(2.25,4.5,1.4));
#1351=CARTESIAN_POINT('',(2.25,4.5,-4.5));
#1352=CARTESIAN_POINT('Origin',(2.,4.4,-4.5));
#1353=UNCERTAINTY_MEASURE_WITH_UNIT(LENGTH_MEASURE(0.01),#1357,
'DISTANCE_ACCURACY_VALUE',
'Maximum model space distance between geometric entities at asserted c
onnectivities');
#1354=UNCERTAINTY_MEASURE_WITH_UNIT(LENGTH_MEASURE(0.01),#1357,
'DISTANCE_ACCURACY_VALUE',
'Maximum model space distance between geometric entities at asserted c
onnectivities');
#1355=(
GEOMETRIC_REPRESENTATION_CONTEXT(3)
GLOBAL_UNCERTAINTY_ASSIGNED_CONTEXT((#1353))
GLOBAL_UNIT_ASSIGNED_CONTEXT((#1357,#1359,#1360))
REPRESENTATION_CONTEXT('','3D')
);
#1356=(
GEOMETRIC_REPRESENTATION_CONTEXT(3)
GLOBAL_UNCERTAINTY_ASSIGNED_CONTEXT((#1354))
GLOBAL_UNIT_ASSIGNED_CONTEXT((#1357,#1359,#1360))
REPRESENTATION_CONTEXT('','3D')
);
#1357=(
LENGTH_UNIT()
NAMED_UNIT(*)
SI_UNIT(.MILLI.,.METRE.)
);
#1358=(
LENGTH_UNIT()
NAMED_UNIT(*)
SI_UNIT($,.METRE.)
);
#1359=(
NAMED_UNIT(*)
PLANE_ANGLE_UNIT()
SI_UNIT($,.RADIAN.)
);
#1360=(
NAMED_UNIT(*)
SI_UNIT($,.STERADIAN.)
SOLID_ANGLE_UNIT()
);
#1361=SHAPE_DEFINITION_REPRESENTATION(#1362,#1363);
#1362=PRODUCT_DEFINITION_SHAPE('',$,#1365);
#1363=SHAPE_REPRESENTATION('',(#849),#1355);
#1364=PRODUCT_DEFINITION_CONTEXT('part definition',#1369,'design');
#1365=PRODUCT_DEFINITION('(Unsaved)','(Unsaved)',#1366,#1364);
#1366=PRODUCT_DEFINITION_FORMATION('',$,#1371);
#1367=PRODUCT_RELATED_PRODUCT_CATEGORY('(Unsaved)','(Unsaved)',(#1371));
#1368=APPLICATION_PROTOCOL_DEFINITION('international standard',
'ap242_managed_model_based_3d_engineering',2011,#1369);
#1369=APPLICATION_CONTEXT('Managed model based 3d engineering');
#1370=PRODUCT_CONTEXT('part definition',#1369,'mechanical');
#1371=PRODUCT('(Unsaved)','(Unsaved)',$,(#1370));
#1372=PRESENTATION_STYLE_ASSIGNMENT((#1375));
#1373=PRESENTATION_STYLE_ASSIGNMENT((#1376));
#1374=PRESENTATION_STYLE_ASSIGNMENT((#1377));
#1375=SURFACE_STYLE_USAGE(.BOTH.,#1378);
#1376=SURFACE_STYLE_USAGE(.BOTH.,#1379);
#1377=SURFACE_STYLE_USAGE(.BOTH.,#1380);
#1378=SURFACE_SIDE_STYLE('',(#1381));
#1379=SURFACE_SIDE_STYLE('',(#1382));
#1380=SURFACE_SIDE_STYLE('',(#1383));
#1381=SURFACE_STYLE_FILL_AREA(#1384);
#1382=SURFACE_STYLE_FILL_AREA(#1385);
#1383=SURFACE_STYLE_FILL_AREA(#1386);
#1384=FILL_AREA_STYLE('Steel - Satin',(#1387));
#1385=FILL_AREA_STYLE('Paint - Enamel Glossy (Black)',(#1388));
#1386=FILL_AREA_STYLE('Brass - Polished',(#1389));
#1387=FILL_AREA_STYLE_COLOUR('Steel - Satin',#1390);
#1388=FILL_AREA_STYLE_COLOUR('Paint - Enamel Glossy (Black)',#1391);
#1389=FILL_AREA_STYLE_COLOUR('Brass - Polished',#1392);
#1390=COLOUR_RGB('Steel - Satin',0.627450980392157,0.627450980392157,0.627450980392157);
#1391=COLOUR_RGB('Paint - Enamel Glossy (Black)',0.0980392156862745,0.0980392156862745,
0.0980392156862745);
#1392=COLOUR_RGB('Brass - Polished',0.952941176470588,0.796078431372549,
0.486274509803922);
ENDSEC;
END-ISO-10303-21;
