ISO-10303-21;
HEADER;
FILE_DESCRIPTION (( 'STEP AP214' ),
    '1' );
FILE_NAME ('WCSP4D.STEP',
    '2018-02-26T02:06:58',
    ( 'admin' ),
    ( 'Microsoft' ),
    'SwSTEP 2.0',
    'SolidWorks 2015',
    '' );
FILE_SCHEMA (( 'AUTOMOTIVE_DESIGN' ));
ENDSEC;

DATA;
#1 = CIRCLE ( 'NONE', #322, 0.1300000000000000000 ) ;
#2 = SURFACE_STYLE_USAGE ( .BOTH. , #498 ) ;
#3 = FACE_OUTER_BOUND ( 'NONE', #142, .T. ) ;
#4 = DIRECTION ( 'NONE',  ( -2.085004177856739300E-016, -1.000000000000000000, 0.0000000000000000000 ) ) ;
#5 = DIRECTION ( 'NONE',  ( 1.000000000000000000, 0.0000000000000000000, 0.0000000000000000000 ) ) ;
#6 = EDGE_LOOP ( 'NONE', ( #93, #198, #85 ) ) ;
#7 = DIRECTION ( 'NONE',  ( 1.000000000000000000, 0.0000000000000000000, 0.0000000000000000000 ) ) ;
#8 = ORIENTED_EDGE ( 'NONE', *, *, #158, .F. ) ;
#9 = FILL_AREA_STYLE ('',( #372 ) ) ;
#10 = EDGE_LOOP ( 'NONE', ( #277, #146, #321, #391 ) ) ;
#11 = FACE_OUTER_BOUND ( 'NONE', #580, .T. ) ;
#12 = CIRCLE ( 'NONE', #359, 0.1095445115010332800 ) ;
#13 = LINE ( 'NONE', #353, #128 ) ;
#14 = EDGE_CURVE ( 'NONE', #449, #367, #191, .T. ) ;
#15 = PRODUCT_DEFINITION_FORMATION_WITH_SPECIFIED_SOURCE ( 'ÈÎºÎ', '', #329, .NOT_KNOWN. ) ;
#16 = EDGE_CURVE ( 'NONE', #213, #350, #167, .T. ) ;
#17 = VERTEX_POINT ( 'NONE', #413 ) ;
#18 = PRESENTATION_LAYER_ASSIGNMENT (  '', '', ( #533 ) ) ;
#19 = MANIFOLD_SOLID_BREP ( 'LeadA1', #226 ) ;
#20 = DIRECTION ( 'NONE',  ( 1.000000000000000000, 0.0000000000000000000, 0.0000000000000000000 ) ) ;
#21 = AXIS2_PLACEMENT_3D ( 'NONE', #164, #390, #81 ) ;
#22 = SURFACE_STYLE_FILL_AREA ( #347 ) ;
#23 = CYLINDRICAL_SURFACE ( 'NONE', #479, 0.04999999999999999600 ) ;
#24 = SPHERICAL_SURFACE ( 'NONE', #225, 0.1300000000000000000 ) ;
#25 = CARTESIAN_POINT ( 'NONE',  ( 0.3949999999999999600, 0.3950000000000000200, 0.5500000000000000400 ) ) ;
#26 = DIRECTION ( 'NONE',  ( -1.000000000000000000, -0.0000000000000000000, -0.0000000000000000000 ) ) ;
#27 = VERTEX_POINT ( 'NONE', #282 ) ;
#28 = DIRECTION ( 'NONE',  ( -1.000000000000000000, 0.0000000000000000000, 0.0000000000000000000 ) ) ;
#29 = CIRCLE ( 'NONE', #291, 0.1095445115010332800 ) ;
#30 = DIRECTION ( 'NONE',  ( -1.000000000000000000, 1.224646799147353200E-016, 0.0000000000000000000 ) ) ;
#31 = AXIS2_PLACEMENT_3D ( 'NONE', #596, #30, #4 ) ;
#32 = PLANE ( 'NONE',  #569 ) ;
#33 = EDGE_LOOP ( 'NONE', ( #285, #357, #332, #451 ) ) ;
#34 = FACE_OUTER_BOUND ( 'NONE', #143, .T. ) ;
#35 = CARTESIAN_POINT ( 'NONE',  ( -0.2000000000000000100, 0.2000000000000000100, 0.2000000000000000400 ) ) ;
#36 = EDGE_CURVE ( 'NONE', #280, #190, #264, .T. ) ;
#37 =( LENGTH_UNIT ( ) NAMED_UNIT ( * ) SI_UNIT ( .MILLI., .METRE. ) );
#38 = FACE_OUTER_BOUND ( 'NONE', #501, .T. ) ;
#39 = DIRECTION ( 'NONE',  ( 1.372407813272790300E-016, -1.000000000000000000, 0.0000000000000000000 ) ) ;
#40 = DIRECTION ( 'NONE',  ( -1.000000000000000000, 0.0000000000000000000, 0.0000000000000000000 ) ) ;
#41 = ORIENTED_EDGE ( 'NONE', *, *, #362, .F. ) ;
#42 = SURFACE_SIDE_STYLE ('',( #22 ) ) ;
#43 = EDGE_LOOP ( 'NONE', ( #570, #552, #67, #229 ) ) ;
#44 = SURFACE_STYLE_FILL_AREA ( #385 ) ;
#45 = CARTESIAN_POINT ( 'NONE',  ( -0.3949999999999999600, -0.3950000000000000700, 0.5500000000000000400 ) ) ;
#46 = EDGE_LOOP ( 'NONE', ( #116, #338 ) ) ;
#47 = LINE ( 'NONE', #402, #352 ) ;
#48 = SURFACE_SIDE_STYLE ('',( #82 ) ) ;
#49 = EDGE_CURVE ( 'NONE', #27, #190, #495, .T. ) ;
#50 = PRODUCT_RELATED_PRODUCT_CATEGORY ( 'part', '', ( #329 ) ) ;
#51 = EDGE_CURVE ( 'NONE', #180, #546, #482, .T. ) ;
#52 = CARTESIAN_POINT ( 'NONE',  ( -0.1999999999999999000, -0.1999999999999999800, 0.1300000000000000000 ) ) ;
#53 = MECHANICAL_DESIGN_GEOMETRIC_PRESENTATION_REPRESENTATION (  '', ( #533 ), #74 ) ;
#54 = CARTESIAN_POINT ( 'NONE',  ( 0.2000000000000000900, -0.3095445115010332400, 0.2000000000000000400 ) ) ;
#55 = FACE_OUTER_BOUND ( 'NONE', #453, .T. ) ;
#56 = AXIS2_PLACEMENT_3D ( 'NONE', #75, #383, #120 ) ;
#57 = CARTESIAN_POINT ( 'NONE',  ( -0.3950000000000000700, 0.3950000000000000200, 0.5500000000000000400 ) ) ;
#58 = DIRECTION ( 'NONE',  ( 0.0000000000000000000, 1.000000000000000000, 0.0000000000000000000 ) ) ;
#59 = ORIENTED_EDGE ( 'NONE', *, *, #327, .F. ) ;
#60 = ORIENTED_EDGE ( 'NONE', *, *, #562, .F. ) ;
#61 = AXIS2_PLACEMENT_3D ( 'NONE', #238, #224, #545 ) ;
#62 = AXIS2_PLACEMENT_3D ( 'NONE', #57, #95, #361 ) ;
#63 = DIRECTION ( 'NONE',  ( 2.058611719909185700E-016, -1.000000000000000000, 0.0000000000000000000 ) ) ;
#64 = EDGE_CURVE ( 'NONE', #214, #414, #155, .T. ) ;
#65 = CYLINDRICAL_SURFACE ( 'NONE', #185, 0.04999999999999999600 ) ;
#66 = DIRECTION ( 'NONE',  ( 0.0000000000000000000, 0.0000000000000000000, 1.000000000000000000 ) ) ;
#67 = ORIENTED_EDGE ( 'NONE', *, *, #528, .T. ) ;
#68 = ORIENTED_EDGE ( 'NONE', *, *, #51, .F. ) ;
#69 = DIRECTION ( 'NONE',  ( 0.0000000000000000000, 1.000000000000000000, 0.0000000000000000000 ) ) ;
#70 = EDGE_CURVE ( 'NONE', #433, #449, #592, .T. ) ;
#71 = ORIENTED_EDGE ( 'NONE', *, *, #49, .T. ) ;
#72 = EDGE_CURVE ( 'NONE', #414, #456, #47, .T. ) ;
#73 = CARTESIAN_POINT ( 'NONE',  ( -0.2450000000000000500, -0.09500000000000008400, 0.5000000000000000000 ) ) ;
#74 =( GEOMETRIC_REPRESENTATION_CONTEXT ( 3 ) GLOBAL_UNCERTAINTY_ASSIGNED_CONTEXT ( ( #344 ) ) GLOBAL_UNIT_ASSIGNED_CONTEXT ( ( #37, #297, #571 ) ) REPRESENTATION_CONTEXT ( 'NONE', 'WORKASPACE' ) );
#75 = CARTESIAN_POINT ( 'NONE',  ( -0.1950000000000000600, -0.09500000000000008400, 0.5500000000000000400 ) ) ;
#76 = SURFACE_SIDE_STYLE ('',( #44 ) ) ;
#77 = APPLICATION_PROTOCOL_DEFINITION ( 'draft international standard', 'automotive_design', 1998, #467 ) ;
#78 = AXIS2_PLACEMENT_3D ( 'NONE', #345, #254, #448 ) ;
#79 = PLANE ( 'NONE',  #497 ) ;
#80 = UNCERTAINTY_MEASURE_WITH_UNIT (LENGTH_MEASURE( 1.000000000000000100E-005 ), #378, 'distance_accuracy_value', 'NONE');
#81 = DIRECTION ( 'NONE',  ( -1.372407813272790500E-016, 1.000000000000000000, 0.0000000000000000000 ) ) ;
#82 = SURFACE_STYLE_FILL_AREA ( #399 ) ;
#83 = DIRECTION ( 'NONE',  ( 1.000000000000000000, 0.0000000000000000000, 0.0000000000000000000 ) ) ;
#84 = ADVANCED_FACE ( 'NONE', ( #431, #34 ), #179, .T. ) ;
#85 = ORIENTED_EDGE ( 'NONE', *, *, #106, .F. ) ;
#86 = AXIS2_PLACEMENT_3D ( 'NONE', #187, #315, #7 ) ;
#87 = CLOSED_SHELL ( 'NONE', ( #232, #557, #234 ) ) ;
#88 = EDGE_LOOP ( 'NONE', ( #503, #542, #585, #481 ) ) ;
#89 = AXIS2_PLACEMENT_3D ( 'NONE', #92, #358, #311 ) ;
#90 = SPHERICAL_SURFACE ( 'NONE', #108, 0.1300000000000000000 ) ;
#91 = FACE_OUTER_BOUND ( 'NONE', #457, .T. ) ;
#92 = CARTESIAN_POINT ( 'NONE',  ( 0.2000000000000000900, -0.2000000000000000100, 0.2000000000000000400 ) ) ;
#93 = ORIENTED_EDGE ( 'NONE', *, *, #461, .F. ) ;
#94 = EDGE_CURVE ( 'NONE', #242, #214, #293, .T. ) ;
#95 = DIRECTION ( 'NONE',  ( 0.0000000000000000000, -1.000000000000000000, 0.0000000000000000000 ) ) ;
#96 = CARTESIAN_POINT ( 'NONE',  ( 0.2000000000000000100, 0.2000000000000000400, 0.0000000000000000000 ) ) ;
#97 = PRODUCT_DEFINITION_CONTEXT ( 'detailed design', #467, 'design' ) ;
#98 = VECTOR ( 'NONE', #131, 1000.000000000000000 ) ;
#99 = ORIENTED_EDGE ( 'NONE', *, *, #271, .F. ) ;
#100 = ORIENTED_EDGE ( 'NONE', *, *, #387, .F. ) ;
#101 = UNCERTAINTY_MEASURE_WITH_UNIT (LENGTH_MEASURE( 1.000000000000000100E-005 ), #541, 'distance_accuracy_value', 'NONE');
#102 = CLOSED_SHELL ( 'NONE', ( #241, #469, #235 ) ) ;
#103 = ORIENTED_EDGE ( 'NONE', *, *, #132, .T. ) ;
#104 = VECTOR ( 'NONE', #124, 1000.000000000000000 ) ;
#105 = EDGE_CURVE ( 'NONE', #17, #346, #549, .T. ) ;
#106 = EDGE_CURVE ( 'NONE', #546, #180, #161, .T. ) ;
#107 = ORIENTED_EDGE ( 'NONE', *, *, #72, .T. ) ;
#108 = AXIS2_PLACEMENT_3D ( 'NONE', #398, #529, #577 ) ;
#109 = CIRCLE ( 'NONE', #261, 0.1300000000000000000 ) ;
#110 = STYLED_ITEM ( 'NONE', ( #487 ), #555 ) ;
#111 = CARTESIAN_POINT ( 'NONE',  ( 0.2000000000000000900, -0.09045548849896674300, 0.2000000000000000400 ) ) ;
#112 = ORIENTED_EDGE ( 'NONE', *, *, #51, .T. ) ;
#113 = AXIS2_PLACEMENT_3D ( 'NONE', #404, #153, #331 ) ;
#114 = CIRCLE ( 'NONE', #197, 0.1095445115010332800 ) ;
#115 = DIRECTION ( 'NONE',  ( 0.0000000000000000000, 0.0000000000000000000, -1.000000000000000000 ) ) ;
#116 = ORIENTED_EDGE ( 'NONE', *, *, #299, .T. ) ;
#117 = AXIS2_PLACEMENT_3D ( 'NONE', #176, #270, #535 ) ;
#118 = VECTOR ( 'NONE', #188, 1000.000000000000000 ) ;
#119 = EDGE_CURVE ( 'NONE', #350, #213, #505, .T. ) ;
#120 = DIRECTION ( 'NONE',  ( 1.000000000000000000, 0.0000000000000000000, 0.0000000000000000000 ) ) ;
#121 = CARTESIAN_POINT ( 'NONE',  ( 0.0000000000000000000, 0.0000000000000000000, 0.2000000000000000100 ) ) ;
#122 = DIRECTION ( 'NONE',  ( 0.0000000000000000000, 1.000000000000000000, 0.0000000000000000000 ) ) ;
#123 = COLOUR_RGB ( '',1.000000000000000000, 1.000000000000000000, 1.000000000000000000 ) ;
#124 = DIRECTION ( 'NONE',  ( -0.0000000000000000000, -0.0000000000000000000, 1.000000000000000000 ) ) ;
#125 = CARTESIAN_POINT ( 'NONE',  ( 0.2000000000000000100, 0.2000000000000000100, 0.2000000000000000400 ) ) ;
#126 = ORIENTED_EDGE ( 'NONE', *, *, #106, .T. ) ;
#127 = SPHERICAL_SURFACE ( 'NONE', #407, 0.1300000000000000000 ) ;
#128 = VECTOR ( 'NONE', #129, 1000.000000000000000 ) ;
#129 = DIRECTION ( 'NONE',  ( -0.0000000000000000000, -0.0000000000000000000, -1.000000000000000000 ) ) ;
#130 = LINE ( 'NONE', #168, #98 ) ;
#131 = DIRECTION ( 'NONE',  ( -0.0000000000000000000, -0.0000000000000000000, -1.000000000000000000 ) ) ;
#132 = EDGE_CURVE ( 'NONE', #367, #563, #437, .T. ) ;
#133 = ORIENTED_EDGE ( 'NONE', *, *, #148, .F. ) ;
#134 = ORIENTED_EDGE ( 'NONE', *, *, #157, .T. ) ;
#135 = EDGE_CURVE ( 'NONE', #186, #436, #363, .T. ) ;
#136 = CARTESIAN_POINT ( 'NONE',  ( 0.3949999999999999600, 0.3950000000000000200, 0.5500000000000000400 ) ) ;
#137 = DIRECTION ( 'NONE',  ( -0.0000000000000000000, -0.0000000000000000000, 1.000000000000000000 ) ) ;
#138 = AXIS2_PLACEMENT_3D ( 'NONE', #266, #221, #208 ) ;
#139 = SPHERICAL_SURFACE ( 'NONE', #509, 0.1300000000000000000 ) ;
#140 = DIRECTION ( 'NONE',  ( -2.058611719909185900E-016, 1.000000000000000000, -0.0000000000000000000 ) ) ;
#141 = ADVANCED_FACE ( 'NONE', ( #459 ), #553, .F. ) ;
#142 = EDGE_LOOP ( 'NONE', ( #99, #134, #530 ) ) ;
#143 = EDGE_LOOP ( 'NONE', ( #178, #301, #246, #103 ) ) ;
#144 = PRESENTATION_LAYER_ASSIGNMENT (  '', '', ( #110 ) ) ;
#145 = AXIS2_PLACEMENT_3D ( 'NONE', #559, #66, #286 ) ;
#146 = ORIENTED_EDGE ( 'NONE', *, *, #16, .F. ) ;
#147 = ORIENTED_EDGE ( 'NONE', *, *, #565, .F. ) ;
#148 = EDGE_CURVE ( 'NONE', #346, #416, #114, .T. ) ;
#149 = FACE_OUTER_BOUND ( 'NONE', #532, .T. ) ;
#150 = ORIENTED_EDGE ( 'NONE', *, *, #435, .F. ) ;
#151 = DIRECTION ( 'NONE',  ( -0.0000000000000000000, -0.0000000000000000000, 1.000000000000000000 ) ) ;
#152 = DIRECTION ( 'NONE',  ( -2.085004177856739300E-016, -1.000000000000000000, 0.0000000000000000000 ) ) ;
#153 = DIRECTION ( 'NONE',  ( 0.0000000000000000000, 0.0000000000000000000, 1.000000000000000000 ) ) ;
#154 = ORIENTED_EDGE ( 'NONE', *, *, #36, .F. ) ;
#155 = LINE ( 'NONE', #411, #463 ) ;
#156 = CARTESIAN_POINT ( 'NONE',  ( 0.3949999999999999600, 0.3950000000000000200, 0.2000000000000000100 ) ) ;
#157 = EDGE_CURVE ( 'NONE', #375, #310, #278, .T. ) ;
#158 = EDGE_CURVE ( 'NONE', #416, #346, #29, .T. ) ;
#159 = DIRECTION ( 'NONE',  ( -0.0000000000000000000, 0.0000000000000000000, 1.000000000000000000 ) ) ;
#160 = AXIS2_PLACEMENT_3D ( 'NONE', #121, #159, #421 ) ;
#161 = CIRCLE ( 'NONE', #86, 0.1095445115010332800 ) ;
#162 = DIRECTION ( 'NONE',  ( 0.0000000000000000000, 0.0000000000000000000, -1.000000000000000000 ) ) ;
#163 = DIRECTION ( 'NONE',  ( 0.0000000000000000000, 0.0000000000000000000, -1.000000000000000000 ) ) ;
#164 = CARTESIAN_POINT ( 'NONE',  ( -0.3950000000000000700, 0.3950000000000000200, 0.5500000000000000400 ) ) ;
#165 = CARTESIAN_POINT ( 'NONE',  ( 0.3950000000000001300, -0.3950000000000000200, 0.2000000000000000100 ) ) ;
#166 = MECHANICAL_DESIGN_GEOMETRIC_PRESENTATION_REPRESENTATION (  '', ( #110 ), #193 ) ;
#167 = CIRCLE ( 'NONE', #182, 0.04999999999999999600 ) ;
#168 = CARTESIAN_POINT ( 'NONE',  ( 0.3950000000000001300, -0.3950000000000000200, 0.5500000000000000400 ) ) ;
#169 = STYLED_ITEM ( 'NONE', ( #365 ), #374 ) ;
#170 = SPHERICAL_SURFACE ( 'NONE', #440, 0.1300000000000000000 ) ;
#171 = ADVANCED_FACE ( 'NONE', ( #335 ), #317, .T. ) ;
#172 = CARTESIAN_POINT ( 'NONE',  ( -0.1950000000000000600, -0.09500000000000008400, 0.5000000000000000000 ) ) ;
#173 = VECTOR ( 'NONE', #597, 1000.000000000000000 ) ;
#174 = EDGE_CURVE ( 'NONE', #280, #27, #1, .T. ) ;
#175 = UNCERTAINTY_MEASURE_WITH_UNIT (LENGTH_MEASURE( 1.000000000000000100E-005 ), #429, 'distance_accuracy_value', 'NONE');
#176 = CARTESIAN_POINT ( 'NONE',  ( 0.2000000000000000900, -0.09045548849896673000, 0.2000000000000000400 ) ) ;
#177 =( NAMED_UNIT ( * ) PLANE_ANGLE_UNIT ( ) SI_UNIT ( $, .RADIAN. ) );
#178 = ORIENTED_EDGE ( 'NONE', *, *, #233, .T. ) ;
#179 = PLANE ( 'NONE',  #61 ) ;
#180 = VERTEX_POINT ( 'NONE', #377 ) ;
#181 = VERTEX_POINT ( 'NONE', #111 ) ;
#182 = AXIS2_PLACEMENT_3D ( 'NONE', #275, #272, #219 ) ;
#183 = LINE ( 'NONE', #294, #173 ) ;
#184 = FACE_OUTER_BOUND ( 'NONE', #43, .T. ) ;
#185 = AXIS2_PLACEMENT_3D ( 'NONE', #212, #521, #423 ) ;
#186 = VERTEX_POINT ( 'NONE', #428 ) ;
#187 = CARTESIAN_POINT ( 'NONE',  ( -0.1999999999999999000, -0.2000000000000000100, 0.2000000000000000400 ) ) ;
#188 = DIRECTION ( 'NONE',  ( 1.000000000000000000, 6.862039066363951400E-017, 0.0000000000000000000 ) ) ;
#189 = DIRECTION ( 'NONE',  ( -1.000000000000000000, 1.224646799147353200E-016, 0.0000000000000000000 ) ) ;
#190 = VERTEX_POINT ( 'NONE', #248 ) ;
#191 = LINE ( 'NONE', #25, #230 ) ;
#192 = CARTESIAN_POINT ( 'NONE',  ( 0.2000000000000000100, 0.2000000000000000400, 0.1300000000000000000 ) ) ;
#193 =( GEOMETRIC_REPRESENTATION_CONTEXT ( 3 ) GLOBAL_UNCERTAINTY_ASSIGNED_CONTEXT ( ( #175 ) ) GLOBAL_UNIT_ASSIGNED_CONTEXT ( ( #429, #419, #405 ) ) REPRESENTATION_CONTEXT ( 'NONE', 'WORKASPACE' ) );
#194 = CARTESIAN_POINT ( 'NONE',  ( 0.2000000000000000900, -0.1999999999999999800, 0.1300000000000000000 ) ) ;
#195 = DIRECTION ( 'NONE',  ( 1.000000000000000000, 0.0000000000000000000, 0.0000000000000000000 ) ) ;
#196 = ORIENTED_EDGE ( 'NONE', *, *, #70, .F. ) ;
#197 = AXIS2_PLACEMENT_3D ( 'NONE', #318, #290, #561 ) ;
#198 = ORIENTED_EDGE ( 'NONE', *, *, #565, .T. ) ;
#199 = DIRECTION ( 'NONE',  ( 1.000000000000000000, 0.0000000000000000000, 0.0000000000000000000 ) ) ;
#200 = FACE_OUTER_BOUND ( 'NONE', #10, .T. ) ;
#201 = AXIS2_PLACEMENT_3D ( 'NONE', #172, #590, #267 ) ;
#202 = ORIENTED_EDGE ( 'NONE', *, *, #174, .T. ) ;
#203 = EDGE_CURVE ( 'NONE', #350, #436, #370, .T. ) ;
#204 = CARTESIAN_POINT ( 'NONE',  ( -0.1999999999999999000, -0.3095445115010332400, 0.2000000000000000400 ) ) ;
#205 = ADVANCED_FACE ( 'NONE', ( #386 ), #127, .T. ) ;
#206 = CARTESIAN_POINT ( 'NONE',  ( -0.3950000000000000700, 0.3950000000000000200, 0.2000000000000000100 ) ) ;
#207 = VECTOR ( 'NONE', #412, 1000.000000000000000 ) ;
#208 = DIRECTION ( 'NONE',  ( 0.0000000000000000000, 0.0000000000000000000, -1.000000000000000000 ) ) ;
#209 = CARTESIAN_POINT ( 'NONE',  ( 0.2000000000000000100, 0.2000000000000000400, 0.1300000000000000000 ) ) ;
#210 = VERTEX_POINT ( 'NONE', #389 ) ;
#211 = CARTESIAN_POINT ( 'NONE',  ( 0.3950000000000001300, -0.3950000000000000200, 0.5500000000000000400 ) ) ;
#212 = CARTESIAN_POINT ( 'NONE',  ( -0.1950000000000000600, -0.09500000000000008400, 0.5000000000000000000 ) ) ;
#213 = VERTEX_POINT ( 'NONE', #517 ) ;
#214 = VERTEX_POINT ( 'NONE', #206 ) ;
#215 = FACE_OUTER_BOUND ( 'NONE', #216, .T. ) ;
#216 = EDGE_LOOP ( 'NONE', ( #112, #126 ) ) ;
#217 = STYLED_ITEM ( 'NONE', ( #288 ), #19 ) ;
#218 = UNCERTAINTY_MEASURE_WITH_UNIT (LENGTH_MEASURE( 1.000000000000000100E-005 ), #581, 'distance_accuracy_value', 'NONE');
#219 = DIRECTION ( 'NONE',  ( 1.000000000000000000, 0.0000000000000000000, 0.0000000000000000000 ) ) ;
#220 = CARTESIAN_POINT ( 'NONE',  ( -0.1999999999999999000, -0.2000000000000000100, 0.2000000000000000400 ) ) ;
#221 = DIRECTION ( 'NONE',  ( 1.000000000000000000, 0.0000000000000000000, 0.0000000000000000000 ) ) ;
#222 = DIRECTION ( 'NONE',  ( -1.000000000000000000, 0.0000000000000000000, 0.0000000000000000000 ) ) ;
#223 = ORIENTED_EDGE ( 'NONE', *, *, #157, .F. ) ;
#224 = DIRECTION ( 'NONE',  ( -0.0000000000000000000, 0.0000000000000000000, 1.000000000000000000 ) ) ;
#225 = AXIS2_PLACEMENT_3D ( 'NONE', #255, #40, #360 ) ;
#226 = CLOSED_SHELL ( 'NONE', ( #250, #205, #240 ) ) ;
#227 =( NAMED_UNIT ( * ) SI_UNIT ( $, .STERADIAN. ) SOLID_ANGLE_UNIT ( ) );
#228 = AXIS2_PLACEMENT_3D ( 'NONE', #279, #455, #63 ) ;
#229 = ORIENTED_EDGE ( 'NONE', *, *, #593, .F. ) ;
#230 = VECTOR ( 'NONE', #140, 1000.000000000000000 ) ;
#231 = PRESENTATION_LAYER_ASSIGNMENT (  '', '', ( #169 ) ) ;
#232 = ADVANCED_FACE ( 'NONE', ( #11 ), #170, .T. ) ;
#233 = EDGE_CURVE ( 'NONE', #563, #433, #259, .T. ) ;
#234 = ADVANCED_FACE ( 'NONE', ( #393 ), #79, .F. ) ;
#235 = ADVANCED_FACE ( 'NONE', ( #323 ), #32, .F. ) ;
#236 = CARTESIAN_POINT ( 'NONE',  ( -0.3949999999999999600, -0.3950000000000000700, 0.5500000000000000400 ) ) ;
#237 = MANIFOLD_SOLID_BREP ( 'LeadB1', #584 ) ;
#238 = CARTESIAN_POINT ( 'NONE',  ( 0.0000000000000000000, 0.0000000000000000000, 0.5500000000000000400 ) ) ;
#239 = ADVANCED_FACE ( 'NONE', ( #477 ), #464, .F. ) ;
#240 = ADVANCED_FACE ( 'NONE', ( #215 ), #512, .F. ) ;
#241 = ADVANCED_FACE ( 'NONE', ( #298 ), #325, .T. ) ;
#242 = VERTEX_POINT ( 'NONE', #156 ) ;
#243 = EDGE_LOOP ( 'NONE', ( #223, #337, #59 ) ) ;
#244 = VECTOR ( 'NONE', #26, 1000.000000000000000 ) ;
#245 = ADVANCED_FACE ( 'NONE', ( #184 ), #23, .F. ) ;
#246 = ORIENTED_EDGE ( 'NONE', *, *, #14, .T. ) ;
#247 = SURFACE_STYLE_FILL_AREA ( #9 ) ;
#248 = CARTESIAN_POINT ( 'NONE',  ( 0.2000000000000000100, 0.09045548849896677100, 0.2000000000000000400 ) ) ;
#249 = PRESENTATION_LAYER_ASSIGNMENT (  '', '', ( #217 ) ) ;
#250 = ADVANCED_FACE ( 'NONE', ( #91 ), #139, .T. ) ;
#251 = DIRECTION ( 'NONE',  ( -1.000000000000000000, 0.0000000000000000000, -0.0000000000000000000 ) ) ;
#252 = DIRECTION ( 'NONE',  ( -0.0000000000000000000, -0.0000000000000000000, 1.000000000000000000 ) ) ;
#253 = CARTESIAN_POINT ( 'NONE',  ( 0.2000000000000000100, 0.2000000000000000400, 0.1300000000000000000 ) ) ;
#254 = DIRECTION ( 'NONE',  ( -1.000000000000000000, 0.0000000000000000000, 0.0000000000000000000 ) ) ;
#255 = CARTESIAN_POINT ( 'NONE',  ( 0.2000000000000000900, -0.1999999999999999800, 0.1300000000000000000 ) ) ;
#256 =( NAMED_UNIT ( * ) PLANE_ANGLE_UNIT ( ) SI_UNIT ( $, .RADIAN. ) );
#257 = DIRECTION ( 'NONE',  ( -0.0000000000000000000, -0.0000000000000000000, -1.000000000000000000 ) ) ;
#258 = ORIENTED_EDGE ( 'NONE', *, *, #158, .T. ) ;
#259 = LINE ( 'NONE', #342, #493 ) ;
#260 = CARTESIAN_POINT ( 'NONE',  ( -0.2450000000000000500, -0.09500000000000008400, 0.5500000000000000400 ) ) ;
#261 = AXIS2_PLACEMENT_3D ( 'NONE', #319, #5, #594 ) ;
#262 =( NAMED_UNIT ( * ) PLANE_ANGLE_UNIT ( ) SI_UNIT ( $, .RADIAN. ) );
#263 = ORIENTED_EDGE ( 'NONE', *, *, #551, .F. ) ;
#264 = CIRCLE ( 'NONE', #476, 0.1300000000000000000 ) ;
#265 = AXIS2_PLACEMENT_3D ( 'NONE', #194, #458, #152 ) ;
#266 = CARTESIAN_POINT ( 'NONE',  ( -0.2000000000000000100, 0.2000000000000000400, 0.1300000000000000000 ) ) ;
#267 = DIRECTION ( 'NONE',  ( 1.000000000000000000, 0.0000000000000000000, -0.0000000000000000000 ) ) ;
#268 = MECHANICAL_DESIGN_GEOMETRIC_PRESENTATION_REPRESENTATION (  '', ( #169 ), #295 ) ;
#269 = CARTESIAN_POINT ( 'NONE',  ( 0.3949999999999999600, 0.3950000000000000200, 0.2000000000000000100 ) ) ;
#270 = DIRECTION ( 'NONE',  ( 0.0000000000000000000, 0.0000000000000000000, -1.000000000000000000 ) ) ;
#271 = EDGE_CURVE ( 'NONE', #375, #181, #284, .T. ) ;
#272 = DIRECTION ( 'NONE',  ( 0.0000000000000000000, 0.0000000000000000000, 1.000000000000000000 ) ) ;
#273 = DIRECTION ( 'NONE',  ( 1.000000000000000000, 0.0000000000000000000, 0.0000000000000000000 ) ) ;
#274 = DIRECTION ( 'NONE',  ( -0.0000000000000000000, -0.0000000000000000000, 1.000000000000000000 ) ) ;
#275 = CARTESIAN_POINT ( 'NONE',  ( -0.1950000000000000600, -0.09500000000000008400, 0.5000000000000000000 ) ) ;
#276 = EDGE_LOOP ( 'NONE', ( #523, #441 ) ) ;
#277 = ORIENTED_EDGE ( 'NONE', *, *, #203, .F. ) ;
#278 = CIRCLE ( 'NONE', #265, 0.1300000000000000000 ) ;
#279 = CARTESIAN_POINT ( 'NONE',  ( 0.3949999999999999600, 0.3950000000000000200, 0.5500000000000000400 ) ) ;
#280 = VERTEX_POINT ( 'NONE', #96 ) ;
#281 = COLOUR_RGB ( '',1.000000000000000000, 1.000000000000000000, 1.000000000000000000 ) ;
#282 = CARTESIAN_POINT ( 'NONE',  ( 0.2000000000000000100, 0.3095445115010332900, 0.2000000000000000400 ) ) ;
#283 = MECHANICAL_DESIGN_GEOMETRIC_PRESENTATION_REPRESENTATION (  '', ( #217 ), #450 ) ;
#284 = CIRCLE ( 'NONE', #452, 0.1300000000000000000 ) ;
#285 = ORIENTED_EDGE ( 'NONE', *, *, #526, .T. ) ;
#286 = DIRECTION ( 'NONE',  ( 1.000000000000000000, 0.0000000000000000000, 0.0000000000000000000 ) ) ;
#287 = ORIENTED_EDGE ( 'NONE', *, *, #105, .F. ) ;
#288 = PRESENTATION_STYLE_ASSIGNMENT (( #2 ) ) ;
#289 =( GEOMETRIC_REPRESENTATION_CONTEXT ( 3 ) GLOBAL_UNCERTAINTY_ASSIGNED_CONTEXT ( ( #101 ) ) GLOBAL_UNIT_ASSIGNED_CONTEXT ( ( #541, #538, #536 ) ) REPRESENTATION_CONTEXT ( 'NONE', 'WORKASPACE' ) );
#290 = DIRECTION ( 'NONE',  ( -0.0000000000000000000, -0.0000000000000000000, 1.000000000000000000 ) ) ;
#291 = AXIS2_PLACEMENT_3D ( 'NONE', #35, #292, #567 ) ;
#292 = DIRECTION ( 'NONE',  ( -0.0000000000000000000, -0.0000000000000000000, 1.000000000000000000 ) ) ;
#293 = LINE ( 'NONE', #506, #244 ) ;
#294 = CARTESIAN_POINT ( 'NONE',  ( -0.3949999999999999600, -0.3950000000000000700, 0.5500000000000000400 ) ) ;
#295 =( GEOMETRIC_REPRESENTATION_CONTEXT ( 3 ) GLOBAL_UNCERTAINTY_ASSIGNED_CONTEXT ( ( #304 ) ) GLOBAL_UNIT_ASSIGNED_CONTEXT ( ( #587, #262, #525 ) ) REPRESENTATION_CONTEXT ( 'NONE', 'WORKASPACE' ) );
#296 = FACE_OUTER_BOUND ( 'NONE', #422, .T. ) ;
#297 =( NAMED_UNIT ( * ) PLANE_ANGLE_UNIT ( ) SI_UNIT ( $, .RADIAN. ) );
#298 = FACE_OUTER_BOUND ( 'NONE', #326, .T. ) ;
#299 = EDGE_CURVE ( 'NONE', #181, #310, #568, .T. ) ;
#300 = CARTESIAN_POINT ( 'NONE',  ( -0.2000000000000000100, 0.3095445115010332900, 0.2000000000000000400 ) ) ;
#301 = ORIENTED_EDGE ( 'NONE', *, *, #70, .T. ) ;
#302 = ADVANCED_FACE ( 'NONE', ( #149 ), #314, .F. ) ;
#303 = CARTESIAN_POINT ( 'NONE',  ( -0.1999999999999999000, -0.1999999999999999800, 0.1300000000000000000 ) ) ;
#304 = UNCERTAINTY_MEASURE_WITH_UNIT (LENGTH_MEASURE( 1.000000000000000100E-005 ), #587, 'distance_accuracy_value', 'NONE');
#305 = ADVANCED_FACE ( 'NONE', ( #371 ), #486, .F. ) ;
#306 = CARTESIAN_POINT ( 'NONE',  ( -0.1450000000000000500, -0.09500000000000008400, 0.5000000000000000000 ) ) ;
#307 = SURFACE_STYLE_USAGE ( .BOTH. , #42 ) ;
#308 = DIRECTION ( 'NONE',  ( -6.862039066363952600E-017, 1.000000000000000000, 0.0000000000000000000 ) ) ;
#309 = SURFACE_STYLE_USAGE ( .BOTH. , #48 ) ;
#310 = VERTEX_POINT ( 'NONE', #54 ) ;
#311 = DIRECTION ( 'NONE',  ( 1.000000000000000000, 0.0000000000000000000, 0.0000000000000000000 ) ) ;
#312 = UNCERTAINTY_MEASURE_WITH_UNIT (LENGTH_MEASURE( 1.000000000000000100E-005 ), #488, 'distance_accuracy_value', 'NONE');
#313 = ORIENTED_EDGE ( 'NONE', *, *, #562, .T. ) ;
#314 = PLANE ( 'NONE',  #62 ) ;
#315 = DIRECTION ( 'NONE',  ( -0.0000000000000000000, -0.0000000000000000000, 1.000000000000000000 ) ) ;
#316 = CARTESIAN_POINT ( 'NONE',  ( -0.1950000000000000600, -0.09500000000000008400, 0.5000000000000000000 ) ) ;
#317 = SPHERICAL_SURFACE ( 'NONE', #354, 0.1300000000000000000 ) ;
#318 = CARTESIAN_POINT ( 'NONE',  ( -0.2000000000000000100, 0.2000000000000000100, 0.2000000000000000400 ) ) ;
#319 = CARTESIAN_POINT ( 'NONE',  ( -0.1999999999999999000, -0.1999999999999999800, 0.1300000000000000000 ) ) ;
#320 = ADVANCED_BREP_SHAPE_REPRESENTATION ( 'WCSP4D', ( #374, #447, #555, #237, #19, #527 ), #289 ) ;
#321 = ORIENTED_EDGE ( 'NONE', *, *, #593, .T. ) ;
#322 = AXIS2_PLACEMENT_3D ( 'NONE', #209, #471, #163 ) ;
#323 = FACE_OUTER_BOUND ( 'NONE', #491, .T. ) ;
#324 = VECTOR ( 'NONE', #425, 1000.000000000000000 ) ;
#325 = SPHERICAL_SURFACE ( 'NONE', #415, 0.1300000000000000000 ) ;
#326 = EDGE_LOOP ( 'NONE', ( #60, #560, #8 ) ) ;
#327 = EDGE_CURVE ( 'NONE', #310, #181, #336, .T. ) ;
#328 = DIRECTION ( 'NONE',  ( 1.372407813272790300E-016, -1.000000000000000000, 0.0000000000000000000 ) ) ;
#329 = PRODUCT ( 'WCSP4D', 'WCSP4D', '', ( #582 ) ) ;
#330 = CARTESIAN_POINT ( 'NONE',  ( 0.2000000000000000900, -0.1999999999999999800, 0.1300000000000000000 ) ) ;
#331 = DIRECTION ( 'NONE',  ( 1.000000000000000000, 0.0000000000000000000, 0.0000000000000000000 ) ) ;
#332 = ORIENTED_EDGE ( 'NONE', *, *, #14, .F. ) ;
#333 = ORIENTED_EDGE ( 'NONE', *, *, #49, .F. ) ;
#334 = CARTESIAN_POINT ( 'NONE',  ( -0.2000000000000000100, 0.2000000000000000400, 0.1300000000000000000 ) ) ;
#335 = FACE_OUTER_BOUND ( 'NONE', #243, .T. ) ;
#336 = CIRCLE ( 'NONE', #89, 0.1095445115010333100 ) ;
#337 = ORIENTED_EDGE ( 'NONE', *, *, #271, .T. ) ;
#338 = ORIENTED_EDGE ( 'NONE', *, *, #327, .T. ) ;
#339 = ADVANCED_FACE ( 'NONE', ( #556 ), #595, .T. ) ;
#340 = SURFACE_STYLE_USAGE ( .BOTH. , #76 ) ;
#341 = SURFACE_SIDE_STYLE ('',( #578 ) ) ;
#342 = CARTESIAN_POINT ( 'NONE',  ( -0.3950000000000000700, 0.3950000000000000200, 0.5500000000000000400 ) ) ;
#343 = PRODUCT_DEFINITION_SHAPE ( 'NONE', 'NONE',  #564 ) ;
#344 = UNCERTAINTY_MEASURE_WITH_UNIT (LENGTH_MEASURE( 1.000000000000000100E-005 ), #37, 'distance_accuracy_value', 'NONE');
#345 = CARTESIAN_POINT ( 'NONE',  ( -0.2000000000000000100, 0.2000000000000000400, 0.1300000000000000000 ) ) ;
#346 = VERTEX_POINT ( 'NONE', #442 ) ;
#347 = FILL_AREA_STYLE ('',( #522 ) ) ;
#348 = ORIENTED_EDGE ( 'NONE', *, *, #233, .F. ) ;
#349 = CARTESIAN_POINT ( 'NONE',  ( -0.3949999999999999600, -0.3950000000000000700, 0.5500000000000000400 ) ) ;
#350 = VERTEX_POINT ( 'NONE', #483 ) ;
#351 = STYLED_ITEM ( 'NONE', ( #573 ), #320 ) ;
#352 = VECTOR ( 'NONE', #543, 1000.000000000000000 ) ;
#353 = CARTESIAN_POINT ( 'NONE',  ( -0.3950000000000000700, 0.3950000000000000200, 0.5500000000000000400 ) ) ;
#354 = AXIS2_PLACEMENT_3D ( 'NONE', #330, #28, #69 ) ;
#355 = ORIENTED_EDGE ( 'NONE', *, *, #64, .T. ) ;
#356 = CARTESIAN_POINT ( 'NONE',  ( -0.3950000000000000700, 0.3950000000000000200, 0.5500000000000000400 ) ) ;
#357 = ORIENTED_EDGE ( 'NONE', *, *, #496, .F. ) ;
#358 = DIRECTION ( 'NONE',  ( -0.0000000000000000000, -0.0000000000000000000, 1.000000000000000000 ) ) ;
#359 = AXIS2_PLACEMENT_3D ( 'NONE', #125, #394, #83 ) ;
#360 = DIRECTION ( 'NONE',  ( 0.0000000000000000000, 1.000000000000000000, 0.0000000000000000000 ) ) ;
#361 = DIRECTION ( 'NONE',  ( 0.0000000000000000000, -0.0000000000000000000, -1.000000000000000000 ) ) ;
#362 = EDGE_CURVE ( 'NONE', #449, #456, #130, .T. ) ;
#363 = CIRCLE ( 'NONE', #145, 0.04999999999999999600 ) ;
#364 = PRESENTATION_STYLE_ASSIGNMENT (( #307 ) ) ;
#365 = PRESENTATION_STYLE_ASSIGNMENT (( #309 ) ) ;
#366 = DIRECTION ( 'NONE',  ( -0.0000000000000000000, -0.0000000000000000000, 1.000000000000000000 ) ) ;
#367 = VERTEX_POINT ( 'NONE', #136 ) ;
#368 = COLOUR_RGB ( '',1.000000000000000000, 1.000000000000000000, 1.000000000000000000 ) ;
#369 = ORIENTED_EDGE ( 'NONE', *, *, #461, .T. ) ;
#370 = LINE ( 'NONE', #73, #104 ) ;
#371 = FACE_OUTER_BOUND ( 'NONE', #46, .T. ) ;
#372 = FILL_AREA_STYLE_COLOUR ( '', #281 ) ;
#373 = ORIENTED_EDGE ( 'NONE', *, *, #435, .T. ) ;
#374 = MANIFOLD_SOLID_BREP ( 'Mold', #380 ) ;
#375 = VERTEX_POINT ( 'NONE', #531 ) ;
#376 = COLOUR_RGB ( '',1.000000000000000000, 1.000000000000000000, 1.000000000000000000 ) ;
#377 = CARTESIAN_POINT ( 'NONE',  ( -0.1999999999999999000, -0.09045548849896674300, 0.2000000000000000400 ) ) ;
#378 =( LENGTH_UNIT ( ) NAMED_UNIT ( * ) SI_UNIT ( .MILLI., .METRE. ) );
#379 = PRESENTATION_LAYER_ASSIGNMENT (  '', '', ( #351 ) ) ;
#380 = CLOSED_SHELL ( 'NONE', ( #245, #460, #427, #141, #302, #84, #239, #554, #339 ) ) ;
#381 = DIRECTION ( 'NONE',  ( -1.000000000000000000, 0.0000000000000000000, 0.0000000000000000000 ) ) ;
#382 = DIRECTION ( 'NONE',  ( -2.085004177856739300E-016, -1.000000000000000000, 0.0000000000000000000 ) ) ;
#383 = DIRECTION ( 'NONE',  ( 0.0000000000000000000, 0.0000000000000000000, 1.000000000000000000 ) ) ;
#384 = AXIS2_PLACEMENT_3D ( 'NONE', #45, #308, #583 ) ;
#385 = FILL_AREA_STYLE ('',( #515 ) ) ;
#386 = FACE_OUTER_BOUND ( 'NONE', #6, .T. ) ;
#387 = EDGE_CURVE ( 'NONE', #563, #214, #13, .T. ) ;
#388 = ORIENTED_EDGE ( 'NONE', *, *, #174, .F. ) ;
#389 = CARTESIAN_POINT ( 'NONE',  ( -0.1999999999999999000, -0.1999999999999999800, 0.0000000000000000000 ) ) ;
#390 = DIRECTION ( 'NONE',  ( 1.000000000000000000, 1.372407813272790500E-016, -0.0000000000000000000 ) ) ;
#391 = ORIENTED_EDGE ( 'NONE', *, *, #135, .T. ) ;
#392 = VECTOR ( 'NONE', #252, 1000.000000000000000 ) ;
#393 = FACE_OUTER_BOUND ( 'NONE', #591, .T. ) ;
#394 = DIRECTION ( 'NONE',  ( -0.0000000000000000000, -0.0000000000000000000, 1.000000000000000000 ) ) ;
#395 = CARTESIAN_POINT ( 'NONE',  ( -0.2000000000000000100, 0.3095445115010332900, 0.2000000000000000400 ) ) ;
#396 = ORIENTED_EDGE ( 'NONE', *, *, #148, .T. ) ;
#397 = AXIS2_PLACEMENT_3D ( 'NONE', #466, #115, #417 ) ;
#398 = CARTESIAN_POINT ( 'NONE',  ( 0.2000000000000000100, 0.2000000000000000400, 0.1300000000000000000 ) ) ;
#399 = FILL_AREA_STYLE ('',( #438 ) ) ;
#400 = COLOUR_RGB ( '',1.000000000000000000, 1.000000000000000000, 1.000000000000000000 ) ;
#401 = DIRECTION ( 'NONE',  ( 1.000000000000000000, 0.0000000000000000000, 0.0000000000000000000 ) ) ;
#402 = CARTESIAN_POINT ( 'NONE',  ( -0.3949999999999999600, -0.3950000000000000700, 0.2000000000000000100 ) ) ;
#403 = EDGE_LOOP ( 'NONE', ( #355, #263, #348, #430 ) ) ;
#404 = CARTESIAN_POINT ( 'NONE',  ( -0.1950000000000000600, -0.09500000000000008400, 0.5000000000000000000 ) ) ;
#405 =( NAMED_UNIT ( * ) SI_UNIT ( $, .STERADIAN. ) SOLID_ANGLE_UNIT ( ) );
#406 = MECHANICAL_DESIGN_GEOMETRIC_PRESENTATION_REPRESENTATION (  '', ( #351 ), #434 ) ;
#407 = AXIS2_PLACEMENT_3D ( 'NONE', #303, #510, #575 ) ;
#408 = DIRECTION ( 'NONE',  ( -2.085004177856739300E-016, -1.000000000000000000, 0.0000000000000000000 ) ) ;
#409 = VECTOR ( 'NONE', #257, 1000.000000000000000 ) ;
#410 = STYLED_ITEM ( 'NONE', ( #364 ), #447 ) ;
#411 = CARTESIAN_POINT ( 'NONE',  ( -0.3950000000000000700, 0.3950000000000000200, 0.2000000000000000100 ) ) ;
#412 = DIRECTION ( 'NONE',  ( -1.000000000000000000, -0.0000000000000000000, -0.0000000000000000000 ) ) ;
#413 = CARTESIAN_POINT ( 'NONE',  ( -0.2000000000000000100, 0.2000000000000000400, 0.0000000000000000000 ) ) ;
#414 = VERTEX_POINT ( 'NONE', #478 ) ;
#415 = AXIS2_PLACEMENT_3D ( 'NONE', #334, #381, #58 ) ;
#416 = VERTEX_POINT ( 'NONE', #395 ) ;
#417 = DIRECTION ( 'NONE',  ( -1.000000000000000000, 0.0000000000000000000, -0.0000000000000000000 ) ) ;
#418 = ORIENTED_EDGE ( 'NONE', *, *, #94, .T. ) ;
#419 =( NAMED_UNIT ( * ) PLANE_ANGLE_UNIT ( ) SI_UNIT ( $, .RADIAN. ) );
#420 = LINE ( 'NONE', #269, #324 ) ;
#421 = DIRECTION ( 'NONE',  ( 1.000000000000000000, 0.0000000000000000000, 0.0000000000000000000 ) ) ;
#422 = EDGE_LOOP ( 'NONE', ( #154, #202, #150 ) ) ;
#423 = DIRECTION ( 'NONE',  ( 1.000000000000000000, 0.0000000000000000000, 0.0000000000000000000 ) ) ;
#424 = DIRECTION ( 'NONE',  ( -1.000000000000000000, 0.0000000000000000000, -0.0000000000000000000 ) ) ;
#425 = DIRECTION ( 'NONE',  ( -2.058611719909185900E-016, 1.000000000000000000, -0.0000000000000000000 ) ) ;
#426 = CARTESIAN_POINT ( 'NONE',  ( 0.2000000000000000100, 0.3095445115010332900, 0.2000000000000000400 ) ) ;
#427 = ADVANCED_FACE ( 'NONE', ( #38 ), #432, .F. ) ;
#428 = CARTESIAN_POINT ( 'NONE',  ( -0.1450000000000000500, -0.09500000000000008400, 0.5500000000000000400 ) ) ;
#429 =( LENGTH_UNIT ( ) NAMED_UNIT ( * ) SI_UNIT ( .MILLI., .METRE. ) );
#430 = ORIENTED_EDGE ( 'NONE', *, *, #387, .T. ) ;
#431 = FACE_BOUND ( 'NONE', #462, .T. ) ;
#432 = PLANE ( 'NONE',  #384 ) ;
#433 = VERTEX_POINT ( 'NONE', #349 ) ;
#434 =( GEOMETRIC_REPRESENTATION_CONTEXT ( 3 ) GLOBAL_UNCERTAINTY_ASSIGNED_CONTEXT ( ( #312 ) ) GLOBAL_UNIT_ASSIGNED_CONTEXT ( ( #488, #485, #484 ) ) REPRESENTATION_CONTEXT ( 'NONE', 'WORKASPACE' ) );
#435 = EDGE_CURVE ( 'NONE', #190, #27, #12, .T. ) ;
#436 = VERTEX_POINT ( 'NONE', #260 ) ;
#437 = LINE ( 'NONE', #502, #207 ) ;
#438 = FILL_AREA_STYLE_COLOUR ( '', #576 ) ;
#439 = CIRCLE ( 'NONE', #56, 0.04999999999999999600 ) ;
#440 = AXIS2_PLACEMENT_3D ( 'NONE', #253, #468, #122 ) ;
#441 = ORIENTED_EDGE ( 'NONE', *, *, #119, .T. ) ;
#442 = CARTESIAN_POINT ( 'NONE',  ( -0.2000000000000000100, 0.09045548849896677100, 0.2000000000000000400 ) ) ;
#443 = PRESENTATION_LAYER_ASSIGNMENT (  '', '', ( #410 ) ) ;
#444 = CARTESIAN_POINT ( 'NONE',  ( 0.3949999999999999600, 0.3950000000000000200, 0.5500000000000000400 ) ) ;
#445 = CARTESIAN_POINT ( 'NONE',  ( 0.2000000000000000900, -0.2000000000000000100, 0.2000000000000000400 ) ) ;
#446 = CARTESIAN_POINT ( 'NONE',  ( -0.1999999999999999000, -0.1999999999999999800, 0.1300000000000000000 ) ) ;
#447 = MANIFOLD_SOLID_BREP ( 'LeadB2', #87 ) ;
#448 = DIRECTION ( 'NONE',  ( 0.0000000000000000000, 1.000000000000000000, 0.0000000000000000000 ) ) ;
#449 = VERTEX_POINT ( 'NONE', #211 ) ;
#450 =( GEOMETRIC_REPRESENTATION_CONTEXT ( 3 ) GLOBAL_UNCERTAINTY_ASSIGNED_CONTEXT ( ( #80 ) ) GLOBAL_UNIT_ASSIGNED_CONTEXT ( ( #378, #177, #227 ) ) REPRESENTATION_CONTEXT ( 'NONE', 'WORKASPACE' ) );
#451 = ORIENTED_EDGE ( 'NONE', *, *, #362, .T. ) ;
#452 = AXIS2_PLACEMENT_3D ( 'NONE', #598, #273, #537 ) ;
#453 = EDGE_LOOP ( 'NONE', ( #287, #313, #133 ) ) ;
#454 = ORIENTED_EDGE ( 'NONE', *, *, #135, .F. ) ;
#455 = DIRECTION ( 'NONE',  ( -1.000000000000000000, -2.058611719909185700E-016, 0.0000000000000000000 ) ) ;
#456 = VERTEX_POINT ( 'NONE', #165 ) ;
#457 = EDGE_LOOP ( 'NONE', ( #147, #369, #68 ) ) ;
#458 = DIRECTION ( 'NONE',  ( -1.000000000000000000, 1.224646799147353200E-016, 0.0000000000000000000 ) ) ;
#459 = FACE_OUTER_BOUND ( 'NONE', #33, .T. ) ;
#460 = ADVANCED_FACE ( 'NONE', ( #566 ), #473, .F. ) ;
#461 = EDGE_CURVE ( 'NONE', #210, #546, #550, .T. ) ;
#462 = EDGE_LOOP ( 'NONE', ( #454, #508 ) ) ;
#463 = VECTOR ( 'NONE', #328, 1000.000000000000000 ) ;
#464 = PLANE ( 'NONE',  #160 ) ;
#465 = MECHANICAL_DESIGN_GEOMETRIC_PRESENTATION_REPRESENTATION (  '', ( #410 ), #499 ) ;
#466 = CARTESIAN_POINT ( 'NONE',  ( -0.1999999999999999000, -0.09045548849896673000, 0.2000000000000000400 ) ) ;
#467 = APPLICATION_CONTEXT ( 'automotive_design' ) ;
#468 = DIRECTION ( 'NONE',  ( -1.000000000000000000, 0.0000000000000000000, 0.0000000000000000000 ) ) ;
#469 = ADVANCED_FACE ( 'NONE', ( #55 ), #513, .T. ) ;
#470 = SURFACE_STYLE_USAGE ( .BOTH. , #341 ) ;
#471 = DIRECTION ( 'NONE',  ( 1.000000000000000000, 0.0000000000000000000, 0.0000000000000000000 ) ) ;
#472 = DIRECTION ( 'NONE',  ( 1.000000000000000000, 0.0000000000000000000, 0.0000000000000000000 ) ) ;
#473 = PLANE ( 'NONE',  #21 ) ;
#474 = DIRECTION ( 'NONE',  ( 0.0000000000000000000, 0.0000000000000000000, 1.000000000000000000 ) ) ;
#475 = ORIENTED_EDGE ( 'NONE', *, *, #496, .T. ) ;
#476 = AXIS2_PLACEMENT_3D ( 'NONE', #192, #189, #408 ) ;
#477 = FACE_OUTER_BOUND ( 'NONE', #88, .T. ) ;
#478 = CARTESIAN_POINT ( 'NONE',  ( -0.3949999999999999600, -0.3950000000000000700, 0.2000000000000000100 ) ) ;
#479 = AXIS2_PLACEMENT_3D ( 'NONE', #316, #274, #199 ) ;
#480 = CARTESIAN_POINT ( 'NONE',  ( 0.0000000000000000000, 0.0000000000000000000, 0.0000000000000000000 ) ) ;
#481 = ORIENTED_EDGE ( 'NONE', *, *, #72, .F. ) ;
#482 = CIRCLE ( 'NONE', #544, 0.1095445115010332800 ) ;
#483 = CARTESIAN_POINT ( 'NONE',  ( -0.2450000000000000500, -0.09500000000000008400, 0.5000000000000000000 ) ) ;
#484 =( NAMED_UNIT ( * ) SI_UNIT ( $, .STERADIAN. ) SOLID_ANGLE_UNIT ( ) );
#485 =( NAMED_UNIT ( * ) PLANE_ANGLE_UNIT ( ) SI_UNIT ( $, .RADIAN. ) );
#486 = PLANE ( 'NONE',  #117 ) ;
#487 = PRESENTATION_STYLE_ASSIGNMENT (( #470 ) ) ;
#488 =( LENGTH_UNIT ( ) NAMED_UNIT ( * ) SI_UNIT ( .MILLI., .METRE. ) );
#489 = SURFACE_STYLE_USAGE ( .BOTH. , #490 ) ;
#490 = SURFACE_SIDE_STYLE ('',( #539 ) ) ;
#491 = EDGE_LOOP ( 'NONE', ( #258, #396 ) ) ;
#492 = LINE ( 'NONE', #306, #392 ) ;
#493 = VECTOR ( 'NONE', #39, 1000.000000000000000 ) ;
#494 = ORIENTED_EDGE ( 'NONE', *, *, #551, .T. ) ;
#495 = CIRCLE ( 'NONE', #507, 0.1095445115010332800 ) ;
#496 = EDGE_CURVE ( 'NONE', #367, #242, #534, .T. ) ;
#497 = AXIS2_PLACEMENT_3D ( 'NONE', #426, #574, #251 ) ;
#498 = SURFACE_SIDE_STYLE ('',( #247 ) ) ;
#499 =( GEOMETRIC_REPRESENTATION_CONTEXT ( 3 ) GLOBAL_UNCERTAINTY_ASSIGNED_CONTEXT ( ( #218 ) ) GLOBAL_UNIT_ASSIGNED_CONTEXT ( ( #581, #256, #520 ) ) REPRESENTATION_CONTEXT ( 'NONE', 'WORKASPACE' ) );
#500 = CARTESIAN_POINT ( 'NONE',  ( 0.2000000000000000100, 0.2000000000000000100, 0.2000000000000000400 ) ) ;
#501 = EDGE_LOOP ( 'NONE', ( #107, #41, #196, #494 ) ) ;
#502 = CARTESIAN_POINT ( 'NONE',  ( -0.3950000000000000700, 0.3950000000000000200, 0.5500000000000000400 ) ) ;
#503 = ORIENTED_EDGE ( 'NONE', *, *, #64, .F. ) ;
#504 = SHAPE_DEFINITION_REPRESENTATION ( #343, #320 ) ;
#505 = CIRCLE ( 'NONE', #113, 0.04999999999999999600 ) ;
#506 = CARTESIAN_POINT ( 'NONE',  ( -0.3950000000000000700, 0.3950000000000000200, 0.2000000000000000100 ) ) ;
#507 = AXIS2_PLACEMENT_3D ( 'NONE', #500, #151, #195 ) ;
#508 = ORIENTED_EDGE ( 'NONE', *, *, #528, .F. ) ;
#509 = AXIS2_PLACEMENT_3D ( 'NONE', #446, #222, #540 ) ;
#510 = DIRECTION ( 'NONE',  ( -1.000000000000000000, 0.0000000000000000000, 0.0000000000000000000 ) ) ;
#511 = FILL_AREA_STYLE ('',( #579 ) ) ;
#512 = PLANE ( 'NONE',  #397 ) ;
#513 = SPHERICAL_SURFACE ( 'NONE', #78, 0.1300000000000000000 ) ;
#514 = FILL_AREA_STYLE ('',( #588 ) ) ;
#515 = FILL_AREA_STYLE_COLOUR ( '', #368 ) ;
#516 = APPLICATION_CONTEXT ( 'automotive_design' ) ;
#517 = CARTESIAN_POINT ( 'NONE',  ( -0.1450000000000000500, -0.09500000000000008400, 0.5000000000000000000 ) ) ;
#518 = DIRECTION ( 'NONE',  ( -1.000000000000000000, 1.224646799147353200E-016, 0.0000000000000000000 ) ) ;
#519 = CIRCLE ( 'NONE', #138, 0.1300000000000000000 ) ;
#520 =( NAMED_UNIT ( * ) SI_UNIT ( $, .STERADIAN. ) SOLID_ANGLE_UNIT ( ) );
#521 = DIRECTION ( 'NONE',  ( -0.0000000000000000000, -0.0000000000000000000, 1.000000000000000000 ) ) ;
#522 = FILL_AREA_STYLE_COLOUR ( '', #123 ) ;
#523 = ORIENTED_EDGE ( 'NONE', *, *, #16, .T. ) ;
#524 = APPLICATION_PROTOCOL_DEFINITION ( 'draft international standard', 'automotive_design', 1998, #516 ) ;
#525 =( NAMED_UNIT ( * ) SI_UNIT ( $, .STERADIAN. ) SOLID_ANGLE_UNIT ( ) );
#526 = EDGE_CURVE ( 'NONE', #456, #242, #420, .T. ) ;
#527 = AXIS2_PLACEMENT_3D ( 'NONE', #480, #474, #472 ) ;
#528 = EDGE_CURVE ( 'NONE', #436, #186, #439, .T. ) ;
#529 = DIRECTION ( 'NONE',  ( -1.000000000000000000, 0.0000000000000000000, 0.0000000000000000000 ) ) ;
#530 = ORIENTED_EDGE ( 'NONE', *, *, #299, .F. ) ;
#531 = CARTESIAN_POINT ( 'NONE',  ( 0.2000000000000000900, -0.1999999999999999800, 0.0000000000000000000 ) ) ;
#532 = EDGE_LOOP ( 'NONE', ( #418, #100, #548, #475 ) ) ;
#533 = STYLED_ITEM ( 'NONE', ( #586 ), #237 ) ;
#534 = LINE ( 'NONE', #444, #409 ) ;
#535 = DIRECTION ( 'NONE',  ( -1.000000000000000000, 0.0000000000000000000, -0.0000000000000000000 ) ) ;
#536 =( NAMED_UNIT ( * ) SI_UNIT ( $, .STERADIAN. ) SOLID_ANGLE_UNIT ( ) );
#537 = DIRECTION ( 'NONE',  ( 0.0000000000000000000, 0.0000000000000000000, -1.000000000000000000 ) ) ;
#538 =( NAMED_UNIT ( * ) PLANE_ANGLE_UNIT ( ) SI_UNIT ( $, .RADIAN. ) );
#539 = SURFACE_STYLE_FILL_AREA ( #511 ) ;
#540 = DIRECTION ( 'NONE',  ( 0.0000000000000000000, 1.000000000000000000, 0.0000000000000000000 ) ) ;
#541 =( LENGTH_UNIT ( ) NAMED_UNIT ( * ) SI_UNIT ( .MILLI., .METRE. ) );
#542 = ORIENTED_EDGE ( 'NONE', *, *, #94, .F. ) ;
#543 = DIRECTION ( 'NONE',  ( 1.000000000000000000, 6.862039066363951400E-017, 0.0000000000000000000 ) ) ;
#544 = AXIS2_PLACEMENT_3D ( 'NONE', #220, #366, #20 ) ;
#545 = DIRECTION ( 'NONE',  ( 1.000000000000000000, 0.0000000000000000000, 0.0000000000000000000 ) ) ;
#546 = VERTEX_POINT ( 'NONE', #204 ) ;
#547 = AXIS2_PLACEMENT_3D ( 'NONE', #445, #137, #401 ) ;
#548 = ORIENTED_EDGE ( 'NONE', *, *, #132, .F. ) ;
#549 = CIRCLE ( 'NONE', #31, 0.1300000000000000000 ) ;
#550 = CIRCLE ( 'NONE', #572, 0.1300000000000000000 ) ;
#551 = EDGE_CURVE ( 'NONE', #433, #414, #183, .T. ) ;
#552 = ORIENTED_EDGE ( 'NONE', *, *, #203, .T. ) ;
#553 = PLANE ( 'NONE',  #228 ) ;
#554 = ADVANCED_FACE ( 'NONE', ( #200 ), #65, .F. ) ;
#555 = MANIFOLD_SOLID_BREP ( 'LeadA2', #102 ) ;
#556 = FACE_OUTER_BOUND ( 'NONE', #276, .T. ) ;
#557 = ADVANCED_FACE ( 'NONE', ( #296 ), #90, .T. ) ;
#558 = ADVANCED_FACE ( 'NONE', ( #3 ), #24, .T. ) ;
#559 = CARTESIAN_POINT ( 'NONE',  ( -0.1950000000000000600, -0.09500000000000008400, 0.5500000000000000400 ) ) ;
#560 = ORIENTED_EDGE ( 'NONE', *, *, #105, .T. ) ;
#561 = DIRECTION ( 'NONE',  ( 1.000000000000000000, 0.0000000000000000000, 0.0000000000000000000 ) ) ;
#562 = EDGE_CURVE ( 'NONE', #17, #416, #519, .T. ) ;
#563 = VERTEX_POINT ( 'NONE', #356 ) ;
#564 = PRODUCT_DEFINITION ( 'Î´Öª', '', #15, #97 ) ;
#565 = EDGE_CURVE ( 'NONE', #210, #180, #109, .T. ) ;
#566 = FACE_OUTER_BOUND ( 'NONE', #403, .T. ) ;
#567 = DIRECTION ( 'NONE',  ( 1.000000000000000000, 0.0000000000000000000, 0.0000000000000000000 ) ) ;
#568 = CIRCLE ( 'NONE', #547, 0.1095445115010333100 ) ;
#569 = AXIS2_PLACEMENT_3D ( 'NONE', #300, #162, #424 ) ;
#570 = ORIENTED_EDGE ( 'NONE', *, *, #119, .F. ) ;
#571 =( NAMED_UNIT ( * ) SI_UNIT ( $, .STERADIAN. ) SOLID_ANGLE_UNIT ( ) );
#572 = AXIS2_PLACEMENT_3D ( 'NONE', #52, #518, #382 ) ;
#573 = PRESENTATION_STYLE_ASSIGNMENT (( #489 ) ) ;
#574 = DIRECTION ( 'NONE',  ( 0.0000000000000000000, 0.0000000000000000000, -1.000000000000000000 ) ) ;
#575 = DIRECTION ( 'NONE',  ( 0.0000000000000000000, 1.000000000000000000, 0.0000000000000000000 ) ) ;
#576 = COLOUR_RGB ( '',0.0000000000000000000, 0.0000000000000000000, 1.000000000000000000 ) ;
#577 = DIRECTION ( 'NONE',  ( 0.0000000000000000000, 1.000000000000000000, 0.0000000000000000000 ) ) ;
#578 = SURFACE_STYLE_FILL_AREA ( #514 ) ;
#579 = FILL_AREA_STYLE_COLOUR ( '', #376 ) ;
#580 = EDGE_LOOP ( 'NONE', ( #388, #589, #333 ) ) ;
#581 =( LENGTH_UNIT ( ) NAMED_UNIT ( * ) SI_UNIT ( .MILLI., .METRE. ) );
#582 = PRODUCT_CONTEXT ( 'NONE', #516, 'mechanical' ) ;
#583 = DIRECTION ( 'NONE',  ( -1.000000000000000000, -6.862039066363952600E-017, 0.0000000000000000000 ) ) ;
#584 = CLOSED_SHELL ( 'NONE', ( #558, #171, #305 ) ) ;
#585 = ORIENTED_EDGE ( 'NONE', *, *, #526, .F. ) ;
#586 = PRESENTATION_STYLE_ASSIGNMENT (( #340 ) ) ;
#587 =( LENGTH_UNIT ( ) NAMED_UNIT ( * ) SI_UNIT ( .MILLI., .METRE. ) );
#588 = FILL_AREA_STYLE_COLOUR ( '', #400 ) ;
#589 = ORIENTED_EDGE ( 'NONE', *, *, #36, .T. ) ;
#590 = DIRECTION ( 'NONE',  ( 0.0000000000000000000, 0.0000000000000000000, 1.000000000000000000 ) ) ;
#591 = EDGE_LOOP ( 'NONE', ( #71, #373 ) ) ;
#592 = LINE ( 'NONE', #236, #118 ) ;
#593 = EDGE_CURVE ( 'NONE', #213, #186, #492, .T. ) ;
#594 = DIRECTION ( 'NONE',  ( 0.0000000000000000000, 0.0000000000000000000, -1.000000000000000000 ) ) ;
#595 = PLANE ( 'NONE',  #201 ) ;
#596 = CARTESIAN_POINT ( 'NONE',  ( -0.2000000000000000100, 0.2000000000000000400, 0.1300000000000000000 ) ) ;
#597 = DIRECTION ( 'NONE',  ( -0.0000000000000000000, -0.0000000000000000000, -1.000000000000000000 ) ) ;
#598 = CARTESIAN_POINT ( 'NONE',  ( 0.2000000000000000900, -0.1999999999999999800, 0.1300000000000000000 ) ) ;
ENDSEC;
END-ISO-10303-21;
